<svg width="246mm" height="163mm" viewBox="0 0 246 163" xmlns="http://www.w3.org/2000/svg" version="1.1" preserveAspectRatio="xMidYMid meet"><g id="svgGroup" stroke-linecap="round" fill-rule="evenodd" font-size="9pt" stroke="#000" stroke-width="0.25mm" fill="none" style="stroke:#000;stroke-width:0.25mm;fill:none"><path d="M 0 83 L 0 97.688 L 3 97.688 L 3 107.813 L 0 107.813 L 0 117.938 L 3 117.938 L 3 128.063 L 0 128.063 L 0 138.188 L 3 138.188 L 3 148.313 L 0 148.313 L 0 158.438 L 0 163 L 14.688 163 L 14.688 160 L 24.813 160 L 24.813 163 L 34.938 163 L 34.938 160 L 45.063 160 L 45.063 163 L 55.188 163 L 55.188 160 L 65.313 160 L 65.313 163 L 75.438 163 L 80 163 L 80 148.313 L 77 148.313 L 77 138.188 L 80 138.188 L 80 128.063 L 77 128.063 L 77 117.938 L 80 117.938 L 80 107.813 L 77 107.813 L 77 97.688 L 80 97.688 L 80 87.563 L 80 83 L 65.313 83 L 65.313 86 L 55.188 86 L 55.188 83 L 45.063 83 L 45.063 86 L 34.938 86 L 34.938 83 L 24.813 83 L 24.813 86 L 14.688 86 L 14.688 83 L 4.563 83 L 0 83 Z" id="front_outsideCutPath" stroke="#FF0000" stroke-width="0.1" style="stroke:#FF0000;stroke-width:0.1" vector-effect="non-scaling-stroke"/><path d="M 51.66 129.043 L 50.363 129.043 L 50.363 123.504 A 3.666 3.666 0 0 0 50.321 122.929 Q 50.273 122.626 50.17 122.385 A 1.543 1.543 0 0 0 49.887 121.941 A 1.462 1.462 0 0 0 49.287 121.559 Q 49.052 121.475 48.762 121.444 A 3.438 3.438 0 0 0 48.395 121.426 Q 47.509 121.426 46.936 121.741 A 1.828 1.828 0 0 0 46.426 122.152 A 2.12 2.12 0 0 0 46.057 122.796 Q 45.835 123.388 45.805 124.269 A 8.308 8.308 0 0 0 45.801 124.551 L 45.801 129.043 L 44.504 129.043 L 44.504 120.48 L 45.559 120.48 L 45.77 121.652 L 45.832 121.652 A 2.626 2.626 0 0 1 46.861 120.716 A 3.158 3.158 0 0 1 46.949 120.672 Q 47.668 120.324 48.551 120.324 Q 49.577 120.324 50.266 120.652 A 2.33 2.33 0 0 1 50.879 121.07 A 2.248 2.248 0 0 1 51.427 121.93 Q 51.558 122.284 51.615 122.723 A 5.66 5.66 0 0 1 51.66 123.457 L 51.66 129.043 Z M 26.746 120.48 L 26.746 121.488 L 24.566 121.488 L 24.566 129.043 L 23.27 129.043 L 23.27 121.488 L 21.738 121.488 L 21.738 120.902 L 23.27 120.433 L 23.27 119.957 A 5.256 5.256 0 0 1 23.392 118.766 Q 23.772 117.141 25.325 116.86 A 3.942 3.942 0 0 1 26.027 116.801 A 4.176 4.176 0 0 1 26.618 116.846 Q 27.078 116.912 27.621 117.074 L 27.285 118.113 Q 26.752 117.941 26.33 117.891 A 2.789 2.789 0 0 0 26.004 117.871 A 1.749 1.749 0 0 0 25.582 117.919 A 1.123 1.123 0 0 0 24.918 118.359 A 1.501 1.501 0 0 0 24.72 118.759 Q 24.566 119.214 24.566 119.926 L 24.566 120.48 L 26.746 120.48 Z M 58.262 127.972 L 58.262 128.965 A 1.276 1.276 0 0 1 58.11 129.025 Q 57.923 129.087 57.641 129.133 A 5.621 5.621 0 0 1 57.274 129.18 Q 57.101 129.197 56.946 129.199 A 3.325 3.325 0 0 1 56.902 129.199 A 3.387 3.387 0 0 1 55.904 129.065 Q 54.807 128.726 54.52 127.534 A 4.076 4.076 0 0 1 54.418 126.582 L 54.418 121.488 L 53.191 121.488 L 53.191 120.863 L 54.418 120.324 L 54.965 118.496 L 55.715 118.496 L 55.715 120.48 L 58.199 120.48 L 58.199 121.488 L 55.715 121.488 L 55.715 126.527 A 2.611 2.611 0 0 0 55.753 126.986 Q 55.832 127.433 56.082 127.715 Q 56.449 128.129 57.09 128.129 A 4.259 4.259 0 0 0 57.714 128.084 A 3.925 3.925 0 0 0 57.754 128.078 Q 58.06 128.029 58.244 127.977 A 1.951 1.951 0 0 0 58.262 127.972 Z M 33.238 120.418 L 33.059 121.621 A 5.716 5.716 0 0 0 32.648 121.545 Q 32.443 121.515 32.26 121.507 A 3.042 3.042 0 0 0 32.121 121.504 A 2.247 2.247 0 0 0 30.461 122.221 A 3.074 3.074 0 0 0 30.344 122.347 A 2.962 2.962 0 0 0 29.629 124.01 A 3.936 3.936 0 0 0 29.605 124.449 L 29.605 129.043 L 28.309 129.043 L 28.309 120.48 L 29.379 120.48 L 29.527 122.066 L 29.59 122.066 A 4.38 4.38 0 0 1 30.08 121.367 A 3.345 3.345 0 0 1 30.738 120.777 A 2.585 2.585 0 0 1 32.215 120.324 A 5.954 5.954 0 0 1 32.748 120.347 A 4.345 4.345 0 0 1 33.238 120.418 Z M 42.111 126.057 A 6.699 6.699 0 0 0 42.23 124.754 Q 42.23 123.921 42.054 123.23 A 4.038 4.038 0 0 0 41.172 121.519 A 3.395 3.395 0 0 0 39.596 120.503 A 4.358 4.358 0 0 0 38.316 120.324 A 5.037 5.037 0 0 0 37.412 120.402 A 3.43 3.43 0 0 0 35.41 121.492 Q 34.363 122.66 34.363 124.754 A 6.488 6.488 0 0 0 34.445 125.805 A 4.798 4.798 0 0 0 34.848 127.113 A 4.263 4.263 0 0 0 34.942 127.298 A 3.511 3.511 0 0 0 36.223 128.66 Q 37.113 129.199 38.262 129.199 A 5.036 5.036 0 0 0 39.141 129.126 A 3.457 3.457 0 0 0 41.176 128.023 A 3.618 3.618 0 0 0 41.607 127.431 Q 41.958 126.83 42.111 126.057 Z M 35.707 124.754 A 6.567 6.567 0 0 0 35.77 125.692 Q 35.91 126.66 36.363 127.254 Q 37.02 128.113 38.293 128.113 A 3.012 3.012 0 0 0 39.088 128.014 A 2.096 2.096 0 0 0 40.227 127.258 Q 40.887 126.402 40.887 124.754 A 6.471 6.471 0 0 0 40.825 123.832 Q 40.758 123.362 40.615 122.982 A 2.67 2.67 0 0 0 40.227 122.273 A 2.133 2.133 0 0 0 38.9 121.482 A 3.271 3.271 0 0 0 38.277 121.426 A 3.086 3.086 0 0 0 37.509 121.516 A 2.066 2.066 0 0 0 36.355 122.262 A 2.681 2.681 0 0 0 35.939 123.067 Q 35.816 123.437 35.758 123.89 A 6.853 6.853 0 0 0 35.707 124.754 Z" id="front_labelLayer" stroke="#777777" fill="#777777" style="stroke:#777777;fill:#777777" vector-effect="non-scaling-stroke"/><path d="M 86 83 L 86 97.688 L 83 97.688 L 83 107.813 L 86 107.813 L 86 117.938 L 83 117.938 L 83 128.063 L 86 128.063 L 86 138.188 L 83 138.188 L 83 148.313 L 86 148.313 L 86 158.438 L 86 163 L 97.688 163 L 97.688 160 L 107.813 160 L 107.813 163 L 117.938 163 L 117.938 160 L 128.063 160 L 128.063 163 L 138.188 163 L 138.188 160 L 148.313 160 L 148.313 163 L 158.438 163 L 160 163 L 160 148.313 L 163 148.313 L 163 138.188 L 160 138.188 L 160 128.063 L 163 128.063 L 163 117.938 L 160 117.938 L 160 107.813 L 163 107.813 L 163 97.688 L 160 97.688 L 160 87.563 L 160 83 L 148.313 83 L 148.313 86 L 138.188 86 L 138.188 83 L 128.063 83 L 128.063 86 L 117.938 86 L 117.938 83 L 107.813 83 L 107.813 86 L 97.688 86 L 97.688 83 L 87.563 83 L 86 83 Z" id="left_outsideCutPath" stroke="#FF0000" stroke-width="0.1" style="stroke:#FF0000;stroke-width:0.1" vector-effect="non-scaling-stroke"/><path d="M 128.691 120.48 L 128.691 121.488 L 126.512 121.488 L 126.512 129.043 L 125.215 129.043 L 125.215 121.488 L 123.684 121.488 L 123.684 120.902 L 125.215 120.433 L 125.215 119.957 A 5.256 5.256 0 0 1 125.338 118.766 Q 125.717 117.141 127.27 116.86 A 3.942 3.942 0 0 1 127.973 116.801 A 4.176 4.176 0 0 1 128.564 116.846 Q 129.024 116.912 129.566 117.074 L 129.23 118.113 Q 128.698 117.941 128.275 117.891 A 2.789 2.789 0 0 0 127.949 117.871 A 1.749 1.749 0 0 0 127.528 117.919 A 1.123 1.123 0 0 0 126.863 118.359 A 1.501 1.501 0 0 0 126.665 118.759 Q 126.512 119.214 126.512 119.926 L 126.512 120.48 L 128.691 120.48 Z M 122.621 124.176 L 122.621 124.996 L 116.723 124.996 A 5.205 5.205 0 0 0 116.814 125.867 Q 116.907 126.342 117.095 126.717 A 2.435 2.435 0 0 0 117.484 127.285 A 2.357 2.357 0 0 0 118.722 127.982 A 3.571 3.571 0 0 0 119.52 128.066 A 6.85 6.85 0 0 0 122.085 127.558 A 7.848 7.848 0 0 0 122.254 127.488 L 122.254 128.644 A 7.786 7.786 0 0 1 121.544 128.912 A 5.954 5.954 0 0 1 120.953 129.07 Q 120.34 129.199 119.473 129.199 A 5.04 5.04 0 0 1 118.212 129.05 A 3.568 3.568 0 0 1 116.477 128.043 Q 115.442 126.953 115.383 125.066 A 7.408 7.408 0 0 1 115.379 124.832 Q 115.379 122.762 116.398 121.543 A 3.323 3.323 0 0 1 118.821 120.335 A 4.585 4.585 0 0 1 119.137 120.324 A 3.951 3.951 0 0 1 120.249 120.473 A 3.006 3.006 0 0 1 121.684 121.383 Q 122.621 122.441 122.621 124.176 Z M 134.191 127.972 L 134.191 128.965 A 1.276 1.276 0 0 1 134.04 129.025 Q 133.852 129.087 133.57 129.133 A 5.621 5.621 0 0 1 133.204 129.18 Q 133.031 129.197 132.876 129.199 A 3.325 3.325 0 0 1 132.832 129.199 A 3.387 3.387 0 0 1 131.834 129.065 Q 130.737 128.726 130.449 127.534 A 4.076 4.076 0 0 1 130.348 126.582 L 130.348 121.488 L 129.121 121.488 L 129.121 120.863 L 130.348 120.324 L 130.895 118.496 L 131.645 118.496 L 131.645 120.48 L 134.129 120.48 L 134.129 121.488 L 131.645 121.488 L 131.645 126.527 A 2.611 2.611 0 0 0 131.682 126.986 Q 131.762 127.433 132.012 127.715 Q 132.379 128.129 133.02 128.129 A 4.259 4.259 0 0 0 133.643 128.084 A 3.925 3.925 0 0 0 133.684 128.078 Q 133.989 128.029 134.174 127.977 A 1.951 1.951 0 0 0 134.191 127.972 Z M 113.105 116.887 L 113.105 129.043 L 111.809 129.043 L 111.809 116.887 L 113.105 116.887 Z M 116.754 123.941 L 121.23 123.941 Q 121.23 122.715 120.684 122.062 A 1.777 1.777 0 0 0 119.614 121.453 A 2.665 2.665 0 0 0 119.121 121.41 A 2.556 2.556 0 0 0 118.383 121.511 A 1.975 1.975 0 0 0 117.477 122.082 Q 116.863 122.754 116.754 123.941 Z" id="left_labelLayer" stroke="#777777" fill="#777777" style="stroke:#777777;fill:#777777" vector-effect="non-scaling-stroke"/><path d="M 169 86 L 169 97.688 L 166 97.688 L 166 107.813 L 169 107.813 L 169 117.938 L 166 117.938 L 166 128.063 L 169 128.063 L 169 138.188 L 166 138.188 L 166 148.313 L 169 148.313 L 169 158.438 L 169 160 L 180.688 160 L 180.688 163 L 190.813 163 L 190.813 160 L 200.938 160 L 200.938 163 L 211.063 163 L 211.063 160 L 221.188 160 L 221.188 163 L 231.313 163 L 231.313 160 L 241.438 160 L 243 160 L 243 148.313 L 246 148.313 L 246 138.188 L 243 138.188 L 243 128.063 L 246 128.063 L 246 117.938 L 243 117.938 L 243 107.813 L 246 107.813 L 246 97.688 L 243 97.688 L 243 87.563 L 243 86 L 231.313 86 L 231.313 83 L 221.188 83 L 221.188 86 L 211.063 86 L 211.063 83 L 200.938 83 L 200.938 86 L 190.813 86 L 190.813 83 L 180.688 83 L 180.688 86 L 170.563 86 L 169 86 Z" id="top_outsideCutPath" stroke="#FF0000" stroke-width="0.1" style="stroke:#FF0000;stroke-width:0.1" vector-effect="non-scaling-stroke"/><path d="M 211.75 125.25 L 211.656 125.25 A 12.273 12.273 0 0 1 211.737 126.157 A 10.284 10.284 0 0 1 211.75 126.672 L 211.75 130.195 L 210.453 130.195 L 210.453 117.789 L 211.508 117.789 L 211.687 118.961 L 211.75 118.961 A 3.491 3.491 0 0 1 212.255 118.388 A 2.699 2.699 0 0 1 212.914 117.945 A 3.248 3.248 0 0 1 213.845 117.673 A 4.204 4.204 0 0 1 214.437 117.633 A 3.975 3.975 0 0 1 215.56 117.783 A 2.938 2.938 0 0 1 217.066 118.797 A 3.894 3.894 0 0 1 217.731 120.094 Q 217.902 120.653 217.961 121.326 A 8.445 8.445 0 0 1 217.992 122.062 Q 217.992 123.551 217.523 124.571 A 3.645 3.645 0 0 1 217.051 125.34 A 3.07 3.07 0 0 1 214.869 126.487 A 4.399 4.399 0 0 1 214.437 126.508 A 3.934 3.934 0 0 1 213.449 126.387 A 3.423 3.423 0 0 1 212.91 126.199 A 2.872 2.872 0 0 1 211.75 125.25 Z M 199.078 125.281 L 199.078 126.273 A 1.276 1.276 0 0 1 198.927 126.333 Q 198.739 126.396 198.457 126.441 A 5.621 5.621 0 0 1 198.09 126.489 Q 197.918 126.505 197.763 126.508 A 3.325 3.325 0 0 1 197.719 126.508 A 3.387 3.387 0 0 1 196.72 126.373 Q 195.623 126.035 195.336 124.843 A 4.076 4.076 0 0 1 195.234 123.891 L 195.234 118.797 L 194.008 118.797 L 194.008 118.172 L 195.234 117.633 L 195.781 115.805 L 196.531 115.805 L 196.531 117.789 L 199.016 117.789 L 199.016 118.797 L 196.531 118.797 L 196.531 123.836 A 2.611 2.611 0 0 0 196.569 124.295 Q 196.649 124.742 196.898 125.023 Q 197.266 125.438 197.906 125.438 A 4.259 4.259 0 0 0 198.53 125.393 A 3.925 3.925 0 0 0 198.57 125.387 Q 198.876 125.338 199.061 125.286 A 1.951 1.951 0 0 0 199.078 125.281 Z M 208.061 123.366 A 6.699 6.699 0 0 0 208.18 122.062 Q 208.18 121.23 208.003 120.538 A 4.038 4.038 0 0 0 207.121 118.828 A 3.395 3.395 0 0 0 205.545 117.812 A 4.358 4.358 0 0 0 204.266 117.633 A 5.037 5.037 0 0 0 203.361 117.71 A 3.43 3.43 0 0 0 201.359 118.801 Q 200.312 119.969 200.312 122.063 A 6.488 6.488 0 0 0 200.394 123.113 A 4.798 4.798 0 0 0 200.797 124.422 A 4.263 4.263 0 0 0 200.891 124.607 A 3.511 3.511 0 0 0 202.172 125.969 Q 203.062 126.508 204.211 126.508 A 5.036 5.036 0 0 0 205.09 126.434 A 3.457 3.457 0 0 0 207.125 125.332 A 3.618 3.618 0 0 0 207.556 124.74 Q 207.907 124.139 208.061 123.366 Z M 201.656 122.063 A 6.567 6.567 0 0 0 201.719 123.001 Q 201.859 123.968 202.312 124.563 Q 202.969 125.422 204.242 125.422 A 3.012 3.012 0 0 0 205.037 125.323 A 2.096 2.096 0 0 0 206.176 124.566 Q 206.836 123.711 206.836 122.063 A 6.471 6.471 0 0 0 206.775 121.14 Q 206.707 120.671 206.564 120.291 A 2.67 2.67 0 0 0 206.176 119.582 A 2.133 2.133 0 0 0 204.849 118.791 A 3.271 3.271 0 0 0 204.226 118.734 A 3.086 3.086 0 0 0 203.458 118.824 A 2.066 2.066 0 0 0 202.305 119.57 A 2.681 2.681 0 0 0 201.888 120.376 Q 201.765 120.746 201.707 121.199 A 6.853 6.853 0 0 0 201.656 122.062 Z M 211.75 121.773 L 211.75 122.063 Q 211.75 123.595 212.184 124.387 A 1.956 1.956 0 0 0 212.351 124.645 Q 212.953 125.422 214.281 125.422 Q 215.391 125.422 216.019 124.523 A 3.136 3.136 0 0 0 216.449 123.607 Q 216.648 122.935 216.648 122.047 A 6.544 6.544 0 0 0 216.587 121.119 Q 216.519 120.648 216.378 120.266 A 2.749 2.749 0 0 0 216.019 119.59 A 2.017 2.017 0 0 0 214.544 118.749 A 2.79 2.79 0 0 0 214.25 118.734 A 3.737 3.737 0 0 0 213.552 118.795 Q 212.768 118.944 212.351 119.461 A 2.222 2.222 0 0 0 212.004 120.094 Q 211.76 120.757 211.75 121.773 Z" id="top_labelLayer" stroke="#777777" fill="#777777" style="stroke:#777777;fill:#777777" vector-effect="non-scaling-stroke"/><path d="M 0 0 L 0 14.688 L 3 14.688 L 3 24.813 L 0 24.813 L 0 34.938 L 3 34.938 L 3 45.063 L 0 45.063 L 0 55.188 L 3 55.188 L 3 65.313 L 0 65.313 L 0 75.438 L 0 80 L 14.688 80 L 14.688 77 L 24.813 77 L 24.813 80 L 34.938 80 L 34.938 77 L 45.063 77 L 45.063 80 L 55.188 80 L 55.188 77 L 65.313 77 L 65.313 80 L 75.438 80 L 80 80 L 80 65.313 L 77 65.313 L 77 55.188 L 80 55.188 L 80 45.063 L 77 45.063 L 77 34.938 L 80 34.938 L 80 24.813 L 77 24.813 L 77 14.688 L 80 14.688 L 80 4.563 L 80 0 L 65.313 0 L 65.313 3 L 55.188 3 L 55.188 0 L 45.063 0 L 45.063 3 L 34.938 3 L 34.938 0 L 24.813 0 L 24.813 3 L 14.688 3 L 14.688 0 L 4.563 0 L 0 0 Z" id="back_outsideCutPath" stroke="#FF0000" stroke-width="0.1" style="stroke:#FF0000;stroke-width:0.1" vector-effect="non-scaling-stroke"/><path d="M 50.953 41.617 L 51.016 41.617 Q 51.273 41.252 51.736 40.713 A 27.864 27.864 0 0 1 52.039 40.367 L 54.805 37.437 L 56.344 37.437 L 52.875 41.086 L 56.586 46 L 55.016 46 L 51.992 41.953 L 51.016 42.797 L 51.016 46 L 49.734 46 L 49.734 33.844 L 51.016 33.844 L 51.016 40.289 Q 51.016 40.719 50.953 41.617 Z M 24.711 44.898 L 24.617 44.898 L 24.344 46 L 23.414 46 L 23.414 33.844 L 24.711 33.844 L 24.711 36.797 A 27.039 27.039 0 0 1 24.696 37.71 Q 24.681 38.171 24.648 38.578 L 24.711 38.578 A 2.949 2.949 0 0 1 26.863 37.328 A 4.429 4.429 0 0 1 27.398 37.297 A 3.964 3.964 0 0 1 28.514 37.446 A 2.967 2.967 0 0 1 30.02 38.449 Q 30.953 39.601 30.953 41.711 Q 30.953 43.199 30.484 44.219 A 3.645 3.645 0 0 1 30.012 44.988 A 3.07 3.07 0 0 1 27.83 46.136 A 4.399 4.399 0 0 1 27.398 46.156 A 3.934 3.934 0 0 1 26.41 46.036 A 3.423 3.423 0 0 1 25.871 45.848 A 2.872 2.872 0 0 1 24.711 44.898 Z M 39.445 46 L 38.484 46 L 38.227 44.781 L 38.164 44.781 Q 37.523 45.586 36.887 45.871 Q 36.25 46.156 35.297 46.156 Q 34.023 46.156 33.301 45.5 A 2.132 2.132 0 0 1 32.658 44.376 A 3.263 3.263 0 0 1 32.578 43.633 A 2.244 2.244 0 0 1 33.855 41.515 Q 34.805 41.009 36.463 40.925 A 12.668 12.668 0 0 1 36.727 40.914 L 38.18 40.867 L 38.18 40.336 Q 38.18 39.72 38.018 39.301 A 1.447 1.447 0 0 0 37.746 38.848 Q 37.313 38.367 36.359 38.367 A 4.222 4.222 0 0 0 35.388 38.488 Q 34.942 38.594 34.457 38.791 A 8.685 8.685 0 0 0 33.938 39.023 L 33.539 38.031 A 5.979 5.979 0 0 1 34.693 37.557 A 6.806 6.806 0 0 1 34.926 37.492 A 6.006 6.006 0 0 1 36.438 37.297 Q 37.395 37.297 38.043 37.563 A 2.207 2.207 0 0 1 38.707 37.976 A 2.054 2.054 0 0 1 39.237 38.794 Q 39.361 39.13 39.411 39.547 A 5.103 5.103 0 0 1 39.445 40.156 L 39.445 46 Z M 47.828 37.726 L 47.43 38.828 Q 47 38.656 46.492 38.543 A 5.357 5.357 0 0 0 46.085 38.467 Q 45.886 38.439 45.709 38.432 A 2.875 2.875 0 0 0 45.594 38.43 A 2.877 2.877 0 0 0 44.426 38.649 Q 43.201 39.189 43.017 41.055 A 7.166 7.166 0 0 0 42.984 41.758 A 6.281 6.281 0 0 0 43.047 42.672 Q 43.115 43.136 43.259 43.513 A 2.69 2.69 0 0 0 43.621 44.18 A 2.06 2.06 0 0 0 44.956 44.977 A 3.138 3.138 0 0 0 45.508 45.023 A 5.429 5.429 0 0 0 47.005 44.805 A 6.703 6.703 0 0 0 47.703 44.562 L 47.703 45.711 A 3.689 3.689 0 0 1 46.801 46.03 Q 46.233 46.156 45.539 46.156 A 4.847 4.847 0 0 1 44.36 46.021 A 3.287 3.287 0 0 1 42.66 45.012 Q 41.78 44.023 41.66 42.326 A 7.842 7.842 0 0 1 41.641 41.773 A 7.156 7.156 0 0 1 41.751 40.472 Q 41.886 39.746 42.183 39.174 A 3.575 3.575 0 0 1 42.676 38.453 A 3.358 3.358 0 0 1 44.515 37.396 A 5.091 5.091 0 0 1 45.625 37.281 A 5.852 5.852 0 0 1 46.859 37.414 A 6.473 6.473 0 0 1 47.219 37.502 Q 47.586 37.603 47.828 37.726 Z M 25.798 38.705 A 1.725 1.725 0 0 0 25.297 39.144 A 2.22 2.22 0 0 0 24.975 39.757 Q 24.759 40.364 24.72 41.288 A 9.992 9.992 0 0 0 24.711 41.711 Q 24.711 43.244 25.145 44.035 A 1.956 1.956 0 0 0 25.313 44.293 Q 25.914 45.07 27.242 45.07 Q 28.438 45.07 29.023 44.199 A 2.977 2.977 0 0 0 29.392 43.402 Q 29.609 42.69 29.609 41.695 A 7.662 7.662 0 0 0 29.563 40.822 Q 29.453 39.867 29.083 39.291 A 2.151 2.151 0 0 0 29.023 39.203 A 1.891 1.891 0 0 0 27.819 38.441 A 2.999 2.999 0 0 0 27.211 38.383 Q 26.348 38.383 25.798 38.705 Z M 38.148 42.562 L 38.148 41.789 L 36.852 41.844 A 9.522 9.522 0 0 0 36.091 41.899 Q 35.34 41.986 34.87 42.194 A 1.992 1.992 0 0 0 34.621 42.324 A 1.384 1.384 0 0 0 33.962 43.328 A 2.048 2.048 0 0 0 33.937 43.648 Q 33.938 44.351 34.363 44.719 Q 34.789 45.086 35.555 45.086 A 3.571 3.571 0 0 0 36.326 45.007 Q 36.863 44.889 37.26 44.59 A 2.165 2.165 0 0 0 37.457 44.422 Q 38.145 43.761 38.148 42.576 A 4.13 4.13 0 0 0 38.148 42.562 Z" id="back_labelLayer" stroke="#777777" fill="#777777" style="stroke:#777777;fill:#777777" vector-effect="non-scaling-stroke"/><path d="M 86 0 L 86 14.688 L 83 14.688 L 83 24.813 L 86 24.813 L 86 34.938 L 83 34.938 L 83 45.063 L 86 45.063 L 86 55.188 L 83 55.188 L 83 65.313 L 86 65.313 L 86 75.438 L 86 80 L 97.688 80 L 97.688 77 L 107.813 77 L 107.813 80 L 117.938 80 L 117.938 77 L 128.063 77 L 128.063 80 L 138.188 80 L 138.188 77 L 148.313 77 L 148.313 80 L 158.438 80 L 160 80 L 160 65.313 L 163 65.313 L 163 55.188 L 160 55.188 L 160 45.063 L 163 45.063 L 163 34.938 L 160 34.938 L 160 24.813 L 163 24.813 L 163 14.688 L 160 14.688 L 160 4.563 L 160 0 L 148.313 0 L 148.313 3 L 138.188 3 L 138.188 0 L 128.063 0 L 128.063 3 L 117.938 3 L 117.938 0 L 107.813 0 L 107.813 3 L 97.688 3 L 97.688 0 L 87.563 0 L 86 0 Z" id="right_outsideCutPath" stroke="#FF0000" stroke-width="0.1" style="stroke:#FF0000;stroke-width:0.1" vector-effect="non-scaling-stroke"/><path d="M 132.949 44.156 L 131.652 44.156 L 131.652 38.617 A 3.666 3.666 0 0 0 131.61 38.042 Q 131.562 37.74 131.459 37.498 A 1.543 1.543 0 0 0 131.176 37.055 A 1.462 1.462 0 0 0 130.576 36.672 Q 130.341 36.589 130.051 36.558 A 3.438 3.438 0 0 0 129.684 36.539 A 3.925 3.925 0 0 0 128.95 36.603 Q 128.543 36.68 128.23 36.852 A 1.816 1.816 0 0 0 127.711 37.273 A 2.158 2.158 0 0 0 127.345 37.922 Q 127.124 38.517 127.094 39.4 A 8.37 8.37 0 0 0 127.09 39.68 L 127.09 44.156 L 125.793 44.156 L 125.793 32 L 127.09 32 L 127.09 35.68 A 11.666 11.666 0 0 1 127.082 36.128 Q 127.067 36.501 127.027 36.781 L 127.105 36.781 A 2.591 2.591 0 0 1 128.013 35.908 A 3.165 3.165 0 0 1 128.195 35.809 A 3.329 3.329 0 0 1 129.288 35.484 A 4.209 4.209 0 0 1 129.809 35.453 Q 131.379 35.453 132.164 36.199 Q 132.774 36.779 132.91 37.889 A 5.608 5.608 0 0 1 132.949 38.57 L 132.949 44.156 Z M 121.074 35.594 L 124.035 35.594 L 124.035 36.414 L 122.449 36.602 A 2.108 2.108 0 0 1 122.632 36.873 Q 122.712 37.013 122.784 37.181 A 3.998 3.998 0 0 1 122.84 37.316 A 2.495 2.495 0 0 1 122.988 37.912 A 3.204 3.204 0 0 1 123.012 38.312 A 2.973 2.973 0 0 1 122.875 39.234 A 2.405 2.405 0 0 1 122.152 40.32 Q 121.378 40.996 120.084 41.063 A 5.633 5.633 0 0 1 119.793 41.07 A 4.168 4.168 0 0 1 119.311 41.043 A 3.52 3.52 0 0 1 119.074 41.008 A 2.308 2.308 0 0 0 118.702 41.248 Q 118.51 41.404 118.399 41.581 A 0.976 0.976 0 0 0 118.246 42.109 Q 118.246 42.461 118.535 42.629 A 0.91 0.91 0 0 0 118.737 42.712 Q 118.948 42.774 119.27 42.79 A 4.933 4.933 0 0 0 119.527 42.797 L 121.043 42.797 A 5.309 5.309 0 0 1 121.849 42.854 Q 122.271 42.919 122.611 43.057 A 2.344 2.344 0 0 1 123.18 43.383 A 1.897 1.897 0 0 1 123.885 44.591 A 2.85 2.85 0 0 1 123.926 45.086 A 2.808 2.808 0 0 1 123.765 46.057 Q 123.498 46.788 122.785 47.254 A 3.889 3.889 0 0 1 121.782 47.709 Q 121.288 47.859 120.686 47.932 A 10.279 10.279 0 0 1 119.457 48 Q 117.777 48 116.867 47.375 Q 116.016 46.79 115.961 45.755 A 2.739 2.739 0 0 1 115.957 45.609 Q 115.957 44.828 116.457 44.258 A 2.265 2.265 0 0 1 117.235 43.691 A 3.21 3.21 0 0 1 117.863 43.484 A 1.346 1.346 0 0 1 117.341 43.062 A 1.598 1.598 0 0 1 117.312 43.023 A 1.202 1.202 0 0 1 117.092 42.374 A 1.489 1.489 0 0 1 117.09 42.297 A 1.483 1.483 0 0 1 117.165 41.819 A 1.314 1.314 0 0 1 117.34 41.477 A 1.856 1.856 0 0 1 117.585 41.2 Q 117.715 41.078 117.883 40.959 A 4.074 4.074 0 0 1 118.129 40.797 A 2.274 2.274 0 0 1 117.141 40.006 A 2.818 2.818 0 0 1 117.047 39.867 A 2.681 2.681 0 0 1 116.635 38.575 A 3.272 3.272 0 0 1 116.629 38.367 Q 116.629 36.961 117.473 36.199 A 2.754 2.754 0 0 1 118.53 35.616 Q 118.95 35.488 119.455 35.452 A 5.728 5.728 0 0 1 119.863 35.437 A 4.971 4.971 0 0 1 120.521 35.479 A 3.786 3.786 0 0 1 121.074 35.594 Z M 139.551 43.086 L 139.551 44.078 A 1.276 1.276 0 0 1 139.399 44.138 Q 139.212 44.2 138.93 44.246 A 5.621 5.621 0 0 1 138.563 44.294 Q 138.39 44.31 138.235 44.312 A 3.325 3.325 0 0 1 138.191 44.312 A 3.387 3.387 0 0 1 137.193 44.178 Q 136.096 43.84 135.809 42.648 A 4.076 4.076 0 0 1 135.707 41.695 L 135.707 36.602 L 134.48 36.602 L 134.48 35.977 L 135.707 35.437 L 136.254 33.609 L 137.004 33.609 L 137.004 35.594 L 139.488 35.594 L 139.488 36.602 L 137.004 36.602 L 137.004 41.641 A 2.611 2.611 0 0 0 137.042 42.099 Q 137.122 42.547 137.371 42.828 Q 137.738 43.242 138.379 43.242 A 4.259 4.259 0 0 0 139.003 43.198 A 3.925 3.925 0 0 0 139.043 43.191 Q 139.349 43.143 139.533 43.091 A 1.951 1.951 0 0 0 139.551 43.086 Z M 111.379 35.531 L 111.199 36.734 A 5.716 5.716 0 0 0 110.788 36.658 Q 110.583 36.629 110.401 36.62 A 3.042 3.042 0 0 0 110.262 36.617 A 2.247 2.247 0 0 0 108.602 37.334 A 3.074 3.074 0 0 0 108.484 37.461 A 2.962 2.962 0 0 0 107.77 39.124 A 3.936 3.936 0 0 0 107.746 39.562 L 107.746 44.156 L 106.449 44.156 L 106.449 35.594 L 107.52 35.594 L 107.668 37.18 L 107.73 37.18 A 4.38 4.38 0 0 1 108.22 36.48 A 3.345 3.345 0 0 1 108.879 35.891 A 2.585 2.585 0 0 1 110.355 35.437 A 5.954 5.954 0 0 1 110.888 35.46 A 4.345 4.345 0 0 1 111.379 35.531 Z M 114.277 35.594 L 114.277 44.156 L 112.98 44.156 L 112.98 35.594 L 114.277 35.594 Z M 120.629 43.961 L 119.074 43.961 Q 118.191 43.961 117.699 44.383 A 1.367 1.367 0 0 0 117.25 45.158 A 2.075 2.075 0 0 0 117.207 45.594 A 1.302 1.302 0 0 0 117.293 46.077 Q 117.416 46.388 117.717 46.598 A 1.522 1.522 0 0 0 117.793 46.648 Q 118.379 47.008 119.473 47.008 Q 121.105 47.008 121.891 46.519 A 1.892 1.892 0 0 0 122.33 46.152 A 1.418 1.418 0 0 0 122.676 45.195 A 1.755 1.755 0 0 0 122.644 44.847 Q 122.603 44.646 122.511 44.497 A 0.817 0.817 0 0 0 122.246 44.23 Q 121.919 44.025 121.152 43.976 A 8.252 8.252 0 0 0 120.629 43.961 Z M 117.91 38.336 A 2.531 2.531 0 0 0 117.962 38.867 Q 118.073 39.382 118.418 39.695 Q 118.875 40.111 119.656 40.152 A 3.339 3.339 0 0 0 119.832 40.156 A 2.825 2.825 0 0 0 120.572 40.068 Q 121.418 39.838 121.646 39.007 A 2.627 2.627 0 0 0 121.73 38.312 A 2.789 2.789 0 0 0 121.635 37.549 Q 121.303 36.383 119.809 36.383 A 2.721 2.721 0 0 0 119.254 36.436 Q 118.914 36.507 118.655 36.672 A 1.493 1.493 0 0 0 118.402 36.875 A 1.556 1.556 0 0 0 118.026 37.509 Q 117.91 37.867 117.91 38.336 Z M 113.09 32.621 A 0.607 0.607 0 0 0 112.956 32.811 Q 112.871 32.996 112.871 33.273 A 1.531 1.531 0 0 0 112.878 33.42 Q 112.909 33.749 113.09 33.926 A 0.728 0.728 0 0 0 113.353 34.093 A 0.824 0.824 0 0 0 113.637 34.141 A 0.757 0.757 0 0 0 114.176 33.926 Q 114.402 33.711 114.402 33.273 A 1.484 1.484 0 0 0 114.396 33.133 Q 114.364 32.8 114.176 32.625 A 0.764 0.764 0 0 0 113.637 32.414 A 0.99 0.99 0 0 0 113.571 32.416 A 0.75 0.75 0 0 0 113.09 32.621 Z" id="right_labelLayer" stroke="#777777" fill="#777777" style="stroke:#777777;fill:#777777" vector-effect="non-scaling-stroke"/><path d="M 169 3 L 169 14.688 L 166 14.688 L 166 24.813 L 169 24.813 L 169 34.938 L 166 34.938 L 166 45.063 L 169 45.063 L 169 55.188 L 166 55.188 L 166 65.313 L 169 65.313 L 169 75.438 L 169 77 L 180.688 77 L 180.688 80 L 190.813 80 L 190.813 77 L 200.938 77 L 200.938 80 L 211.063 80 L 211.063 77 L 221.188 77 L 221.188 80 L 231.313 80 L 231.313 77 L 241.438 77 L 243 77 L 243 65.313 L 246 65.313 L 246 55.188 L 243 55.188 L 243 45.063 L 246 45.063 L 246 34.938 L 243 34.938 L 243 24.813 L 246 24.813 L 246 14.688 L 243 14.688 L 243 4.563 L 243 3 L 231.313 3 L 231.313 0 L 221.188 0 L 221.188 3 L 211.063 3 L 211.063 0 L 200.938 0 L 200.938 3 L 190.813 3 L 190.813 0 L 180.688 0 L 180.688 3 L 170.563 3 L 169 3 Z" id="bottom_outsideCutPath" stroke="#FF0000" stroke-width="0.1" style="stroke:#FF0000;stroke-width:0.1" vector-effect="non-scaling-stroke"/><path d="M 232.32 46 L 231.023 46 L 231.023 40.429 Q 231.023 39.788 230.852 39.348 A 1.567 1.567 0 0 0 230.586 38.894 A 1.365 1.365 0 0 0 229.952 38.484 Q 229.725 38.411 229.45 38.391 A 3.01 3.01 0 0 0 229.227 38.383 A 3.337 3.337 0 0 0 228.547 38.447 Q 228.144 38.531 227.839 38.725 A 1.717 1.717 0 0 0 227.437 39.078 A 2.143 2.143 0 0 0 227.074 39.736 Q 226.861 40.333 226.859 41.205 A 7.141 7.141 0 0 0 226.859 41.219 L 226.859 46 L 225.562 46 L 225.562 40.429 Q 225.562 39.788 225.391 39.348 A 1.567 1.567 0 0 0 225.125 38.894 Q 224.746 38.451 223.999 38.392 A 3.037 3.037 0 0 0 223.758 38.383 A 3.221 3.221 0 0 0 223.092 38.447 Q 222.371 38.599 221.973 39.113 A 2.175 2.175 0 0 0 221.65 39.726 Q 221.441 40.317 221.411 41.204 A 9.03 9.03 0 0 0 221.406 41.508 L 221.406 46 L 220.109 46 L 220.109 37.437 L 221.164 37.437 L 221.375 38.609 L 221.437 38.609 A 2.549 2.549 0 0 1 222.473 37.633 A 3.079 3.079 0 0 1 223.689 37.291 A 3.719 3.719 0 0 1 223.969 37.281 A 4.246 4.246 0 0 1 224.924 37.381 Q 225.512 37.517 225.922 37.838 A 2.214 2.214 0 0 1 226.594 38.734 L 226.656 38.734 A 2.708 2.708 0 0 1 227.676 37.722 A 3.254 3.254 0 0 1 227.766 37.672 A 3.282 3.282 0 0 1 228.97 37.305 A 4.093 4.093 0 0 1 229.422 37.281 A 4.508 4.508 0 0 1 230.24 37.35 Q 230.694 37.434 231.049 37.62 A 2.137 2.137 0 0 1 231.598 38.027 Q 232.124 38.57 232.267 39.588 A 5.948 5.948 0 0 1 232.32 40.414 L 232.32 46 Z M 180.977 44.898 L 180.883 44.898 L 180.609 46 L 179.68 46 L 179.68 33.844 L 180.977 33.844 L 180.977 36.797 A 27.039 27.039 0 0 1 180.962 37.71 Q 180.946 38.171 180.914 38.578 L 180.977 38.578 A 2.949 2.949 0 0 1 183.129 37.328 A 4.429 4.429 0 0 1 183.664 37.297 A 3.964 3.964 0 0 1 184.78 37.445 A 2.967 2.967 0 0 1 186.285 38.449 Q 187.219 39.601 187.219 41.711 Q 187.219 43.199 186.75 44.219 A 3.645 3.645 0 0 1 186.277 44.988 A 3.07 3.07 0 0 1 184.095 46.135 A 4.399 4.399 0 0 1 183.664 46.156 A 3.934 3.934 0 0 1 182.676 46.036 A 3.423 3.423 0 0 1 182.137 45.847 A 2.872 2.872 0 0 1 180.977 44.898 Z M 203.086 44.929 L 203.086 45.922 A 1.276 1.276 0 0 1 202.935 45.982 Q 202.747 46.044 202.465 46.09 A 5.621 5.621 0 0 1 202.098 46.137 Q 201.926 46.154 201.77 46.156 A 3.325 3.325 0 0 1 201.727 46.156 A 3.387 3.387 0 0 1 200.728 46.022 Q 199.631 45.683 199.344 44.491 A 4.076 4.076 0 0 1 199.242 43.539 L 199.242 38.445 L 198.016 38.445 L 198.016 37.82 L 199.242 37.281 L 199.789 35.453 L 200.539 35.453 L 200.539 37.437 L 203.023 37.437 L 203.023 38.445 L 200.539 38.445 L 200.539 43.484 A 2.611 2.611 0 0 0 200.577 43.943 Q 200.657 44.39 200.906 44.672 Q 201.273 45.086 201.914 45.086 A 4.259 4.259 0 0 0 202.538 45.041 A 3.925 3.925 0 0 0 202.578 45.035 Q 202.884 44.986 203.069 44.934 A 1.951 1.951 0 0 0 203.086 44.929 Z M 208.734 44.929 L 208.734 45.922 A 1.276 1.276 0 0 1 208.583 45.982 Q 208.395 46.044 208.113 46.09 A 5.621 5.621 0 0 1 207.747 46.137 Q 207.574 46.154 207.419 46.156 A 3.325 3.325 0 0 1 207.375 46.156 A 3.387 3.387 0 0 1 206.377 46.022 Q 205.28 45.683 204.992 44.491 A 4.076 4.076 0 0 1 204.891 43.539 L 204.891 38.445 L 203.664 38.445 L 203.664 37.82 L 204.891 37.281 L 205.437 35.453 L 206.187 35.453 L 206.187 37.437 L 208.672 37.437 L 208.672 38.445 L 206.187 38.445 L 206.187 43.484 A 2.611 2.611 0 0 0 206.225 43.943 Q 206.305 44.39 206.555 44.672 Q 206.922 45.086 207.562 45.086 A 4.259 4.259 0 0 0 208.186 45.041 A 3.925 3.925 0 0 0 208.227 45.035 Q 208.532 44.986 208.717 44.934 A 1.951 1.951 0 0 0 208.734 44.929 Z M 196.756 43.014 A 6.699 6.699 0 0 0 196.875 41.711 Q 196.875 40.878 196.699 40.187 A 4.038 4.038 0 0 0 195.816 38.476 A 3.395 3.395 0 0 0 194.24 37.46 A 4.358 4.358 0 0 0 192.961 37.281 A 5.037 5.037 0 0 0 192.056 37.359 A 3.43 3.43 0 0 0 190.055 38.449 Q 189.008 39.617 189.008 41.711 A 6.488 6.488 0 0 0 189.089 42.762 A 4.798 4.798 0 0 0 189.492 44.07 A 4.263 4.263 0 0 0 189.587 44.255 A 3.511 3.511 0 0 0 190.867 45.617 Q 191.758 46.156 192.906 46.156 A 5.036 5.036 0 0 0 193.786 46.083 A 3.457 3.457 0 0 0 195.82 44.98 A 3.618 3.618 0 0 0 196.251 44.388 Q 196.602 43.787 196.756 43.014 Z M 217.717 43.014 A 6.699 6.699 0 0 0 217.836 41.711 Q 217.836 40.878 217.66 40.187 A 4.038 4.038 0 0 0 216.777 38.476 A 3.395 3.395 0 0 0 215.201 37.46 A 4.358 4.358 0 0 0 213.922 37.281 A 5.037 5.037 0 0 0 213.017 37.359 A 3.43 3.43 0 0 0 211.016 38.449 Q 209.969 39.617 209.969 41.711 A 6.488 6.488 0 0 0 210.05 42.762 A 4.798 4.798 0 0 0 210.453 44.07 A 4.263 4.263 0 0 0 210.547 44.255 A 3.511 3.511 0 0 0 211.828 45.617 Q 212.719 46.156 213.867 46.156 A 5.036 5.036 0 0 0 214.747 46.083 A 3.457 3.457 0 0 0 216.781 44.98 A 3.618 3.618 0 0 0 217.212 44.388 Q 217.563 43.787 217.717 43.014 Z M 190.352 41.711 A 6.567 6.567 0 0 0 190.414 42.649 Q 190.554 43.617 191.008 44.211 Q 191.664 45.07 192.937 45.07 A 3.012 3.012 0 0 0 193.732 44.971 A 2.096 2.096 0 0 0 194.871 44.215 Q 195.531 43.359 195.531 41.711 A 6.471 6.471 0 0 0 195.47 40.789 Q 195.402 40.319 195.26 39.939 A 2.67 2.67 0 0 0 194.871 39.23 A 2.133 2.133 0 0 0 193.545 38.439 A 3.271 3.271 0 0 0 192.922 38.383 A 3.086 3.086 0 0 0 192.153 38.473 A 2.066 2.066 0 0 0 191 39.219 A 2.681 2.681 0 0 0 190.583 40.024 Q 190.46 40.394 190.402 40.847 A 6.853 6.853 0 0 0 190.352 41.711 Z M 211.312 41.711 A 6.567 6.567 0 0 0 211.375 42.649 Q 211.515 43.617 211.969 44.211 Q 212.625 45.07 213.898 45.07 A 3.012 3.012 0 0 0 214.693 44.971 A 2.096 2.096 0 0 0 215.832 44.215 Q 216.492 43.359 216.492 41.711 A 6.471 6.471 0 0 0 216.431 40.789 Q 216.363 40.319 216.22 39.939 A 2.67 2.67 0 0 0 215.832 39.23 A 2.133 2.133 0 0 0 214.506 38.439 A 3.271 3.271 0 0 0 213.883 38.383 A 3.086 3.086 0 0 0 213.114 38.473 A 2.066 2.066 0 0 0 211.961 39.219 A 2.681 2.681 0 0 0 211.544 40.024 Q 211.421 40.394 211.363 40.847 A 6.853 6.853 0 0 0 211.312 41.711 Z M 182.063 38.705 A 1.725 1.725 0 0 0 181.562 39.144 A 2.22 2.22 0 0 0 181.241 39.756 Q 181.024 40.364 180.985 41.288 A 9.992 9.992 0 0 0 180.977 41.711 Q 180.977 43.244 181.411 44.035 A 1.956 1.956 0 0 0 181.578 44.293 Q 182.18 45.07 183.508 45.07 Q 184.703 45.07 185.289 44.199 A 2.977 2.977 0 0 0 185.657 43.402 Q 185.875 42.69 185.875 41.695 A 7.662 7.662 0 0 0 185.829 40.822 Q 185.719 39.867 185.348 39.291 A 2.151 2.151 0 0 0 185.289 39.203 A 1.891 1.891 0 0 0 184.085 38.441 A 2.999 2.999 0 0 0 183.477 38.383 Q 182.613 38.383 182.063 38.705 Z" id="bottom_labelLayer" stroke="#777777" fill="#777777" style="stroke:#777777;fill:#777777" vector-effect="non-scaling-stroke"/></g></svg>