<?xml version="1.0" encoding="UTF-8" standalone="no"?>
<svg
   xmlns:dc="http://purl.org/dc/elements/1.1/"
   xmlns:cc="http://creativecommons.org/ns#"
   xmlns:rdf="http://www.w3.org/1999/02/22-rdf-syntax-ns#"
   xmlns:svg="http://www.w3.org/2000/svg"
   xmlns="http://www.w3.org/2000/svg"
   xmlns:sodipodi="http://sodipodi.sourceforge.net/DTD/sodipodi-0.dtd"
   xmlns:inkscape="http://www.inkscape.org/namespaces/inkscape"
   sodipodi:docname="Chainsaw.svg"
   inkscape:version="1.0 (4035a4fb49, 2020-05-01)"
   id="svg8"
   version="1.1"
   viewBox="0 0 152.4 101.6"
   height="4in"
   width="6in">
  <defs
     id="defs2" />
  <sodipodi:namedview
     inkscape:window-maximized="1"
     inkscape:window-y="-9"
     inkscape:window-x="-9"
     inkscape:window-height="1001"
     inkscape:window-width="1920"
     units="in"
     showgrid="false"
     inkscape:document-rotation="0"
     inkscape:current-layer="layer1"
     inkscape:document-units="mm"
     inkscape:cy="217.14286"
     inkscape:cx="340.73922"
     inkscape:zoom="1.4444444"
     inkscape:pageshadow="2"
     inkscape:pageopacity="0.0"
     borderopacity="1.0"
     bordercolor="#666666"
     pagecolor="#ffffff"
     id="base" />
  <metadata
     id="metadata5">
    <rdf:RDF>
      <cc:Work
         rdf:about="">
        <dc:format>image/svg+xml</dc:format>
        <dc:type
           rdf:resource="http://purl.org/dc/dcmitype/StillImage" />
        <dc:title></dc:title>
      </cc:Work>
    </rdf:RDF>
  </metadata>
  <g
     id="layer1"
     inkscape:groupmode="layer"
     inkscape:label="Layer 1">
    <g
       transform="matrix(1.1116289,0.3192243,-0.30006772,1.1825963,17.412581,-40.182197)"
       style="opacity:1"
       id="g20">
      <path
         id="path22"
         d="m 139.49949,72.336862 c -1.64472,-1.723451 -5.33658,-3.971811 -9.10717,-5.922724 0.0437,-0.227459 0.0788,-0.498662 0.11373,-0.813608 0.18372,-1.688458 -1.18104,-1.644716 -1.18104,-1.644716 0,0 -3.63063,-0.796113 -4.66295,-0.892346 -0.39369,-0.03499 -0.60365,0.139975 -0.71738,0.367437 -1.84593,-0.743622 -3.32442,-1.22479 -4.07679,-1.286026 l -1.04107,-1.356018 -2.82576,-0.752367 c 0,0 -0.0612,-0.682382 -0.26245,-1.644717 l 1.11106,-0.507412 -1.22479,-4.041799 h -1.74095 c -0.28871,-0.393684 -0.6124,-0.743622 -0.98858,-1.032324 -2.63329,-2.07339 -12.6853,-4.129284 -15.064891,-3.85808 -4.138037,0.472418 -4.995387,1.600971 -6.211427,2.449575 H 91.51405 c -1.172297,-1.522238 -5.599027,-6.771329 -7.060028,-8.127343 -1.417255,-1.312273 -2.82576,-2.25711 -3.709357,-2.467073 -0.883596,-0.209964 -2.36209,0 -3.849334,1.898421 -1.172295,1.504739 -2.07339,6.631354 -2.449575,9.177162 -0.69988,-0.568652 -1.898422,-1.880924 -2.239611,-4.251764 -0.472419,-3.385663 0.279949,-8.564769 0.367436,-9.133419 0.09623,-0.568652 -3.061971,-2.921993 -4.470477,-2.07339 -1.417255,0.8486 -3.613124,6.710088 -2.677036,11.014343 1.417254,6.491375 6.342651,9.982023 6.342651,9.982023 l -0.402429,3.998055 -3.210695,-0.174968 1.810935,2.187121 v 1.600975 c -0.85735,-0.07874 -1.819684,-0.166222 -2.887,-0.262455 l 0.04374,-0.297451 -0.953585,-0.472419 -0.104982,0.682383 c -0.03499,0 -0.06999,-0.0087 -0.104982,-0.0087 l -0.962335,-0.201214 0.104982,-0.647386 c 0,0 -0.297447,-0.06124 -0.489917,0.09623 -0.183714,0.148693 -0.314944,0.45489 -0.314944,0.45489 l -0.02625,0.148724 c -0.699879,-0.06124 -1.417254,-0.131226 -2.143378,-0.183717 l 0.04374,-0.279952 -0.953586,-0.472418 -0.104982,0.673632 c -0.06999,0 -0.139975,-0.0087 -0.201214,-0.0087 l -0.866102,-0.174996 0.104982,-0.64739 c 0,0 -0.297447,-0.06124 -0.489913,0.09623 -0.18372,0.148724 -0.314946,0.454923 -0.314946,0.454923 l -0.02625,0.148725 c -0.787365,-0.06999 -1.600973,-0.13123 -2.432078,-0.201216 l 0.04374,-0.262454 -0.953585,-0.472418 -0.104982,0.673633 c -0.07874,-0.0087 -0.148723,-0.0087 -0.23621,-0.02625 l -0.831107,-0.166222 0.104982,-0.647386 c 0,0 -0.297447,-0.06124 -0.489913,0.09623 -0.183719,0.148724 -0.314945,0.45492 -0.314945,0.45492 l -0.02625,0.166222 c -0.708627,-0.06124 -1.426006,-0.104981 -2.152129,-0.148724 l 0.04374,-0.323694 -0.953585,-0.472419 -0.104982,0.69988 -1.067313,-0.209963 0.104982,-0.64739 c 0,0 -0.297451,-0.06124 -0.489917,0.09623 -0.183716,0.148723 -0.314945,0.454923 -0.314945,0.454923 l -0.03499,0.244956 c -0.787372,-0.04374 -1.592234,-0.104983 -2.379598,-0.148725 l 0.02625,-0.218713 -0.971083,-0.419927 -0.06124,0.5774 c -0.358688,-0.02625 -0.717375,-0.03499 -1.076062,-0.06124 l 0.06124,-0.629891 c 0,0 -0.29745,-0.04374 -0.489916,0.113731 -0.174971,0.148723 -0.262455,0.437426 -0.279952,0.463669 -0.5774,-0.02625 -1.154801,-0.06124 -1.740949,-0.07874 l 0.03499,-0.402433 -0.971084,-0.419927 -0.06999,0.708628 -1.076066,-0.148723 0.06124,-0.664887 c 0,0 -0.297447,-0.04374 -0.489916,0.11373 C 39.513029,62.389803 39.408047,62.696 39.408047,62.696 l -0.02625,0.236211 c -0.559902,-0.02625 -1.102309,-0.03499 -1.644717,-0.04374 -0.209963,0 -0.419927,-0.0087 -0.62989,-0.0087 l 0.02625,-0.24496 -0.971085,-0.419927 -0.06124,0.63864 c -0.183719,0 -0.384935,-0.0087 -0.568652,-0.0087 l -0.507413,-0.06999 0.06124,-0.664888 c 0,0 -0.297449,-0.04374 -0.489915,0.113731 -0.17497,0.166222 -0.279952,0.472418 -0.279952,0.472418 l -0.0087,0.113731 c -0.664883,-0.0087 -1.312271,-0.02625 -1.968408,-0.03499 l 0.0087,-0.489917 -0.997327,-0.358687 -0.02624,0.708626 -1.076064,-0.07874 0.02624,-0.664887 c 0,0 -0.314946,-0.02625 -0.472419,0.148727 -0.17497,0.174968 -0.253706,0.489913 -0.253706,0.489913 l -0.0087,0.218713 c -0.75237,-0.0087 -1.504739,-0.0087 -2.257109,-0.0087 l 0.0087,-0.33244 -0.997327,-0.358691 -0.02624,0.69988 h -0.139975 l -0.953585,-0.06999 0.02624,-0.664884 c 0,0 -0.314946,-0.02625 -0.472418,0.148725 -0.17497,0.17497 -0.253707,0.489915 -0.253707,0.489915 v 0.09623 c -0.629891,0 -1.242284,0 -1.854678,0.0087 l 0.0087,-0.349938 -0.997327,-0.358691 -0.0087,0.673636 -1.076065,-0.07874 0.02625,-0.664883 c 0,0 -0.314945,-0.02625 -0.472418,0.148724 -0.174968,0.174971 -0.253705,0.489916 -0.253705,0.489916 v 0.139974 c -0.778615,0.0087 -1.539735,0.03499 -2.283353,0.04374 l 0.0087,-0.288698 -0.997327,-0.358691 -0.02625,0.673636 c -0.09624,0 -0.17497,0 -0.262455,0.0087 l -0.822359,-0.06124 0.02625,-0.664887 c 0,0 -0.314946,-0.02625 -0.472418,0.148724 -0.174968,0.17497 -0.253706,0.489916 -0.253706,0.489916 v 0.139975 c -0.612393,0.02625 -1.189793,0.06124 -1.749698,0.07874 l -0.0087,-0.332443 -1.023571,-0.297448 0.0087,0.691131 c -0.03499,0 -0.06999,0 -0.113731,0.0087 l -0.97108,-0.02625 -0.0087,-0.664884 c 0,0 -0.314945,-0.0087 -0.463672,0.174967 -0.166218,0.183721 -0.218709,0.498666 -0.218709,0.498666 v 0.131225 c -0.9710729,0.0962 -1.7934296,0.183686 -2.4233207,0.297416 L 7.6423101,63.09839 6.5837431,63.212121 6.8024559,63.702038 C 6.653729,63.763274 6.5400009,63.815769 6.4525138,63.885754 6.268798,63.98199 6.0938265,64.095718 5.9188559,64.235696 L 5.8488871,64.26201 5.586433,63.658367 c 0,0 -0.2886987,0.11373 -0.3586873,0.349938 -0.078737,0.236211 -0.00873,0.542407 -0.00873,0.542407 l 0.1049811,0.244956 c -0.6123927,0.682382 -1.076062,1.592226 -1.2597814,2.580805 l -0.061236,-0.201216 -0.5074115,0.06999 -0.1837167,1.041072 0.6648836,-0.09624 v 0.113731 c 0,0.332444 0.034993,0.64739 0.096233,0.962335 l -0.6036438,0.07874 c 0,0 0.026252,0.297451 0.2362077,0.437426 0.2012143,0.139975 0.5249091,0.166222 0.5249091,0.166222 h 0.034993 c 0.2799526,0.796113 0.7523708,1.487244 1.3472694,1.994654 l -0.1662218,0.40243 0.8223566,0.673632 0.2099631,-0.524909 c 0.3324436,0.166222 0.6823821,0.262455 1.0410694,0.314946 l -0.2362077,0.5774 c 0,0 0.2799526,0.131229 0.4986627,0.02625 0.218712,-0.104982 0.3936834,-0.367437 0.3936834,-0.367437 l 0.061236,-0.148723 c 0.4986619,0.11373 1.286026,0.262455 2.3096001,0.437422 l -0.03499,0.148727 0.892345,0.5774 0.148727,-0.559906 c 0.314945,0.04374 0.629891,0.104982 0.962331,0.166222 l 0.104982,0.03499 -0.166222,0.638641 c 0,0 0.288702,0.09623 0.498666,-0.03499 0.209963,-0.131228 0.349938,-0.419927 0.349938,-0.419927 l 0.02625,-0.07874 c 0.559905,0.09624 1.146051,0.17497 1.758447,0.279952 l -0.06999,0.323695 0.918593,0.542408 0.148724,-0.682382 1.041069,0.279949 -0.139975,0.647389 c 0,0 0.297448,0.07874 0.498662,-0.06124 0.201215,-0.139975 0.332444,-0.428676 0.332444,-0.428676 l 0.04374,-0.201214 c 0.787364,0.113731 1.600971,0.227461 2.43208,0.332442 l -0.06124,0.367437 0.953585,0.489913 0.104982,-0.699877 1.067313,0.218713 -0.104982,0.647386 c 0,0 0.297451,0.06124 0.489916,-0.09623 0.183718,-0.148723 0.314945,-0.45492 0.314945,-0.45492 l 0.0087,-0.104982 c 0.568652,0.06999 1.137304,0.148724 1.714704,0.218713 l -0.03499,0.209963 0.953584,0.472418 0.07874,-0.568654 c 0.358688,0.04374 0.717376,0.07874 1.076063,0.13123 l -0.09623,0.594897 c 0,0 0.297449,0.06124 0.489916,-0.09624 0.148724,-0.131226 0.253706,-0.349939 0.2887,-0.419928 0.822357,0.09624 1.644716,0.18372 2.458324,0.279953 l -0.03499,0.384934 0.971082,0.428677 0.06999,-0.708629 1.076064,0.148723 -0.06124,0.664887 c 0,0 0.297448,0.04374 0.489916,-0.113731 0.174968,-0.166222 0.27995,-0.463669 0.27995,-0.463669 v -0.04374 c 0.629892,0.06124 1.224788,0.113731 1.828434,0.166222 v 0.358688 l 1.006076,0.323694 v -0.603643 c 0.367438,0.02625 0.726125,0.06124 1.076064,0.07874 v 0.524909 c 0,0 0.314945,0.0087 0.472418,-0.166222 0.07874,-0.09623 0.139978,-0.218709 0.18372,-0.323691 0.262454,0.0087 0.524909,0.03499 0.778615,0.04374 0.472418,0.02625 0.988578,0.04374 1.504738,0.06999 l -0.0087,0.253709 0.997327,0.367437 0.02625,-0.594899 c 0.349938,0.0087 0.708626,0.02625 1.076062,0.03499 l -0.02625,0.603646 c 0,0 0.297447,0.02625 0.472418,-0.139978 0.139974,-0.139975 0.218713,-0.358687 0.244956,-0.437422 0.647389,0.02625 1.321023,0.03499 2.020902,0.04374 l -0.0087,0.253705 0.997327,0.367437 0.02625,-0.603644 c 0.35869,0.0087 0.717377,0.0087 1.076064,0.02625 l -0.02625,0.63864 c 0,0 0.297452,0.02625 0.472419,-0.139974 0.174971,-0.174972 0.253709,-0.472419 0.253709,-0.489917 0.796109,0.0087 1.60972,0.02625 2.432077,0.03499 l -0.0087,0.314946 0.997328,0.367436 0.03499,-0.673633 h 0.45492 l 0.629891,0.06124 -0.03499,0.664884 c 0,0 0.297448,0.02625 0.472418,-0.139974 0.174968,-0.174972 0.253706,-0.489917 0.253706,-0.489917 v -0.06999 c 0.673633,0.0087 1.32977,0.0087 2.003404,0.0087 l -0.0087,0.262454 0.997327,0.367436 0.02625,-0.62989 h 0.927342 l 0.166222,0.0087 -0.03499,0.664888 c 0,0 0.29745,0.02625 0.472418,-0.139978 0.174971,-0.174968 0.253705,-0.489913 0.253705,-0.489913 v -0.04374 c 0.778618,0 1.539735,0.0087 2.283357,0.0087 l -0.0087,0.236211 0.997328,0.367436 0.02625,-0.603647 h 1.076062 l -0.03499,0.64739 c 0,0 0.297448,0.02625 0.472418,-0.139976 0.174967,-0.17497 0.253705,-0.489916 0.253705,-0.489916 v -0.02625 h 2.143379 l -0.0087,0.218712 0.997328,0.367437 0.02625,-0.594895 h 1.076061 l -0.03499,0.638636 c 0,0 0.297448,0.02625 0.472418,-0.139975 0.174971,-0.17497 0.253705,-0.489915 0.253705,-0.489915 v -0.0087 c 0.953586,0 1.775943,0 2.449575,0.0087 l -0.0087,0.06999 c 0.09623,0.349939 0.27995,0.997328 0.542404,1.705957 l -1.09356,0.8486 c 0,0 0.393684,0.568654 1.679709,0.52491 0.489916,0.93609 1.111059,1.749698 1.863429,1.915919 1.688455,0.367436 66.567217,-1.784691 66.567217,-1.784691 0,0 3.8231,-4.243014 0.24497,-8.004865 z M 78.942476,52.022878 c 0.236211,-2.134629 0.813611,-5.144109 1.067317,-5.555287 0.279953,-0.46367 0.56865,-0.139975 1.522236,0.507414 0.717375,0.489913 3.446903,3.289429 4.75043,4.662942 z m 57.678764,26.857853 c -0.36743,0.27995 -15.82601,-0.752371 -17.04205,-0.936087 -1.22479,-0.18372 -1.32102,-1.128556 -1.50474,-2.073392 -0.18372,-0.936088 -0.47241,-0.472418 -1.22478,-2.353343 -0.75238,-1.880924 -0.75238,-4.995386 -0.66489,-5.362822 0,0 2.07339,0.183719 3.10571,1.03232 1.03232,0.848604 1.55723,2.029651 1.55723,2.029651 l 2.21337,-1.828433 c 0,0 1.63596,0.09623 1.9859,0.27995 1.18105,0.673632 8.19733,2.353341 9.41338,2.921996 1.22478,0.568651 2.44957,1.321019 2.73827,3.490644 0.2712,2.143378 -0.19247,2.510815 -0.5774,2.799516 z"
         style="color:#000000;font-style:normal;font-variant:normal;font-weight:normal;font-stretch:normal;font-size:medium;line-height:normal;font-family:sans-serif;font-variant-ligatures:normal;font-variant-position:normal;font-variant-caps:normal;font-variant-numeric:normal;font-variant-alternates:normal;font-variant-east-asian:normal;font-feature-settings:normal;text-indent:0;text-align:start;text-decoration:none;text-decoration-line:none;text-decoration-style:solid;text-decoration-color:#000000;letter-spacing:normal;word-spacing:normal;text-transform:none;writing-mode:lr-tb;direction:ltr;text-orientation:mixed;dominant-baseline:auto;baseline-shift:baseline;text-anchor:start;white-space:normal;shape-padding:0;shape-margin:0;inline-size:0;clip-rule:nonzero;display:inline;overflow:visible;visibility:visible;isolation:auto;mix-blend-mode:normal;color-interpolation:sRGB;color-interpolation-filters:linearRGB;solid-color:#000000;solid-opacity:1;vector-effect:none;fill:#000000;fill-opacity:1;fill-rule:nonzero;stroke:none;stroke-width:0.0874848;stroke-linecap:butt;stroke-linejoin:miter;stroke-miterlimit:4;stroke-dasharray:none;stroke-dashoffset:0;stroke-opacity:1;color-rendering:auto;image-rendering:auto;shape-rendering:auto;text-rendering:auto;enable-background:accumulate;stop-color:#000000;stop-opacity:1" />
      <path
         id="path24"
         d="m 69.417969,36.267578 c -0.498989,-0.111594 -0.97192,-0.101351 -1.337891,0.119141 -0.369084,0.220994 -0.771725,0.75074 -1.164062,1.490234 -0.392338,0.739495 -0.770874,1.688787 -1.076172,2.746094 -0.610596,2.114614 -0.927461,4.661122 -0.457032,6.824219 1.415207,6.481997 6.299454,9.959569 6.339844,9.988281 l -0.396484,3.9375 -3.267578,-0.177735 1.863281,2.251954 v 1.537109 c -0.832987,-0.07647 -1.763434,-0.161058 -2.792969,-0.253906 l 0.04297,-0.283203 -1.037109,-0.513672 -0.107422,0.701172 c -0.01821,-0.0022 -0.03593,-0.0031 -0.05859,-0.0039 l -0.0098,-0.002 -0.912109,-0.191406 0.105469,-0.646484 -0.04102,-0.0098 c 0,0 -0.313477,-0.06951 -0.527344,0.105469 -0.198622,0.160759 -0.326172,0.472656 -0.326172,0.472656 l -0.002,0.0039 -0.01953,0.113281 c -0.67153,-0.059 -1.359999,-0.124642 -2.05664,-0.175781 l 0.04102,-0.265625 -1.037109,-0.511718 -0.107422,0.693359 c -0.05485,-0.0021 -0.110744,-0.0078 -0.164063,-0.0078 l -0.816406,-0.166015 0.105469,-0.646485 -0.04102,-0.0078 c 0,0 -0.313481,-0.06951 -0.527344,0.105469 -0.198623,0.160789 -0.328124,0.470703 -0.328124,0.470703 l -0.002,0.0039 -0.01953,0.115234 c -0.759516,-0.06716 -1.544249,-0.126308 -2.34375,-0.193359 l 0.04102,-0.248047 -1.03711,-0.513672 -0.107421,0.691406 c -0.06393,-0.0055 -0.122969,-0.0078 -0.191407,-0.02148 l -0.789062,-0.158203 0.105469,-0.646484 -0.04102,-0.0078 c 0,0 -0.313481,-0.06951 -0.527344,0.105469 -0.197681,0.161171 -0.328125,0.470703 -0.328125,0.470703 l -0.002,0.0059 -0.02148,0.13086 c -0.680072,-0.05808 -1.368979,-0.100652 -2.064454,-0.142578 L 52.017578,63.248047 50.982422,62.734375 50.875,63.449219 49.894531,63.255859 50,62.609375 l -0.04102,-0.0078 c 0,0 -0.31348,-0.07146 -0.527343,0.103516 -0.19862,0.160788 -0.326172,0.472656 -0.326172,0.472656 l -0.002,0.0059 -0.03125,0.210937 C 48.313924,63.351865 47.538841,63.29281 46.779297,63.25 l 0.02539,-0.205078 -1.056641,-0.457031 -0.0625,0.595703 c -0.331258,-0.02301 -0.661369,-0.03381 -0.990235,-0.05664 l 0.0625,-0.625 -0.04102,-0.0059 c 0,0 -0.312757,-0.05092 -0.525391,0.123047 -0.09539,0.08108 -0.163667,0.194222 -0.210937,0.291015 -0.02364,0.0484 -0.04113,0.09349 -0.05469,0.126953 -0.0055,0.01369 -0.0098,0.02375 -0.01367,0.0332 -0.551751,-0.02536 -1.105136,-0.05658 -1.666015,-0.07422 l 0.0332,-0.388672 -1.054688,-0.457031 -0.07227,0.724609 -0.988282,-0.138672 0.06055,-0.664062 -0.04102,-0.0059 c 0,0 -0.310801,-0.05092 -0.523438,0.123047 l -0.002,0.002 c -0.188075,0.178635 -0.291015,0.490235 -0.291015,0.490235 l -0.002,0.0039 -0.02344,0.201172 c -0.545229,-0.02472 -1.075271,-0.03249 -1.603516,-0.04102 h -0.002 c -0.192551,0 -0.385471,-0.0086 -0.580078,-0.0098 l 0.02344,-0.228516 -1.054688,-0.457031 -0.06445,0.660156 c -0.169637,-0.0011 -0.351346,-0.0096 -0.521485,-0.0098 h -0.0059 l -0.460937,-0.06445 0.06055,-0.664062 -0.04102,-0.0059 c 0,0 -0.310804,-0.05092 -0.523438,0.123047 v 0.002 h -0.002 c -0.188083,0.17868 -0.291015,0.490235 -0.291015,0.490235 l -0.002,0.0059 -0.0059,0.07813 c -0.635477,-0.0087 -1.2566,-0.02642 -1.884766,-0.03516 l 0.0098,-0.476563 -1.083984,-0.388672 -0.02539,0.722657 -0.990234,-0.07227 0.02734,-0.664063 -0.04297,-0.0039 c 0,0 -0.327103,-0.03373 -0.50586,0.16211 -0.188889,0.188886 -0.265625,0.509765 -0.265625,0.509765 v 0.0039 l -0.0078,0.18164 c -0.723401,-0.008 -1.446833,-0.0098 -2.169922,-0.0098 l 0.0078,-0.318359 -1.083985,-0.388672 -0.02539,0.716797 h -0.09766 l -0.910156,-0.06641 0.02734,-0.664063 -0.04102,-0.0039 c 0,0 -0.329058,-0.03374 -0.507812,0.162109 -0.187647,0.189111 -0.265625,0.509766 -0.265625,0.509766 l -0.002,0.0039 v 0.05859 c -0.597943,5e-6 -1.181181,-5e-5 -1.763672,0.0078 l 0.0078,-0.335938 -1.085937,-0.390625 -0.0098,0.6875 -0.986328,-0.07031 0.02539,-0.664063 -0.04102,-0.0039 c 0,0 -0.329484,-0.03604 -0.507813,0.162109 -0.18764,0.189113 -0.263672,0.509766 -0.263671,0.509766 l -0.002,0.0039 v 0.101563 c -0.747973,0.009 -1.478925,0.03585 -2.193359,0.04492 l 0.0078,-0.27539 -1.083985,-0.390625 -0.02734,0.693359 c -0.0744,1.79e-4 -0.144267,9.76e-4 -0.216797,0.0078 l -0.78125,-0.05859 0.02734,-0.664063 -0.04101,-0.0039 c 0,0 -0.329058,-0.03373 -0.507813,0.16211 -0.188886,0.188888 -0.265625,0.509765 -0.265625,0.509765 v 0.0039 0.105468 c -0.581204,0.02535 -1.131589,0.05677 -1.664062,0.07422 l -0.0078,-0.320313 -1.111328,-0.322265 0.0098,0.708984 c -0.022,6.61e-4 -0.0436,0.0012 -0.07031,0.0059 l -0.927734,-0.02539 -0.0098,-0.666016 h -0.04101 c 0,0 -0.329168,-0.01514 -0.498047,0.189454 -0.17983,0.198766 -0.228516,0.519531 -0.228516,0.519531 l -0.002,0.0039 v 0.09766 c -0.9358815,0.09292 -1.7335164,0.179175 -2.3515626,0.289063 l -0.1484375,-0.351563 -1.1503907,0.125 0.2246094,0.507813 c -0.1261493,0.05329 -0.2354316,0.101631 -0.3183594,0.167968 -0.183159,0.09643 -0.3588155,0.208364 -0.5332031,0.347657 -7.406e-4,5.91e-4 -0.00121,0.0014 -0.00195,0.002 l -0.017578,0.0059 -0.2636719,-0.605469 -0.039063,0.01563 c 0,0 -0.3065552,0.114949 -0.3847656,0.378906 -0.083396,0.253861 -0.00977,0.564453 -0.00977,0.564453 l 0.00195,0.0039 0.097656,0.232422 c -0.5815216,0.65703 -1.0039791,1.527728 -1.2011718,2.464844 l -0.041016,-0.134766 -0.5742187,0.08008 -0.2011719,1.13086 0.6757813,-0.09766 v 0.06445 c -10e-8,0.319335 0.035521,0.621781 0.091797,0.923828 l -0.6035156,0.07813 0.00391,0.04297 c 0,0 0.023506,0.313843 0.2558594,0.46875 0.2171788,0.149752 0.5449219,0.173829 0.5449219,0.173829 h 0.00195 0.015625 c 0.2796974,0.776898 0.7401342,1.452036 1.3203125,1.955078 l -0.1699219,0.412109 0.8925782,0.732422 0.2167968,-0.544922 c 0.3074995,0.147621 0.6290099,0.238828 0.9570313,0.291016 l -0.234375,0.570312 0.039063,0.01758 c 0,0 0.2904977,0.144778 0.5351562,0.02734 0.2361474,-0.113351 0.4121094,-0.382813 0.4121094,-0.382813 l 0.00195,-0.0039 0.048828,-0.11914 c 0.4914977,0.111136 1.2516889,0.254037 2.2304693,0.421875 l -0.03125,0.132812 0.96875,0.626953 0.154297,-0.580078 c 0.298927,0.04283 0.598956,0.101714 0.916015,0.160156 l 0.06641,0.02148 -0.166015,0.638672 0.03711,0.01172 c 0,0 0.303713,0.106802 0.537109,-0.03906 0.227005,-0.141879 0.365235,-0.4375 0.365235,-0.4375 l 0.002,-0.002 0.01563,-0.04687 c 0.5358,0.09123 1.094181,0.166957 1.675781,0.265625 l -0.06641,0.310547 0.996094,0.589843 0.152344,-0.697265 0.957031,0.257812 -0.140625,0.646485 0.04102,0.01172 c 0,0 0.31104,0.08755 0.535157,-0.06836 0.217042,-0.150985 0.347656,-0.445312 0.347656,-0.445313 l 0.002,-0.0059 0.03711,-0.166015 c 0.759969,0.109642 1.544862,0.22072 2.345704,0.322265 l -0.05859,0.353516 1.035156,0.533203 0.107422,-0.714844 0.980469,0.201172 -0.103516,0.646484 0.04102,0.0098 c 0,0 0.311528,0.06951 0.52539,-0.105469 0.198622,-0.160788 0.328125,-0.472656 0.328125,-0.472656 l 0.002,-0.0059 0.0059,-0.06641 c 0.538462,0.0667 1.077854,0.140235 1.625,0.207032 l -0.0332,0.197265 1.037109,0.513672 0.08008,-0.585937 c 0.330508,0.03972 0.659528,0.07233 0.988281,0.11914 l -0.0957,0.591797 0.04102,0.0098 c 0,0 0.31348,0.06952 0.527344,-0.105469 v -0.002 h 0.002 c 0.148993,-0.131463 0.238723,-0.324297 0.279297,-0.40625 0.799855,0.09343 1.599593,0.180201 2.390625,0.273437 l -0.0332,0.373047 1.054688,0.464844 0.07227,-0.722656 0.988281,0.136718 -0.06055,0.664063 0.04102,0.0059 c 0,0 0.310802,0.05092 0.523437,-0.123046 h 0.002 v -0.002 c 0.187525,-0.178151 0.291016,-0.480468 0.291016,-0.480468 l 0.0039,-0.0078 v -0.0039 c 0.598094,0.05788 1.165902,0.108228 1.740234,0.158203 v 0.351562 l 1.09375,0.351563 v -0.615234 c 0.336096,0.02472 0.665124,0.05299 0.988282,0.07031 v 0.527344 l 0.04297,0.002 c 0,0 0.328501,0.01537 0.50586,-0.181641 h 0.002 c 0.07606,-0.09295 0.130199,-0.206042 0.173828,-0.30664 0.252093,0.0094 0.504631,0.03249 0.751953,0.04102 0.459589,0.02554 0.96001,0.04336 1.460938,0.06836 l -0.0078,0.242187 1.083985,0.400391 0.02539,-0.611328 c 0.322021,0.0086 0.652186,0.02257 0.990235,0.03125 l -0.02734,0.601562 0.04297,0.0039 c 0,0 0.311274,0.03252 0.505859,-0.152343 v -0.002 c 0.14042,-0.140422 0.206784,-0.331859 0.238281,-0.423828 0.626312,0.02495 1.276723,0.03451 1.951172,0.04297 l -0.0078,0.240235 1.083984,0.40039 0.02734,-0.621093 c 0.330551,0.0074 0.659533,0.0086 0.988281,0.02344 l -0.02734,0.636719 0.04297,0.0039 c 0,0 0.311278,0.03252 0.505859,-0.152344 0.09393,-0.09393 0.160243,-0.216797 0.203125,-0.318359 0.02144,-0.05078 0.03634,-0.09642 0.04687,-0.130859 0.0036,-0.01172 0.0054,-0.02032 0.0078,-0.0293 0.770087,0.0087 1.556302,0.02639 2.351562,0.03516 l -0.0078,0.302734 1.083984,0.398438 0.03516,-0.691407 h 0.41211 l 0.585937,0.05664 -0.03516,0.666016 0.04102,0.002 c 0,0 0.313228,0.03447 0.507812,-0.150391 v -0.002 c 0.188886,-0.18889 0.265625,-0.509766 0.265625,-0.509766 v -0.0059 -0.03125 c 0.643074,0.008 1.271385,0.0098 1.914063,0.0098 l -0.0078,0.248047 1.083985,0.398437 0.02734,-0.646484 h 0.884766 l 0.121094,0.0059 -0.03516,0.664063 0.04102,0.002 c 0,0 0.31323,0.03447 0.507813,-0.150391 v -0.002 c 0.18889,-0.188887 0.265625,-0.509766 0.265625,-0.509766 l 0.002,-0.0059 v -0.0039 c 0.747017,3.22e-4 1.478023,0.0075 2.193359,0.0078 l -0.0078,0.222657 1.082031,0.398437 0.02734,-0.621094 h 0.988281 l -0.03516,0.644531 0.04297,0.002 c 0,0 0.311276,0.03447 0.50586,-0.150391 l 0.002,-0.002 c 0.186011,-0.186014 0.25747,-0.492425 0.259766,-0.501953 h 2.060546 l -0.0078,0.205078 1.082031,0.398437 0.02734,-0.613281 h 0.988281 l -0.03516,0.634766 0.04297,0.0039 c 0,0 0.311275,0.03252 0.505859,-0.152344 0.18028,-0.180279 0.247194,-0.459269 0.253906,-0.486328 0.919164,2e-6 1.712235,0.0017 2.369141,0.0098 l -0.0039,0.0293 0.0039,0.0078 c 0.09459,0.343967 0.277688,0.982472 0.533203,1.677734 l -1.101562,0.855469 0.02344,0.03516 c 0,0 0.106845,0.152566 0.373047,0.292968 0.260383,0.137333 0.68849,0.259201 1.314453,0.244141 0.490522,0.932148 1.109507,1.75146 1.880859,1.921875 0.06096,0.01327 0.174611,0.02061 0.347657,0.02734 0.173045,0.0067 0.403265,0.01146 0.6875,0.01367 0.568468,0.0044 1.352343,1.24e-4 2.320312,-0.01172 1.935939,-0.02369 4.609532,-0.0773 7.769531,-0.152344 6.319999,-0.150095 14.587315,-0.384807 22.802736,-0.630859 16.43084,-0.492105 32.65039,-1.03125 32.65039,-1.03125 h 0.0195 l 0.0117,-0.01367 c 0,0 0.96088,-1.066613 1.47266,-2.607422 0.51177,-1.540809 0.57157,-3.564518 -1.22852,-5.457031 l -0.0195,-0.01953 -0.004,0.002 c -1.65733,-1.726714 -5.31765,-3.956103 -9.06836,-5.898437 0.0418,-0.223886 0.0757,-0.481804 0.10938,-0.785156 0.0931,-0.855768 -0.21026,-1.290042 -0.54102,-1.498047 -0.32614,-0.205101 -0.66417,-0.193649 -0.67383,-0.19336 l -0.01,-0.002 c -0.009,-0.002 -0.90367,-0.200079 -1.93555,-0.410156 -1.03707,-0.211134 -2.20011,-0.43371 -2.72265,-0.482422 -0.38288,-0.03403 -0.58755,0.151406 -0.7129,0.369141 -1.83188,-0.737547 -3.29012,-1.212612 -4.05859,-1.279297 L 118.85156,60.75 l -2.8125,-0.748047 c -0.002,-0.02486 -0.0641,-0.669867 -0.25195,-1.583984 l 1.11523,-0.509766 -1.24414,-4.109375 h -1.75586 c -0.28683,-0.387993 -0.60691,-0.736747 -0.98046,-1.023437 -1.33238,-1.049084 -4.50248,-2.076584 -7.64454,-2.816407 -1.57103,-0.369911 -3.13336,-0.666289 -4.45312,-0.853515 -1.319758,-0.187227 -2.39353,-0.266163 -2.998048,-0.197266 -4.133176,0.471863 -5.017054,1.606246 -6.220703,2.449219 h -0.07227 c -1.186658,-1.538724 -5.582073,-6.75388 -7.048828,-8.115234 -1.420176,-1.314978 -2.828328,-2.262193 -3.730469,-2.476563 -0.900655,-0.214018 -2.39762,0.0058 -3.892578,1.914063 -0.597609,0.767081 -1.111958,2.424914 -1.53125,4.214843 -0.411718,1.757598 -0.720701,3.619245 -0.910156,4.892578 -0.698717,-0.582398 -1.837761,-1.854 -2.169922,-4.162109 -0.470567,-3.372393 0.279698,-8.55031 0.367188,-9.119141 0.01573,-0.09293 -0.03064,-0.199171 -0.113282,-0.320312 -0.08265,-0.121142 -0.205539,-0.257209 -0.359375,-0.402344 -0.307671,-0.290271 -0.741078,-0.61231 -1.220703,-0.890625 -0.479625,-0.278314 -1.006871,-0.513406 -1.505859,-0.625 z m -0.01758,0.08594 c 0.486309,0.108758 1.006509,0.338254 1.480468,0.613281 0.47396,0.275027 0.901682,0.594511 1.203125,0.878906 0.150722,0.142198 0.270506,0.275586 0.347657,0.388672 0.07715,0.113086 0.10794,0.20663 0.09961,0.255859 -0.08783,0.570851 -0.843282,5.748479 -0.369141,9.146485 0.342923,2.382883 1.549387,3.705288 2.25586,4.279297 l 0.06055,0.04883 0.0098,-0.07617 c 0.187975,-1.272108 0.507406,-3.188594 0.925781,-4.97461 0.418376,-1.786015 0.94094,-3.443983 1.515626,-4.18164 1.47953,-1.888575 2.93815,-2.088723 3.804687,-1.882813 0.865053,0.205557 2.275119,1.147463 3.689453,2.457032 1.452038,1.347694 5.885211,6.602517 7.054688,8.121093 l 0.01367,0.01758 h 0.140624 l 0.01172,-0.0078 c 1.223053,-0.853498 2.060493,-1.969802 6.191407,-2.441406 0.585277,-0.0667 1.660017,0.0085 2.976566,0.195312 1.31655,0.186771 2.87673,0.484181 4.44531,0.853516 3.13717,0.738671 6.31042,1.774521 7.61133,2.798828 v 0.002 c 0.37225,0.285687 0.69367,0.632358 0.98047,1.023438 l 0.0117,0.01758 h 1.73047 l 1.20508,3.974609 -1.10743,0.50586 0.006,0.0332 c 0.20077,0.960018 0.26172,1.640625 0.26172,1.640625 l 0.004,0.0293 2.83984,0.757813 1.04492,1.359375 0.0195,0.002 c 0.73853,0.06011 2.21802,0.538209 4.0625,1.28125 l 0.0371,0.01563 0.0195,-0.03516 c 0.10811,-0.216226 0.29431,-0.37748 0.67382,-0.34375 0.50978,0.04752 1.67657,0.269488 2.71289,0.480469 1.03632,0.21098 1.94532,0.410156 1.94532,0.410156 l 0.004,0.002 h 0.006 c 0,0 0.32908,-0.0106 0.63477,0.181641 0.30569,0.192238 0.59256,0.581372 0.50195,1.414062 -0.0349,0.31449 -0.07,0.585153 -0.11328,0.810547 l -0.006,0.03125 0.0293,0.01563 c 3.76875,1.949965 7.46043,4.200517 9.0957,5.914063 1.77804,1.869337 1.71423,3.84798 1.20898,5.36914 -0.50255,1.513065 -1.43724,2.551346 -1.44726,2.5625 -0.0232,7.71e-4 -16.20808,0.53755 -32.62695,1.029297 -8.215336,0.24605 -16.483096,0.480772 -22.802743,0.630859 -3.159823,0.07504 -5.834232,0.128666 -7.769531,0.152344 -0.96765,0.01184 -1.750956,0.01614 -2.318359,0.01172 -0.283702,-0.0022 -0.512091,-0.007 -0.683594,-0.01367 -0.171503,-0.0067 -0.28746,-0.01569 -0.332031,-0.02539 -0.727963,-0.160828 -1.346284,-0.962673 -1.833985,-1.894531 l -0.01367,-0.02344 h -0.02734 c -0.636425,0.02165 -1.046682,-0.107246 -1.298828,-0.240235 -0.226296,-0.119354 -0.29137,-0.215213 -0.308594,-0.238281 l 1.076172,-0.835938 -0.01172,-0.0293 C 70.018452,78.117981 69.836616,77.475346 69.740234,77.125 l 0.01367,-0.107422 h -0.04883 c -0.674092,-0.0087 -1.497586,-0.0098 -2.451172,-0.0098 h -0.04297 v 0.04688 c -0.0013,0.005 -0.08052,0.305125 -0.240235,0.464843 -0.140169,0.133164 -0.348137,0.117062 -0.394531,0.115235 l 0.0332,-0.626954 h -1.164063 l -0.02539,0.576172 -0.910156,-0.333984 0.0078,-0.232422 h -2.232422 v 0.0625 c -0.0013,0.005 -0.08156,0.304698 -0.240234,0.464844 -0.140189,0.133182 -0.348185,0.119015 -0.394531,0.117187 l 0.0332,-0.636718 h -1.164063 l -0.02539,0.585937 -0.910157,-0.335937 0.0078,-0.25 h -0.04492 c -0.743281,0 -1.504259,-0.0078 -2.283203,-0.0078 h -0.04297 v 0.07617 c 0,0 -0.08077,0.307054 -0.240234,0.46875 -6.36e-4,6.04e-4 -0.0013,-5.98e-4 -0.002,0 -0.139718,0.130639 -0.344577,0.11705 -0.392578,0.115234 l 0.0332,-0.65039 -0.210938,-0.0098 H 55.4375 L 55.412109,77.628906 54.5,77.292969 54.5098,77.017578 h -0.04492 c -0.673634,0 -1.33064,-0.0011 -2.003906,-0.0098 h -0.04297 v 0.103516 c 0,0 -0.08078,0.30705 -0.240235,0.46875 -6.35e-4,6.04e-4 -0.0013,-5.98e-4 -0.002,0 -0.13972,0.130636 -0.344577,0.117051 -0.392578,0.115234 l 0.0332,-0.648437 -0.673828,-0.06445 h -0.5 l -0.0332,0.654297 -0.912109,-0.333985 0.0098,-0.328125 -0.04492,-0.002 c -0.822041,-0.0087 -1.635214,-0.0245 -2.43164,-0.0332 l -0.04492,-0.002 v 0.04102 c 0,0 0,0.002 0,0.002 v 0.002 c -4.55e-4,0.0022 -0.001,0.0041 -0.002,0.0078 -0.0022,0.0091 -0.0069,0.0232 -0.01172,0.03906 -0.0097,0.03172 -0.02481,0.07345 -0.04492,0.121094 -0.04023,0.09528 -0.100599,0.209973 -0.181641,0.291015 -0.140805,0.13377 -0.351697,0.117058 -0.396484,0.115235 l 0.02539,-0.625 -0.04297,-0.002 c -0.360109,-0.01762 -0.718189,-0.01671 -1.076172,-0.02539 l -0.04297,-0.002 -0.02734,0.585937 -0.910157,-0.333984 0.0098,-0.267578 h -0.04492 c -0.699866,-0.0088 -1.372977,-0.01871 -2.019531,-0.04492 h -0.0332 l -0.0098,0.03125 c -0.02554,0.07662 -0.105528,0.288172 -0.234375,0.417969 -0.140065,0.133066 -0.349828,0.117061 -0.396484,0.115234 l 0.02539,-0.589844 h -0.04492 c -0.36672,-0.0087 -0.723562,-0.02644 -1.074218,-0.03516 l -0.04297,-0.002 -0.02734,0.578125 -0.910156,-0.335938 0.0098,-0.263672 -0.04297,-0.002 c -0.516653,-0.02627 -1.034129,-0.0441 -1.50586,-0.07031 -0.251728,-0.0087 -0.514891,-0.03616 -0.779296,-0.04492 h -0.0293 l -0.01172,0.02734 c -0.0425,0.101991 -0.10228,0.220047 -0.175781,0.310547 -5.46e-4,6.06e-4 -0.0014,-6.02e-4 -0.002,0 -3.5e-4,4.29e-4 3.5e-4,0.0015 0,0.002 -0.124883,0.135523 -0.345496,0.133612 -0.394532,0.134765 v -0.507812 l -0.04297,-0.002 c -0.348524,-0.01743 -0.706044,-0.05182 -1.074219,-0.07813 l -0.04687,-0.0039 v 0.591796 l -0.917969,-0.296875 v -0.365234 l -0.04102,-0.0039 c -0.60361,-0.05249 -1.198478,-0.1048 -1.828126,-0.166016 l -0.04687,-0.0059 v 0.08203 c -0.0017,0.0048 -0.105417,0.285296 -0.263672,0.439453 -6.99e-4,5.72e-4 -0.0013,-5.66e-4 -0.002,0 -0.156223,0.125858 -0.367196,0.100211 -0.412109,0.0957 l 0.06055,-0.65039 -1.164062,-0.160157 -0.06836,0.69336 -0.886719,-0.390625 0.03711,-0.396485 L 30,75.984375 c -0.813952,-0.09627 -1.636932,-0.183092 -2.458984,-0.279297 l -0.0293,-0.0039 -0.01367,0.02734 c -0.03545,0.0709 -0.140171,0.2839 -0.277344,0.40625 -0.154244,0.126205 -0.363514,0.08729 -0.410156,0.08008 l 0.09375,-0.582032 -0.04492,-0.0059 c -0.360064,-0.05269 -0.718179,-0.0872 -1.076172,-0.130859 l -0.04297,-0.0059 -0.07617,0.550782 -0.86914,-0.431641 0.03711,-0.222656 -0.04687,-0.0059 c -0.576915,-0.06993 -1.145753,-0.148706 -1.714844,-0.21875 l -0.04492,-0.0039 -0.01172,0.140625 c -0.0027,0.006 -0.131738,0.298332 -0.298828,0.433594 -0.154883,0.126721 -0.364977,0.08712 -0.410156,0.08008 l 0.101562,-0.630859 -1.152344,-0.238282 -0.103515,0.6875 -0.871094,-0.449218 0.06445,-0.38086 -0.04492,-0.0059 c -0.830733,-0.104934 -1.644413,-0.21832 -2.43164,-0.332031 l -0.04102,-0.0059 -0.05078,0.236328 c -0.0022,0.0046 -0.132548,0.278349 -0.316407,0.40625 -0.16099,0.111998 -0.371444,0.06068 -0.417968,0.05078 l 0.136718,-0.63086 -1.126953,-0.302734 -0.144531,0.666015 -0.839844,-0.49414 0.07422,-0.337891 -0.04687,-0.0078 c -0.613388,-0.105152 -1.199005,-0.183246 -1.757812,-0.279297 l -0.03711,-0.0059 -0.03711,0.113282 c -0.0023,0.0045 -0.140683,0.27689 -0.332031,0.396484 -0.169957,0.106217 -0.377989,0.04115 -0.419922,0.0293 l 0.164062,-0.623047 -0.148437,-0.04883 -0.002,-0.002 c -0.332171,-0.06119 -0.648324,-0.122057 -0.964844,-0.166016 l -0.03711,-0.0059 -0.144531,0.539062 -0.816406,-0.527343 0.03906,-0.164063 -0.04492,-0.0078 C 9.5314991,73.116115 8.7430837,72.966864 8.2460938,72.853516 l -0.035156,-0.0078 -0.074219,0.177735 c -0.00186,0.0027 -0.1728513,0.253515 -0.3730469,0.349609 -0.1748019,0.0839 -0.3753217,-0.0059 -0.4179688,-0.02344 l 0.2363281,-0.576171 -0.056641,-0.0078 c -0.355141,-0.052 -0.6998417,-0.14682 -1.0273433,-0.310571 L 6.4550781,72.433594 6.25,72.949219 5.5,72.332031 5.6660156,71.929688 5.640625,71.910156 C 5.0519482,71.408053 4.5841126,70.722653 4.3066406,69.933594 l -0.00977,-0.0293 h -0.0625 -0.00391 c -0.00444,-4.19e-4 -0.3160422,-0.03023 -0.5,-0.158203 C 3.561136,69.633202 3.5414031,69.426254 3.5351562,69.380859 L 4.125,69.302734 4.11523,69.257814 C 4.054437,68.945168 4.019527,68.634064 4.019527,68.30469 v -0.166016 l -0.6542968,0.09375 0.1679687,-0.947266 0.4394531,-0.06055 0.048828,0.164063 0.085937,-0.0039 c 0.1821846,-0.980321 0.6431859,-1.884381 1.25,-2.560547 L 5.375,64.804688 5.2617188,64.541016 v -0.0039 c -9.601e-4,-0.0045 -0.064332,-0.299191 0.00781,-0.515625 0.055868,-0.188551 0.2579226,-0.271606 0.3007813,-0.291015 l 0.2558594,0.58789 0.1152343,-0.04492 0.00391,-0.0039 C 6.1182,64.13122 6.2913758,64.018788 6.4726562,63.923828 l 0.00391,-0.002 0.00391,-0.002 c 0.081379,-0.0651 0.1900426,-0.11686 0.3378906,-0.177734 L 6.8613281,63.724609 6.6484375,63.25 l 0.9667969,-0.105469 0.1484375,0.353516 0.035156,-0.0059 c 0.6272,-0.113245 1.4490271,-0.200693 2.4199221,-0.296876 l 0.03906,-0.0039 v -0.164062 c 0,0 0.05443,-0.307887 0.207032,-0.476563 l 0.002,-0.002 c 0.116385,-0.143727 0.337148,-0.141291 0.386719,-0.142578 l 0.0078,0.646484 1.019531,0.02734 h 0.0039 c 0.03936,-0.0078 0.07048,-0.0078 0.105468,-0.0078 h 0.04492 l -0.0098,-0.675782 0.9375,0.271485 0.0078,0.34375 h 0.04492 c 0.560786,-0.01753 1.138093,-0.05385 1.75,-0.08008 l 0.04102,-0.002 v -0.169922 c 0,0 0.08114,-0.309652 0.242187,-0.470704 v -0.002 c 0.123145,-0.136831 0.345315,-0.120599 0.394531,-0.11914 l -0.02539,0.646484 0.86914,0.06641 0.0039,-0.002 c 0.08491,-0.0084 0.161572,-0.0078 0.257812,-0.0078 h 0.04102 l 0.02734,-0.65625 0.910156,0.328125 -0.0098,0.302734 h 0.04687 c 0.744298,-0.0088 1.505254,-0.03623 2.283203,-0.04492 h 0.04297 V 62.625 c 0.0013,-0.005 0.08051,-0.307073 0.240234,-0.466797 h 0.002 v -0.002 c 0.123666,-0.137409 0.346865,-0.122563 0.394532,-0.121094 L 20.5,62.683594 l 1.166016,0.08594 0.0098,-0.658203 0.908203,0.326172 -0.0098,0.363281 h 0.04687 c 0.61198,-0.0087 1.223624,-0.0078 1.853515,-0.0078 h 0.04297 v -0.13086 c 0,0 0.08114,-0.307698 0.242188,-0.46875 v -0.002 c 0.12316,-0.13685 0.345363,-0.122553 0.394531,-0.121094 l -0.02539,0.648438 0.998047,0.07422 h 0.183594 l 0.02539,-0.683594 0.910156,0.328125 -0.0078,0.345703 h 0.04492 c 0.75237,0 1.503827,0.0011 2.255859,0.0098 h 0.04297 l 0.0098,-0.251953 c 0,0 0.08114,-0.309654 0.242187,-0.470704 v -0.002 c 0.123146,-0.136834 0.345316,-0.120599 0.394532,-0.11914 l -0.02539,0.646484 1.164063,0.08594 0.02539,-0.695313 0.91211,0.330078 -0.0098,0.501953 h 0.04297 c 0.65574,0.0087 1.303469,0.02645 1.96875,0.03516 h 0.04102 l 0.01172,-0.144532 c 0.0011,-0.003 0.105958,-0.297498 0.265625,-0.451172 0.156046,-0.127673 0.366843,-0.10024 0.412109,-0.0957 l -0.05859,0.650391 0.550781,0.07617 h 0.0039 c 0.182336,0 0.38326,0.0078 0.568359,0.0078 h 0.03906 l 0.05859,-0.617187 0.886719,0.382812 -0.02734,0.261719 h 0.04883 c 0.208755,0 0.417735,0.0078 0.628906,0.0078 0.542409,0.0087 1.083543,0.01871 1.642578,0.04492 l 0.04102,0.002 0.0293,-0.267578 c 0,0 0.0019,-0.0019 0.002,-0.002 0.0011,-0.003 0.107421,-0.2978 0.267578,-0.451172 5.13e-4,-4.91e-4 -5.14e-4,-0.0015 0,-0.002 0.156333,-0.123582 0.365493,-0.09823 0.410156,-0.09375 l -0.06055,0.650391 1.164063,0.160156 0.06836,-0.693359 0.886719,0.382812 -0.03711,0.417969 h 0.04687 c 0.585266,0.01747 1.162394,0.05381 1.740234,0.08008 h 0.02539 l 0.01367,-0.01953 c 0.0078,-0.01168 0.0091,-0.01809 0.01367,-0.0293 0.0046,-0.01121 0.009,-0.02467 0.01563,-0.04102 0.01324,-0.03269 0.03239,-0.07544 0.05469,-0.121093 0.04459,-0.0913 0.107916,-0.196027 0.1875,-0.263672 0.15603,-0.127661 0.366807,-0.09829 0.412109,-0.09375 l -0.06055,0.617187 0.04492,0.0039 c 0.360099,0.02635 0.718896,0.0344 1.076172,0.06055 l 0.04297,0.0039 0.06055,-0.560547 0.884765,0.382812 -0.02734,0.232422 0.04687,0.002 c 0.786754,0.04371 1.590924,0.104664 2.378906,0.148438 l 0.04102,0.0039 0.03711,-0.273437 c 0,0 0.133922,-0.302795 0.302734,-0.439453 0.154173,-0.12614 0.361403,-0.08731 0.408203,-0.08008 l -0.101562,0.632813 1.154297,0.226562 0.101562,-0.685546 0.873047,0.43164 -0.04687,0.339844 0.04687,0.002 c 0.726102,0.04374 1.44446,0.08726 2.152344,0.148437 l 0.03906,0.0039 0.03125,-0.195313 c 0,0 0.131966,-0.302794 0.300782,-0.439453 0.154228,-0.126185 0.363481,-0.08534 0.410156,-0.07813 l -0.101563,0.63086 0.871094,0.173828 c 0.0919,0.01843 0.164307,0.01895 0.240235,0.02734 l 0.04297,0.0039 0.101563,-0.65625 0.871093,0.43164 -0.04687,0.277344 0.04883,0.0039 c 0.831357,0.07001 1.644681,0.131218 2.43164,0.201172 l 0.03906,0.0039 L 59.386719,64 c 0,0 0.131965,-0.302794 0.300781,-0.439453 h 0.002 c 0.154159,-0.126128 0.36137,-0.08536 0.408203,-0.07813 l -0.101562,0.630859 0.912109,0.183594 h 0.0039 c 0.0571,0 0.127557,0.0098 0.201172,0.0098 h 0.03711 l 0.101562,-0.652344 0.871094,0.431641 -0.04492,0.294921 0.04687,0.0039 c 0.725402,0.05244 1.442402,0.122327 2.142578,0.183593 l 0.03906,0.0039 0.03125,-0.179688 c 0,0 0.133928,-0.300873 0.302734,-0.4375 0.154177,-0.12614 0.361403,-0.08731 0.408203,-0.08008 l -0.101562,0.630859 1.007812,0.210938 h 0.0039 c 0.02774,0 0.06323,0.0098 0.105469,0.0098 h 0.03711 l 0.101563,-0.662109 0.873047,0.431641 -0.04687,0.3125 0.04687,0.0039 c 1.067297,0.09623 2.029399,0.184935 2.886719,0.263672 l 0.04687,0.0039 v -1.664062 l -1.757813,-2.123047 3.154297,0.171875 0.408203,-4.064453 -0.01953,-0.01563 c 0,0 -4.912726,-3.481145 -6.326172,-9.955078 -0.465658,-2.141159 -0.152552,-4.676907 0.455078,-6.78125 0.303815,-1.052172 0.681574,-1.997758 1.070313,-2.730469 0.388738,-0.732711 0.791316,-1.253726 1.130859,-1.457031 0.338282,-0.20381 0.789081,-0.216181 1.275391,-0.107422 z M 80.21875,46.21875 c -0.09554,0.02906 -0.173222,0.105869 -0.246094,0.226562 -0.07205,0.116778 -0.152286,0.379363 -0.246094,0.753907 -0.09381,0.374543 -0.197878,0.854765 -0.300781,1.390625 -0.205805,1.071719 -0.409057,2.358781 -0.527343,3.427734 l -0.0059,0.05078 0.05273,-0.002 7.433594,-0.390625 -0.06445,-0.06836 C 85.66241,50.920371 84.654158,49.876579 83.71875,48.943359 82.783342,48.01014 81.926036,47.191722 81.556641,46.939453 c -0.475688,-0.322944 -0.783471,-0.56549 -1.019532,-0.673828 -0.11803,-0.05417 -0.222818,-0.07594 -0.318359,-0.04687 z m 0.02539,0.08398 c 0.06713,-0.02042 0.147523,-0.0087 0.255859,0.04102 0.216672,0.09944 0.529914,0.343524 1.007812,0.667969 0.347981,0.237644 1.213857,1.061745 2.148438,1.99414 0.910617,0.908487 1.87502,1.907369 2.527344,2.59375 l -7.189453,0.376953 c 0.118652,-1.056183 0.315254,-2.315549 0.517578,-3.36914 0.102687,-0.534736 0.207589,-1.016587 0.300781,-1.388672 0.09319,-0.372085 0.179577,-0.639704 0.234375,-0.728516 0.0671,-0.111142 0.130139,-0.16708 0.197266,-0.1875 z m 35.90625,21.804688 -0.008,0.03711 c -0.0251,0.105405 -0.0405,0.363988 -0.041,0.738281 -5.5e-4,0.374294 0.015,0.857613 0.0566,1.388672 0.0833,1.062119 0.27111,2.313527 0.65039,3.261719 0.37737,0.943405 0.64175,1.30538 0.83203,1.542969 0.19029,0.237589 0.29987,0.340278 0.39063,0.802734 0.0916,0.471141 0.16196,0.947082 0.36719,1.333985 0.20522,0.386902 0.55072,0.681923 1.17383,0.77539 0.31156,0.04707 1.50074,0.145415 3.12695,0.263672 1.6262,0.118257 3.68532,0.25587 5.7168,0.378906 2.03147,0.123037 4.03617,0.230711 5.55664,0.291016 0.76023,0.03015 1.4001,0.04898 1.86132,0.05078 0.23062,8.99e-4 0.41543,-0.0019 0.55079,-0.0098 0.0677,-0.0039 0.12358,-0.009 0.16601,-0.01563 0.0424,-0.0066 0.0702,-0.01032 0.0977,-0.03125 0.19284,-0.144637 0.41541,-0.320701 0.54883,-0.726563 0.13341,-0.405862 0.18095,-1.038203 0.0449,-2.113281 -0.14533,-1.092175 -0.52782,-1.834195 -1.0293,-2.371094 -0.50147,-0.536899 -1.12035,-0.869214 -1.73437,-1.154297 -0.31115,-0.1455 -0.97648,-0.355403 -1.82422,-0.603515 -0.84774,-0.248113 -1.87558,-0.532732 -2.90235,-0.820313 -1.02676,-0.287581 -2.05248,-0.579007 -2.89453,-0.839844 -0.84205,-0.260836 -1.50319,-0.4932 -1.78906,-0.65625 l -0.002,-0.002 c -0.0985,-0.05172 -0.26653,-0.08987 -0.47071,-0.125 -0.20417,-0.03513 -0.44102,-0.06432 -0.66797,-0.08789 -0.4539,-0.04714 -0.86328,-0.07031 -0.86328,-0.07031 l -0.0176,-0.002 -2.19336,1.8125 c -0.0217,-0.04839 -0.51504,-1.163375 -1.53516,-2.001953 -0.52606,-0.43244 -1.30649,-0.691006 -1.95703,-0.84375 -0.65054,-0.152744 -1.17188,-0.199219 -1.17188,-0.199219 z m 0.0742,0.09961 c 0.0364,0.0033 0.49494,0.04381 1.11523,0.189453 0.64424,0.151266 1.41757,0.408058 1.92383,0.824219 1.02256,0.84058 1.54492,2.013672 1.54492,2.013672 l 0.0234,0.05273 2.24414,-1.853515 c 0.0162,9.64e-4 0.39949,0.02437 0.8418,0.07031 0.22578,0.02345 0.46308,0.05136 0.66406,0.08594 0.20016,0.03444 0.36647,0.0772 0.44336,0.117187 0.30466,0.173767 0.96297,0.402724 1.80664,0.664063 0.84367,0.261338 1.86954,0.552211 2.89649,0.839844 1.02694,0.287632 2.05561,0.572494 2.90234,0.820312 0.84673,0.247818 1.51367,0.460782 1.81055,0.599609 0.61075,0.283568 1.21774,0.610912 1.70703,1.134766 0.48879,0.523323 0.86216,1.244679 1.00586,2.320313 0.13517,1.0683 0.0878,1.690295 -0.0391,2.076171 -0.12684,0.385877 -0.32744,0.53953 -0.51953,0.683594 0.005,-0.0034 -0.0209,0.0078 -0.0586,0.01367 -0.0377,0.0059 -0.0902,0.01179 -0.15625,0.01563 -0.13205,0.0077 -0.31725,0.01066 -0.54688,0.0098 -0.45924,-0.0018 -1.09774,-0.02065 -1.85742,-0.05078 -1.51935,-0.06026 -3.52358,-0.168001 -5.55468,-0.291015 -2.03111,-0.123015 -4.08908,-0.260681 -5.71485,-0.378907 -1.62577,-0.118225 -2.82463,-0.21693 -3.12109,-0.261718 -0.60168,-0.09025 -0.91631,-0.360861 -1.11133,-0.728516 -0.19502,-0.367654 -0.26531,-0.836852 -0.35742,-1.310547 -0.093,-0.473632 -0.22013,-0.606968 -0.40821,-0.841797 -0.18807,-0.234829 -0.44335,-0.58201 -0.81836,-1.519531 -0.37309,-0.932732 -0.56161,-2.179126 -0.64453,-3.236328 -0.0415,-0.528601 -0.0572,-1.011024 -0.0566,-1.382813 5.2e-4,-0.350519 0.0177,-0.581723 0.0352,-0.675781 z"
         style="color:#000000;font-style:normal;font-variant:normal;font-weight:normal;font-stretch:normal;font-size:medium;line-height:normal;font-family:sans-serif;font-variant-ligatures:normal;font-variant-position:normal;font-variant-caps:normal;font-variant-numeric:normal;font-variant-alternates:normal;font-variant-east-asian:normal;font-feature-settings:normal;text-indent:0;text-align:start;text-decoration:none;text-decoration-line:none;text-decoration-style:solid;text-decoration-color:#000000;letter-spacing:normal;word-spacing:normal;text-transform:none;writing-mode:lr-tb;direction:ltr;text-orientation:mixed;dominant-baseline:auto;baseline-shift:baseline;text-anchor:start;white-space:normal;shape-padding:0;shape-margin:0;inline-size:0;clip-rule:nonzero;display:inline;overflow:visible;visibility:visible;isolation:auto;mix-blend-mode:normal;color-interpolation:sRGB;color-interpolation-filters:linearRGB;solid-color:#000000;solid-opacity:1;vector-effect:none;fill-opacity:1;fill-rule:nonzero;stroke:none;stroke-width:0.0874848;stroke-linecap:butt;stroke-linejoin:miter;stroke-miterlimit:4;stroke-dasharray:none;stroke-dashoffset:0;stroke-opacity:1;color-rendering:auto;image-rendering:auto;shape-rendering:auto;text-rendering:auto;enable-background:accumulate;stop-color:#000000;stop-opacity:1" />
    </g>
    <text
       id="text28"
       y="10.074519"
       x="38.099998"
       style="font-style:normal;font-weight:normal;font-size:10.5833px;line-height:1.25;font-family:Stencil;fill:#000000;fill-opacity:1;stroke:none;stroke-width:0.264583;-inkscape-font-specification:Stencil;font-stretch:normal;font-variant:normal;"
       xml:space="preserve"><tspan
         style="stroke-width:0.264583;-inkscape-font-specification:Stencil;font-family:Stencil;font-weight:normal;font-style:normal;font-stretch:normal;font-variant:normal;"
         y="10.074519"
         x="38.099998"
         id="tspan26"
         sodipodi:role="line" /></text>
    <text
       transform="scale(0.95683461,1.0451127)"
       id="text32"
       y="19.921421"
       x="12.024713"
       style="font-style:normal;font-weight:normal;font-size:8.26771px;line-height:1.25;font-family:sans-serif;fill:#000000;fill-opacity:1;stroke:none;stroke-width:0.310038"
       xml:space="preserve"><tspan
         style="font-style:normal;font-variant:normal;font-weight:normal;font-stretch:normal;font-size:8.26771px;font-family:Stencil;-inkscape-font-specification:'Stencil, Normal';font-variant-ligatures:normal;font-variant-caps:normal;font-variant-numeric:normal;font-variant-east-asian:normal;stroke-width:0.310038"
         y="19.921421"
         x="12.024713"
         id="tspan30"
         sodipodi:role="line">DON'T MAKE ME GET MY CHAINSAW</tspan></text>
  </g>
</svg>
