<?xml version="1.0" encoding="utf-8"?>
<!-- Generator: Adobe Illustrator 18.0.0, SVG Export Plug-In . SVG Version: 6.00 Build 0)  -->
<!DOCTYPE svg PUBLIC "-//W3C//DTD SVG 1.1//EN" "http://www.w3.org/Graphics/SVG/1.1/DTD/svg11.dtd">
<svg version="1.1" id="Слой_2" xmlns="http://www.w3.org/2000/svg" xmlns:xlink="http://www.w3.org/1999/xlink" x="0px" y="0px"
	 viewBox="0 600 1590 541" enable-background="new 0 600 1590 541" xml:space="preserve">
<path fill="#000000"    d="M1564.3,1022.5c-18.8-19.7-61-45.4-104.1-67.7
	c0.5-2.6,0.9-5.7,1.3-9.3c2.1-19.3-13.5-18.8-13.5-18.8s-41.5-9.1-53.3-10.2c-4.5-0.4-6.9,1.6-8.2,4.2c-21.1-8.5-38-14-46.6-14.7
	l-11.9-15.5l-32.3-8.6c0,0-0.7-7.8-3-18.8l12.7-5.8l-14-46.2h-19.9c-3.3-4.5-7-8.5-11.3-11.8c-30.1-23.7-145-47.2-172.2-44.1
	c-47.3,5.4-57.1,18.3-71,28h-1.2c-13.4-17.4-64-77.4-80.7-92.9c-16.2-15-32.3-25.8-42.4-28.2c-10.1-2.4-27,0-44,21.7
	c-13.4,17.2-23.7,75.8-28,104.9c-8-6.5-21.7-21.5-25.6-48.6c-5.4-38.7,3.2-97.9,4.2-104.4c1.1-6.5-35-33.4-51.1-23.7
	c-16.2,9.7-41.3,76.7-30.6,125.9c16.2,74.2,72.5,114.1,72.5,114.1l-4.6,45.7l-36.7-2l20.7,25V939c-9.8-0.9-20.8-1.9-33-3l0.5-3.4
	l-10.9-5.4l-1.2,7.8c-0.4,0-0.8-0.1-1.2-0.1l-11-2.3l1.2-7.4c0,0-3.4-0.7-5.6,1.1c-2.1,1.7-3.6,5.2-3.6,5.2l-0.3,1.7
	c-8-0.7-16.2-1.5-24.5-2.1l0.5-3.2l-10.9-5.4l-1.2,7.7c-0.8,0-1.6-0.1-2.3-0.1l-9.9-2l1.2-7.4c0,0-3.4-0.7-5.6,1.1
	c-2.1,1.7-3.6,5.2-3.6,5.2l-0.3,1.7c-9-0.8-18.3-1.5-27.8-2.3l0.5-3l-10.9-5.4l-1.2,7.7c-0.9-0.1-1.7-0.1-2.7-0.3l-9.5-1.9l1.2-7.4
	c0,0-3.4-0.7-5.6,1.1c-2.1,1.7-3.6,5.2-3.6,5.2l-0.3,1.9c-8.1-0.7-16.3-1.2-24.6-1.7l0.5-3.7l-10.9-5.4l-1.2,8l-12.2-2.4l1.2-7.4
	c0,0-3.4-0.7-5.6,1.1c-2.1,1.7-3.6,5.2-3.6,5.2l-0.4,2.8c-9-0.5-18.2-1.2-27.2-1.7l0.3-2.5l-11.1-4.8l-0.7,6.6
	c-4.1-0.3-8.2-0.4-12.3-0.7l0.7-7.2c0,0-3.4-0.5-5.6,1.3c-2,1.7-3,5-3.2,5.3c-6.6-0.3-13.2-0.7-19.9-0.9l0.4-4.6l-11.1-4.8l-0.8,8.1
	l-12.3-1.7l0.7-7.6c0,0-3.4-0.5-5.6,1.3c-2,1.9-3.2,5.4-3.2,5.4l-0.3,2.7c-6.4-0.3-12.6-0.4-18.8-0.5c-2.4,0-4.8-0.1-7.2-0.1
	l0.3-2.8l-11.1-4.8l-0.7,7.3c-2.1,0-4.4-0.1-6.5-0.1l-5.8-0.8l0.7-7.6c0,0-3.4-0.5-5.6,1.3c-2,1.9-3.2,5.4-3.2,5.4l-0.1,1.3
	c-7.6-0.1-15-0.3-22.5-0.4l0.1-5.6l-11.4-4.1l-0.3,8.1l-12.3-0.9l0.3-7.6c0,0-3.6-0.3-5.4,1.7c-2,2-2.9,5.6-2.9,5.6l-0.1,2.5
	c-8.6-0.1-17.2-0.1-25.8-0.1l0.1-3.8l-11.4-4.1l-0.3,8c-0.5,0-1.1,0-1.6,0l-10.9-0.8l0.3-7.6c0,0-3.6-0.3-5.4,1.7
	c-2,2-2.9,5.6-2.9,5.6v1.1c-7.2,0-14.2,0-21.2,0.1l0.1-4l-11.4-4.1l-0.1,7.7l-12.3-0.9l0.3-7.6c0,0-3.6-0.3-5.4,1.7
	c-2,2-2.9,5.6-2.9,5.6v1.6c-8.9,0.1-17.6,0.4-26.1,0.5l0.1-3.3l-11.4-4.1l-0.3,7.7c-1.1,0-2,0-3,0.1l-9.4-0.7l0.3-7.6
	c0,0-3.6-0.3-5.4,1.7c-2,2-2.9,5.6-2.9,5.6v1.6c-7,0.3-13.6,0.7-20,0.9l-0.1-3.8l-11.7-3.4l0.1,7.9c-0.4,0-0.8,0-1.3,0.1l-11.1-0.3
	l-0.1-7.6c0,0-3.6-0.1-5.3,2c-1.9,2.1-2.5,5.7-2.5,5.7v1.5c-11.1,1.1-20.5,2.1-27.7,3.4l-1.7-4L45,918.2l2.5,5.6
	c-1.7,0.7-3,1.3-4,2.1c-2.1,1.1-4.1,2.4-6.1,4l-0.8,0.3l-3-6.9c0,0-3.3,1.3-4.1,4c-0.9,2.7-0.1,6.2-0.1,6.2l1.2,2.8
	c-7,7.8-12.3,18.2-14.4,29.5l-0.7-2.3l-5.8,0.8l-2.1,11.9l7.6-1.1c0,0.4,0,0.9,0,1.3c0,3.8,0.4,7.4,1.1,11l-6.9,0.9
	c0,0,0.3,3.4,2.7,5c2.3,1.6,6,1.9,6,1.9h0.4c3.2,9.1,8.6,17,15.4,22.8l-1.9,4.6l9.4,7.7l2.4-6c3.8,1.9,7.8,3,11.9,3.6l-2.7,6.6
	c0,0,3.2,1.5,5.7,0.3c2.5-1.2,4.5-4.2,4.5-4.2l0.7-1.7c5.7,1.3,14.7,3,26.4,5l-0.4,1.7l10.2,6.6l1.7-6.4c3.6,0.5,7.2,1.2,11,1.9
	l1.2,0.4l-1.9,7.3c0,0,3.3,1.1,5.7-0.4c2.4-1.5,4-4.8,4-4.8l0.3-0.9c6.4,1.1,13.1,2,20.1,3.2l-0.8,3.7l10.5,6.2l1.7-7.8l11.9,3.2
	l-1.6,7.4c0,0,3.4,0.9,5.7-0.7c2.3-1.6,3.8-4.9,3.8-4.9l0.5-2.3c9,1.3,18.3,2.6,27.8,3.8l-0.7,4.2l10.9,5.6l1.2-8l12.2,2.5l-1.2,7.4
	c0,0,3.4,0.7,5.6-1.1c2.1-1.7,3.6-5.2,3.6-5.2l0.1-1.2c6.5,0.8,13,1.7,19.6,2.5l-0.4,2.4l10.9,5.4l0.9-6.5c4.1,0.5,8.2,0.9,12.3,1.5
	l-1.1,6.8c0,0,3.4,0.7,5.6-1.1c1.7-1.5,2.9-4,3.3-4.8c9.4,1.1,18.8,2.1,28.1,3.2l-0.4,4.4l11.1,4.9l0.8-8.1l12.3,1.7l-0.7,7.6
	c0,0,3.4,0.5,5.6-1.3c2-1.9,3.2-5.3,3.2-5.3v-0.5c7.2,0.7,14,1.3,20.9,1.9v4.1l11.5,3.7v-6.9c4.2,0.3,8.3,0.7,12.3,0.9v6
	c0,0,3.6,0.1,5.4-1.9c0.9-1.1,1.6-2.5,2.1-3.7c3,0.1,6,0.4,8.9,0.5c5.4,0.3,11.3,0.5,17.2,0.8l-0.1,2.9l11.4,4.2l0.3-6.8
	c4,0.1,8.1,0.3,12.3,0.4l-0.3,6.9c0,0,3.4,0.3,5.4-1.6c1.6-1.6,2.5-4.1,2.8-5c7.4,0.3,15.1,0.4,23.1,0.5l-0.1,2.9l11.4,4.2l0.3-6.9
	c4.1,0.1,8.2,0.1,12.3,0.3l-0.3,7.3c0,0,3.4,0.3,5.4-1.6c2-2,2.9-5.4,2.9-5.6c9.1,0.1,18.4,0.3,27.8,0.4l-0.1,3.6l11.4,4.2l0.4-7.7
	c1.7,0,3.4,0,5.2,0l7.2,0.7l-0.4,7.6c0,0,3.4,0.3,5.4-1.6c2-2,2.9-5.6,2.9-5.6v-0.8c7.7,0.1,15.2,0.1,22.9,0.1l-0.1,3l11.4,4.2
	l0.3-7.2c3.6,0,7,0,10.6,0l1.9,0.1l-0.4,7.6c0,0,3.4,0.3,5.4-1.6c2-2,2.9-5.6,2.9-5.6v-0.5c8.9,0,17.6,0.1,26.1,0.1l-0.1,2.7
	l11.4,4.2l0.3-6.9c4.2,0,8.3,0,12.3,0l-0.4,7.4c0,0,3.4,0.3,5.4-1.6c2-2,2.9-5.6,2.9-5.6v-0.3c8.5,0,16.7,0,24.5,0l-0.1,2.5
	l11.4,4.2l0.3-6.8c4.2,0,8.3,0,12.3,0l-0.4,7.3c0,0,3.4,0.3,5.4-1.6c2-2,2.9-5.6,2.9-5.6v-0.1c10.9,0,20.3,0,28,0.1l-0.1,0.8
	c1.1,4,3.2,11.4,6.2,19.5l-12.5,9.7c0,0,4.5,6.5,19.2,6c5.6,10.7,12.7,20,21.3,21.9c19.3,4.2,760.9-20.4,760.9-20.4
	S1605.2,1065.5,1564.3,1022.5z M872.1,790.3c2.7-24.4,9.3-58.8,12.2-63.5c3.2-5.3,6.5-1.6,17.4,5.8c8.2,5.6,39.4,37.6,54.3,53.3
	L872.1,790.3z M1531.4,1097.3c-4.2,3.2-180.9-8.6-194.8-10.7c-14-2.1-15.1-12.9-17.2-23.7c-2.1-10.7-5.4-5.4-14-26.9
	c-8.6-21.5-8.6-57.1-7.6-61.3c0,0,23.7,2.1,35.5,11.8s17.8,23.2,17.8,23.2l25.3-20.9c0,0,18.7,1.1,22.7,3.2
	c13.5,7.7,93.7,26.9,107.6,33.4c14,6.5,28,15.1,31.3,39.9C1541.1,1089.8,1535.8,1094,1531.4,1097.3z"/>
</svg>
