<?xml version="1.0" encoding="utf-8"?>
<!-- Generator: Adobe Illustrator 27.0.0, SVG Export Plug-In . SVG Version: 6.00 Build 0)  -->
<svg version="1.1" id="Livello_1" xmlns="http://www.w3.org/2000/svg" xmlns:xlink="http://www.w3.org/1999/xlink" x="0px" y="0px"
	 viewBox="0 0 595.3 841.9" style="enable-background:new 0 0 595.3 841.9;" xml:space="preserve">
<style type="text/css">
	.st0{font-family:'ArialMT';}
	.st1{font-size:22.7595px;}
	.st2{fill:none;stroke:#000000;stroke-miterlimit:10;}
	.st3{fill:none;stroke:#1D1D1B;stroke-miterlimit:10;}
	.st4{fill:#50504F;}
	.st5{fill:none;stroke:#1D1E1C;stroke-miterlimit:10;}
</style>
<text transform="matrix(1 0 0 1 15.0532 35.6899)" class="st0 st1">A4 21x29,7 cm</text>
<path class="st2" d="M270.9,134.9v-0.6l-0.1-0.6l-0.1-0.6l-0.1-0.6l-0.2-0.6l-0.2-0.6l-0.3-0.6l-0.3-0.6l-0.3-0.5l-0.7-1.1l-0.7-1.1
	l-0.8-1.1l-20.8-29.7l-1.5-2l-0.7-1l-0.8-1l-0.8-1l-0.8-1l-0.4-0.5l-0.5-0.4l-0.5-0.4l-0.5-0.4l-0.5-0.4l-0.5-0.4l-0.5-0.3l-0.5-0.3
	l-0.5-0.3l-0.5-0.3l-0.5-0.2l-0.5-0.2l-0.5-0.2l-0.6-0.1l-0.6-0.1l-0.6-0.1h-0.6h-0.6h-1.2H74.2h-0.5h-0.5l-0.5,0.1l-0.4,0.1
	L72,86.3l-0.4,0.1l-0.4,0.1l-0.4,0.2l-0.4,0.2L70,87.1l-0.4,0.2l-0.4,0.2l-0.4,0.3l-0.4,0.3L68,88.5l-0.4,0.3l-0.4,0.4l-0.7,0.7
	l-0.7,0.8l-0.7,0.8l-0.7,0.8l-0.6,0.9L63.2,94L63,94.2l-0.2,0.2l-0.3,0.5l-29.3,41.8l-0.3,0.4l-0.2,0.4l-0.2,0.4l-0.2,0.5l-0.1,0.5
	l-0.1,0.5v0.5v0.5v0.5l0.1,0.5l0.1,0.5l0.1,0.5l0.2,0.4l0.2,0.4l0.2,0.4l0.3,0.4l11.8,16.8l0.5,0.6l0.5,0.6l0.2,0.3l0.2,0.2l0.3,0.2
	l0.3,0.2l0.3,0.2l0.3,0.2l0.3,0.2l0.3,0.2l0.3,0.2l0.3,0.2l0.7,0.2l0.8,0.2l0.8,0.2l0.8,0.1l0.8,0.1h0.8h0.8H56h207.5h0.7h0.7
	l0.6-0.1l0.6-0.2l0.3-0.1l0.3-0.1l0.6-0.3l0.6-0.4l0.6-0.4l0.5-0.5l0.5-0.5l0.2-0.3l0.2-0.3l0.2-0.3l0.2-0.3l0.1-0.3l0.1-0.3
	l0.1-0.3l0.1-0.3l0.1-0.3v-0.3V159v-0.4v-23.5L270.9,134.9z M175.6,144.8c0,4.4-3.6,7.9-7.9,7.9H77c-4.4,0-7.9-3.5-7.9-7.9V97.2
	c0-4.4,3.6-7.9,7.9-7.9h90.7c4.4,0,7.9,3.5,7.9,7.9L175.6,144.8L175.6,144.8z M183.3,151.7c-1.3,0-2.4-1.1-2.4-2.4s1.1-2.4,2.4-2.4
	c1.3,0,2.4,1.1,2.4,2.4S184.6,151.7,183.3,151.7z M213,152c-17.1,0-30.9-13.9-30.9-30.9c0-17.1,13.9-30.9,30.9-30.9
	c17.1,0,30.9,13.8,30.9,30.9c0,8.5-3.5,16.3-9.1,21.9C229.3,148.5,221.6,152,213,152z M259.8,148.8c-1.8,1.8-4.3,2.9-7.1,2.9
	c-5.5,0-10-4.5-10-10l0,0c0-5.5,4.5-10,10-10c5.6,0,10,4.5,10.1,10C262.8,144.5,261.7,147,259.8,148.8z"/>
<path class="st2" d="M482.5,410.5v47.2c0,4.3-3.5,7.9-7.9,7.9h-90c-4.3,0-7.9-3.5-7.9-7.9v-47.2c0-4.3,3.5-7.9,7.9-7.9h90
	C478.9,402.6,482.5,406.2,482.5,410.5z"/>
<path class="st2" d="M256.2,303.7l-12-17.1l0,0l-0.6-0.8L243,285l-0.6-0.7l-0.6-0.7l-0.3-0.3l-0.4-0.3l-0.4-0.3l-0.4-0.3l-0.4-0.3
	l-0.4-0.2l-0.4-0.2l-0.4-0.2l-0.4-0.2L238,281l-0.9-0.3l-0.9-0.3l-0.9-0.2l-0.9-0.2l-0.9-0.1l-0.9-0.1h-1H79.2l0,0h-0.7h-0.7
	l-0.7,0.1l-0.7,0.1l-0.7,0.1l-0.7,0.2l-0.6,0.2l-0.6,0.3l-0.6,0.3l-0.6,0.4l-0.5,0.4l-0.5,0.5l-0.5,0.5l-0.4,0.5l-0.4,0.5l-0.4,0.6
	l-20,28.6l0,0l-1.2,1.7l-0.5,0.8l-0.5,0.8l-0.5,0.8l-0.4,0.8l-0.4,0.8l-0.3,0.8l-0.3,0.9l-0.2,0.9l-0.2,0.9l-0.1,0.9l-0.1,1v1v1v0.3
	v0.3v0.3v0.3v28.9l0,0v0.9v0.9v0.4l0.1,0.4l0.1,0.4l0.1,0.4l0.1,0.4l0.2,0.4l0.2,0.4l0.2,0.4l0.2,0.4l0.2,0.4l0.3,0.3l0.3,0.3
	l0.3,0.3l0.3,0.3l0.3,0.3l0.3,0.2l0.4,0.2l0.4,0.2l0.4,0.2l0.4,0.1l0.4,0.1L51,365l0.4,0.1l0.4,0.1h0.4h0.5h0.9h198.8l0,0h0.4h0.4
	h0.3l0.3-0.1l0.3-0.1l0.3-0.1l0.5-0.2l0.5-0.3l0.5-0.4l0.5-0.4l0.5-0.5l0.5-0.5l0.5-0.5l0.5-0.6l0.5-0.6l0.9-1.2l0.9-1.2l3.9-5.6
	l0,0h-1.1l-1.1-0.1l-1.1-0.1l-1.1-0.2l-1.1-0.2L258,352l-1.1-0.3l-1.1-0.4l-1-0.4l-1-0.4l-1-0.5l-1-0.5l-0.9-0.6l-0.9-0.6l-0.9-0.7
	l-0.9-0.7l-0.8-0.7l-0.8-0.8l-0.8-0.8l-0.7-0.8l-0.7-0.9l-0.7-0.9l-0.6-0.9l-0.6-1l-0.5-1l-0.5-1l-0.4-1l-0.4-1l-0.4-1L240,334
	l-0.3-1.1l-0.2-1.1l-0.2-1.1l-0.1-1.1l-0.1-1.1v-1.1v-1.1l0.1-1.1l0.1-1.1l0.2-1.1l0.2-1.1l0.3-1.1l0.3-1.1l0.4-1l0.4-1l0.5-1l0.5-1
	l0.6-1l0.6-0.9l0.6-0.9l0.7-0.9l0.7-0.9l0.7-0.8l0.8-0.8l0.8-0.8l0.9-0.7l0.9-0.7l0.9-0.6l0.9-0.6l1-0.6l1-0.5l1-0.5l1-0.4
	L256.2,303.7z"/>
<path class="st3" d="M394.4,15.5l-2.5,26l-16.7,179.2l-2.2,23.9l-4.1,44.6l-0.1,0.2v0.2v0.2v0.2v0.5l0.1,0.5l0.1,0.3l0.1,0.3v0.4
	v0.3l-0.1,1.2v0.2v0.4l-0.1,0.4l-0.1,0.4l-0.2,0.4l-0.2,0.4l-0.1,0.2l-0.2,0.2l-0.2,0.2l-0.2,0.1l-0.2,0.1l-0.2,0.1l-0.1,0.1
	l-0.1,0.1l-0.1,0.1l-0.1,0.1v0.1v0.1l0.1,4.9l-1.9,18.8l-0.6,4.3v0.1v0.1v0.1l0.1,0.1l0.1,0.1l0.1,0.1l0.2,0.1l0.2,0.2l0.2,0.2
	l0.1,0.2l0.1,0.2l0.1,0.2l0.2,0.4l0.1,0.4l0.1,0.4v0.4v0.4v0.2v1.2L366,331l-0.1,0.3l-0.1,0.3l-0.2,0.3l-0.1,0.5l-0.1,0.5v0.2v0.2
	v0.2v0.2l-0.5,20.2l-0.5,26.4h43.9v-24.1l0,0l0.8-30.9v-0.5l2.4-18.9v-0.1l1.8-18.9l3.6-37.8l0.1-1.5l1.7-23.6l0.1-0.7V223v-0.3
	l17.4-174.9v-0.3l3-25.9L394.4,15.5z M396.3,272.8l-2.2,24l-0.1,0.6l-0.2,0.6l-0.2,0.6l-0.3,0.6l-0.3,0.6l-0.4,0.5l-0.4,0.5
	l-0.5,0.4l-0.5,0.4l-0.5,0.3l-0.6,0.3l-0.6,0.2l-0.6,0.2l-0.6,0.1h-0.6H387l-8.2-0.5l0,0l-0.2-0.1l-1.4-0.2l-0.7-0.1l-0.6-0.2
	l-0.6-0.2l-0.6-0.3l-0.6-0.4l-0.5-0.4l-0.5-0.4l-0.4-0.5l-0.4-0.5l-0.3-0.6l-0.3-0.6l-0.2-0.6l-0.2-0.6l-0.1-0.7v-0.7v-0.7l2.2-24
	l0.1-0.7l0.2-0.6l0.2-0.6l0.3-0.6l0.3-0.6l0.4-0.5l0.4-0.5l0.5-0.5l0.5-0.4l0.6-0.3l0.6-0.3l0.6-0.2l0.6-0.2l0.7-0.1l0.7-0.1h0.7
	l1.4,0.1l0.2,0.1l8.1,1l0.6,0.1l0.6,0.2l0.6,0.2l0.6,0.3l0.5,0.4l0.5,0.4l0.5,0.4l0.4,0.5l0.4,0.5l0.3,0.5l0.3,0.6l0.2,0.6l0.2,0.6
	l0.1,0.6v0.6L396.3,272.8z M407.1,221.1l-0.6,0.5l-7.4-0.7l-0.6-0.7l5.8-58.7l0.7-0.6l7.4,0.8l0.5,0.6L407.1,221.1z M417.1,120.8
	l-0.7,0.5l-7.4-0.7l-0.5-0.7l7.2-73.1l0.7-0.6l7.4,0.8l0.5,0.6L417.1,120.8z"/>
<path class="st2" d="M501.3,35.8l-11.6-2.2L456,242.3l-2.1,12.5l-2.9,30.5l-2,40.1l-0.8,54.9h11.6l33.1-0.6l0.3-35.7l0.6-17.5v-0.2
	l1.7-36.3v-0.9l2.9-28.6v-0.1l35.1-217.8l0.1-0.6L501.3,35.8z M471.5,287l-0.4,0.1l-0.4,0.1h-0.4l-1.7-0.1h-0.5l-0.5-0.1l-0.5-0.2
	l-0.4-0.2l-0.4-0.2l-0.4-0.3l-0.3-1.1c-0.3-1-0.3-2-0.2-3l2.1-20.8c0.1-1.1,0.5-2.2,1-3.2l0.4-0.7l0.4-0.2l0,0l0.4-0.2l0.5-0.1
	l0.5-0.1h0.5l0.5,0.1l1.6,0.3l0.4,0.1l0.4,0.1l0.4,0.2l0.4,0.2l0.3,0.2c0.5,1.1,0.7,2.3,0.7,3.4c0,0.2,0,0.5,0,0.7l-1.7,19.7
	c-0.1,1.4-0.6,2.8-1.4,4l-0.5,0.8l-0.4,0.2L471.5,287z M482.4,305.4l-0.4,8.7l-0.4,9.5v0.4l-0.1,0.4l-0.1,0.4l-0.1,0.4l-0.2,0.3
	l-0.2,0.3l-0.2,0.3l-0.3,0.3l-0.3,0.3l-0.3,0.2l-0.3,0.2l-0.3,0.2l-0.4,0.1l-0.4,0.1H478h-0.4l-1.7-0.1h-0.5l-0.5-0.1l-0.5-0.2
	l-0.5-0.2l-0.4-0.3l-0.4-0.4l-0.3-0.4l-0.3-0.5l-0.2-0.5v-0.2l0,0l-0.1-0.3v-0.1V324v-0.2v-0.1l0,0v-0.5l0.5-9.5l0.4-8.6l0.1-0.5
	v-0.1l0.1-0.4l0,0V304l0.1-0.3l0.1-0.2l0.2-0.4l0.3-0.4l0.4-0.4l0.4-0.3l0.4-0.3l0.5-0.2l0.5-0.1l0.5-0.1h0.5l1.7,0.1h0.4l0.4,0.1
	l0.4,0.1l0.4,0.2l0.3,0.2l0.3,0.2l0.3,0.2l0.3,0.3l0.2,0.3l0.2,0.3l0.2,0.3l0.2,0.3l0.1,0.4l0.1,0.4v0.4L482.4,305.4z M498.9,198.9
	l-0.1,0.4l-5,31.2l-0.1,0.4l-0.1,0.4l-0.2,0.4l-0.2,0.4l-0.2,0.3l-0.2,0.3l-0.3,0.3l-0.3,0.3l-0.3,0.2l-0.4,0.2l-0.4,0.2l-0.4,0.1
	l-0.4,0.1h-0.4h-0.4h-0.4l-3-0.5l-0.4-0.1l-0.4-0.1l-0.4-0.2l-0.4-0.2l-0.3-0.2l-0.3-0.3l-0.3-0.3l-0.3-0.3l-0.2-0.3l-0.2-0.4
	l-0.2-0.4l-0.1-0.4l-0.1-0.4v-0.4v-0.4l0.1-0.4l5-31.2l0.1-0.4l0.1-0.4l0.2-0.4l0.2-0.4l0.2-0.3l0.3-0.3l0.3-0.3l0.3-0.2l0.4-0.2
	l0.4-0.2l0.4-0.1l0.4-0.1l0.4-0.1h0.4h0.4h0.4l3,0.5l0.4,0.1l0.4,0.1l0.4,0.2l0.4,0.2l0.3,0.2l0.3,0.3l0.3,0.3l0.2,0.3l0.2,0.4
	l0.2,0.4l0.1,0.4l0.1,0.4l0.1,0.4v0.4V198.9z"/>
<path class="st2" d="M270.9,232.5V256l0,0v0.4v0.3v0.3l-0.1,0.3l-0.1,0.3l-0.1,0.3l-0.1,0.3l-0.1,0.3l-0.2,0.3L270,259l-0.2,0.3
	l-0.2,0.3l-0.5,0.5l-0.5,0.5L268,261l-0.6,0.4l-0.6,0.3l-0.3,0.1l-0.3,0.1l-0.6,0.2l-0.6,0.1h-0.7c-0.3,0-207.7,0-208.2,0h-1.6h-0.8
	l-0.8-0.1l-0.8-0.1l-0.8-0.1l-0.8-0.2l-0.8-0.2l-0.7-0.3l-0.3-0.1l-0.3-0.2l-0.3-0.2l-0.3-0.2l-0.3-0.2l-0.3-0.2l-0.3-0.2l-0.3-0.2
	l-0.2-0.3l-0.2-0.3l-0.5-0.6l-0.5-0.6l-11.8-16.8l0,0l-0.3-0.4l-0.3-0.4l-0.2-0.4l-0.2-0.4l-0.1-0.5l-0.1-0.5l-0.1-0.5v-0.5V237
	l0.1-0.5l0.1-0.5l0.1-0.5l0.2-0.4l0.2-0.4l0.2-0.4l0.3-0.4l29.3-41.8l0,0c0.4-0.5,0.9-1.3,1.3-1.8l0.6-0.8l0.7-0.8l0.7-0.8l0.7-0.8
	l0.7-0.7l0.4-0.3l0.4-0.3l0.4-0.3l0.4-0.3l0.4-0.3l0.4-0.3l0.4-0.2l0.4-0.2l0.4-0.2l0.4-0.2l0.4-0.1l0.4-0.1l0.4-0.1l0.4-0.1
	l0.5-0.1h0.5h0.5c0.1,0,156.6,0,156.9,0h1.2h0.6l0.6,0.1l0.6,0.1l0.6,0.1l0.6,0.1l0.6,0.2l0.5,0.2l0.5,0.2l0.5,0.3l0.5,0.3l0.5,0.3
	l0.5,0.3l0.5,0.4l0.5,0.4l0.5,0.4l0.5,0.4l0.4,0.4l0.4,0.5l0.8,1l0.8,1l0.8,1l0.7,1l1.4,2l20.8,29.7l0,0c0.4,0.5,1.1,1.6,1.5,2.2
	l0.7,1.1l0.3,0.6l0.3,0.6l0.3,0.6l0.2,0.6l0.2,0.6l0.1,0.6l0.1,0.6l0.1,0.6v0.6C270.9,231.9,270.9,232.5,270.9,232.5z M239.8,199.3
	c-10.3-14.8-30.7-18.4-45.5-8c-26,18.3-13,59.3,18.7,59.4h39.7c6.6,0,12-5.4,12-12c0-2.5-0.8-4.9-2.2-6.9L239.8,199.3z M180.9,246.3
	c0.1,3.1,4.7,3.1,4.8,0C185.6,243.2,181,243.2,180.9,246.3z M77,186.2c-4.4,0-7.9,3.6-7.9,7.9v47.6c0,4.4,3.6,7.9,7.9,7.9h90.7
	c4.4,0,7.9-3.6,7.9-7.9v-47.6c0-4.4-3.6-7.9-7.9-7.9L77,186.2L77,186.2z"/>
<path class="st2" d="M297.2,344.4c4.9-3.4,8.3-8.4,9.6-14.2c-0.2-0.1-0.5-0.1-0.7-0.2c-10.7-4.1-19.5-11.9-24.7-22.1l-10.6-1.9
	c-10.6,7.3-13.3,21.8-6,32.4C272.1,349,286.6,351.7,297.2,344.4z M286.5,319.7c0.8-0.8,2.2-0.8,3.1,0c0.8,0.8,0.8,2.2,0,3.1
	c-0.4,0.4-1,0.6-1.5,0.6c-0.6,0-1.1-0.2-1.5-0.6C285.7,321.9,285.7,320.6,286.5,319.7z"/>
<path class="st2" d="M303.5,288.5C303.5,288.5,303.6,288.5,303.5,288.5c2.1,0.2,4.3,0.5,6.4,0.7c0.9,0.1,1.9,0.3,2.8,0.5
	c1.1,0.3,2.1,0.8,3,1.4c1.2,0.8,2.1,2,2.8,3.3c0.6,1.1,1,2.3,1.3,3.5c0.6,2,1,4.1,1.6,6.2c0,0.1,0,0.2-0.1,0.3
	c-0.5,0.5-0.9,1-1.2,1.6c-0.5,0.7-1,1.4-1.5,2c-0.3,0.4-0.7,0.9-1,1.3c-0.4,0.5-0.8,1.1-1.2,1.6c-0.3,0.4-0.7,0.9-1,1.3
	c-0.4,0.6-0.8,1.2-1.3,1.7c-0.4,0.5-0.8,1.1-1.3,1.6c-0.4,0.4-0.8,0.8-1.3,1.1c-0.9,0.6-1.8,0.9-2.9,0.9c-0.9,0-1.7-0.2-2.5-0.6
	c-1-0.5-2-1-2.9-1.6c-0.6-0.4-1.2-0.8-1.7-1.2c-0.5-0.4-1-0.8-1.5-1.1c-0.1-0.1-0.2-0.2-0.2-0.3c-0.2-0.9-0.9-1.6-1.9-1.7
	c-0.2,0-0.3-0.1-0.4-0.2c0-0.1-0.1-0.1-0.1-0.1c-0.4-0.4-0.9-0.8-1.3-1.2c-0.6-0.7-1.2-1.4-1.8-2.1c-0.5-0.7-1-1.4-1.5-2.1
	s-0.8-1.5-0.9-2.3c-0.2-1.3,0.2-2.5,0.9-3.6c0.5-0.8,1.1-1.4,1.7-2.1c0.6-0.6,1.3-1.2,1.9-1.8c0.4-0.4,0.8-0.8,1.2-1.2
	c0.5-0.5,1-0.9,1.5-1.4c0.3-0.2,0.5-0.5,0.8-0.8c0.4-0.4,0.8-0.8,1.2-1.2c0.4-0.4,0.8-0.8,1.2-1.1c0.4-0.3,0.7-0.7,1-1.1
	C303.4,288.7,303.5,288.6,303.5,288.5z M308.9,297.3c-0.1,0.1-0.1,0.2-0.2,0.3c-0.5,0.6-0.6,1.3-0.4,2.1c0.3,1,1.1,1.5,2.1,1.4
	c1.1-0.1,1.8-0.7,2.2-1.7c0.3-0.9-0.1-2.2-1-2.6C310.7,296.3,309.6,296.5,308.9,297.3z"/>
<path class="st4" d="M785.3,79.7c-3.1-21-4.7-42-3-63.1C782,37.7,783.2,58.8,785.3,79.7z"/>
<path class="st2" d="M52.7,465.6V460c0-3.1,2.5-5.6,5.6-5.6s5.6,2.5,5.6,5.6v5.6h185l0,0h0.4h0.4h0.3l0.3-0.1l0.3-0.1l0.3-0.1
	l0.5-0.3l0.5-0.3l0.5-0.4l0.5-0.4l0.5-0.5l0.5-0.5l0.5-0.5l0.5-0.6l0.5-0.6l0.9-1.2l0.9-1.2l3.9-5.6l0,0H260l-1.1-0.1l-1.1-0.1
	l-1.1-0.2l-1.1-0.2l-1.1-0.3l-1.1-0.3l-1.1-0.4l-1-0.4l-1-0.4l-1-0.5l-1-0.5l-1-0.6l-0.9-0.6l-0.9-0.7l-0.9-0.7l-0.8-0.7l-0.8-0.8
	l-0.8-0.8l-0.7-0.8l-0.7-0.9l-0.7-0.9l-0.6-0.9l-0.6-1l-0.5-1l-0.5-1l-0.4-1l-0.4-1l-0.4-1.1l-0.3-1.1l-0.3-1.1l-0.2-1.1l-0.2-1.1
	l-0.1-1.1l-0.1-1.1v-1.1v-1.1l0.1-1.1l0.1-1.1l0.2-1.1l0.2-1.1l0.3-1.1l0.3-1.1l0.4-1l0.4-1l0.5-1l0.5-1l0.5-1l0.6-0.9l0.6-0.9
	l0.7-0.9l0.7-0.9l0.7-0.8l0.8-0.8l0.8-0.8l0.8-0.7l0.9-0.7l0.9-0.6l0.9-0.6l1-0.6l1-0.5l1-0.5l1-0.4l1-0.4l-12-17.1l0,0l-0.6-0.8
	l-0.6-0.8l-0.6-0.7l-0.6-0.7l-0.3-0.3l-0.3-0.3l-0.4-0.3l-0.4-0.3l-0.4-0.3l-0.4-0.3l-0.4-0.2l-0.4-0.2l-0.4-0.2l-0.4-0.2l-0.9-0.3
	l-0.9-0.3l-0.9-0.2l-0.9-0.2l-0.9-0.1l-1-0.1h-1H75.8l0,0h-0.7h-0.7l-0.7,0.1l-0.7,0.1l-0.7,0.1l-0.7,0.2l-0.6,0.2l-0.6,0.3
	l-0.6,0.3l-0.6,0.4l-0.5,0.4l-0.5,0.4l-0.5,0.5l-0.4,0.5l-0.4,0.5l-0.4,0.6l-9.5,14l4.5,3.1c2.5,1.7,3.1,5.1,1.3,7.6
	c-1.7,2.5-5.1,3.1-7.6,1.3l0,0l-4.5-3.1l-4.3,6.1l0,0l-1.2,1.7l-0.6,0.8l-0.5,0.8l-0.5,0.8l-0.4,0.8l-0.4,0.8l-0.3,0.8l-0.3,0.9
	l-0.2,0.9l-0.2,0.9l-0.1,0.9l-0.1,1v1v1v0.3v0.3v0.3v0.3v28.9l0,0v0.9v0.9v0.4l0.1,0.4l0.1,0.4l0.1,0.4l0.1,0.4l0.2,0.4l0.2,0.4
	l0.2,0.4l0.2,0.4l0.2,0.4l0.3,0.3l0.3,0.3l0.3,0.3l0.3,0.3l0.3,0.3l0.4,0.2l0.4,0.2l0.4,0.2l0.4,0.2l0.4,0.2l0.4,0.1l0.4,0.1
	l0.4,0.1l0.4,0.1h0.4h0.4h0.9h2.9V465.6z"/>
<g>
	<g>
		<polyline class="st5" points="254.8,514.6 258.1,502.4 82.3,502.4 98.4,514.6 		"/>
		<path class="st5" d="M270,525.3"/>
		<polyline class="st5" points="290.8,555 301.6,544.2 301.5,544 281.1,514.9 270,525.3 		"/>
		<path class="st5" d="M294.6,564.2"/>
		<polyline class="st5" points="294.6,587.7 307.9,598.1 307.9,561.8 294.6,564.2 		"/>
		<path class="st5" d="M287.3,593.8"/>
		<polyline class="st5" points="79.8,593.8 67.5,616 288.2,616 287.3,593.8 		"/>
		<path class="st5" d="M79.8,593.8"/>
		<path class="st5" d="M68.9,589.6"/>
		<polyline class="st5" points="57.1,572.8 29.5,579.9 47.3,605.2 68.9,589.6 		"/>
		<path class="st5" d="M57,565.4"/>
		<polyline class="st5" points="86.3,523.6 86.2,523.6 61.3,516.1 61.1,516.4 29.1,562.2 57,565.4 		"/>
		<path class="st5" d="M199.3,573.5c0,4.4-3.6,7.9-7.9,7.9h-90.7c-4.4,0-7.9-3.5-7.9-7.9v-47.6c0-4.4,3.6-7.9,7.9-7.9h90.7
			c4.4,0,7.9,3.5,7.9,7.9V573.5z"/>
		<path class="st5" d="M207,580.4c-3.1-0.1-3.1-4.7,0-4.8C210.1,575.7,210.1,580.3,207,580.4z"/>
		<path class="st5" d="M236.7,580.6c-41-1.6-41-60.3,0-61.9c27.5-0.1,41.2,33.7,21.9,52.8C253,577.1,245.3,580.6,236.7,580.6z"/>
		<path class="st5" d="M283.5,577.4c-6.2,6.3-17.2,1.8-17.1-7.1c0-5.5,4.5-10,10-10C285.4,560.3,289.8,571.2,283.5,577.4z"/>
	</g>
	<path class="st5" d="M301.5,544c0,0,6.4,7.8,6.4,17.7"/>
	<path class="st5" d="M258.1,502.4c0,0,14.1-0.2,23,12.5"/>
	<path class="st5" d="M61.3,516.1c0,0,6.6-13.8,21-13.8"/>
	<path class="st5" d="M29.5,579.9c0,0-7.2-8-0.4-17.7"/>
	<path class="st5" d="M47.3,605.2c7.8,11.6,20.3,10.8,20.3,10.8"/>
	<path class="st5" d="M288.2,616c0,0,19.8,1,19.8-17.9"/>
</g>
<g>
	<text transform="matrix(1 0 0 1 185.7001 35.6898)" class="st0 st1">u/_Jack02 Reddit</text>
</g>
</svg>
