<?xml version="1.0" encoding="UTF-8" standalone="no"?>
<svg
   xmlns:dc="http://purl.org/dc/elements/1.1/"
   xmlns:cc="http://creativecommons.org/ns#"
   xmlns:rdf="http://www.w3.org/1999/02/22-rdf-syntax-ns#"
   xmlns:svg="http://www.w3.org/2000/svg"
   xmlns="http://www.w3.org/2000/svg"
   xmlns:sodipodi="http://sodipodi.sourceforge.net/DTD/sodipodi-0.dtd"
   xmlns:inkscape="http://www.inkscape.org/namespaces/inkscape"
   sodipodi:docname="Flower Line.svg"
   inkscape:version="1.0 (4035a4fb49, 2020-05-01)"
   id="svg8"
   version="1.1"
   viewBox="0 0 10 311"
   height="311mm"
   width="10mm">
  <defs
     id="defs2" />
  <sodipodi:namedview
     inkscape:window-maximized="1"
     inkscape:window-y="-8"
     inkscape:window-x="-8"
     inkscape:window-height="1089"
     inkscape:window-width="2048"
     showgrid="false"
     inkscape:document-rotation="0"
     inkscape:current-layer="layer1"
     inkscape:document-units="mm"
     inkscape:cy="533.98245"
     inkscape:cx="18.897638"
     inkscape:zoom="0.74440648"
     inkscape:pageshadow="2"
     inkscape:pageopacity="0.0"
     borderopacity="1.0"
     bordercolor="#666666"
     pagecolor="#ffffff"
     id="base" />
  <metadata
     id="metadata5">
    <rdf:RDF>
      <cc:Work
         rdf:about="">
        <dc:format>image/svg+xml</dc:format>
        <dc:type
           rdf:resource="http://purl.org/dc/dcmitype/StillImage" />
        <dc:title></dc:title>
      </cc:Work>
    </rdf:RDF>
  </metadata>
  <g
     id="layer1"
     inkscape:groupmode="layer"
     inkscape:label="Layer 1">
    <path
       id="path847"
       d="m 0.08062925,60.886546 c 0.04204,-0.13146 0.16986,-0.33243 0.284032,-0.44661 0.189164,-0.18916 0.25149,-0.20758 0.70229405,-0.20758 0.272089,0 0.494708,-0.0126 0.494708,-0.0279 0,-0.0154 -0.06361,-0.1681 -0.141347,-0.33943 -0.179409,-0.39538 -0.188237,-1.01018 -0.01932,-1.3457 0.187808,-0.37304 0.680236,-0.71651 1.027265,-0.71651 0.319389,0 0.543195,0.0996 0.947537,0.42179 0.319918,0.25489 0.607887,0.28415 0.792206,0.0805 0.121324,-0.13406 0.12162,-0.16419 0.0061,-0.62525 -0.06673,-0.26643 -0.179676,-0.61669 -0.250982,-0.77837 -0.124114,-0.28141 -0.151573,-0.29933 -0.643522,-0.41989 -0.60429,-0.14809 -1.251481,-0.54961 -1.525552,-0.94647 -0.246658,-0.35716 -0.406787,-0.75332 -0.406787,-1.00639 0,-0.28202 -0.133707,-0.6481 -0.333438,-0.91292 -0.25749205,-0.34141 -0.22351105,-0.41348 0.169569,-0.3596 0.184985,0.0253 0.530662,0.10851 0.768171,0.18479 0.23751,0.0763 0.678111,0.15884 0.979112,0.18347 0.867886,0.071 1.188632,0.31094 1.385799,1.03658 0.147801,0.54396 0.143635,1.01519 -0.01129,1.27746 -0.105075,0.17787 -0.113825,0.25338 -0.04816,0.41559 0.04414,0.10902 0.170782,0.48048 0.281436,0.82545 0.254496,0.79342 0.394155,0.8208 0.466354,0.0914 0.04161,-0.42032 0.123361,-0.63962 0.545785,-1.46402 0.584364,-1.14043 0.727868,-1.57861 0.725499,-2.21525 -0.0021,-0.5662 -0.08292,-0.94098 -0.317074,-1.47044 l -0.176303,-0.39865 -0.225779,0.11675 c -0.175383,0.0907 -0.381658,0.11133 -0.924159,0.0925 -0.823152,-0.0286 -0.912389,-0.0828 -1.096127,-0.6657 -0.0682,-0.21636 -0.178922,-0.42277 -0.246047,-0.45869 -0.06713,-0.0359 -0.273963,-0.0482 -0.459637,-0.0272 -0.247544,0.0279 -0.387203,0.006 -0.523601,-0.0838 -0.37454,-0.24541 -0.493565,-0.92013 -0.275312,-1.56067 0.1094,-0.32107 0.118427,-0.32857 0.273341,-0.22706 0.147651,0.0967 0.173784,0.0904 0.333475,-0.0805 0.263735,-0.28231 0.520224,-0.38627 0.953002,-0.38627 h 0.393811 l 0.07741,-0.28748 c 0.04258,-0.15811 0.0556,-0.32278 0.02893,-0.36592 -0.03132,-0.0507 -0.241124,-0.0669 -0.592725,-0.0459 -0.621902,0.0372 -0.984454,0.19263 -1.359327,0.58294 -0.204898,0.21333 -0.228955,0.27086 -0.15203,0.36355 0.166551,0.20068 -0.05362,0.11928 -0.327288,-0.12101 -0.335582,-0.29464 -0.456317,-0.58791 -0.456317,-1.10838 0,-0.48602 0.07731,-0.61998 0.563836,-0.97713 0.192682,-0.14144 0.369745,-0.30776 0.393474,-0.3696 0.02373,-0.0618 -0.05333,-0.35337 -0.171252,-0.64786 -0.117918,-0.29448 -0.214396,-0.59891 -0.214396,-0.67649 0,-0.29757 0.378734,-0.78506 0.763473,-0.98273 0.08584,-0.0441 0.320353,-0.0802 0.52113,-0.0802 0.334081,0 0.39421,0.0272 0.708821,0.32156 0.189075,0.17686 0.364555,0.32156 0.389956,0.32156 0.0254,0 0.04618,-0.0817 0.04618,-0.18149 0,-0.50479 0.565568,-1.07919 1.138214,-1.156 0.269498,-0.0361 0.291004,-0.0554 0.291789,-0.26185 0.0016,-0.4179 0.191208,-0.93832 0.675181,-1.85309 0.26597,-0.50271 0.462591,-0.93501 0.436936,-0.96067 -0.02565,-0.0256 -0.344055,-0.0597 -0.707555,-0.0755 l -0.66091,-0.0289 -0.203254,0.2933 c -0.453688,0.65466 -1.091673,1.09589 -1.77554,1.22794 -0.296554,0.0573 -0.482713,0.0469 -0.899789,-0.0503 -0.424517,-0.0989 -0.596681,-0.10784 -0.893222,-0.0463 -0.202041,0.0419 -0.379246,0.0651 -0.393792,0.0516 -0.07891,-0.0735 0.105578,-0.43294 0.426385,-0.83077 0.200038,-0.24806 0.456932,-0.63453 0.570877,-0.85882 0.466326,-0.91789 0.806241,-1.11602 1.689632,-0.98485 0.595986,0.0885 0.810244,0.18657 1.091084,0.49939 0.173233,0.19296 0.206034,0.20016 1.082909,0.23772 l 0.904265,0.0387 0.0306,-0.33471 c 0.01683,-0.1841 0.0035,-0.53855 -0.02951,-0.78768 -0.06392,-0.48165 -0.39859,-1.37566 -0.531455,-1.4197 -0.04374,-0.0145 -0.118682,0.0681 -0.166525,0.18365 -0.188235,0.45444 -0.657071,0.6978 -1.10567,0.57394 -0.352952,-0.0975 -0.588942,-0.41138 -0.650197,-0.86491 -0.05803,-0.42967 -0.143278,-0.62838 -0.269368,-0.6279 -0.04775,2.1e-4 -0.279743,0.0798 -0.515554,0.17695 -0.235811,0.0971 -0.504175,0.17738 -0.596366,0.17831 -0.44225,0.005 -0.850796,-0.51258 -0.917774,-1.16153 l -0.03867,-0.37462 0.507595,-0.0799 c 0.374933,-0.059 0.638545,-0.15773 1.00864,-0.3776 0.275574,-0.16371 0.500178,-0.32034 0.499122,-0.34806 -0.0011,-0.0277 -0.08961,-0.15608 -0.196785,-0.28524 l -0.194863,-0.23483 -0.557366,0.28843 c -0.334912,0.17331 -0.655653,0.28842 -0.803624,0.28842 -0.213754,0 -0.246257,0.0231 -0.246257,0.17523 v 0.17522 l -0.339424,-0.10123 c -0.598379,-0.17847 -0.846111,-0.59443 -0.92599105,-1.55483 -0.04561,-0.54836 0.01151,-0.65521 0.49575805,-0.92737 0.311172,-0.17489 0.391063,-0.37865 0.276883,-0.70619 -0.135531,-0.38878 -0.09843,-0.66031 0.117621,-0.86073 0.243991,-0.22633 0.586599,-0.34465 0.998022,-0.34465 0.281226,0 0.310849,0.0153 0.271186,0.14029 -0.03573,0.11256 0.009,0.16268 0.226447,0.25352 0.149036,0.0623 0.348005,0.18403 0.442156,0.27058 0.200904,0.1847 0.434351,0.66049 0.43659,0.88982 0.0014,0.13967 0.03909,0.16078 0.2874,0.16078 0.157207,0 0.309948,0.002 0.339424,0.003 0.104798,0.006 0.09765,-0.2949 -0.01635,-0.68703 -0.148368,-0.51037 -0.696984,-1.09388 -1.207601,-1.28442 -0.330677,-0.12339 -0.353257,-0.12369 -0.439452,-0.006 -0.07821,0.10695 -0.116416,0.0167 -0.274338,-0.64778 -0.574599,-2.41784 -0.424842,-3.25569 0.924667,-5.17332 0.210002,-0.29841 0.431404,-0.58371 0.492005,-0.634 0.154486,-0.12822 0.140428,-0.16818 -0.111491,-0.31699 -0.157871,-0.0933 -0.300983,-0.29822 -0.497224,-0.71213 -0.360148,-0.75959 -0.40614,-0.95346 -0.234052,-0.98661 0.112194,-0.0216 0.131371,-0.0975 0.132466,-0.52449 0.0011,-0.4235 0.0304,-0.54167 0.193307,-0.77907 l 0.192029,-0.27984 -0.264766,-0.20168 -0.264766,-0.20167 -0.199337,0.23141 c -0.297693,0.3456 -0.43891,0.90594 -0.362859,1.43979 0.05601,0.39314 0.07752,0.43352 0.222772,0.41814 0.235943,-0.025 0.197864,0.0309 -0.137652,0.20209 -0.825889,0.42134 -1.695702,-0.18479 -1.701213,-1.18548 -0.0032,-0.57596 -0.123665,-0.87225 -0.53801905,-1.32296 -0.234642,-0.25523 -0.411117,-0.52367 -0.454015,-0.6906 -0.125387,-0.48794 0.06707,-1.16984 0.41997,-1.48804 0.129922,-0.11714 0.246581,-0.14028 0.65043505,-0.129 0.270666,0.008 0.492119,0.005 0.492119,-0.007 0,-0.0114 -0.05541,-0.13008 -0.123125,-0.26385 -0.186661,-0.36872 -0.205364,-1.1807 -0.03441,-1.49373 0.201202,-0.36841 0.654333,-0.66371 1.029171,-0.6707 0.254841,-0.005 0.391325,0.0521 0.798062,0.33248 0.542883,0.37423 0.647624,0.39724 0.889696,0.19547 0.162761,-0.13567 0.163767,-0.145 0.05947,-0.55143 -0.05835,-0.22738 -0.172944,-0.59186 -0.254651,-0.80995 l -0.148557,-0.39654 -0.414618,-0.0856 c -1.13935,-0.23532 -2.08377,-1.1638 -2.086282,-2.05105 -8.04e-4,-0.27748 -0.111557,-0.54411 -0.381899,-0.91924 -0.07217,-0.10014 -0.110961,-0.2148395 -0.08621,-0.2548795 0.05968,-0.0966 0.627967,-0.0192 1.04445,0.1422195 0.179751,0.0697 0.59778,0.14914 0.92895,0.17663 0.952512,0.079 1.249554,0.28076 1.45109,0.98538 0.216956,0.75854 0.217939,0.87743 0.01076,1.30088 l -0.192561,0.39358 0.18263,0.48114 c 0.100445,0.26463 0.215371,0.61227 0.255388,0.77254 0.06739,0.26991 0.0883,0.28912 0.283484,0.26047 0.19792,-0.0291 0.213538,-0.0554 0.257034,-0.43431 0.07664,-0.66754 0.168981,-0.93902 0.600234,-1.76459 0.715128,-1.369 0.818548,-1.68136 0.815079,-2.4617895 -0.0032,-0.72044 -0.09153,-1.05875 -0.424965,-1.62771 l -0.181921,-0.31043 -0.241877,0.40168 c -0.33235,0.55192 -0.495997,0.67371 -0.909193,0.67659 -0.286467,0.002 -0.380514,-0.0344 -0.592892,-0.22986 -0.214487,-0.19734 -0.261782,-0.29897 -0.314725,-0.67631 -0.03427,-0.24424 -0.08288,-0.47737 -0.108037,-0.51807 -0.07307,-0.11824 -0.281112,-0.087 -0.691187,0.10395 -0.463437,0.21574 -0.767342,0.22662 -1.009492,0.0362 -0.259467,-0.2041 -0.480352,-0.70263 -0.480352,-1.08415 v -0.32473 l 0.382723,-0.0395 c 0.382001,-0.0394 1.066134,-0.33588 1.401155,-0.60716 l 0.175644,-0.14223 -0.175861,-0.25818 c -0.204748,-0.30059 -0.230266,-0.30647 -0.499064,-0.11507 -0.324817,0.23129 -0.801638,0.42431 -1.052359,0.42601 -0.201584,0.002 -0.232238,0.0259 -0.232238,0.18589 0,0.17026 -0.01772,0.18062 -0.232237,0.13583 -0.63515705,-0.13261 -1.04602305,-0.65885 -1.10694205,-1.41778 -0.05381,-0.67038 -0.0039,-0.791 0.446923,-1.07937 0.42670605,-0.27296 0.43356705,-0.29307 0.30775405,-0.9022 -0.07421,-0.35928 -0.06927,-0.43107 0.0413,-0.59981 0.178446,-0.27234 0.64227,-0.4621 1.13409,-0.46398 0.391977,-0.002 0.410289,0.006 0.372464,0.15922 -0.03299,0.13335 0.01248,0.18835 0.266606,0.32246 0.370861,0.19572 0.626849,0.55053 0.679294,0.94153 l 0.03893,0.29021 h 0.34788 c 0.337916,0 0.34788,-0.006 0.34788,-0.21169 0,-0.62287 -0.559519,-1.41851 -1.197317,-1.70259 l -0.304095,-0.13545003 0.219032,-0.30236 c 0.361701,-0.49931 1.165509,-0.78694 1.590773,-0.56923 0.08584,0.044 0.2741,0.19267 0.418344,0.33049 0.346038,0.33064 0.538229,0.32165 1.016774,-0.0476 0.64448,-0.49722 1.15592,-0.46567 1.680723,0.10368 0.262608,0.28489 0.291569,0.35295 0.291569,0.68516003 0,0.28452 -0.04886,0.44826 -0.213713,0.71618 l -0.213712,0.34732 h 0.359474 c 0.739843,0 1.254831,0.46816 1.386391,1.26033 0.079,0.47571 -0.06601,0.85454 -0.502114,1.31175 -0.402217,0.42169 -0.530496,0.76427 -0.530496,1.41675 0,0.42113 -0.261824,0.86625 -0.599824,1.01975 -0.161369,0.0733 -0.389865,0.13353 -0.50777,0.13389 -0.255626,10e-4 -1.01371,-0.34041 -0.775816,-0.34916 0.187589,-0.007 0.239882,-0.13125 0.239882,-0.57042 0,-0.41307 -0.158141,-0.89923 -0.384929,-1.18334 l -0.169048,-0.21178 -0.258456,0.17605 c -0.14215,0.0968 -0.258676,0.20324 -0.258945,0.23648 -2.85e-4,0.0332 0.07123,0.16114 0.158875,0.28423 0.116846,0.16409 0.166659,0.35291 0.186709,0.70774 0.02389,0.42282 0.04495,0.48394 0.166688,0.48394 0.0955,0 0.132367,0.0412 0.117175,0.13086 -0.01219,0.072 0.06161,0.24079 0.164014,0.37515 0.533199,0.69962 0.822646,1.68037 0.746956,2.53095 -0.06689,0.7517195 -0.143555,0.9743095 -0.750642,2.1794595 -0.528784,1.0497 -0.718805,1.59846 -0.718805,2.07579 0,0.11597 0.03104,0.21086 0.06897,0.21086 0.03794,0 0.187685,0.10423 0.332777,0.23162 0.434095,0.38114 0.694355,1.12607 0.39342,1.12607 -0.101393,0 -0.145138,0.071 -0.180688,0.29333 -0.0258,0.16134 -0.09422,0.38483 -0.152048,0.49666 -0.05783,0.11183 -0.104924,0.22904 -0.104655,0.26047 5e-4,0.0623 0.43991,0.3787 0.525955,0.3787 0.115102,0 0.41293,-0.80034 0.4253,-1.14289 0.01495,-0.41411 0.09574,-0.46952 0.569747,-0.39077 0.661842,0.10994 0.883157,0.35329 0.803206,0.88314 -0.108386,0.71828 -0.104097,0.73352 0.276986,0.98408 0.192919,0.12685 0.377324,0.27251 0.409787,0.32369 0.164079,0.25868 -0.02553,1.39237 -0.296528,1.77295 -0.133675,0.18773 -0.595649,0.42811 -0.822757,0.42811 -0.05816,0 -0.105741,-0.0607 -0.105741,-0.1348 0,-0.10468 -0.07077,-0.14542 -0.31664,-0.18229 -0.309387,-0.0464 -0.740585,-0.23548 -1.125878,-0.49371 l -0.192008,-0.12869 -0.196294,0.29662 c -0.222162,0.33571 -0.258633,0.28047 0.452476,0.68525 0.278178,0.15835 0.618223,0.28154 0.911086,0.33006 0.408086,0.0676 0.467258,0.0971 0.467258,0.23254 0,0.31062 -0.220895,0.8875 -0.422455,1.10327 -0.264685,0.28335 -0.623021,0.29418 -1.233365,0.0373 -0.528729,-0.22254 -0.573264,-0.1927 -0.688319,0.46115 -0.04413,0.2508 -0.129638,0.51058 -0.190017,0.57729 -0.150636,0.16645 -0.142168,0.22031 0.117409,0.74671 l 0.227188,0.46072 0.737835,0.18056 c 0.774896,0.18963 1.27314,0.45723 1.502194,0.80681 0.06585,0.10051 0.225144,0.60508 0.353978,1.12127 0.228718,0.91639 0.293034,1.40371 0.185079,1.40232 -0.02948,-3.6e-4 -0.193774,-0.11213 -0.365107,-0.24833 -0.330324,-0.26259 -0.46562,-0.29953 -1.261126,-0.34434 -0.588976,-0.0332 -0.882576,-0.16677 -1.156926,-0.52646 -0.17107,-0.22428 -0.203817,-0.34197 -0.225038,-0.80875 -0.01366,-0.30045 0.0094,-0.67038 0.05131,-0.82206 0.07074,-0.25619 0.0538,-0.32043 -0.23837,-0.90407 l -0.314518,-0.62828 -0.348185,0.44437 c -1.315894,1.6794 -1.705868,2.6739 -1.538276,3.9229 0.09307,0.69361 0.381475,1.98922 0.441925,1.98527 0.02288,-0.002 0.125619,-0.12436 0.22832,-0.27304 0.230696,-0.33399 0.63851,-0.54148 1.069343,-0.54405 0.330705,-0.002 0.334805,2.8e-4 1.027726,0.55938 0.203899,0.16453 0.333088,0.12695 0.824829,-0.23994 0.595892,-0.44459 0.996712,-0.44842 1.512458,-0.0145 0.475315,0.39995 0.553099,0.98632 0.203886,1.53697 l -0.212799,0.33555 0.230663,4.3e-4 c 0.884984,0.002 1.476152,0.60948 1.479606,1.52162 0.0019,0.48863 -0.09564,0.69996 -0.501061,1.08619 -0.362296,0.34514 -0.497778,0.63736 -0.497778,1.07365 0,0.95838 -0.406678,1.4677 -1.165841,1.4601 -0.362528,-0.004 -0.853207,-0.23313 -0.658329,-0.30791 0.106826,-0.041 0.120053,-0.12828 0.09646,-0.63647 -0.02636,-0.56777 -0.12594,-0.88828 -0.380611,-1.22507 -0.09987,-0.13208 -0.110921,-0.13051 -0.392389,0.0558 l -0.289624,0.19166 0.184588,0.31497 c 0.138634,0.23657 0.18799,0.42711 0.198251,0.76541 0.0133,0.43858 0.0193,0.45163 0.228037,0.49617 0.117905,0.0251 0.176344,0.0495 0.129866,0.0542 -0.192083,0.0192 -0.177106,0.31005 0.03663,0.71121 0.394964,0.7413 0.583814,1.43201 0.583814,2.13525 0,0.85727 -0.128467,1.29318 -0.718798,2.43903 -0.528497,1.02582 -0.777312,1.8583 -0.575522,1.92556 0.184208,0.0614 0.573016,0.45505 0.753285,0.76265 0.247521,0.42237 0.469664,0.58235 1.047636,0.75447 0.805503,0.23989 1.113803,0.61326 1.050489,1.27218 -0.04097,0.42641 -0.31147,0.83924 -0.455509,0.6952 -0.05138,-0.0514 -0.304866,-0.15065 -0.563314,-0.2206 -0.401125,-0.10858 -0.525802,-0.11469 -0.851794,-0.0417 -0.210038,0.047 -0.436854,0.12566 -0.504035,0.17478 -0.115182,0.0842 -0.115194,0.1067 -2.15e-4,0.39409 0.09328,0.23313 0.149133,0.29311 0.237617,0.25517 0.427325,-0.18325 0.65129,-0.19907 1.047961,-0.074 0.221231,0.0697 0.410749,0.11622 0.42115,0.1033 0.0104,-0.0129 0.04886,-0.0794 0.08545,-0.14778 0.0612,-0.11431 0.08927,-0.10907 0.349963,0.0653 0.49898,0.33385 0.964882,0.74994 1.072288,0.95763 0.1859627,0.35962 0.1357937,0.73705 -0.13632,1.02558 -0.239984,0.25445 -0.242455,0.25519 -0.859736,0.25519 -0.478719,0 -0.628198,0.0238 -0.659366,0.10503 -0.02217,0.0578 -0.0027,0.32806 0.04329,0.60065 0.0724,0.4292 0.06789,0.526 -0.03365,0.72235 -0.151895,0.29373 -0.600859,0.49996 -1.072447,0.49263 -0.447981,-0.007 -0.747468,-0.0834 -0.624535,-0.15935 0.144181,-0.0891 0.108505,-0.96687 -0.06184,-1.52155 -0.08274,-0.26943 -0.15912,-0.49925 -0.169724,-0.51072 -0.0142,-0.0153 -0.557244,0.17449 -0.657185,0.22975 -0.007,0.004 0.04825,0.18352 0.122718,0.39926 0.07447,0.21574 0.136441,0.59087 0.137724,0.83363 0.0019,0.36242 0.0247,0.44567 0.127384,0.46545 0.08292,0.016 0.128295,0.096 0.134681,0.23747 0.0053,0.11737 0.133482,0.50281 0.284857,0.85652 0.268209,0.62672 0.275235,0.66498 0.275544,1.50061 3.57e-4,1.0246 -0.103546,1.37336 -0.756902,2.54007 -0.273245,0.48793 -0.444263,0.8854 -0.477902,1.11071 -0.06579,0.44063 -0.03283,0.67242 0.09559,0.67242 0.168262,0 0.620011,0.44711 0.757471,0.74969 0.07157,0.15754 0.130835,0.39095 0.131699,0.51868 0.0017,0.25626 0.08101,0.28389 0.358858,0.12505 0.264918,-0.15144 0.848542,-0.13389 1.123541,0.0338 0.288379,0.17584 0.350018,0.4122 0.233813,0.8966 -0.05007,0.20873 -0.07202,0.42909 -0.04876,0.48969 0.02325,0.0606 0.180477,0.19543 0.349387,0.29962 0.168909,0.1042 0.347304,0.24035 0.396431,0.30254 0.177022,0.22413 0.05554,1.18187 -0.211099,1.66428 -0.156255,0.2827 -0.382325,0.44079 -0.789309,0.55197 -0.265174,0.0724 -0.267967,0.071 -0.267967,-0.13542 0,-0.1944 -0.01875,-0.20861 -0.275188,-0.20861 -0.253218,0 -0.658881,-0.17007 -1.108693,-0.46479 -0.169817,-0.11127 -0.180732,-0.10711 -0.369897,0.1409 -0.183456,0.24052 -0.187894,0.2633 -0.07547,0.38753 0.238521,0.26356 1.034727,0.60547 1.485957,0.63811 l 0.430732,0.0312 -0.04841,0.36494 c -0.05975,0.45045 -0.3509,1.00225 -0.585123,1.10897 -0.27511,0.12535 -0.600743,0.0934 -1.015205,-0.0995 -0.210237,-0.0979 -0.425999,-0.17795 -0.479472,-0.17795 -0.05347,0 -0.127566,0.12059 -0.164653,0.26797 -0.03709,0.14738 -0.105648,0.41267 -0.152358,0.58953 -0.124093,0.46985 -0.109986,0.59026 0.128981,1.10092 0.199875,0.42712 0.239419,0.46815 0.525754,0.54554 1.194647,0.32286 1.284387,0.36068 1.596618,0.67291 0.329936,0.32993 0.350736,0.38295 0.641315,1.63438 0.183914,0.79208 0.220898,1.12028 0.126101,1.11905 -0.02947,-5e-4 -0.193775,-0.11213 -0.365108,-0.24833 -0.328202,-0.2609 -0.448328,-0.29393 -1.273061,-0.35001 -0.604145,-0.0411 -0.872253,-0.1631 -1.14499,-0.52108 -0.191468,-0.25131 -0.200488,-0.29886 -0.20675,-1.08981 -0.0065,-0.81709 -0.01004,-0.83412 -0.297134,-1.41707 l -0.290584,-0.59004 -0.363784,0.45717 c -0.494525,0.62148 -1.110462,1.61485 -1.305342,2.10522 -0.24337,0.61239 -0.224974,1.8093 0.04136,2.69078 0.106871,0.35372 0.220656,0.66985 0.252856,0.7025 0.0322,0.0327 0.182956,-0.003 0.335014,-0.0796 0.373312,-0.18776 0.753751,-0.2486 0.990837,-0.15845 0.107838,0.041 0.341425,0.20249 0.519082,0.35887 0.177656,0.15638 0.379259,0.28433 0.448007,0.28433 0.06875,0 0.316452,-0.14094 0.550455,-0.31321 0.234004,-0.17226 0.497584,-0.3361 0.585735,-0.36407 0.300976,-0.0955 0.651856,0.032 1.010114,0.36709 0.433371,0.40538 0.516619,0.75899 0.296062,1.2576 -0.07795,0.17621 -0.177523,0.34251 -0.221279,0.36956 -0.166244,0.10274 -0.06827,0.1837 0.22414,0.18521 0.390598,0.002 0.830189,0.20322 1.072077,0.49069 0.483595,0.57472 0.435405,1.62002 -0.09173,1.98966 -0.06909,0.0485 -0.225479,0.23886 -0.34754,0.42313 -0.181484,0.27399 -0.222001,0.4077 -0.222327,0.73368 -2.14e-4,0.21925 -0.03546,0.52726 -0.07831,0.68447 -0.198745,0.72915 -0.933859,1.0223 -1.66853,0.66536 -0.497259,-0.24158 -0.514755,-0.14101 -0.08017,0.46087 0.391762,0.54255 0.554863,1.05929 0.595274,1.88594 0.0457,0.9349 -0.08929,1.39768 -0.819262,2.80853 -0.48886,0.94485 -0.541046,1.08612 -0.574591,1.55548 -0.0355,0.49674 -0.03031,0.51873 0.137384,0.58249 0.420674,0.15994 0.819612,0.65468 0.943478,1.17005 0.04203,0.17486 0.02741,0.19651 -0.132775,0.19651 -0.168522,0 -0.180006,0.0229 -0.180006,0.35958 0,0.19778 -0.04897,0.47679 -0.108821,0.62003 -0.117688,0.28167 -0.11909,0.27907 0.262413,0.48601 0.15554,0.0844 0.203184,0.086 0.267011,0.009 0.155284,-0.18709 0.293986,-0.71607 0.293986,-1.12115 0,-0.33241 -0.02477,-0.42218 -0.125052,-0.45319 -0.06878,-0.0213 0.111278,-0.0252 0.400125,-0.009 0.557735,0.0317 0.786993,0.13238 0.983076,0.43164 0.104768,0.1599 0.106388,0.22059 0.01571,0.58853 -0.05561,0.22563 -0.09077,0.45888 -0.07812,0.51831 0.01264,0.0594 0.168842,0.20035 0.347108,0.31313 0.511604,0.32366 0.572557,0.46166 0.469464,1.06285 -0.161145,0.93972 -0.452886,1.33769 -1.065489,1.45347 -0.231447,0.0437 -0.232238,0.0453 -0.232238,0.47426 0,0.56935 -0.122027,0.95055 -0.397934,1.2431 -0.287026,0.30433 -0.656509,0.32364 -1.174136,0.0613 -0.565642,-0.28663 -0.654646,-0.23568 -0.740851,0.42411 -0.02534,0.19395 -0.09179,0.42241 -0.147657,0.50768 -0.09161,0.13983 -0.07775,0.20985 0.141291,0.71372 0.133579,0.30728 0.280265,0.5818 0.325968,0.61004 0.04571,0.0283 0.279766,0.0916 0.52014,0.14079 0.789538,0.16156 1.392808,0.49229 1.588619,0.87095 0.107378,0.20765 0.474334,1.6296 0.562934,2.18137 0.02783,0.17331 0.02042,0.303694 -0.01725,0.303694 -0.03631,0 -0.217173,-0.117764 -0.401924,-0.261704 -0.317205,-0.24713 -0.375193,-0.26475 -1.041335,-0.31635 -0.388425,-0.0301 -0.800866,-0.10399 -0.917814,-0.16448 -0.590971,-0.30559 -0.878686,-1.13247 -0.659716,-1.89598 0.06159,-0.21476 0.03768,-0.30814 -0.201219,-0.78557 -0.149117,-0.298 -0.308964,-0.65046 -0.355217,-0.78324 -0.06763,-0.19416 -0.103482,-0.22532 -0.18315,-0.1592 -0.144358,0.11981 -1.593026,2.43633 -1.760857,2.81575 -0.215963,0.48822 -0.241576,1.05444 -0.08146,1.800884 0.07587,0.35371 0.117423,0.66496 0.09233,0.69165 -0.02509,0.0267 -0.131239,0.0697 -0.235882,0.0955 -0.186599,0.0461 -0.192774,0.0362 -0.320931,-0.51301 -0.07479,-0.32048 -0.129373,-0.819744 -0.127637,-1.167374 0.004,-0.79211 0.148669,-1.14032 1.090361,-2.62355 0.400136,-0.63024 0.72752,-1.17812 0.72752,-1.21751 0,-0.0394 -0.05095,-0.11389 -0.113213,-0.16557 -0.138107,-0.11462 -0.549445,-0.92512 -0.668379,-1.31697 -0.04772,-0.15721 -0.101514,-0.33158 -0.11955,-0.38749 -0.02483,-0.077 -0.05928,-0.0639 -0.141826,0.054 -0.271385,0.38746 -0.968981,0.49194 -1.390029,0.2082 -0.33685,-0.227 -0.490374,-0.53055 -0.536222,-1.06019 -0.07367,-0.85103 -0.08992,-0.89316 -0.53320105,-1.38231 -0.472375,-0.52125 -0.536415,-0.68043 -0.476676,-1.18483 0.0976,-0.82406 0.494111,-1.19075 1.20700805,-1.11624 l 0.416664,0.0435 -0.104781,-0.20262 c -0.180645,-0.34933 -0.27416,-0.84904 -0.222881,-1.19099 0.05795,-0.38643 0.355096,-0.75921 0.77657,-0.97424 0.389252,-0.19858 0.658492,-0.14173 1.217278,0.25701 0.510982,0.36463 0.600868,0.38505 0.840573,0.19095 0.158713,-0.12852 0.163063,-0.15472 0.08602,-0.51807 -0.04463,-0.21049 -0.150033,-0.56565 -0.234221,-0.78925 -0.151285,-0.40181 -0.157393,-0.40745 -0.524709,-0.48379 -0.55803,-0.11597 -1.079429,-0.38535 -1.435963,-0.74189 -0.411333,-0.41133 -0.580761,-0.75224 -0.674568,-1.35731 -0.05089,-0.32822 -0.135593,-0.56699 -0.258155,-0.72768 -0.100329,-0.13154 -0.182417,-0.29368 -0.182417,-0.36032 0,-0.10344 0.05028,-0.11449 0.34382,-0.0756 0.189101,0.0251 0.5187,0.10569 0.732442,0.17913 0.213742,0.0734 0.645039,0.15552 0.958439,0.18241 0.936663,0.0803 1.2335,0.32416 1.438665,1.18167 0.132386,0.55332 0.121245,0.85838 -0.04107,1.12459 -0.132838,0.21787 -0.134026,0.24366 -0.02305,0.50021 0.06435,0.14877 0.188225,0.51167 0.275266,0.80643 0.204111,0.69122 0.335707,0.70935 0.400392,0.0551 0.06455,-0.65284 0.146103,-0.88173 0.668888,-1.87733 0.247648,-0.47161 0.517361,-1.05745 0.599363,-1.30185 0.176287,-0.5254 0.196018,-1.30236 0.04726,-1.86115 -0.104871,-0.39395 -0.433074,-1.01727 -0.535631,-1.01727 -0.03288,0 -0.102967,0.10427 -0.155755,0.23172 -0.140853,0.34004 -0.541495,0.75228 -0.782579,0.80524 -0.529765,0.11635 -1.015956,-0.28217 -1.097904,-0.89993 -0.05438,-0.40991 -0.148256,-0.63723 -0.26316,-0.63723 -0.04044,0 -0.249273,0.0804 -0.464079,0.17864 -0.410388,0.18771 -0.803591,0.22806 -1.031897,0.10587 -0.07479,-0.04 -0.22294,-0.22116 -0.32923,-0.40254 -0.152572,-0.26034 -0.200105,-0.4481 -0.225796,-0.8919 -0.02643,-0.45652 -0.05431,-0.56244 -0.148412,-0.56372 -0.249376,-0.004 -0.70720405,-0.27716 -0.84958905,-0.50805 -0.08163,-0.13238 -0.202747,-0.50938 -0.269155,-0.8378 -0.14737,-0.72881 -0.105456,-0.85215 0.393982,-1.15947 0.38980205,-0.23984 0.48070305,-0.42378 0.36275305,-0.73401 -0.04148,-0.10911 -0.07542,-0.3113 -0.07542,-0.44932 0,-0.49691 0.637824,-0.86464 1.376613,-0.79365 0.399889,0.0384 0.447297,0.0707 0.35257,0.23995 -0.05792,0.10351 -0.01684,0.16118 0.232407,0.32628 0.290779,0.1926 0.435759,0.42495 0.594129,0.95215 0.05891,0.19611 0.09128,0.21437 0.380002,0.21437 h 0.315606 l -0.02431,-0.31818 c -0.04756,-0.6225 -0.58797,-1.39315 -1.109061,-1.58158 -0.202131,-0.0731 -0.264901,-0.15707 -0.425049,-0.56871 -0.47659,-1.22499 -0.647768,-2.36482 -0.484386,-3.22539 0.117356,-0.61815 0.617735,-1.60493 1.220028,-2.40598 l 0.502428,-0.66823 -0.331463,-0.43937 c -0.335461,-0.44466 -0.576659,-0.92028 -0.648607,-1.27899 -0.02168,-0.10807 -0.04343,-0.19637 -0.04834,-0.1962 -0.0049,1.4e-4 -0.167123,0.0805 -0.360467,0.17864 -0.43469,0.22053 -0.705581,0.2248 -1.114437,0.0175 -0.436751,-0.22137 -0.574102,-0.49279 -0.63765905,-1.26007 -0.05584,-0.67411 -0.131641,-0.8398 -0.575885,-1.25881 -0.125005,-0.11791 -0.272645,-0.30121 -0.328089,-0.40734 -0.11621,-0.22244 -0.121289,-0.8407 -0.0098,-1.18939 z m 1.57035605,-0.10425 c 0.292683,0.27812 0.740995,0.50446 1.118901,0.56489 l 0.292389,0.0468 v -0.3516 -0.3516 l -0.317534,-0.0849 c -0.174646,-0.0467 -0.431799,-0.18525 -0.571454,-0.30787 l -0.25392,-0.22294 -0.245151,0.20373 c -0.134833,0.11204 -0.247472,0.22153 -0.25031,0.2433 -0.0028,0.0218 0.09935,0.13889 0.227079,0.26026 z m 0.303695,-43.3319 c 0.213544,0.1948 0.823523,0.46559 1.107595,0.49171 l 0.250102,0.023 0.0214,-0.33005 0.0214,-0.33006 -0.323249,-0.0814 c -0.177787,-0.0447 -0.432831,-0.17761 -0.566764,-0.2952 -0.133933,-0.1176 -0.26839,-0.21381 -0.298793,-0.21381 -0.03041,0 -0.164402,0.0832 -0.297773,0.18495 -0.260715,0.19886 -0.254222,0.24041 0.08609,0.55086 z m 0.04527,72.39825 c 0.310025,0.26087 0.723586,0.46185 1.091999,0.53068 l 0.311139,0.0581 0.04443,-0.32415 c 0.0477,-0.34802 -0.01079,-0.43727 -0.287904,-0.43926 -0.08402,-5e-4 -0.31791,-0.1147 -0.519759,-0.25355 l -0.366997,-0.25244 -0.248412,0.18947 c -0.136627,0.10421 -0.248412,0.21495 -0.248412,0.2461 0,0.0311 0.100762,0.14141 0.223915,0.24503 z m 0.151238,-11.25171 c 0.308178,-6e-5 1.008701,-0.28494 1.418884,-0.57702 0.220114,-0.15673 0.215027,-0.20174 -0.06241,-0.55229 l -0.130339,-0.16469 -0.495816,0.28974 c -0.290398,0.1697 -0.587567,0.28974 -0.717277,0.28974 -0.288561,0 -0.31674,0.036 -0.31674,0.40493 v 0.30965 z m 0.572927,-13.8198 c 0.01922,0.0192 0.177965,-0.001 0.352767,-0.0451 l 0.317822,-0.08 -0.02912,-0.3698 c -0.02364,-0.30024 0.0069,-0.43682 0.162329,-0.72614 l 0.191444,-0.35634 -0.236522,-0.19745 c -0.130087,-0.10861 -0.259232,-0.19746 -0.286987,-0.19746 -0.07054,0 -0.35205,0.4677 -0.468056,0.77762 -0.08934,0.23869 -0.09202,1.10635 -0.0037,1.19469 z m 0.606126,28.82489 c 0.372569,-0.002 0.421773,-0.0532 0.462351,-0.48584 0.02244,-0.23925 0.09606,-0.46148 0.199004,-0.60072 l 0.163385,-0.22099 -0.242659,-0.20125 c -0.133461,-0.11068 -0.264585,-0.20211 -0.291385,-0.20317 -0.07996,-0.003 -0.360974,0.42712 -0.460078,0.70444 -0.05077,0.14208 -0.09372,0.42714 -0.09545,0.63347 l -0.0031,0.37515 0.267966,-0.001 z m 0.866823,-48.46499 0.08516,0.16091 0.30111,-0.15183 c 0.165611,-0.0835 0.310675,-0.16012 0.322363,-0.17026 0.03822,-0.0331 -0.375947,-0.67858 -0.435432,-0.67858 -0.03186,0 -0.167728,0.0876 -0.301923,0.19468 -0.219086,0.17482 -0.23442,0.20947 -0.150217,0.33943 0.05158,0.0796 0.132098,0.21714 0.178937,0.30565 z m -0.159035,17.10837 c 0.145088,0.16032 0.475322,0.17 0.62694,0.0184 0.259981,-0.25998 0.04935,-0.7452 -0.323478,-0.7452 -0.354967,0 -0.546364,0.45841 -0.303462,0.72682 z m 0.20005,-43.49103 c 0.207791,0.20779 0.329474,0.21946 0.525055,0.0504 0.241709,-0.209 0.261201,-0.42041 0.05754,-0.62407 -0.218487,-0.21848 -0.324766,-0.22441 -0.569711,-0.0317 -0.235158,0.18498 -0.239288,0.37906 -0.01288,0.60546 z m 0.271214,72.57695 c 0.233265,0.29675 0.768171,0.10863 0.768171,-0.27014 0,-0.20291 -0.230461,-0.45929 -0.412846,-0.45929 -0.358427,0 -0.576618,0.44792 -0.355325,0.72943 z M 4.9314463,4.4062165 c 0.398523,0.19006 0.758576,-0.18332 0.57189,-0.59305 -0.104665,-0.22972 -0.391033,-0.29549 -0.623467,-0.14319 -0.149733,0.0981 -0.178276,0.16624 -0.160259,0.38252 0.01692,0.20314 0.06523,0.28381 0.211836,0.35372 z m -0.08273,72.4043295 c 0.415299,0.4153 1.010541,-0.20753 0.606102,-0.63418 -0.144403,-0.15234 -0.472891,-0.11973 -0.619649,0.0615 -0.168273,0.20781 -0.163838,0.3953 0.01355,0.57268 z m 0.148102,-29.20012 c 0.08146,0.10355 0.211541,0.18828 0.289078,0.18828 0.169037,0 0.491771,-0.30482 0.491771,-0.46448 0,-0.0625 -0.07893,-0.19261 -0.175397,-0.28908 -0.09647,-0.0965 -0.226553,-0.1754 -0.289079,-0.1754 -0.140745,0 -0.464475,0.31476 -0.464475,0.4516 0,0.0554 0.06665,0.18552 0.148102,0.28908 z m 0.313125,-14.49304 c 0.218483,0.21848 0.33609,0.2203 0.581746,0.009 0.154375,-0.13279 0.183818,-0.20477 0.145765,-0.35638 -0.06983,-0.27825 -0.359412,-0.44884 -0.586362,-0.34543 -0.154873,0.0706 -0.297742,0.28146 -0.312016,0.46058 -0.0025,0.0313 0.0744,0.13577 0.170867,0.23223 z m 0.87839,27.9585 c 0.350877,-0.32446 0.583619,-0.79681 0.688518,-1.39733 l 0.04057,-0.23224 h -0.35414 c -0.328449,0 -0.357207,0.0142 -0.396413,0.19651 -0.07335,0.34099 -0.25842,0.71893 -0.431796,0.88181 l -0.167347,0.15721 0.221259,0.27936 0.221259,0.27937 z m -0.110655,17.87669 c -0.0064,0.45153 0.04098,0.49864 0.503888,0.50093 0.177349,10e-4 0.197761,-0.0251 0.20935,-0.26699 0.03123,-0.65185 -0.151005,-1.29123 -0.443481,-1.55592 -0.12376,-0.112 -0.146457,-0.10723 -0.381326,0.0802 l -0.249733,0.19926 0.1836,0.3133 c 0.143382,0.24466 0.182308,0.40441 0.177702,0.72924 z m 0.720525,13.72491 c 0.253185,0.13595 0.566115,0.23764 0.808241,0.26263 l 0.395096,0.0408 -0.0222,-0.34822 -0.0222,-0.34822 -0.31458,-0.0534 c -0.173018,-0.0294 -0.506836,-0.16789 -0.741817,-0.30787 -0.234981,-0.13999 -0.442955,-0.2388 -0.462164,-0.21959 -0.01921,0.0192 -0.108854,0.14094 -0.199211,0.27051 l -0.164285,0.23557 0.154993,0.12297 c 0.08525,0.0676 0.340909,0.22281 0.568139,0.34483 z m 0.33243,-89.8089695 0.209641,0.23337 0.290563,-0.28247 c 0.159809,-0.15536 0.290562,-0.30646 0.290562,-0.33579 0,-0.0293 -0.113984,-0.14026 -0.253299,-0.24652 l -0.253299,-0.1932 -0.246905,0.23931 c -0.135798,0.13162 -0.246906,0.26465 -0.246906,0.29562 0,0.031 0.09434,0.16133 0.209643,0.28968 z m 0.251431,72.6557895 c 0.09096,0 0.539335,-0.43802 0.539335,-0.52687 0,-0.0386 -0.104507,-0.15838 -0.232238,-0.26626 l -0.232238,-0.19616 -0.263174,0.25437 -0.263175,0.25436 0.191717,0.24028 c 0.105445,0.13215 0.222342,0.24028 0.259773,0.24028 z m 0.43551,-43.66584 c 0.04115,0.003 0.195655,-0.11859 0.343341,-0.26983 l 0.268521,-0.27499 -0.263017,-0.23093 -0.263015,-0.23093 -0.273795,0.26735 -0.273796,0.26736 0.193471,0.2334 c 0.106409,0.12838 0.227139,0.23573 0.26829,0.23857 z"
       style="fill:#000000;stroke-width:0.0714577" />
    <path
       style="fill:#000000;stroke-width:0.0714576"
       d="m 0.08062825,162.48655 c 0.04204,-0.13146 0.16986,-0.33243 0.284032,-0.44661 0.189164,-0.18916 0.25149,-0.20758 0.70229405,-0.20758 0.272089,0 0.494708,-0.0126 0.494708,-0.0279 0,-0.0154 -0.06361,-0.1681 -0.141347,-0.33943 -0.179409,-0.39538 -0.188237,-1.01018 -0.01932,-1.3457 0.187808,-0.37304 0.680236,-0.71651 1.027265,-0.71651 0.319389,0 0.543195,0.0996 0.947537,0.42179 0.319918,0.25489 0.607888,0.28415 0.792206,0.0805 0.121324,-0.13406 0.12162,-0.16419 0.0061,-0.62525 -0.06673,-0.26643 -0.179676,-0.61669 -0.250982,-0.77837 -0.124114,-0.28141 -0.151573,-0.29933 -0.643522,-0.41989 -0.60429,-0.14809 -1.251481,-0.54961 -1.525552,-0.94647 -0.246658,-0.35716 -0.406787,-0.75332 -0.406787,-1.00639 0,-0.28202 -0.133707,-0.6481 -0.333438,-0.91292 -0.25749205,-0.34141 -0.22351105,-0.41348 0.169569,-0.3596 0.184985,0.0253 0.530662,0.10851 0.768171,0.18479 0.23751,0.0763 0.678111,0.15884 0.979112,0.18347 0.867886,0.071 1.188633,0.31094 1.385799,1.03658 0.147801,0.54396 0.143635,1.01519 -0.01129,1.27746 -0.105075,0.17787 -0.113825,0.25338 -0.04816,0.41559 0.04414,0.10902 0.170782,0.48048 0.281436,0.82545 0.254496,0.79342 0.394155,0.8208 0.466354,0.0914 0.04161,-0.42032 0.123361,-0.63962 0.545785,-1.46402 0.584364,-1.14043 0.727868,-1.57861 0.725499,-2.21525 -0.0021,-0.5662 -0.08292,-0.94098 -0.317074,-1.47044 l -0.176303,-0.39865 -0.225779,0.11675 c -0.175383,0.0907 -0.381658,0.11133 -0.924159,0.0925 -0.823152,-0.0286 -0.912389,-0.0828 -1.096127,-0.6657 -0.0682,-0.21636 -0.178922,-0.42277 -0.246047,-0.45869 -0.06713,-0.0359 -0.273963,-0.0482 -0.459637,-0.0272 -0.247544,0.0279 -0.387203,0.006 -0.523601,-0.0838 -0.37454,-0.24541 -0.493565,-0.92013 -0.275312,-1.56067 0.1094,-0.32107 0.118427,-0.32857 0.273341,-0.22706 0.147651,0.0967 0.173784,0.0904 0.333475,-0.0805 0.263735,-0.28231 0.520224,-0.38627 0.953002,-0.38627 h 0.39381 l 0.07741,-0.28748 c 0.04258,-0.15811 0.0556,-0.32278 0.02893,-0.36592 -0.03132,-0.0507 -0.241124,-0.0669 -0.592725,-0.0459 -0.621902,0.0372 -0.984454,0.19263 -1.359327,0.58294 -0.204898,0.21333 -0.228955,0.27086 -0.15203,0.36355 0.166551,0.20068 -0.05362,0.11928 -0.327288,-0.12101 -0.335582,-0.29464 -0.456317,-0.58791 -0.456317,-1.10838 0,-0.48602 0.07731,-0.61998 0.563836,-0.97713 0.192682,-0.14144 0.369745,-0.30776 0.393474,-0.36961 0.02373,-0.0618 -0.05333,-0.35336 -0.171252,-0.64785 -0.117918,-0.29449 -0.214396,-0.59891 -0.214396,-0.67649 0,-0.29757 0.378734,-0.78506 0.763473,-0.98273 0.08584,-0.0441 0.320353,-0.0802 0.52113,-0.0802 0.334081,0 0.39421,0.0272 0.708821,0.32156 0.189075,0.17686 0.364555,0.32156 0.389956,0.32156 0.0254,0 0.04618,-0.0817 0.04618,-0.18149 0,-0.50479 0.565568,-1.07919 1.138214,-1.156 0.269498,-0.0361 0.291004,-0.0554 0.291789,-0.26185 0.0016,-0.4179 0.191208,-0.93832 0.675181,-1.85309 0.26597,-0.50271 0.462591,-0.93501 0.436936,-0.96067 -0.02565,-0.0256 -0.344055,-0.0597 -0.707555,-0.0755 l -0.66091,-0.0289 -0.203254,0.2933 c -0.453688,0.65466 -1.091673,1.09589 -1.77554,1.22794 -0.296554,0.0573 -0.482713,0.0469 -0.899789,-0.0503 -0.424517,-0.0989 -0.596681,-0.10784 -0.893222,-0.0463 -0.202041,0.0419 -0.379246,0.0651 -0.393792,0.0516 -0.07891,-0.0735 0.105578,-0.43294 0.426385,-0.83077 0.200038,-0.24806 0.456932,-0.63453 0.570877,-0.85882 0.466326,-0.9179 0.806241,-1.11602 1.689632,-0.98485 0.595986,0.0885 0.810244,0.18656 1.091084,0.49939 0.173233,0.19295 0.206034,0.20016 1.082909,0.23772 l 0.904265,0.0387 0.0306,-0.33471 c 0.01683,-0.1841 0.0035,-0.53855 -0.02951,-0.78768 -0.06392,-0.48165 -0.39859,-1.37566 -0.531455,-1.4197 -0.04374,-0.0145 -0.118682,0.0681 -0.166525,0.18365 -0.188235,0.45444 -0.657071,0.6978 -1.10567,0.57394 -0.352952,-0.0975 -0.588942,-0.41138 -0.650197,-0.86491 -0.05803,-0.42967 -0.143278,-0.62838 -0.269368,-0.6279 -0.04775,2.1e-4 -0.279743,0.0798 -0.515554,0.17695 -0.235811,0.0971 -0.504175,0.17738 -0.596366,0.17831 -0.44225,0.005 -0.850796,-0.51258 -0.917774,-1.16153 l -0.03867,-0.37462 0.507595,-0.0799 c 0.374933,-0.059 0.638545,-0.15773 1.00864,-0.3776 0.275574,-0.16371 0.500178,-0.32034 0.499122,-0.34806 -0.0011,-0.0277 -0.08961,-0.15608 -0.196785,-0.28524 l -0.194863,-0.23483 -0.557366,0.28843 c -0.334912,0.17331 -0.655653,0.28842 -0.803624,0.28842 -0.213754,0 -0.246257,0.0231 -0.246257,0.17523 v 0.17522 l -0.339424,-0.10123 c -0.598379,-0.17847 -0.846111,-0.59443 -0.92599105,-1.55483 -0.04561,-0.54836 0.01151,-0.65521 0.49575805,-0.92737 0.311172,-0.17489 0.391063,-0.37865 0.276883,-0.70619 -0.135531,-0.38878 -0.09843,-0.66031 0.117621,-0.86073 0.243991,-0.22633 0.586599,-0.34465 0.998022,-0.34465 0.281226,0 0.310849,0.0153 0.271186,0.14029 -0.03573,0.11256 0.009,0.16268 0.226447,0.25352 0.149036,0.0623 0.348005,0.18403 0.442156,0.27058 0.200904,0.1847 0.434351,0.66049 0.43659,0.88982 0.0014,0.13967 0.03909,0.16078 0.2874,0.16078 0.157207,0 0.309948,0.002 0.339424,0.003 0.104798,0.006 0.09765,-0.2949 -0.01635,-0.68703 -0.148368,-0.51037 -0.696984,-1.09388 -1.207601,-1.28442 -0.330677,-0.12339 -0.353257,-0.12369 -0.439452,-0.006 -0.07821,0.10695 -0.116416,0.0167 -0.274338,-0.64778 -0.574599,-2.41786 -0.424842,-3.25571 0.924667,-5.17334 0.210002,-0.29841 0.431404,-0.58371 0.492005,-0.634 0.154486,-0.12822 0.140428,-0.16818 -0.111491,-0.31699 -0.157871,-0.0933 -0.300983,-0.29822 -0.497224,-0.71213 -0.360148,-0.75959 -0.40614,-0.95346 -0.234052,-0.98661 0.112194,-0.0216 0.131371,-0.0975 0.132466,-0.52449 0.0011,-0.4235 0.0304,-0.54167 0.193307,-0.77907 l 0.192029,-0.27984 -0.264766,-0.20168 -0.264766,-0.20167 -0.199337,0.23141 c -0.297693,0.3456 -0.43891,0.90594 -0.362859,1.43979 0.05601,0.39314 0.07752,0.43352 0.222772,0.41814 0.235943,-0.025 0.197864,0.0309 -0.137652,0.20209 -0.825887,0.42136 -1.6957,-0.18477 -1.701211,-1.18546 -0.0032,-0.57596 -0.123665,-0.87225 -0.53801905,-1.32296 -0.234642,-0.25523 -0.411117,-0.52367 -0.454015,-0.6906 -0.125387,-0.48794 0.06707,-1.16984 0.41997,-1.48804 0.129922,-0.11714 0.246581,-0.14028 0.65043505,-0.129 0.270666,0.008 0.492119,0.005 0.492119,-0.007 0,-0.0114 -0.05541,-0.13008 -0.123125,-0.26385 -0.186661,-0.36872 -0.205364,-1.1807 -0.03441,-1.49373 0.201202,-0.36841 0.654333,-0.66371 1.029171,-0.6707 0.254841,-0.005 0.391325,0.0521 0.798062,0.33248 0.542883,0.37423 0.647624,0.39724 0.889696,0.19547 0.162761,-0.13567 0.163767,-0.145 0.05947,-0.55143 -0.05835,-0.22738 -0.172944,-0.59186 -0.254651,-0.80995 l -0.148557,-0.39654 -0.414618,-0.0856 c -1.13935,-0.23532 -2.08377,-1.1638 -2.086282,-2.05105 -8.04e-4,-0.27748 -0.111557,-0.54411 -0.381899,-0.91924 -0.07217,-0.10014 -0.110961,-0.21484 -0.08621,-0.25488 0.05968,-0.0966 0.627967,-0.0192 1.04445,0.14222 0.179751,0.0697 0.59778,0.14914 0.92895,0.17663 0.952512,0.079 1.249554,0.28076 1.45109,0.98538 0.216956,0.75854 0.217939,0.87743 0.01076,1.30088 l -0.19256,0.39358 0.182629,0.48114 c 0.100446,0.26463 0.215372,0.61227 0.255389,0.77254 0.06739,0.26991 0.0883,0.28912 0.283484,0.26047 0.19792,-0.0291 0.213537,-0.0554 0.257034,-0.43431 0.07664,-0.66754 0.16898,-0.93902 0.600234,-1.76459 0.715128,-1.369 0.818547,-1.68136 0.815078,-2.46179 -0.0032,-0.72044 -0.09153,-1.05875 -0.424965,-1.62771 l -0.181921,-0.31043 -0.241877,0.40168 c -0.33235,0.55192 -0.495997,0.67371 -0.909193,0.67659 -0.286467,0.002 -0.380514,-0.0344 -0.592892,-0.22986 -0.214487,-0.19734 -0.261782,-0.29897 -0.314725,-0.67631 -0.03427,-0.24424 -0.08288,-0.47737 -0.108037,-0.51807 -0.07307,-0.11824 -0.281112,-0.087 -0.691187,0.10395 -0.463437,0.21574 -0.767342,0.22662 -1.009492,0.0362 -0.259468,-0.2041 -0.480353,-0.70263 -0.480353,-1.08415 v -0.32473 l 0.382723,-0.0395 c 0.382001,-0.0394 1.066134,-0.33588 1.401155,-0.60716 l 0.175644,-0.14223 -0.175861,-0.25818 c -0.204748,-0.30059 -0.230266,-0.30647 -0.499064,-0.11507 -0.324817,0.23129 -0.801638,0.42431 -1.052359,0.42601 -0.201584,0.002 -0.232238,0.0259 -0.232238,0.18589 0,0.17026 -0.01772,0.18062 -0.232237,0.13583 -0.63515705,-0.13261 -1.04602305,-0.65885 -1.10694205,-1.41778 -0.05381,-0.67038 -0.0039,-0.791 0.446923,-1.07937 0.42670605,-0.27296 0.43356705,-0.29307 0.30775405,-0.9022 -0.07421,-0.35928 -0.06927,-0.43107 0.0413,-0.59981 0.178446,-0.27234 0.64227,-0.4621 1.13409,-0.46398 0.391977,-0.002 0.410289,0.006 0.372464,0.15922 -0.03299,0.13335 0.01248,0.18835 0.266606,0.32246 0.370861,0.19572 0.626849,0.55053 0.679294,0.94153 l 0.03893,0.29021 h 0.34788 c 0.337916,0 0.34788,-0.006 0.34788,-0.21169 0,-0.62287 -0.559519,-1.41851 -1.197317,-1.70259 l -0.304095,-0.13545 0.219032,-0.30236 c 0.361701,-0.49931 1.165509,-0.78694 1.590773,-0.56923 0.08584,0.044 0.2741,0.19267 0.418344,0.33049 0.346038,0.33064 0.538229,0.32165 1.016774,-0.0476 0.64448,-0.49722 1.15592,-0.46567 1.680723,0.10368 0.262608,0.28489 0.291569,0.35295 0.291569,0.68516 0,0.28452 -0.04886,0.44826 -0.213713,0.71618 l -0.213712,0.34732 h 0.359474 c 0.739843,0 1.254831,0.46816 1.386391,1.26033 0.079,0.47571 -0.06601,0.85454 -0.502114,1.31175 -0.402217,0.42169 -0.530496,0.76427 -0.530496,1.41675 0,0.42113 -0.261824,0.86625 -0.599824,1.01975 -0.161369,0.0733 -0.389865,0.13353 -0.50777,0.13389 -0.255626,10e-4 -1.01371,-0.34041 -0.775816,-0.34916 0.187589,-0.007 0.239882,-0.13125 0.239882,-0.57042 0,-0.41307 -0.158141,-0.89923 -0.384929,-1.18334 l -0.169048,-0.21178 -0.258456,0.17605 c -0.14215,0.0968 -0.258676,0.20324 -0.258945,0.23648 -2.91e-4,0.0332 0.07123,0.16114 0.158875,0.28423 0.116846,0.16409 0.166659,0.35291 0.186709,0.70774 0.02389,0.42282 0.04495,0.48394 0.166688,0.48394 0.0955,0 0.132367,0.0412 0.117175,0.13086 -0.01219,0.072 0.06161,0.24079 0.164014,0.37515 0.533199,0.69962 0.822646,1.68037 0.746956,2.53095 -0.06689,0.75172 -0.143555,0.97431 -0.750642,2.17946 -0.528784,1.0497 -0.718805,1.59846 -0.718805,2.07579 0,0.11597 0.03104,0.21086 0.06897,0.21086 0.03794,0 0.187685,0.10423 0.332777,0.23162 0.434095,0.38114 0.694355,1.12607 0.39342,1.12607 -0.101393,0 -0.145138,0.071 -0.180688,0.29333 -0.0258,0.16134 -0.09422,0.38483 -0.152048,0.49666 -0.05783,0.11183 -0.104924,0.22904 -0.104655,0.26047 5.03e-4,0.0623 0.43991,0.3787 0.525955,0.3787 0.115102,0 0.41293,-0.80034 0.4253,-1.14289 0.01495,-0.41411 0.09574,-0.46952 0.569747,-0.39077 0.661842,0.10994 0.883157,0.35329 0.803206,0.88314 -0.108386,0.71828 -0.104097,0.73352 0.276986,0.98408 0.192919,0.12685 0.377324,0.27251 0.409787,0.32369 0.164079,0.25868 -0.02553,1.39237 -0.296528,1.77295 -0.133675,0.18773 -0.595649,0.42811 -0.822757,0.42811 -0.05816,0 -0.105741,-0.0607 -0.105741,-0.1348 0,-0.10468 -0.07077,-0.14542 -0.31664,-0.18229 -0.309387,-0.0464 -0.740585,-0.23548 -1.125878,-0.49371 l -0.192008,-0.12869 -0.196294,0.29662 c -0.222162,0.33571 -0.258633,0.28047 0.452476,0.68525 0.278178,0.15835 0.618223,0.28154 0.911086,0.33006 0.408086,0.0676 0.467258,0.0971 0.467258,0.23254 0,0.31062 -0.220895,0.8875 -0.422455,1.10327 -0.264685,0.28335 -0.623021,0.29418 -1.233365,0.0373 -0.528729,-0.22254 -0.573264,-0.1927 -0.688319,0.46115 -0.04413,0.2508 -0.129638,0.51058 -0.190017,0.57729 -0.150636,0.16645 -0.142168,0.22031 0.117409,0.74671 l 0.227188,0.46072 0.737835,0.18056 c 0.774896,0.18963 1.27314,0.45723 1.502194,0.80681 0.06585,0.10051 0.225144,0.60508 0.353978,1.12127 0.228718,0.91639 0.293034,1.40371 0.185079,1.40232 -0.02948,-2.7e-4 -0.193774,-0.11213 -0.365107,-0.24833 -0.330324,-0.26259 -0.46562,-0.29954 -1.261126,-0.34434 -0.588976,-0.0332 -0.882576,-0.16677 -1.156926,-0.52646 -0.17107,-0.22428 -0.203817,-0.34197 -0.225038,-0.80875 -0.01366,-0.30045 0.0094,-0.67038 0.05131,-0.82206 0.07074,-0.25619 0.0538,-0.32043 -0.23837,-0.90407 l -0.314518,-0.62828 -0.348185,0.44437 c -1.315894,1.6794 -1.705868,2.6739 -1.538276,3.9229 0.09307,0.69361 0.381475,1.98922 0.441925,1.98527 0.02288,-0.002 0.125619,-0.12436 0.22832,-0.27304 0.230696,-0.33399 0.63851,-0.54148 1.069343,-0.54405 0.330705,-0.002 0.334805,2.6e-4 1.027726,0.55938 0.203899,0.16453 0.333088,0.12695 0.824829,-0.23994 0.595892,-0.44459 0.996712,-0.44843 1.512458,-0.0145 0.475315,0.39995 0.553099,0.98631 0.203886,1.53697 l -0.212799,0.33555 0.230663,5.2e-4 c 0.884984,0.002 1.476152,0.60949 1.479606,1.52163 0.0019,0.48863 -0.09564,0.69996 -0.501061,1.08618 -0.362296,0.34515 -0.497778,0.63736 -0.497778,1.07365 0,0.95839 -0.406678,1.46771 -1.165841,1.46011 -0.362528,-0.004 -0.853207,-0.23313 -0.658329,-0.30791 0.106826,-0.041 0.120053,-0.12828 0.09646,-0.63647 -0.02636,-0.56777 -0.12594,-0.88829 -0.380611,-1.22507 -0.09987,-0.13208 -0.110921,-0.13051 -0.392389,0.0558 l -0.289624,0.19166 0.184588,0.31497 c 0.138634,0.23657 0.18799,0.42711 0.198251,0.76541 0.0133,0.43858 0.0193,0.45163 0.228037,0.49617 0.117905,0.0251 0.176344,0.0495 0.129866,0.0542 -0.192083,0.0192 -0.177106,0.31005 0.03663,0.71121 0.394964,0.7413 0.583814,1.43201 0.583814,2.13525 0,0.85727 -0.128467,1.29318 -0.718798,2.43903 -0.528497,1.02582 -0.777312,1.8583 -0.575522,1.92556 0.184208,0.0614 0.573016,0.45505 0.753285,0.76265 0.247521,0.42237 0.469664,0.58235 1.047636,0.75447 0.805503,0.23989 1.113803,0.61326 1.050489,1.27218 -0.04097,0.42641 -0.31147,0.83924 -0.455509,0.6952 -0.05138,-0.0514 -0.304866,-0.15065 -0.563314,-0.2206 -0.401125,-0.10858 -0.525802,-0.11469 -0.851794,-0.0417 -0.210038,0.047 -0.436854,0.12566 -0.504035,0.17478 -0.115182,0.0842 -0.115194,0.1067 -2.15e-4,0.39409 0.09328,0.23313 0.149133,0.29311 0.237617,0.25517 0.427325,-0.18325 0.65129,-0.19907 1.047961,-0.074 0.221231,0.0697 0.410749,0.11622 0.42115,0.1033 0.0104,-0.0129 0.04886,-0.0794 0.08545,-0.14778 0.0612,-0.11431 0.08927,-0.10907 0.349963,0.0653 0.49898,0.33385 0.964882,0.74994 1.072288,0.95763 0.1859627,0.35962 0.1357937,0.73705 -0.13632,1.02558 -0.239984,0.25445 -0.242455,0.25519 -0.859736,0.25519 -0.478719,0 -0.628198,0.0238 -0.659366,0.10503 -0.02217,0.0578 -0.0027,0.32806 0.04329,0.60065 0.0724,0.4292 0.06789,0.526 -0.03365,0.72235 -0.151895,0.29373 -0.600859,0.49996 -1.072447,0.49263 -0.447981,-0.007 -0.747468,-0.0834 -0.624535,-0.15935 0.144181,-0.0891 0.108506,-0.96687 -0.06184,-1.52155 -0.08274,-0.26943 -0.159119,-0.49925 -0.169723,-0.51072 -0.0142,-0.0153 -0.557245,0.17449 -0.657185,0.22975 -0.007,0.004 0.04825,0.18352 0.122717,0.39926 0.07447,0.21574 0.136441,0.59087 0.137724,0.83363 0.0019,0.36242 0.0247,0.44567 0.127384,0.46545 0.08292,0.016 0.128295,0.096 0.134681,0.23747 0.0053,0.11737 0.133482,0.50281 0.284857,0.85652 0.26821,0.62672 0.275235,0.66498 0.275544,1.50061 3.44e-4,1.0246 -0.103546,1.37336 -0.756902,2.54007 -0.273245,0.48793 -0.444263,0.8854 -0.477901,1.11071 -0.06579,0.44063 -0.03283,0.67242 0.09559,0.67242 0.168261,0 0.62001,0.44711 0.75747,0.74969 0.07157,0.15754 0.130836,0.39095 0.131699,0.51868 0.0017,0.25626 0.08101,0.28389 0.358858,0.12505 0.264918,-0.15144 0.848542,-0.13389 1.123541,0.0338 0.288379,0.17584 0.350019,0.4122 0.233814,0.8966 -0.05007,0.20873 -0.07202,0.42909 -0.04876,0.48969 0.02325,0.0606 0.180477,0.19543 0.349387,0.29962 0.168909,0.1042 0.347304,0.24035 0.396431,0.30254 0.177021,0.22413 0.05554,1.18187 -0.2111,1.66428 -0.156254,0.2827 -0.382325,0.44079 -0.789308,0.55197 -0.265174,0.0724 -0.267968,0.071 -0.267968,-0.13542 0,-0.1944 -0.01875,-0.20861 -0.275187,-0.20861 -0.253219,0 -0.658881,-0.17007 -1.108693,-0.46479 -0.169817,-0.11127 -0.180733,-0.10711 -0.369897,0.1409 -0.183456,0.24052 -0.187895,0.2633 -0.07547,0.38753 0.238521,0.26356 1.034727,0.60547 1.485957,0.63811 l 0.430732,0.0312 -0.04841,0.36494 c -0.05975,0.45045 -0.3509,1.00225 -0.585123,1.10897 -0.27511,0.12535 -0.600743,0.0934 -1.015205,-0.0995 -0.210237,-0.0979 -0.425999,-0.17795 -0.479472,-0.17795 -0.05347,0 -0.127566,0.12059 -0.164653,0.26797 -0.03709,0.14738 -0.105648,0.41267 -0.152358,0.58953 -0.124093,0.46985 -0.109986,0.59026 0.128981,1.10092 0.199875,0.42712 0.239419,0.46815 0.525754,0.54554 1.194647,0.32286 1.284387,0.36068 1.596618,0.67291 0.329936,0.32993 0.350736,0.38295 0.641315,1.63438 0.183914,0.79208 0.220898,1.12028 0.126101,1.11905 -0.02947,-5.3e-4 -0.193775,-0.11213 -0.365108,-0.24833 -0.328202,-0.2609 -0.448328,-0.29393 -1.273061,-0.35001 -0.604145,-0.0411 -0.872253,-0.1631 -1.14499,-0.52108 -0.191468,-0.25131 -0.200488,-0.29886 -0.20675,-1.08981 -0.0065,-0.81709 -0.01004,-0.83412 -0.297134,-1.41707 l -0.290585,-0.59004 -0.363784,0.45717 c -0.494525,0.62148 -1.110462,1.61485 -1.305342,2.10522 -0.24337,0.61239 -0.224974,1.8093 0.04136,2.69078 0.106871,0.35372 0.220656,0.66985 0.252856,0.7025 0.0322,0.0327 0.182957,-0.003 0.335014,-0.0796 0.373312,-0.18776 0.753751,-0.2486 0.990837,-0.15845 0.107838,0.041 0.341425,0.20249 0.519082,0.35887 0.177656,0.15638 0.379259,0.28433 0.448007,0.28433 0.06875,0 0.316452,-0.14094 0.550455,-0.31321 0.234004,-0.17226 0.497585,-0.3361 0.585735,-0.36407 0.300976,-0.0955 0.651857,0.032 1.010115,0.36709 0.43337,0.40538 0.516618,0.75899 0.296061,1.2576 -0.07795,0.17621 -0.177523,0.34251 -0.221279,0.36956 -0.166244,0.10274 -0.06827,0.1837 0.22414,0.18521 0.390598,0.002 0.830189,0.20322 1.072077,0.49069 0.483595,0.57472 0.435405,1.62002 -0.09173,1.98966 -0.06909,0.0485 -0.225479,0.23886 -0.34754,0.42313 -0.181484,0.27399 -0.222001,0.4077 -0.222327,0.73368 -2.14e-4,0.21925 -0.03546,0.52726 -0.07831,0.68447 -0.198744,0.72915 -0.933859,1.0223 -1.66853,0.66536 -0.497258,-0.24158 -0.514755,-0.14101 -0.08017,0.46087 0.391762,0.54255 0.554863,1.05929 0.595275,1.88594 0.0457,0.9349 -0.08929,1.39768 -0.819263,2.80853 -0.48886,0.94485 -0.541046,1.08612 -0.57459,1.55548 -0.0355,0.49674 -0.03031,0.51873 0.137383,0.58249 0.420674,0.15994 0.819612,0.65468 0.943478,1.17005 0.04203,0.17486 0.02741,0.19651 -0.132774,0.19651 -0.168523,0 -0.180007,0.0229 -0.180007,0.35958 0,0.19778 -0.04897,0.47679 -0.108821,0.62003 -0.117688,0.28167 -0.11909,0.27907 0.262413,0.48601 0.15554,0.0844 0.203185,0.086 0.267012,0.009 0.155283,-0.18709 0.293985,-0.71607 0.293985,-1.12115 0,-0.33241 -0.02477,-0.42218 -0.125052,-0.45319 -0.06878,-0.0213 0.111279,-0.0252 0.400125,-0.009 0.557736,0.0317 0.786994,0.13238 0.983077,0.43164 0.104767,0.1599 0.106387,0.22059 0.01571,0.58853 -0.05561,0.22563 -0.09077,0.45888 -0.07812,0.51831 0.01264,0.0594 0.168842,0.20035 0.347108,0.31313 0.511604,0.32366 0.572557,0.46166 0.469464,1.06285 -0.161145,0.93972 -0.452886,1.33769 -1.065489,1.45347 -0.231448,0.0437 -0.232238,0.0453 -0.232238,0.47426 0,0.56935 -0.122027,0.95055 -0.397934,1.2431 -0.287026,0.30433 -0.65651,0.32364 -1.174136,0.0613 -0.565642,-0.28663 -0.654646,-0.23568 -0.740851,0.42411 -0.02534,0.19395 -0.09179,0.42241 -0.147658,0.50768 -0.09161,0.13983 -0.07775,0.20985 0.141292,0.71372 0.133579,0.30728 0.280265,0.5818 0.325968,0.61004 0.04571,0.0283 0.279766,0.0916 0.52014,0.14079 0.789538,0.16156 1.392808,0.49229 1.588618,0.87095 0.107379,0.20765 0.474335,1.6296 0.562935,2.18137 0.02783,0.17331 0.02042,0.30369 -0.01725,0.30369 -0.03631,0 -0.217173,-0.11776 -0.401924,-0.2617 -0.317205,-0.24713 -0.375193,-0.26475 -1.041335,-0.31635 -0.388425,-0.0301 -0.800866,-0.10399 -0.917814,-0.16448 -0.590972,-0.30559 -0.878686,-1.13247 -0.659716,-1.89598 0.06159,-0.21476 0.03768,-0.30814 -0.201219,-0.78557 -0.149117,-0.298 -0.308964,-0.65046 -0.355217,-0.78324 -0.06763,-0.19416 -0.103483,-0.22532 -0.18315,-0.1592 -0.144358,0.11981 -1.593027,2.43633 -1.760858,2.81575 -0.215963,0.48822 -0.241576,1.05444 -0.08146,1.80088 0.07587,0.35371 0.117424,0.66496 0.09233,0.69165 -0.02509,0.0267 -0.131239,0.0697 -0.235882,0.0955 -0.186599,0.0461 -0.192773,0.0362 -0.320931,-0.51301 -0.07479,-0.32048 -0.129373,-0.81974 -0.127637,-1.16737 0.004,-0.79211 0.148669,-1.14032 1.090362,-2.62355 0.400136,-0.63024 0.72752,-1.17812 0.72752,-1.21751 0,-0.0394 -0.05095,-0.11389 -0.113214,-0.16557 -0.138106,-0.11462 -0.549445,-0.92512 -0.668379,-1.31697 -0.04772,-0.15721 -0.101514,-0.33158 -0.119549,-0.38749 -0.02483,-0.077 -0.05928,-0.0639 -0.141827,0.054 -0.271385,0.38746 -0.968981,0.49194 -1.390029,0.2082 -0.33685,-0.227 -0.490374,-0.53055 -0.536222,-1.06019 -0.07367,-0.85103 -0.08992,-0.89316 -0.53320105,-1.38231 -0.472375,-0.52125 -0.536415,-0.68043 -0.476676,-1.18483 0.0976,-0.82406 0.494111,-1.19075 1.20700805,-1.11624 l 0.416664,0.0435 -0.104781,-0.20261 c -0.180645,-0.34934 -0.27416,-0.84904 -0.222881,-1.19099 0.05795,-0.38644 0.355096,-0.75921 0.77657,-0.97424 0.389252,-0.19858 0.658493,-0.14173 1.217279,0.25701 0.510981,0.36463 0.600868,0.38504 0.840572,0.19095 0.158714,-0.12852 0.163064,-0.15472 0.08602,-0.51807 -0.04463,-0.2105 -0.150032,-0.56565 -0.23422,-0.78925 -0.151286,-0.40181 -0.157393,-0.40745 -0.524709,-0.48379 -0.55803,-0.11597 -1.07943,-0.38535 -1.435964,-0.7419 -0.411333,-0.41132 -0.580761,-0.75223 -0.674568,-1.3573 -0.05089,-0.32822 -0.135593,-0.56699 -0.258155,-0.72768 -0.100329,-0.13154 -0.182417,-0.29368 -0.182417,-0.36032 0,-0.10344 0.05028,-0.11449 0.34382,-0.0756 0.189101,0.0251 0.5187,0.10568 0.732442,0.17912 0.213742,0.0734 0.645039,0.15552 0.958439,0.18242 0.936664,0.0803 1.2335,0.32416 1.438665,1.18166 0.132387,0.55333 0.121246,0.85838 -0.04107,1.1246 -0.132838,0.21786 -0.134026,0.24366 -0.02305,0.50021 0.06435,0.14877 0.188225,0.51167 0.275266,0.80642 0.204111,0.69123 0.335707,0.70936 0.400392,0.0551 0.06455,-0.65283 0.146103,-0.88172 0.668888,-1.87733 0.247648,-0.4716 0.517361,-1.05745 0.599363,-1.30185 0.176287,-0.5254 0.196018,-1.30235 0.04726,-1.86114 -0.104871,-0.39396 -0.433074,-1.01727 -0.535631,-1.01727 -0.03288,0 -0.102967,0.10427 -0.155755,0.23172 -0.140853,0.34004 -0.541495,0.75227 -0.782579,0.80524 -0.529765,0.11634 -1.015956,-0.28217 -1.097904,-0.89993 -0.05438,-0.40991 -0.148256,-0.63723 -0.26316,-0.63723 -0.04044,0 -0.249273,0.0804 -0.464079,0.17863 -0.410388,0.18772 -0.803591,0.22806 -1.031897,0.10587 -0.07479,-0.04 -0.22294,-0.22116 -0.32923,-0.40253 -0.152572,-0.26034 -0.200105,-0.44811 -0.225796,-0.8919 -0.02643,-0.45653 -0.05431,-0.56245 -0.148411,-0.56373 -0.249376,-0.004 -0.70720405,-0.27716 -0.84958905,-0.50805 -0.08163,-0.13238 -0.202747,-0.50938 -0.269155,-0.8378 -0.14737,-0.72881 -0.105456,-0.85215 0.393982,-1.15947 0.38980205,-0.23984 0.48070305,-0.42378 0.36275305,-0.73401 -0.04148,-0.10911 -0.07542,-0.3113 -0.07542,-0.44932 0,-0.49691 0.637824,-0.86464 1.376613,-0.79365 0.399889,0.0384 0.447297,0.0707 0.35257,0.23995 -0.05792,0.10351 -0.01684,0.16118 0.232407,0.32628 0.290779,0.1926 0.435759,0.42495 0.594129,0.95215 0.05891,0.19611 0.09128,0.21437 0.380002,0.21437 h 0.315606 l -0.02431,-0.31818 c -0.04756,-0.6225 -0.58797,-1.39315 -1.109061,-1.58158 -0.202131,-0.0731 -0.264901,-0.15707 -0.425049,-0.56871 -0.47659,-1.22499 -0.647768,-2.36482 -0.484386,-3.22539 0.117356,-0.61815 0.617735,-1.60493 1.220028,-2.40598 l 0.502428,-0.66823 -0.331463,-0.43937 c -0.335461,-0.44466 -0.576659,-0.92028 -0.648607,-1.27899 -0.02168,-0.10807 -0.04343,-0.19637 -0.04834,-0.1962 -0.0049,1.4e-4 -0.167123,0.0805 -0.360467,0.17864 -0.43469,0.22053 -0.705581,0.2248 -1.114437,0.0175 -0.436751,-0.22137 -0.574102,-0.49279 -0.63765905,-1.26007 -0.05584,-0.6742 -0.131641,-0.83989 -0.575885,-1.2589 -0.125005,-0.11791 -0.272645,-0.30121 -0.328089,-0.40734 -0.11621,-0.22244 -0.121289,-0.8407 -0.0098,-1.18939 z M 1.6509843,162.3823 c 0.292683,0.27812 0.740995,0.50446 1.118901,0.56489 l 0.292389,0.0468 v -0.3516 -0.3516 l -0.317534,-0.0849 c -0.174646,-0.0467 -0.431799,-0.18525 -0.571454,-0.30787 l -0.25392,-0.22294 -0.245151,0.20373 c -0.134833,0.11204 -0.247472,0.22153 -0.25031,0.2433 -0.0028,0.0218 0.09935,0.13889 0.227079,0.26026 z m 0.303695,-43.3319 c 0.213544,0.1948 0.823523,0.46559 1.107595,0.49171 l 0.250102,0.023 0.0214,-0.33005 0.0214,-0.33006 -0.323249,-0.0814 c -0.177786,-0.0447 -0.43283,-0.17761 -0.566763,-0.2952 -0.133933,-0.1176 -0.26839,-0.21381 -0.298793,-0.21381 -0.03041,0 -0.164402,0.0832 -0.297773,0.18495 -0.260715,0.19886 -0.254222,0.24041 0.08609,0.55086 z m 0.04527,72.39825 c 0.310025,0.26087 0.723586,0.46185 1.091999,0.53068 l 0.311139,0.0581 0.04443,-0.32415 c 0.0477,-0.34802 -0.01079,-0.43727 -0.287904,-0.43926 -0.08402,-5.3e-4 -0.31791,-0.1147 -0.519759,-0.25355 l -0.366997,-0.25244 -0.248412,0.18947 c -0.136627,0.10421 -0.248412,0.21495 -0.248412,0.2461 0,0.0311 0.100762,0.14141 0.223915,0.24503 z m 0.151238,-11.25171 c 0.308178,-6e-5 1.008701,-0.28494 1.418884,-0.57702 0.220114,-0.15673 0.215027,-0.20174 -0.06241,-0.55229 l -0.130338,-0.16469 -0.495817,0.28974 c -0.290398,0.1697 -0.587567,0.28974 -0.717277,0.28974 -0.288561,0 -0.31674,0.036 -0.31674,0.40493 v 0.30965 z m 0.572927,-13.8198 c 0.01922,0.0192 0.177965,-0.001 0.352767,-0.0451 l 0.317822,-0.08 -0.02912,-0.3698 c -0.02364,-0.30024 0.0069,-0.43682 0.162329,-0.72614 l 0.191444,-0.35634 -0.236522,-0.19745 c -0.130087,-0.10861 -0.259232,-0.19746 -0.286987,-0.19746 -0.07054,0 -0.35205,0.4677 -0.468056,0.77762 -0.08934,0.23869 -0.09202,1.10635 -0.0037,1.19469 z m 0.606126,28.82489 c 0.372569,-0.002 0.421773,-0.0532 0.462351,-0.48584 0.02244,-0.23925 0.09606,-0.46148 0.199004,-0.60072 l 0.163385,-0.22099 -0.242659,-0.20125 c -0.133461,-0.11068 -0.264585,-0.20211 -0.291385,-0.20317 -0.07996,-0.003 -0.360974,0.42712 -0.460078,0.70444 -0.05077,0.14208 -0.09372,0.42714 -0.09545,0.63347 l -0.0031,0.37515 0.267966,-0.001 z m 0.866823,-48.46499 0.08516,0.16091 0.30111,-0.15183 c 0.165611,-0.0835 0.310675,-0.16012 0.322363,-0.17026 0.03822,-0.0331 -0.375947,-0.67858 -0.435432,-0.67858 -0.03186,0 -0.167728,0.0876 -0.301923,0.19468 -0.219086,0.17482 -0.23442,0.20947 -0.150217,0.33943 0.05158,0.0796 0.132098,0.21714 0.178937,0.30565 z m -0.159035,17.10837 c 0.145088,0.16032 0.475322,0.17 0.62694,0.0184 0.259981,-0.25998 0.04935,-0.7452 -0.323478,-0.7452 -0.354967,0 -0.546364,0.45841 -0.303462,0.72682 z m 0.20005,-43.49103 c 0.207791,0.20779 0.329474,0.21946 0.525055,0.0504 0.241709,-0.209 0.261201,-0.42041 0.05754,-0.62407 -0.218487,-0.21848 -0.324766,-0.22441 -0.569711,-0.0317 -0.235158,0.18498 -0.239288,0.37906 -0.01288,0.60546 z m 0.271214,72.57695 c 0.233265,0.29675 0.768171,0.10863 0.768171,-0.27014 0,-0.20291 -0.230461,-0.45929 -0.412846,-0.45929 -0.358427,0 -0.576618,0.44792 -0.355325,0.72943 z m 0.422153,-86.92511 c 0.398523,0.19006 0.758576,-0.18332 0.57189,-0.59305 -0.104665,-0.22972 -0.391033,-0.29549 -0.623467,-0.14319 -0.149733,0.0981 -0.178276,0.16624 -0.160259,0.38252 0.01692,0.20314 0.06523,0.28381 0.211836,0.35372 z m -0.08273,72.40433 c 0.415299,0.4153 1.010541,-0.20753 0.606102,-0.63418 -0.144403,-0.15234 -0.472891,-0.11973 -0.619649,0.0615 -0.168273,0.20781 -0.163838,0.3953 0.01355,0.57268 z m 0.148102,-29.20012 c 0.08146,0.10355 0.211541,0.18828 0.289078,0.18828 0.169037,0 0.491771,-0.30482 0.491771,-0.46448 0,-0.0625 -0.07893,-0.19261 -0.175397,-0.28908 -0.09647,-0.0965 -0.226553,-0.1754 -0.289079,-0.1754 -0.140745,0 -0.464475,0.31476 -0.464475,0.4516 0,0.0554 0.06665,0.18552 0.148102,0.28908 z m 0.313125,-14.49305 c 0.218483,0.21849 0.33609,0.2203 0.581746,0.009 0.154375,-0.13278 0.183818,-0.20476 0.145765,-0.35638 -0.06983,-0.27825 -0.359412,-0.44884 -0.586362,-0.34543 -0.154873,0.0706 -0.297742,0.28147 -0.312016,0.46058 -0.0025,0.0313 0.0744,0.13577 0.170867,0.23223 z m 0.87839,27.95851 c 0.350877,-0.32446 0.583619,-0.79681 0.688518,-1.39733 l 0.04057,-0.23224 h -0.35414 c -0.328449,0 -0.357207,0.0142 -0.396413,0.19651 -0.07335,0.34099 -0.25842,0.71893 -0.431796,0.88181 l -0.167347,0.15721 0.221259,0.27936 0.221259,0.27937 z m -0.110655,17.87669 c -0.0064,0.45153 0.04098,0.49864 0.503888,0.50093 0.177349,0.001 0.197761,-0.0251 0.20935,-0.26699 0.03123,-0.65185 -0.151005,-1.29123 -0.443481,-1.55592 -0.12376,-0.112 -0.146457,-0.10723 -0.381326,0.0802 l -0.249733,0.19926 0.1836,0.3133 c 0.143382,0.24466 0.182308,0.40441 0.177702,0.72924 z m 0.720525,13.72491 c 0.253185,0.13595 0.566115,0.23764 0.808241,0.26263 l 0.395096,0.0408 -0.0222,-0.34822 -0.0222,-0.34822 -0.31458,-0.0534 c -0.173018,-0.0294 -0.506836,-0.16789 -0.741817,-0.30787 -0.234981,-0.13999 -0.442955,-0.2388 -0.462164,-0.21959 -0.01921,0.0192 -0.108854,0.14094 -0.199211,0.27051 l -0.164285,0.23557 0.154993,0.12297 c 0.08525,0.0676 0.340909,0.22281 0.568139,0.34483 z m 0.33243,-89.80897 0.209641,0.23337 0.290563,-0.28247 c 0.159809,-0.15536 0.290562,-0.30646 0.290562,-0.33579 0,-0.0293 -0.113984,-0.14026 -0.253299,-0.24652 l -0.253299,-0.1932 -0.246905,0.23931 c -0.135798,0.13162 -0.246906,0.26465 -0.246906,0.29562 0,0.031 0.09434,0.16133 0.209643,0.28968 z m 0.251431,72.65579 c 0.09096,0 0.539335,-0.43802 0.539335,-0.52687 0,-0.0386 -0.104507,-0.15838 -0.232238,-0.26626 l -0.232238,-0.19616 -0.263174,0.25437 -0.263175,0.25436 0.191717,0.24028 c 0.105445,0.13215 0.222342,0.24028 0.259773,0.24028 z m 0.43551,-43.66584 c 0.04115,0.003 0.195655,-0.11859 0.343341,-0.26983 l 0.268521,-0.27499 -0.263017,-0.23093 -0.263015,-0.23093 -0.273795,0.26734 -0.273796,0.26737 0.193471,0.2334 c 0.106409,0.12838 0.227139,0.23573 0.26829,0.23857 z"
       id="path847-3" />
    <path
       id="path847-3-2"
       d="m 0.08062725,264.08655 c 0.04204,-0.13146 0.16986,-0.33243 0.284032,-0.44661 0.189164,-0.18916 0.25149,-0.20758 0.70229505,-0.20758 0.272089,0 0.494708,-0.0126 0.494708,-0.0279 0,-0.0154 -0.06361,-0.1681 -0.141347,-0.33943 -0.179409,-0.39538 -0.188237,-1.01018 -0.01932,-1.3457 0.187808,-0.37304 0.680236,-0.71651 1.027265,-0.71651 0.319389,0 0.543195,0.0996 0.947537,0.42179 0.319918,0.25489 0.607888,0.28415 0.792206,0.0805 0.121324,-0.13406 0.12162,-0.16419 0.0061,-0.62525 -0.06673,-0.26643 -0.179676,-0.61669 -0.250982,-0.77837 -0.124114,-0.28141 -0.151573,-0.29933 -0.643522,-0.41989 -0.60429,-0.14809 -1.251481,-0.54961 -1.525552,-0.94647 -0.246658,-0.35716 -0.406787,-0.75332 -0.406787,-1.00639 0,-0.28202 -0.133707,-0.6481 -0.333438,-0.91292 -0.25749305,-0.34141 -0.22351205,-0.41348 0.169569,-0.3596 0.184985,0.0253 0.530662,0.10851 0.768171,0.18479 0.23751,0.0763 0.678111,0.15884 0.979112,0.18347 0.867886,0.071 1.188633,0.31094 1.385799,1.03658 0.1478,0.54396 0.143634,1.01519 -0.01129,1.27746 -0.105075,0.17787 -0.113825,0.25338 -0.04816,0.41559 0.04414,0.10902 0.170782,0.48048 0.281436,0.82545 0.254496,0.79342 0.394155,0.8208 0.466354,0.0914 0.04161,-0.42032 0.123361,-0.63962 0.545785,-1.46402 0.584364,-1.14043 0.727868,-1.57861 0.725499,-2.21525 -0.0021,-0.5662 -0.08292,-0.94098 -0.317074,-1.47044 l -0.176303,-0.39865 -0.225779,0.11675 c -0.175383,0.0907 -0.381658,0.11133 -0.924159,0.0925 -0.823152,-0.0286 -0.912389,-0.0828 -1.096127,-0.6657 -0.0682,-0.21636 -0.178922,-0.42277 -0.246047,-0.45869 -0.06713,-0.0359 -0.273963,-0.0482 -0.459637,-0.0272 -0.247544,0.0279 -0.387203,0.006 -0.523601,-0.0838 -0.37454,-0.24541 -0.493565,-0.92013 -0.275312,-1.56067 0.1094,-0.32107 0.118427,-0.32857 0.273341,-0.22706 0.147651,0.0967 0.173784,0.0904 0.333475,-0.0805 0.263735,-0.28231 0.520224,-0.38627 0.953002,-0.38627 h 0.39381 l 0.07741,-0.28748 c 0.04258,-0.15811 0.0556,-0.32278 0.02893,-0.36592 -0.03132,-0.0507 -0.241124,-0.0669 -0.592725,-0.0459 -0.621902,0.0372 -0.984454,0.19263 -1.359327,0.58294 -0.204898,0.21333 -0.228955,0.27086 -0.15203,0.36355 0.166551,0.20068 -0.05362,0.11928 -0.327288,-0.12101 -0.335582,-0.29464 -0.456317,-0.58791 -0.456317,-1.10838 0,-0.48602 0.07731,-0.61998 0.563836,-0.97713 0.192682,-0.14144 0.369745,-0.30776 0.393474,-0.36961 0.02373,-0.0618 -0.05333,-0.35336 -0.171252,-0.64785 -0.117918,-0.29449 -0.214396,-0.59891 -0.214396,-0.67649 0,-0.29757 0.378734,-0.78506 0.763473,-0.98273 0.08584,-0.0441 0.320353,-0.0802 0.52113,-0.0802 0.334081,0 0.39421,0.0272 0.708821,0.32156 0.189075,0.17686 0.364555,0.32156 0.389956,0.32156 0.0254,0 0.04618,-0.0817 0.04618,-0.18149 0,-0.50479 0.565568,-1.07919 1.138214,-1.156 0.269498,-0.0361 0.291004,-0.0554 0.291789,-0.26185 0.0016,-0.4179 0.191208,-0.93832 0.675181,-1.85309 0.26597,-0.50272 0.462591,-0.93502 0.436936,-0.96068 -0.02565,-0.0256 -0.344055,-0.0597 -0.707555,-0.0755 l -0.66091,-0.0289 -0.203254,0.2933 c -0.453688,0.65466 -1.091673,1.09589 -1.77554,1.22794 -0.296554,0.0573 -0.482713,0.0469 -0.899789,-0.0503 -0.424517,-0.0989 -0.596681,-0.10784 -0.893222,-0.0463 -0.202041,0.0419 -0.379246,0.0651 -0.393792,0.0516 -0.07891,-0.0735 0.105578,-0.43294 0.426385,-0.83077 0.200038,-0.24806 0.456932,-0.63452 0.570877,-0.85881 0.466326,-0.91791 0.806241,-1.11603 1.689632,-0.98486 0.595986,0.0885 0.810244,0.18656 1.091084,0.49939 0.173233,0.19296 0.206034,0.20016 1.082909,0.23773 l 0.904265,0.0387 0.0306,-0.33471 c 0.01683,-0.1841 0.0035,-0.53855 -0.02951,-0.78768 -0.06392,-0.48165 -0.39859,-1.37566 -0.531455,-1.4197 -0.04374,-0.0145 -0.118682,0.0681 -0.166525,0.18365 -0.188235,0.45444 -0.657071,0.6978 -1.10567,0.57394 -0.352952,-0.0975 -0.588942,-0.41138 -0.650197,-0.86491 -0.05803,-0.42967 -0.143278,-0.62838 -0.269368,-0.6279 -0.04775,2.1e-4 -0.279743,0.0798 -0.515554,0.17695 -0.235811,0.0971 -0.504175,0.17738 -0.596366,0.17831 -0.44225,0.005 -0.850796,-0.51258 -0.917774,-1.16153 l -0.03867,-0.37462 0.507595,-0.0799 c 0.374933,-0.059 0.638545,-0.15773 1.00864,-0.3776 0.275574,-0.16372 0.500178,-0.32034 0.499122,-0.34806 -0.0011,-0.0277 -0.08961,-0.15608 -0.196785,-0.28524 l -0.194863,-0.23483 -0.557366,0.28843 c -0.334912,0.17331 -0.655653,0.28842 -0.803624,0.28842 -0.213754,0 -0.246257,0.0231 -0.246257,0.17523 v 0.17522 l -0.339423,-0.10123 c -0.598379,-0.17847 -0.846111,-0.59443 -0.92599105,-1.55483 -0.04561,-0.54836 0.01151,-0.65521 0.49575805,-0.92737 0.311172,-0.17489 0.391063,-0.37865 0.276883,-0.70619 -0.135531,-0.38878 -0.09843,-0.66031 0.117621,-0.86073 0.243991,-0.22633 0.586599,-0.34465 0.998023,-0.34465 0.281225,0 0.310848,0.0153 0.271185,0.14029 -0.03573,0.11256 0.009,0.16268 0.226447,0.25352 0.149036,0.0623 0.348006,0.18403 0.442156,0.27058 0.200904,0.1847 0.434352,0.66049 0.43659,0.88982 0.0014,0.13967 0.03909,0.16078 0.2874,0.16078 0.157207,0 0.309948,0.002 0.339425,0.003 0.104797,0.006 0.09765,-0.2949 -0.01635,-0.68703 -0.148368,-0.51037 -0.696984,-1.09388 -1.207601,-1.28442 -0.330677,-0.12339 -0.353258,-0.12369 -0.439452,-0.006 -0.07821,0.10695 -0.116416,0.0167 -0.274338,-0.64778 -0.5746,-2.41786 -0.424843,-3.25571 0.924666,-5.17334 0.210003,-0.29841 0.431405,-0.58371 0.492006,-0.634 0.154486,-0.12822 0.140427,-0.16818 -0.111491,-0.31699 -0.157871,-0.0933 -0.300983,-0.29822 -0.497224,-0.71213 -0.360149,-0.75959 -0.406141,-0.95346 -0.234052,-0.98661 0.112194,-0.0216 0.131371,-0.0975 0.132466,-0.52449 0.0011,-0.4235 0.0304,-0.54167 0.193307,-0.77907 l 0.192029,-0.27984 -0.264766,-0.20168 -0.264766,-0.20167 -0.199337,0.23141 c -0.297693,0.3456 -0.43891,0.90594 -0.362859,1.43979 0.05601,0.39314 0.07752,0.43352 0.222772,0.41814 0.235943,-0.025 0.197864,0.0309 -0.137652,0.20209 -0.825888,0.42138 -1.695701,-0.18475 -1.701212,-1.18544 -0.0032,-0.57596 -0.123665,-0.87225 -0.53801905,-1.32296 -0.234642,-0.25523 -0.411117,-0.52367 -0.454015,-0.6906 -0.125387,-0.48794 0.06707,-1.16984 0.41997,-1.48804 0.129922,-0.11714 0.246581,-0.14028 0.65043505,-0.129 0.270666,0.008 0.492119,0.005 0.492119,-0.007 0,-0.0114 -0.05541,-0.13008 -0.123125,-0.26385 -0.186661,-0.36872 -0.205364,-1.1807 -0.03441,-1.49373 0.201202,-0.36841 0.654333,-0.66371 1.029171,-0.6707 0.254841,-0.005 0.391325,0.0521 0.798062,0.33248 0.542883,0.37423 0.647624,0.39724 0.889696,0.19547 0.162761,-0.13567 0.163767,-0.145 0.05947,-0.55143 -0.05835,-0.22738 -0.172944,-0.59186 -0.254651,-0.80995 l -0.148557,-0.39654 -0.414618,-0.0856 c -1.13935,-0.23534 -2.08377,-1.16382 -2.086282,-2.05107 -8.04e-4,-0.27748 -0.111557,-0.54411 -0.381899,-0.91924 -0.07217,-0.10014 -0.110961,-0.21484 -0.08621,-0.25488 0.05968,-0.0966 0.627967,-0.0192 1.04445,0.14222 0.179751,0.0697 0.59778,0.14914 0.92895,0.17663 0.952511,0.079 1.249554,0.28076 1.45109,0.98538 0.216956,0.75854 0.217939,0.87743 0.01076,1.30088 l -0.19256,0.39358 0.182629,0.48114 c 0.100446,0.26463 0.215372,0.61227 0.255389,0.77254 0.06739,0.26991 0.0883,0.28912 0.283484,0.26047 0.19792,-0.0291 0.213537,-0.0554 0.257034,-0.43431 0.07664,-0.66754 0.16898,-0.93902 0.600234,-1.76459 0.715128,-1.369 0.818547,-1.68136 0.815078,-2.46179 -0.0032,-0.72044 -0.09153,-1.05875 -0.424965,-1.62771 l -0.181922,-0.31043 -0.241877,0.40168 c -0.33235,0.55192 -0.495997,0.67371 -0.909193,0.67659 -0.286467,0.002 -0.380514,-0.0344 -0.592892,-0.22986 -0.214487,-0.19734 -0.261782,-0.29897 -0.314725,-0.67631 -0.03427,-0.24424 -0.08288,-0.47737 -0.108037,-0.51807 -0.07307,-0.11824 -0.281112,-0.087 -0.691187,0.10395 -0.463437,0.21574 -0.767342,0.22662 -1.009492,0.0362 -0.259468,-0.2041 -0.480353,-0.70263 -0.480353,-1.08415 v -0.32473 l 0.382723,-0.0395 c 0.382001,-0.0394 1.066134,-0.33588 1.401155,-0.60716 l 0.175644,-0.14223 -0.175861,-0.25818 c -0.204748,-0.30059 -0.230266,-0.30647 -0.499064,-0.11507 -0.324817,0.23129 -0.801638,0.42431 -1.052359,0.42601 -0.201584,0.002 -0.232238,0.0259 -0.232238,0.18589 0,0.17026 -0.01772,0.18062 -0.232237,0.13583 -0.63515805,-0.13261 -1.04602405,-0.65885 -1.10694305,-1.41778 -0.05381,-0.67038 -0.0039,-0.791 0.446923,-1.07937 0.42670705,-0.27296 0.43356805,-0.29307 0.30775505,-0.9022 -0.07421,-0.35928 -0.06927,-0.43107 0.0413,-0.59981 0.178446,-0.27234 0.64227,-0.4621 1.13409,-0.46398 0.391976,-0.002 0.410289,0.006 0.372464,0.15922 -0.03299,0.13335 0.01248,0.18835 0.266606,0.32246 0.370861,0.19572 0.626848,0.55053 0.679294,0.94153 l 0.03893,0.29021 h 0.34788 c 0.337916,0 0.34788,-0.006 0.34788,-0.21169 0,-0.62287 -0.559519,-1.41851 -1.197317,-1.70259 l -0.304095,-0.13545 0.219032,-0.30236 c 0.361701,-0.49931 1.165509,-0.78694 1.590773,-0.56923 0.08584,0.044 0.2741,0.19267 0.418344,0.33049 0.346038,0.33064 0.538229,0.32165 1.016774,-0.0476 0.64448,-0.49722 1.15592,-0.46567 1.680723,0.10368 0.262607,0.28489 0.291568,0.35295 0.291568,0.68516 0,0.28452 -0.04886,0.44826 -0.213712,0.71618 l -0.213712,0.34732 h 0.359473 c 0.739843,0 1.254832,0.46816 1.386391,1.26033 0.079,0.47571 -0.06601,0.85454 -0.502114,1.31175 -0.402217,0.42169 -0.530496,0.76427 -0.530496,1.41675 0,0.42113 -0.261824,0.86625 -0.599823,1.01975 -0.161369,0.0733 -0.389865,0.13353 -0.50777,0.13389 -0.255626,0.001 -1.01371,-0.34041 -0.775816,-0.34916 0.187589,-0.007 0.239882,-0.13125 0.239882,-0.57042 0,-0.41307 -0.158141,-0.89923 -0.384929,-1.18334 l -0.169048,-0.21178 -0.258456,0.17605 c -0.14215,0.0968 -0.258676,0.20324 -0.258945,0.23648 -2.91e-4,0.0332 0.07123,0.16114 0.158874,0.28423 0.116847,0.16409 0.16666,0.35291 0.18671,0.70774 0.02389,0.42282 0.04495,0.48394 0.166688,0.48394 0.0955,0 0.132367,0.0412 0.117175,0.13086 -0.01219,0.072 0.06161,0.24079 0.164014,0.37515 0.533199,0.69962 0.822646,1.68037 0.746956,2.53095 -0.06689,0.75172 -0.143556,0.97431 -0.750642,2.17946 -0.528784,1.0497 -0.718805,1.59846 -0.718805,2.07579 0,0.11597 0.03104,0.21086 0.06897,0.21086 0.03794,0 0.187685,0.10423 0.332777,0.23162 0.434095,0.38114 0.694355,1.12607 0.39342,1.12607 -0.101393,0 -0.145138,0.071 -0.180688,0.29333 -0.0258,0.16134 -0.09422,0.38483 -0.152048,0.49666 -0.05783,0.11183 -0.104924,0.22904 -0.104655,0.26047 5.02e-4,0.0623 0.43991,0.3787 0.525955,0.3787 0.115102,0 0.41293,-0.80034 0.4253,-1.14289 0.01495,-0.41411 0.09574,-0.46952 0.569747,-0.39077 0.661841,0.10994 0.883157,0.35329 0.803206,0.88314 -0.108386,0.71828 -0.104098,0.73352 0.276985,0.98408 0.19292,0.12685 0.377324,0.27251 0.409787,0.32369 0.164079,0.25868 -0.02553,1.39237 -0.296528,1.77295 -0.133675,0.18773 -0.595648,0.42811 -0.822756,0.42811 -0.05816,0 -0.105741,-0.0607 -0.105741,-0.1348 0,-0.10468 -0.07077,-0.14542 -0.31664,-0.18229 -0.309387,-0.0464 -0.740586,-0.23548 -1.125878,-0.49371 l -0.192008,-0.12869 -0.196294,0.29662 c -0.222163,0.33571 -0.258633,0.28047 0.452476,0.68525 0.278178,0.15835 0.618223,0.28154 0.911086,0.33006 0.408086,0.0676 0.467258,0.0971 0.467258,0.23254 0,0.31062 -0.220895,0.8875 -0.422455,1.10327 -0.264685,0.28335 -0.623021,0.29418 -1.233365,0.0373 -0.528729,-0.22254 -0.573264,-0.1927 -0.688319,0.46115 -0.04413,0.2508 -0.129638,0.51058 -0.190017,0.57729 -0.150636,0.16645 -0.142168,0.22031 0.117409,0.74671 l 0.227188,0.46072 0.737835,0.18056 c 0.774896,0.18963 1.27314,0.45723 1.502193,0.80681 0.06585,0.10051 0.225144,0.60508 0.353978,1.12127 0.228718,0.91639 0.293034,1.40371 0.185079,1.40232 -0.02948,-2.6e-4 -0.193774,-0.11213 -0.365107,-0.24833 -0.330323,-0.26259 -0.465619,-0.29954 -1.261125,-0.34434 -0.588976,-0.0332 -0.882576,-0.16677 -1.156926,-0.52646 -0.17107,-0.22428 -0.203817,-0.34197 -0.225038,-0.80875 -0.01366,-0.30045 0.0094,-0.67038 0.05131,-0.82206 0.07074,-0.25619 0.0538,-0.32043 -0.23837,-0.90407 l -0.314518,-0.62828 -0.348185,0.44437 c -1.315894,1.6794 -1.705868,2.6739 -1.538276,3.9229 0.09307,0.69361 0.381475,1.98922 0.441925,1.98527 0.02288,-0.002 0.125619,-0.12436 0.22832,-0.27304 0.230696,-0.33399 0.63851,-0.54148 1.069343,-0.54405 0.330705,-0.002 0.334805,2.6e-4 1.027726,0.55938 0.203899,0.16453 0.333088,0.12695 0.824829,-0.23994 0.595892,-0.44459 0.996712,-0.44843 1.512458,-0.0145 0.475315,0.39995 0.553099,0.98631 0.203886,1.53697 l -0.212799,0.33555 0.230663,5.3e-4 c 0.884984,0.002 1.476152,0.60949 1.479606,1.52163 0.0019,0.48863 -0.09564,0.69996 -0.501061,1.08618 -0.362296,0.34515 -0.497778,0.63736 -0.497778,1.07365 0,0.95839 -0.406678,1.46771 -1.165841,1.46011 -0.362528,-0.004 -0.853207,-0.23313 -0.658329,-0.30791 0.106826,-0.041 0.120053,-0.12828 0.09646,-0.63647 -0.02636,-0.56777 -0.12594,-0.88829 -0.380611,-1.22507 -0.09987,-0.13208 -0.110921,-0.13051 -0.392389,0.0558 l -0.289624,0.19166 0.184588,0.31497 c 0.138634,0.23657 0.18799,0.42711 0.198251,0.76541 0.0133,0.43858 0.0193,0.45163 0.228037,0.49617 0.117905,0.0251 0.176344,0.0495 0.129866,0.0542 -0.192083,0.0192 -0.177106,0.31005 0.03663,0.71121 0.394964,0.7413 0.583814,1.43201 0.583814,2.13525 0,0.85727 -0.128467,1.29318 -0.718798,2.43903 -0.528497,1.02582 -0.777312,1.8583 -0.575522,1.92556 0.184208,0.0614 0.573016,0.45505 0.753285,0.76265 0.247521,0.42237 0.469664,0.58235 1.047635,0.75447 0.805503,0.23989 1.113803,0.61326 1.050489,1.27218 -0.04097,0.42641 -0.31147,0.83924 -0.455509,0.6952 -0.05138,-0.0514 -0.304866,-0.15065 -0.563313,-0.2206 -0.401125,-0.10858 -0.525802,-0.11469 -0.851794,-0.0417 -0.210038,0.047 -0.436854,0.12565 -0.504035,0.17477 -0.115182,0.0842 -0.115194,0.10671 -2.15e-4,0.3941 0.09328,0.23313 0.149133,0.2931 0.237617,0.25517 0.427325,-0.18325 0.65129,-0.19907 1.04796,-0.074 0.221231,0.0697 0.41075,0.11622 0.421151,0.1033 0.0104,-0.0129 0.04886,-0.0794 0.08545,-0.14778 0.0612,-0.11431 0.08927,-0.10907 0.349963,0.0653 0.49898,0.33385 0.964882,0.74994 1.072288,0.95763 0.1859617,0.35962 0.1357927,0.73705 -0.13632,1.02558 -0.239984,0.25445 -0.242456,0.25519 -0.859736,0.25519 -0.47872,0 -0.628199,0.0238 -0.659366,0.10503 -0.02217,0.0578 -0.0027,0.32806 0.04329,0.60065 0.0724,0.4292 0.06789,0.526 -0.03365,0.72235 -0.151896,0.29373 -0.600859,0.49996 -1.072447,0.49263 -0.447981,-0.007 -0.747468,-0.0834 -0.624535,-0.15935 0.144181,-0.0891 0.108506,-0.96687 -0.06184,-1.52155 -0.08274,-0.26943 -0.159119,-0.49925 -0.169723,-0.51072 -0.0142,-0.0153 -0.557245,0.17449 -0.657185,0.22975 -0.007,0.004 0.04825,0.18352 0.122717,0.39926 0.07447,0.21574 0.13644,0.59087 0.137724,0.83363 0.0019,0.36242 0.0247,0.44567 0.127384,0.46545 0.08292,0.016 0.128294,0.096 0.134681,0.23747 0.0053,0.11737 0.133482,0.50281 0.284857,0.85652 0.26821,0.62672 0.275235,0.66498 0.275544,1.50061 3.44e-4,1.0246 -0.103546,1.37336 -0.756902,2.54007 -0.273245,0.48793 -0.444263,0.8854 -0.477901,1.11071 -0.06579,0.44063 -0.03283,0.67242 0.09559,0.67242 0.168261,0 0.620009,0.44711 0.75747,0.74969 0.07157,0.15754 0.130836,0.39095 0.131699,0.51868 0.0017,0.25626 0.08101,0.28389 0.358858,0.12505 0.264918,-0.15144 0.848542,-0.13389 1.12354,0.0338 0.28838,0.17584 0.35002,0.4122 0.233815,0.8966 -0.05007,0.20873 -0.07202,0.42909 -0.04876,0.48969 0.02325,0.0606 0.180477,0.19543 0.349387,0.29962 0.168909,0.1042 0.347304,0.24035 0.396431,0.30254 0.17702,0.22413 0.05554,1.18187 -0.211101,1.66428 -0.156253,0.2827 -0.382324,0.44079 -0.789307,0.55197 -0.265174,0.0724 -0.267968,0.071 -0.267968,-0.13542 0,-0.1944 -0.01875,-0.20861 -0.275187,-0.20861 -0.253219,0 -0.658881,-0.17007 -1.108693,-0.46479 -0.169817,-0.11127 -0.180733,-0.10711 -0.369897,0.1409 -0.183456,0.24052 -0.187895,0.2633 -0.07547,0.38753 0.238521,0.26356 1.034727,0.60547 1.485957,0.63811 l 0.430732,0.0312 -0.04841,0.36494 c -0.05975,0.45045 -0.3509,1.00225 -0.585123,1.10897 -0.27511,0.12535 -0.600743,0.0934 -1.015205,-0.0995 -0.210237,-0.0979 -0.425999,-0.17795 -0.479472,-0.17795 -0.05347,0 -0.127566,0.12059 -0.164653,0.26797 -0.03709,0.14738 -0.105648,0.41267 -0.152358,0.58953 -0.124093,0.46985 -0.109986,0.59026 0.128981,1.10092 0.199875,0.42712 0.239419,0.46815 0.525754,0.54554 1.194647,0.32286 1.284387,0.36068 1.596618,0.67291 0.329936,0.32993 0.350736,0.38295 0.641315,1.63438 0.183914,0.79208 0.220898,1.12028 0.126101,1.11905 -0.02947,-5.3e-4 -0.193775,-0.11213 -0.365108,-0.24833 -0.328202,-0.2609 -0.448328,-0.29393 -1.273061,-0.35001 -0.604145,-0.0411 -0.872253,-0.1631 -1.14499,-0.52108 -0.191468,-0.25131 -0.200488,-0.29886 -0.20675,-1.08981 -0.0065,-0.81709 -0.01004,-0.83412 -0.297134,-1.41707 l -0.290585,-0.59004 -0.363784,0.45717 c -0.494525,0.62148 -1.110462,1.61485 -1.305342,2.10522 -0.24337,0.61239 -0.224974,1.8093 0.04136,2.69078 0.106871,0.35372 0.220656,0.66985 0.252856,0.7025 0.0322,0.0327 0.182957,-0.003 0.335014,-0.0796 0.373312,-0.18776 0.753751,-0.2486 0.990837,-0.15845 0.107838,0.041 0.341425,0.20249 0.519082,0.35887 0.177656,0.15638 0.379259,0.28433 0.448007,0.28433 0.06875,0 0.316452,-0.14094 0.550455,-0.31321 0.234004,-0.17226 0.497585,-0.3361 0.585735,-0.36407 0.300976,-0.0955 0.651857,0.032 1.010115,0.36709 0.43337,0.40538 0.516618,0.75899 0.296061,1.2576 -0.07795,0.17621 -0.177523,0.34251 -0.221279,0.36956 -0.166244,0.10274 -0.06827,0.1837 0.22414,0.18521 0.390598,0.002 0.830189,0.20322 1.072077,0.49069 0.483595,0.57472 0.435405,1.62002 -0.09173,1.98966 -0.06909,0.0485 -0.225479,0.23886 -0.34754,0.42313 -0.181484,0.27399 -0.222001,0.4077 -0.222327,0.73368 -2.14e-4,0.21925 -0.03546,0.52726 -0.07831,0.68447 -0.198744,0.72915 -0.933859,1.0223 -1.66853,0.66536 -0.497258,-0.24158 -0.514755,-0.14101 -0.08017,0.46087 0.391762,0.54255 0.554863,1.05929 0.595275,1.88594 0.0457,0.9349 -0.08929,1.39768 -0.819263,2.80853 -0.48886,0.94485 -0.541046,1.08612 -0.57459,1.55548 -0.0355,0.49674 -0.03031,0.51873 0.137383,0.58249 0.420674,0.15994 0.819612,0.65468 0.943478,1.17005 0.04203,0.17486 0.02741,0.19651 -0.132774,0.19651 -0.168523,0 -0.180007,0.0229 -0.180007,0.35958 0,0.19778 -0.04897,0.47679 -0.108821,0.62003 -0.117688,0.28167 -0.11909,0.27907 0.262413,0.48601 0.15554,0.0844 0.203185,0.086 0.267012,0.009 0.155283,-0.18709 0.293985,-0.71607 0.293985,-1.12115 0,-0.33241 -0.02477,-0.42218 -0.125052,-0.45319 -0.06878,-0.0213 0.111279,-0.0252 0.400125,-0.009 0.557736,0.0317 0.786994,0.13238 0.983077,0.43164 0.104767,0.1599 0.106387,0.22059 0.01571,0.58853 -0.05561,0.22563 -0.09077,0.45888 -0.07812,0.51831 0.01264,0.0594 0.168842,0.20035 0.347108,0.31313 0.511604,0.32366 0.572557,0.46166 0.469464,1.06285 -0.161145,0.93972 -0.452886,1.33769 -1.065489,1.45347 -0.231448,0.0437 -0.232238,0.0453 -0.232238,0.47426 0,0.56935 -0.122027,0.95055 -0.397934,1.2431 -0.287026,0.30433 -0.65651,0.32364 -1.174136,0.0613 -0.565642,-0.28663 -0.654646,-0.23568 -0.740851,0.42411 -0.02534,0.19395 -0.09179,0.42241 -0.147658,0.50768 -0.09161,0.13983 -0.07775,0.20985 0.141292,0.71372 0.133579,0.30728 0.280265,0.5818 0.325968,0.61004 0.04571,0.0283 0.279766,0.0916 0.52014,0.14079 0.789538,0.16156 1.392808,0.49229 1.588618,0.87095 0.107379,0.20765 0.474335,1.6296 0.562935,2.18137 0.02783,0.17331 0.02042,0.30369 -0.01725,0.30369 -0.03631,0 -0.217173,-0.11776 -0.401924,-0.2617 -0.317205,-0.24713 -0.375193,-0.26475 -1.041335,-0.31635 -0.388425,-0.0301 -0.800866,-0.10399 -0.917814,-0.16448 -0.590972,-0.30559 -0.878686,-1.13247 -0.659716,-1.89598 0.06159,-0.21476 0.03768,-0.30814 -0.201219,-0.78557 -0.149117,-0.298 -0.308964,-0.65046 -0.355217,-0.78324 -0.06763,-0.19416 -0.103483,-0.22532 -0.18315,-0.1592 -0.144358,0.11981 -1.593027,2.43633 -1.760858,2.81575 -0.215963,0.48822 -0.241576,1.05444 -0.08146,1.80088 0.07587,0.3537 0.117424,0.66496 0.09233,0.69165 -0.02509,0.0267 -0.131239,0.0697 -0.235882,0.0955 -0.186599,0.0461 -0.192773,0.0362 -0.320931,-0.51301 -0.07479,-0.32049 -0.129373,-0.81974 -0.127637,-1.16737 0.004,-0.79211 0.148669,-1.14032 1.090362,-2.62355 0.400136,-0.63024 0.72752,-1.17812 0.72752,-1.21751 0,-0.0394 -0.05095,-0.11389 -0.113214,-0.16557 -0.138106,-0.11462 -0.549445,-0.92512 -0.668379,-1.31697 -0.04772,-0.15721 -0.101514,-0.33158 -0.119549,-0.38749 -0.02483,-0.077 -0.05928,-0.0639 -0.141827,0.054 -0.271385,0.38746 -0.968981,0.49194 -1.390029,0.2082 -0.33685,-0.227 -0.490374,-0.53055 -0.536222,-1.06019 -0.07367,-0.85103 -0.08992,-0.89316 -0.53320105,-1.38231 -0.472375,-0.52125 -0.536415,-0.68043 -0.476676,-1.18483 0.0976,-0.82406 0.494111,-1.19075 1.20700805,-1.11624 l 0.416664,0.0435 -0.104781,-0.20261 c -0.180645,-0.34934 -0.27416,-0.84904 -0.222881,-1.19099 0.05795,-0.38644 0.355096,-0.75921 0.77657,-0.97424 0.389252,-0.19858 0.658493,-0.14173 1.217279,0.25701 0.510981,0.36463 0.600868,0.38504 0.840572,0.19095 0.158714,-0.12852 0.163064,-0.15472 0.08602,-0.51807 -0.04463,-0.2105 -0.150032,-0.56565 -0.23422,-0.78925 -0.151286,-0.40181 -0.157393,-0.40745 -0.524709,-0.48379 -0.55803,-0.11597 -1.07943,-0.38535 -1.435964,-0.7419 -0.411333,-0.41132 -0.580761,-0.75223 -0.674568,-1.3573 -0.05089,-0.32822 -0.135593,-0.56699 -0.258155,-0.72768 -0.100329,-0.13154 -0.182417,-0.29368 -0.182417,-0.36032 0,-0.10344 0.05028,-0.11449 0.34382,-0.0756 0.189101,0.0251 0.5187,0.10568 0.732442,0.17912 0.213742,0.0734 0.645039,0.15552 0.958439,0.18242 0.936664,0.0803 1.2335,0.32416 1.438665,1.18166 0.132387,0.55333 0.121246,0.85838 -0.04107,1.1246 -0.132838,0.21786 -0.134026,0.24366 -0.02305,0.50021 0.06435,0.14877 0.188225,0.51167 0.275266,0.80642 0.204111,0.69123 0.335707,0.70936 0.400392,0.0551 0.06455,-0.65283 0.146103,-0.88172 0.668888,-1.87733 0.247648,-0.4716 0.517361,-1.05745 0.599363,-1.30185 0.176287,-0.5254 0.196018,-1.30235 0.04726,-1.86114 -0.104871,-0.39396 -0.433074,-1.01727 -0.535631,-1.01727 -0.03288,0 -0.102967,0.10427 -0.155755,0.23172 -0.140853,0.34004 -0.541495,0.75227 -0.782579,0.80524 -0.529765,0.11634 -1.015956,-0.28217 -1.097904,-0.89993 -0.05438,-0.40991 -0.148256,-0.63723 -0.26316,-0.63723 -0.04044,0 -0.249273,0.0804 -0.464079,0.17863 -0.410388,0.18772 -0.803591,0.22806 -1.031897,0.10587 -0.07479,-0.04 -0.22294,-0.22116 -0.32923,-0.40253 -0.152572,-0.26034 -0.200105,-0.44811 -0.225796,-0.8919 -0.02643,-0.45653 -0.05431,-0.56245 -0.148411,-0.56373 -0.249376,-0.004 -0.70720405,-0.27716 -0.84958905,-0.50805 -0.08163,-0.13238 -0.202747,-0.50938 -0.269155,-0.8378 -0.14737,-0.72881 -0.105456,-0.85215 0.393982,-1.15947 0.38980205,-0.23984 0.48070305,-0.42378 0.36275305,-0.73401 -0.04148,-0.10911 -0.07542,-0.3113 -0.07542,-0.44932 0,-0.49691 0.637824,-0.86464 1.376613,-0.79365 0.399889,0.0384 0.447297,0.0707 0.35257,0.23995 -0.05792,0.10351 -0.01684,0.16118 0.232407,0.32628 0.290779,0.1926 0.435759,0.42495 0.594129,0.95215 0.05891,0.19611 0.09128,0.21437 0.380002,0.21437 h 0.315606 l -0.02431,-0.31818 c -0.04756,-0.6225 -0.587969,-1.39315 -1.10906,-1.58158 -0.202131,-0.0731 -0.264901,-0.15707 -0.42505,-0.56871 -0.476589,-1.22499 -0.647767,-2.36482 -0.484385,-3.22539 0.117356,-0.61815 0.617735,-1.60493 1.220028,-2.40598 l 0.502428,-0.66823 -0.331463,-0.43937 c -0.335462,-0.44466 -0.576659,-0.92028 -0.648608,-1.27899 -0.02168,-0.10807 -0.04343,-0.19637 -0.04834,-0.1962 -0.0049,1.4e-4 -0.167123,0.0805 -0.360467,0.17864 -0.43469,0.22053 -0.705581,0.2248 -1.114437,0.0175 -0.436751,-0.22137 -0.574102,-0.49279 -0.63765905,-1.26007 -0.05584,-0.6742 -0.131641,-0.83989 -0.575885,-1.2589 -0.125005,-0.11791 -0.272645,-0.30121 -0.328089,-0.40734 -0.11621,-0.22244 -0.121289,-0.8407 -0.0098,-1.18939 z M 1.6509843,263.9823 c 0.292683,0.27812 0.740995,0.50446 1.118901,0.56489 l 0.292389,0.0468 v -0.3516 -0.3516 l -0.317534,-0.0849 c -0.174646,-0.0467 -0.431799,-0.18525 -0.571454,-0.30787 l -0.25392,-0.22294 -0.245151,0.20373 c -0.134833,0.11204 -0.247472,0.22153 -0.25031,0.2433 -0.0028,0.0218 0.09935,0.13889 0.227079,0.26026 z m 0.303695,-43.3319 c 0.213544,0.1948 0.823523,0.46559 1.107595,0.49171 l 0.250102,0.023 0.0214,-0.33005 0.0214,-0.33006 -0.323249,-0.0814 c -0.177785,-0.0447 -0.432829,-0.17761 -0.566762,-0.2952 -0.133933,-0.1176 -0.26839,-0.21381 -0.298793,-0.21381 -0.03041,0 -0.164402,0.0832 -0.297773,0.18495 -0.260715,0.19886 -0.254222,0.24041 0.08609,0.55086 z m 0.04527,72.39825 c 0.310025,0.26087 0.723586,0.46185 1.091999,0.53068 l 0.311138,0.0581 0.04443,-0.32415 c 0.0477,-0.34802 -0.01079,-0.43727 -0.287904,-0.43926 -0.08402,-5.3e-4 -0.31791,-0.1147 -0.519759,-0.25355 l -0.366997,-0.25244 -0.248412,0.18947 c -0.136627,0.10421 -0.248412,0.21495 -0.248412,0.2461 0,0.0311 0.100762,0.14141 0.223915,0.24503 z m 0.151238,-11.25171 c 0.308178,-6e-5 1.008701,-0.28494 1.418884,-0.57702 0.220114,-0.15673 0.215026,-0.20174 -0.06241,-0.55229 l -0.130338,-0.16469 -0.495817,0.28974 c -0.290399,0.1697 -0.587568,0.28974 -0.717278,0.28974 -0.288561,0 -0.31674,0.036 -0.31674,0.40493 v 0.30965 z m 0.572927,-13.8198 c 0.01922,0.0192 0.177965,-0.001 0.352767,-0.0451 l 0.317822,-0.08 -0.02912,-0.3698 c -0.02364,-0.30024 0.0069,-0.43682 0.162329,-0.72614 l 0.191444,-0.35634 -0.236523,-0.19745 c -0.130086,-0.10861 -0.259231,-0.19746 -0.286986,-0.19746 -0.07054,0 -0.352051,0.4677 -0.468056,0.77762 -0.08934,0.23869 -0.09202,1.10635 -0.0037,1.19469 z m 0.606126,28.82489 c 0.372569,-0.002 0.421773,-0.0532 0.46235,-0.48584 0.02244,-0.23925 0.09606,-0.46148 0.199005,-0.60072 l 0.163385,-0.22099 -0.242659,-0.20125 c -0.133461,-0.11068 -0.264585,-0.20211 -0.291385,-0.20317 -0.07996,-0.003 -0.360975,0.42712 -0.460078,0.70444 -0.05077,0.14208 -0.09372,0.42714 -0.09545,0.63347 l -0.0031,0.37515 0.267966,-10e-4 z m 0.866823,-48.46499 0.08516,0.16091 0.30111,-0.15183 c 0.165611,-0.0835 0.310675,-0.16012 0.322363,-0.17026 0.03822,-0.0331 -0.375947,-0.67858 -0.435432,-0.67858 -0.03186,0 -0.167728,0.0876 -0.301923,0.19468 -0.219086,0.17482 -0.23442,0.20947 -0.150217,0.33943 0.05158,0.0796 0.132098,0.21714 0.178937,0.30565 z m -0.159036,17.10837 c 0.145089,0.16032 0.475323,0.17 0.62694,0.0184 0.259982,-0.25998 0.04935,-0.7452 -0.323478,-0.7452 -0.354966,0 -0.546363,0.45841 -0.303462,0.72682 z m 0.200051,-43.49103 c 0.207791,0.20779 0.329474,0.21946 0.525055,0.0504 0.241709,-0.209 0.261201,-0.42041 0.05754,-0.62407 -0.218487,-0.21848 -0.324766,-0.22441 -0.569711,-0.0317 -0.235158,0.18498 -0.239288,0.37906 -0.01288,0.60546 z m 0.271214,72.57695 c 0.233265,0.29675 0.768171,0.10863 0.768171,-0.27014 0,-0.20291 -0.230462,-0.45929 -0.412846,-0.45929 -0.358427,0 -0.576618,0.44792 -0.355325,0.72943 z m 0.422153,-86.92511 c 0.398523,0.19006 0.758576,-0.18332 0.57189,-0.59305 -0.104665,-0.22972 -0.391033,-0.29549 -0.623467,-0.14319 -0.149733,0.0981 -0.178276,0.16624 -0.160259,0.38252 0.01692,0.20314 0.06523,0.28381 0.211836,0.35372 z m -0.08273,72.40433 c 0.415299,0.4153 1.010541,-0.20753 0.606102,-0.63418 -0.144403,-0.15234 -0.472891,-0.11973 -0.619649,0.0615 -0.168273,0.20781 -0.163838,0.3953 0.01355,0.57268 z m 0.148102,-29.20012 c 0.08146,0.10355 0.211541,0.18828 0.289078,0.18828 0.169037,0 0.491771,-0.30482 0.491771,-0.46448 0,-0.0625 -0.07893,-0.19261 -0.175397,-0.28908 -0.09647,-0.0965 -0.226553,-0.1754 -0.289079,-0.1754 -0.140745,0 -0.464475,0.31476 -0.464475,0.4516 0,0.0554 0.06665,0.18552 0.148102,0.28908 z m 0.313125,-14.49305 c 0.218483,0.21849 0.33609,0.2203 0.581746,0.009 0.154375,-0.13278 0.183818,-0.20476 0.145765,-0.35638 -0.06983,-0.27825 -0.359412,-0.44884 -0.586362,-0.34543 -0.154873,0.0706 -0.297742,0.28147 -0.312016,0.46058 -0.0025,0.0313 0.0744,0.13577 0.170867,0.23223 z m 0.87839,27.95851 c 0.350877,-0.32446 0.583619,-0.79681 0.688518,-1.39733 l 0.04057,-0.23224 h -0.35414 c -0.328449,0 -0.357207,0.0142 -0.396413,0.19651 -0.07335,0.34099 -0.25842,0.71893 -0.431796,0.88181 l -0.167347,0.15721 0.221259,0.27936 0.221259,0.27937 z m -0.110655,17.87669 c -0.0064,0.45153 0.04098,0.49864 0.503888,0.50093 0.177349,0.001 0.197761,-0.0251 0.20935,-0.26699 0.03123,-0.65185 -0.151005,-1.29123 -0.443481,-1.55592 -0.12376,-0.112 -0.146457,-0.10723 -0.381326,0.0802 l -0.249733,0.19926 0.1836,0.3133 c 0.143382,0.24466 0.182308,0.40441 0.177702,0.72924 z m 0.720525,13.72491 c 0.253185,0.13595 0.566115,0.23764 0.808241,0.26263 l 0.395096,0.0408 -0.0222,-0.34822 -0.0222,-0.34822 -0.31458,-0.0534 c -0.173018,-0.0294 -0.506836,-0.16789 -0.741817,-0.30787 -0.234981,-0.13999 -0.442955,-0.2388 -0.462164,-0.21959 -0.01921,0.0192 -0.108854,0.14094 -0.199211,0.27051 l -0.164285,0.23557 0.154993,0.12297 c 0.08525,0.0676 0.340909,0.22281 0.568139,0.34483 z m 0.33243,-89.80897 0.209641,0.23337 0.290563,-0.28247 c 0.159809,-0.15536 0.290562,-0.30646 0.290562,-0.33579 0,-0.0293 -0.113984,-0.14026 -0.253299,-0.24652 l -0.253299,-0.1932 -0.246905,0.23931 c -0.135798,0.13162 -0.246906,0.26465 -0.246906,0.29562 0,0.031 0.09434,0.16133 0.209643,0.28968 z m 0.251431,72.65579 c 0.09096,0 0.539335,-0.43802 0.539335,-0.52687 0,-0.0386 -0.104507,-0.15838 -0.232238,-0.26626 l -0.232238,-0.19616 -0.263174,0.25437 -0.263175,0.25436 0.191717,0.24028 c 0.105445,0.13215 0.222341,0.24028 0.259773,0.24028 z m 0.43551,-43.66584 c 0.04115,0.003 0.195655,-0.11859 0.34334,-0.26983 l 0.268521,-0.27499 -0.263017,-0.23093 -0.263015,-0.23093 -0.273794,0.26734 -0.273796,0.26737 0.193471,0.2334 c 0.106409,0.12838 0.227139,0.23573 0.26829,0.23857 z"
       style="fill:#000000;stroke-width:0.0714576" />
  </g>
</svg>
