<?xml version="1.0" encoding="UTF-8" standalone="no"?>
<svg
   xmlns:dc="http://purl.org/dc/elements/1.1/"
   xmlns:cc="http://creativecommons.org/ns#"
   xmlns:rdf="http://www.w3.org/1999/02/22-rdf-syntax-ns#"
   xmlns:svg="http://www.w3.org/2000/svg"
   xmlns="http://www.w3.org/2000/svg"
   xmlns:sodipodi="http://sodipodi.sourceforge.net/DTD/sodipodi-0.dtd"
   xmlns:inkscape="http://www.inkscape.org/namespaces/inkscape"
   sodipodi:docname="Skellington.svg"
   inkscape:version="1.0 (4035a4fb49, 2020-05-01)"
   id="svg8"
   version="1.1"
   viewBox="0 0 150 150"
   height="150mm"
   width="150mm">
  <defs
     id="defs2" />
  <sodipodi:namedview
     inkscape:window-maximized="1"
     inkscape:window-y="-8"
     inkscape:window-x="1912"
     inkscape:window-height="1017"
     inkscape:window-width="1920"
     showgrid="false"
     inkscape:document-rotation="0"
     inkscape:current-layer="layer1"
     inkscape:document-units="mm"
     inkscape:cy="283.46457"
     inkscape:cx="283.46457"
     inkscape:zoom="1.3846528"
     inkscape:pageshadow="2"
     inkscape:pageopacity="0.0"
     borderopacity="1.0"
     bordercolor="#666666"
     pagecolor="#ffffff"
     id="base" />
  <metadata
     id="metadata5">
    <rdf:RDF>
      <cc:Work
         rdf:about="">
        <dc:format>image/svg+xml</dc:format>
        <dc:type
           rdf:resource="http://purl.org/dc/dcmitype/StillImage" />
        <dc:title></dc:title>
      </cc:Work>
    </rdf:RDF>
  </metadata>
  <g
     id="layer1"
     inkscape:groupmode="layer"
     inkscape:label="Layer 1">
    <path
       id="path847"
       d="m 51.277873,132.69229 c -1.630909,-0.42765 -2.418118,-0.95408 -2.857682,-1.91104 -0.31224,-0.67977 -0.389922,-1.10008 -0.386966,-2.09375 0.0028,-0.95201 0.06269,-1.34693 0.360005,-2.375 0.114321,-0.39531 0.484745,-1.71719 0.823164,-2.9375 0.338419,-1.22031 0.976122,-3.31562 1.417119,-4.65625 1.145394,-3.48199 1.884546,-6.18306 1.751842,-6.40171 -0.01665,-0.0275 -0.162176,-0.0854 -0.323385,-0.12872 -1.017159,-0.27355 -1.127459,-0.32148 -1.226488,-0.53295 -0.119753,-0.25573 -0.06744,-0.49444 0.138458,-0.63183 0.08493,-0.0567 0.3952,-0.15409 0.689482,-0.21649 0.862808,-0.18296 1.144545,-0.29113 1.557168,-0.59785 0.732846,-0.54476 1.151884,-0.96559 1.564935,-1.57165 0.454323,-0.66661 0.73191,-0.96099 1.0776,-1.14279 0.456673,-0.24017 0.513832,-0.13576 0.460207,0.84065 -0.02719,0.49505 -0.09685,0.85169 -0.319014,1.63334 -0.156326,0.55 -0.289472,1.1124 -0.295878,1.24977 -0.0106,0.22725 0.0077,0.2599 0.20316,0.36202 0.183231,0.0957 0.306494,0.10622 0.838507,0.0713 0.584427,-0.0384 0.645338,-0.0309 0.967394,0.11926 0.189034,0.0881 0.359115,0.20116 0.37796,0.25117 0.01884,0.05 -0.02392,0.28987 -0.09503,0.53304 -0.117477,0.40171 -0.153425,0.45652 -0.393311,0.59968 -0.383179,0.22867 -0.390987,0.22774 -1.916991,-0.23135 l -0.497655,-0.14971 -0.382983,1.31618 c -0.210642,0.72391 -0.737276,2.41307 -1.1703,3.75369 -0.683681,2.11665 -1.307981,4.14402 -1.778125,5.77434 -0.07325,0.25402 -0.197141,0.7462 -0.275309,1.09375 -0.07817,0.34755 -0.239645,1.01259 -0.358834,1.47785 -0.44988,1.75617 -0.687769,3.30747 -0.621466,4.05266 0.04137,0.46493 0.04932,0.48317 0.330306,0.75765 0.454266,0.44374 0.939636,0.70803 1.346811,0.73334 0.31087,0.0193 0.394117,-0.005 0.829996,-0.24656 0.651698,-0.36055 0.715225,-0.45869 0.769439,-1.18864 0.04982,-0.67073 0.09293,-0.75736 0.638392,-1.2827 0.355949,-0.34282 0.528706,-0.39744 0.740566,-0.23413 0.0641,0.0494 0.257423,0.13564 0.429617,0.19164 0.547673,0.17811 0.613349,0.37369 0.43831,1.30533 -0.175786,0.9356 -0.763688,1.67966 -1.690544,2.13958 -1.026051,0.50913 -1.957082,0.58998 -3.160475,0.27443 z m 13.041948,-2.10765 C 63.080805,130.38578 62.05623,129.97967 60.919399,129.23682 60.720071,129.10657 60.529161,129 60.495155,129 c -0.122166,0 -0.69004,0.40327 -0.870435,0.61813 -0.497784,0.59289 -0.581388,0.64454 -0.790802,0.48861 -0.09882,-0.0736 -0.102257,-0.12693 -0.03865,-0.6 0.107528,-0.79975 0.337363,-1.52386 0.765889,-2.41299 0.215376,-0.44688 0.423617,-0.90123 0.462757,-1.00967 0.07229,-0.20031 0.199595,-0.26915 0.500618,-0.27072 0.252852,-0.001 0.454419,0.28906 0.504773,0.7272 0.104263,0.90722 0.477828,1.70555 1.052177,2.24856 0.765842,0.72405 2.314053,0.9104 3.373759,0.40609 0.488161,-0.23232 0.760097,-0.47552 0.905191,-0.80957 0.240671,-0.55405 -0.01173,-1.20625 -0.828118,-2.13985 -0.73146,-0.83648 -1.253052,-1.30236 -1.773447,-1.58404 -0.418932,-0.22675 -0.627026,-0.37732 -1.49381,-1.08084 -0.350954,-0.28487 -0.774949,-0.82977 -1.450611,-1.86429 -0.581802,-0.89081 -0.606672,-0.9627 -0.606672,-1.75367 0,-0.5889 0.01931,-0.71042 0.16665,-1.04889 0.317377,-0.72905 0.590049,-1.13523 1.117795,-1.6651 0.861125,-0.86458 1.76507,-1.24981 2.928522,-1.24803 0.728477,0.001 1.157567,0.0974 1.98407,0.44498 0.552034,0.2322 0.660776,0.30452 0.927617,0.61693 0.16625,0.19465 0.370895,0.39131 0.454768,0.43702 0.132875,0.0724 0.168361,0.0685 0.275839,-0.0306 0.06784,-0.0625 0.123343,-0.15521 0.123343,-0.20598 0,-0.0508 0.09377,-0.18237 0.208383,-0.29245 0.196028,-0.18827 0.227286,-0.19767 0.527023,-0.15851 0.175254,0.0229 0.345075,0.0815 0.377382,0.13026 0.108159,0.16317 0.02175,0.66204 -0.155718,0.89897 -0.09139,0.12203 -0.207333,0.38337 -0.257641,0.58076 -0.27161,1.06566 -0.961882,1.95265 -1.519599,1.95265 -0.159412,0 -0.236258,-0.0408 -0.323532,-0.17187 -0.100254,-0.15055 -0.114462,-0.29987 -0.114462,-1.20313 0,-1.45527 -0.05044,-1.52314 -1.327947,-1.78674 -0.42769,-0.0883 -0.571397,-0.0932 -0.902497,-0.0311 -0.777232,0.14583 -1.431355,0.63021 -1.737426,1.28656 -0.240696,0.51615 -0.265307,0.70959 -0.144462,1.13536 0.306967,1.08151 1.061283,2.03071 2.060793,2.5932 1.37909,0.7761 2.851332,2.23665 3.385997,3.3591 0.227673,0.47796 0.252738,0.57982 0.278914,1.1333 0.02494,0.52736 0.0069,0.68591 -0.135784,1.19359 -0.273617,0.97354 -0.691377,1.63859 -1.232093,1.9614 -0.661579,0.39497 -2.321602,0.82538 -2.853885,0.73994 z m 31.014441,-2.44402 c -0.07181,-0.28648 -0.03742,-0.39329 0.206179,-0.64039 0.128419,-0.13027 0.31216,-0.3383 0.408314,-0.46229 0.09615,-0.12399 0.221732,-0.22544 0.279067,-0.22544 0.119698,0 0.472862,-0.35597 0.706236,-0.71184 0.301714,-0.4601 0.232484,-0.84309 -0.616998,-3.41316 -0.594516,-1.79868 -0.831064,-2.45082 -1.507569,-4.15625 -0.332837,-0.83906 -0.584715,-1.53111 -1.410354,-3.875 -0.133199,-0.37812 -0.39073,-1.17969 -0.572293,-1.78125 -0.917907,-3.04122 -1.167251,-3.75951 -1.634914,-4.70969 -0.103961,-0.21123 -0.197679,-0.39387 -0.208266,-0.40586 -0.01059,-0.012 -0.290396,0.0624 -0.621809,0.16534 -0.331407,0.10292 -0.920173,0.27727 -1.308362,0.38743 -0.728852,0.20684 -1.595512,0.61572 -1.957643,0.92358 l -0.207075,0.17605 0.601936,0.10861 c 1.475312,0.2662 2.409784,1.05695 2.913222,2.46515 0.236056,0.6603 0.22151,1.0227 -0.06506,1.62114 -0.285898,0.59703 -0.722444,0.90929 -2.083238,1.4901 -0.764485,0.32631 -1.016867,0.34264 -1.489329,0.0964 -0.595216,-0.31017 -1.324196,-0.86362 -1.538312,-1.16791 -0.110528,-0.15707 -0.330897,-0.67415 -0.510464,-1.19776 -0.304869,-0.88897 -0.321759,-0.92093 -0.480202,-0.90897 -0.214403,0.0162 -1.054293,0.51972 -1.495405,0.89652 -0.456671,0.39009 -0.684405,0.79734 -0.983111,1.75808 -0.329167,1.05871 -0.400723,1.46286 -0.361032,2.03914 0.0582,0.84507 0.491826,1.77841 0.864328,1.86039 0.328516,0.0723 0.743471,0.31831 0.972696,0.57669 0.576546,0.64988 0.705966,2.00499 0.230404,2.41249 -0.216202,0.18526 -0.699558,0.25994 -1.101465,0.17018 -0.673369,-0.15038 -0.825847,-0.20836 -0.95715,-0.36398 -0.199293,-0.23618 -0.87006,-1.44687 -1.042521,-1.88168 -0.299676,-0.75554 -0.343461,-2.90127 -0.08568,-4.19898 0.38374,-1.93181 1.583421,-3.53193 3.696506,-4.93034 0.97836,-0.64746 0.993931,-0.65995 1.488224,-1.19363 0.495164,-0.53462 1.056367,-0.91854 1.90259,-1.30157 0.921038,-0.4169 2.070319,-0.88696 2.168597,-0.88696 0.05676,0 0.23408,-0.0709 0.394026,-0.15765 0.283695,-0.1538 3.299767,-1.15416 3.482704,-1.15513 0.05063,0 0.171165,-0.0425 0.267854,-0.0939 0.09669,-0.0513 0.234779,-0.094 0.306869,-0.0947 0.07209,-7.5e-4 0.251467,-0.057 0.398617,-0.125 0.14715,-0.068 0.326669,-0.1238 0.39893,-0.12402 0.07226,0 0.210494,-0.0424 0.307183,-0.0937 0.09669,-0.0513 0.214624,-0.0934 0.262091,-0.0934 0.08173,0 0.978852,-0.40405 1.313554,-0.5916 0.205916,-0.11538 0.851575,-0.28044 1.347942,-0.34458 0.381513,-0.0493 0.418711,-0.0418 0.851919,0.17299 0.523814,0.25966 0.54082,0.28795 0.765811,1.27353 0.220921,0.96777 0.23489,1.08942 0.158375,1.37879 -0.07181,0.27157 -0.272138,0.61087 -0.36067,0.61087 -0.02705,0 -0.18843,-0.11291 -0.358632,-0.25091 -0.252142,-0.20445 -0.329381,-0.31543 -0.417035,-0.59922 -0.119207,-0.38593 -0.369471,-0.68208 -0.692592,-0.81956 -0.222714,-0.0948 -0.876591,-0.0702 -1.174653,0.0441 -0.08439,0.0324 -0.443426,0.13328 -0.79786,0.22426 -0.354435,0.091 -0.674051,0.18969 -0.710256,0.21935 -0.03621,0.0297 -0.243347,0.0998 -0.460304,0.15587 -0.605226,0.15641 -0.934834,0.3247 -0.885171,0.45194 0.127811,0.32749 0.286733,0.93715 0.399624,1.53308 0.146978,0.77585 0.509863,2.04234 0.781836,2.72862 0.425051,1.07257 0.520782,1.33819 1.024913,2.84375 0.05755,0.17188 0.226801,0.56601 0.376111,0.87586 0.296657,0.61561 0.456499,1.12039 0.642934,2.03039 0.304004,1.48387 0.564714,2.24922 0.979337,2.875 0.359228,0.54217 0.572342,1.01733 0.953087,2.125 0.371711,1.08138 0.707402,1.8468 0.963797,2.19761 0.0839,0.11475 0.20118,0.34176 0.26069,0.50446 0.15483,0.4233 0.43883,0.73133 0.73675,0.79911 0.2249,0.0512 0.66961,-0.01 1.17365,-0.16017 0.10646,-0.0318 0.14296,-0.002 0.19947,0.1631 0.038,0.11112 0.0692,0.29556 0.0692,0.40986 0,0.27249 -0.0244,0.28414 -1.74915,0.83346 -0.776383,0.24728 -1.701594,0.54347 -2.056028,0.6582 -0.354434,0.11472 -1.058699,0.34015 -1.565034,0.50095 -0.506334,0.16079 -1.075344,0.34603 -1.264467,0.41163 -0.445452,0.15453 -0.474236,0.15165 -0.525428,-0.0526 z m -6.87377,-14.30885 c 0.111602,-0.0581 0.228256,-0.21096 0.324723,-0.42555 0.386754,-0.86028 0.276385,-1.89001 -0.228679,-2.13359 -0.549345,-0.26493 -1.476183,-0.50524 -2.050004,-0.53152 l -0.488254,-0.0224 -0.07222,0.3125 c -0.120901,0.52316 -0.100537,1.26932 0.04346,1.59262 0.169711,0.38101 0.252203,0.4645 0.854514,0.86487 0.75682,0.50307 1.149109,0.58632 1.616459,0.34303 z m -44.013174,9.5402 c -0.144952,-0.0656 -0.545417,-0.20688 -0.889921,-0.31406 -0.344505,-0.10718 -0.756208,-0.2463 -0.914897,-0.30915 -0.375567,-0.14877 -1.398585,-0.82039 -1.398963,-0.91844 -4.3e-4,-0.10948 0.178756,-0.18681 0.451793,-0.19497 0.283789,-0.008 0.380123,-0.0799 0.463623,-0.34348 0.09408,-0.29703 0.1138,-1.20137 0.02582,-1.18439 -0.03913,0.008 -0.329118,0.0444 -0.644426,0.082 -0.315307,0.0375 -0.887221,0.12495 -1.27092,0.19426 -0.876825,0.15836 -1.559204,0.0788 -2.484889,-0.2896 -0.207439,-0.0826 -0.500565,-0.18245 -0.65139,-0.22195 -0.398962,-0.1045 -1.071874,-0.46547 -1.357356,-0.72812 -0.819859,-0.75428 -1.156852,-1.94724 -0.852838,-3.01905 0.07313,-0.25781 0.174075,-0.6375 0.224329,-0.84375 0.486427,-1.99637 1.252645,-3.41601 2.453751,-4.54628 0.589967,-0.55517 1.330215,-0.96539 2.056821,-1.13983 0.550381,-0.13213 1.846884,-0.11889 3.027674,0.0309 1.118247,0.14188 1.447684,0.23576 1.817929,0.51809 0.143967,0.10978 0.481677,0.34023 0.750468,0.5121 0.472291,0.302 0.493672,0.32615 0.636338,0.71875 0.0812,0.22344 0.199309,0.45981 0.262477,0.52528 0.112874,0.11699 0.127316,0.11575 0.840147,-0.0724 1.277465,-0.33719 1.616271,-0.33625 2.178781,0.006 0.338623,0.20606 0.493881,0.43958 0.571157,0.85906 0.03511,0.19055 0.01332,0.24429 -0.182133,0.44923 -0.253335,0.26564 -0.343804,0.27977 -0.725268,0.11325 -0.267632,-0.11682 -0.278123,-0.11689 -0.462057,-0.003 -0.250951,0.15542 -0.306558,0.25287 -0.747474,1.31003 -0.207888,0.49844 -0.669458,1.51094 -1.025712,2.25 -1.667871,3.46006 -2.307568,4.90928 -2.230899,5.05404 0.109405,0.20658 0.350009,0.37175 0.681982,0.46818 0.332021,0.0964 0.527066,0.24842 0.662228,0.51603 0.0829,0.16413 -0.07025,0.32939 -0.480948,0.519 -0.336172,0.1552 -0.446297,0.15551 -0.785228,0.002 z m -2.835831,-4.40716 c 0.751161,-0.22638 1.373269,-0.69187 1.70706,-1.27731 0.08819,-0.15469 0.2871,-0.45 0.442012,-0.65625 0.407847,-0.54301 0.472289,-0.6607 0.711319,-1.29909 0.223145,-0.59596 0.421842,-0.95565 0.853284,-1.54466 0.138485,-0.18906 0.326144,-0.55211 0.417018,-0.80677 l 0.165227,-0.46302 -0.151899,-0.2028 c -0.08354,-0.11154 -0.338956,-0.34575 -0.567582,-0.52045 -0.933446,-0.71331 -1.54889,-0.9087 -2.870639,-0.91137 -0.961221,-0.002 -1.128786,0.0422 -2.085036,0.54937 -0.382543,0.20288 -0.638328,0.40798 -1.144316,0.91754 -0.843476,0.84943 -1.081125,1.316 -1.275534,2.50421 -0.03694,0.22576 -0.136274,0.6174 -0.220748,0.87033 -0.178079,0.53318 -0.193763,0.86317 -0.05439,1.14419 0.126334,0.25472 0.549781,0.84023 0.755423,1.04453 0.225596,0.22413 1.031775,0.61434 1.487875,0.72016 0.473242,0.10981 1.347609,0.077 1.830921,-0.0686 z m -14.863735,3.01188 c -0.21322,-0.11535 -0.622428,-0.37391 -0.909351,-0.57458 -1.043624,-0.72992 -1.947428,-1.35404 -2.594931,-1.79193 -0.418809,-0.28324 -0.674044,-0.49774 -0.69541,-0.58443 -0.02258,-0.0916 0.03391,-0.24231 0.170664,-0.45523 0.200697,-0.31248 0.210036,-0.31829 0.512975,-0.31939 0.184708,-6.9e-4 0.364645,0.0389 0.448296,0.0986 0.208766,0.1489 0.38357,0.065 0.624059,-0.2997 0.118145,-0.17915 0.698128,-1.00709 1.288852,-1.83988 1.221547,-1.72211 1.968431,-2.80987 3.049905,-4.44187 1.461189,-2.20501 1.972876,-3.14112 2.401376,-4.39323 0.421228,-1.23086 0.458299,-1.49144 0.285598,-2.00759 -0.108005,-0.32279 -0.309495,-0.47175 -0.75078,-0.55503 -0.160049,-0.0302 -0.456707,-0.0986 -0.659241,-0.15202 -0.490793,-0.1294 -1.234551,-0.11177 -1.86455,0.0442 -0.489153,0.12112 -0.539464,0.15031 -1.028012,0.59655 -0.282528,0.25804 -0.513688,0.49185 -0.513688,0.51954 0,0.0277 -0.138091,0.19549 -0.306869,0.37288 -0.168779,0.17739 -0.30687,0.35083 -0.30687,0.38543 0,0.0346 -0.176721,0.3052 -0.392713,0.60133 -0.215992,0.29615 -0.631288,0.92625 -0.922881,1.40023 -0.291592,0.47399 -0.860563,1.36859 -1.264381,1.98802 -0.403818,0.61941 -0.734214,1.18354 -0.734214,1.25361 0,0.0701 0.10765,0.25194 0.239222,0.40416 0.340796,0.39426 0.356923,0.52334 0.116523,0.93264 -0.323529,0.55084 -0.288005,0.56571 -2.734153,-1.14446 -0.563308,-0.39382 -0.96679,-0.71994 -1.013128,-0.81886 -0.06246,-0.13334 -0.126138,-0.16802 -0.337098,-0.18361 -0.221331,-0.0163 -0.266024,-0.0433 -0.299885,-0.18065 -0.02188,-0.0888 -0.0145,-0.23468 0.01642,-0.3242 0.05082,-0.14717 0.103125,-0.16983 0.545838,-0.23653 0.269296,-0.0406 0.617091,-0.0759 0.772878,-0.0785 0.466872,-0.008 0.430807,0.0367 2.085734,-2.56719 0.163857,-0.25781 0.389344,-0.59531 0.501081,-0.75 0.111737,-0.15469 0.312612,-0.44774 0.446389,-0.65123 0.133778,-0.20349 0.378141,-0.51286 0.54303,-0.6875 0.16489,-0.17464 0.349771,-0.39972 0.410847,-0.50019 0.06108,-0.10047 0.388442,-0.56454 0.727478,-1.03125 0.339036,-0.46672 0.896764,-1.28452 1.239396,-1.81733 0.342632,-0.53281 0.690908,-1.05154 0.773947,-1.15272 0.08304,-0.10119 0.175637,-0.25003 0.205774,-0.33075 0.09061,-0.24268 0.522955,-0.857124 0.741306,-1.053524 0.112472,-0.101162 0.320467,-0.338131 0.462212,-0.526593 0.141744,-0.188463 0.314358,-0.417425 0.383587,-0.5088 0.06923,-0.09137 0.125279,-0.189807 0.124559,-0.21875 -0.0022,-0.0869 -0.464345,-0.3928 -0.747083,-0.494463 -0.280913,-0.101012 -0.693304,-0.06417 -1.461067,0.130519 -0.412234,0.104531 -1.116252,0.252462 -1.933277,0.406212 -0.337556,0.06352 -1.069439,0.216213 -1.626407,0.3393 -0.556968,0.123088 -1.620271,0.348582 -2.362895,0.5011 -0.742623,0.152513 -1.529743,0.318382 -1.749155,0.368588 -0.219412,0.05021 -0.647494,0.110769 -0.951295,0.134587 -0.552871,0.04334 -1.966102,0.327744 -2.485642,0.500224 -0.372813,0.12376 -1.709715,0.38426 -2.240146,0.43648 -0.23629,0.0233 -0.616429,0.0973 -0.844755,0.16461 -0.340092,0.10019 -0.61574,0.12317 -1.524848,0.12715 -1.2930092,0.006 -1.3082361,-3e-5 -1.6333169,-0.60899 -0.2237723,-0.419199 -0.2541536,-0.718736 -0.089622,-0.883617 0.061362,-0.0615 0.172657,-0.220307 0.2473214,-0.352913 0.1419038,-0.252025 0.4030533,-0.557387 1.9733175,-2.307419 0.523213,-0.583112 1.202291,-1.345118 1.509064,-1.693343 0.907044,-1.029613 2.744278,-2.816538 3.914322,-3.807144 0.22992,-0.194656 1.020871,-1.279188 1.020871,-1.399794 0,-0.07043 -1.462303,0.151225 -3.038007,0.460481 -0.924715,0.181494 -2.916085,0.682394 -3.80518,0.957144 -1.2499621,0.386263 -2.8607864,0.821363 -4.0635824,1.097613 L 5.8967662,92.644806 5.3780597,92.440588 C 4.8128658,92.218069 4.7888125,92.187325 4.7888715,91.6875 c 3.12e-5,-0.264512 0.018832,-0.296125 0.315952,-0.53125 0.327505,-0.259169 1.9238342,-1.833237 5.4514835,-5.375469 1.864084,-1.871787 3.055781,-3.04585 3.717097,-3.662087 0.132835,-0.123775 0.6696,-0.563456 1.192813,-0.977063 1.058023,-0.836381 1.546137,-1.29645 1.988541,-1.874293 0.163766,-0.2139 0.350577,-0.405988 0.415134,-0.42685 0.06456,-0.02087 0.191127,-0.151425 0.281265,-0.290132 0.140823,-0.216706 0.167359,-0.333031 0.188557,-0.826593 0.02397,-0.558082 0.01838,-0.587119 -0.196937,-1.022519 -0.121883,-0.246469 -0.221605,-0.489688 -0.221605,-0.540494 0,-0.12555 0.131388,-0.41075 0.189227,-0.41075 0.08047,0 2.01424,1.938294 2.579837,2.585869 1.184393,1.356056 1.803901,2.655675 1.586174,3.3275 -0.122846,0.379056 -0.568068,0.33705 -0.80749,-0.07619 -0.09783,-0.168843 -0.241531,-0.280856 -0.559243,-0.435912 -0.653472,-0.318913 -0.872772,-0.332113 -1.34182,-0.08074 -0.41813,0.224075 -1.447596,1.2385 -2.639015,2.600456 -0.337866,0.386225 -0.756843,0.814575 -0.93106,0.951882 -0.174216,0.137306 -0.358184,0.288112 -0.408818,0.335118 -0.05063,0.04701 -0.524495,0.4548 -1.053026,0.906213 -0.874646,0.747025 -1.563572,1.453375 -2.0444,2.096106 -0.09939,0.13285 -0.352161,0.351819 -0.561722,0.486594 -0.387095,0.248962 -1.9325193,1.811269 -1.827093,1.847056 0.03101,0.01053 0.207889,-0.02279 0.393071,-0.07404 0.917805,-0.253987 4.281514,-1.075762 4.754037,-1.161437 0.235422,-0.04269 0.622078,-0.129613 0.859234,-0.193181 0.237157,-0.06356 0.707377,-0.172863 1.044933,-0.242888 0.529781,-0.109906 1.021479,-0.286081 1.625026,-0.58225 0.22533,-0.110569 0.400362,-0.414944 0.6138,-1.067362 0.223045,-0.681788 0.355763,-0.847382 0.580839,-0.724713 0.316827,0.172669 0.538431,0.522588 1.255557,1.982563 0.408445,0.831537 0.742627,1.541681 0.742627,1.578093 0,0.07134 0.313248,0.700757 0.374871,0.753238 0.07068,0.06019 0.300242,0.641625 0.300242,0.760437 0,0.183857 -0.170692,0.2083 -0.427637,0.06124 C 22.090897,91.310138 21.941831,91.25 21.888066,91.25 c -0.05377,0 -0.303439,-0.07031 -0.55483,-0.15625 -0.465894,-0.159262 -0.772988,-0.199675 -0.772988,-0.101719 0,0.209475 -1.425612,1.737475 -2.485642,2.664163 -0.793725,0.693881 -1.209681,1.115231 -1.635116,1.656306 -0.148655,0.189063 -0.688132,0.765625 -1.198837,1.28125 -0.898097,0.90675 -2.290928,2.568237 -1.998869,2.384425 0.219741,-0.1383 2.358524,-0.482369 4.495266,-0.723156 2.57802,-0.290513 3.732917,-0.445413 5.032658,-0.674994 0.489456,-0.08645 0.960753,-0.166794 1.047325,-0.178538 0.30356,-0.04117 2.450985,-0.762012 2.450985,-0.822737 0,-0.01623 -0.08285,-0.136044 -0.184121,-0.26625 -0.101267,-0.130206 -0.184122,-0.261431 -0.184122,-0.291606 0,-0.03017 -0.127006,-0.194881 -0.282237,-0.366007 -0.320803,-0.35365 -0.887489,-1.49145 -1.00837,-2.024618 -0.171582,-0.7568 0.04165,-2.366225 0.38443,-2.901575 0.07645,-0.1194 0.233385,-0.373144 0.34874,-0.563869 0.115355,-0.190725 0.228506,-0.334962 0.251447,-0.320519 0.02294,0.01444 0.121888,-0.05909 0.219881,-0.163406 0.249583,-0.265675 0.476016,-0.395019 1.006717,-0.575075 0.586382,-0.19895 1.017917,-0.251169 1.384434,-0.167519 0.159553,0.03641 0.362123,0.07536 0.450157,0.08654 0.245592,0.03121 0.681738,0.176938 0.681738,0.227781 0,0.02494 0.145397,0.105444 0.323105,0.178894 0.401192,0.165819 1.180278,0.821794 1.426051,1.2007 0.101267,0.156119 0.264338,0.380081 0.362381,0.497694 0.224713,0.269556 0.478004,0.810562 0.626188,1.337481 l 0.114627,0.4076 0.246262,0.0013 c 0.823112,0.0045 2.008286,0.124418 2.163951,0.219006 0.25727,0.156331 0.38592,0.372887 0.425939,0.716981 0.0356,0.30615 0.0276,0.325675 -0.410063,0.999731 -0.245507,0.378119 -0.573858,0.806494 -0.729667,0.951944 -0.155809,0.14545 -0.471767,0.490088 -0.702129,0.765856 -0.230361,0.275763 -0.468227,0.557644 -0.528591,0.626394 -0.06036,0.06875 -0.211855,0.321875 -0.336648,0.5625 -0.124793,0.240625 -0.335415,0.595575 -0.468048,0.788769 -0.322814,0.470225 -0.334084,0.614662 -0.0584,0.748556 0.118145,0.05738 0.490991,0.236913 0.828548,0.398956 0.337556,0.16205 0.754381,0.404391 0.926277,0.538551 0.171896,0.13415 0.339683,0.24392 0.372859,0.24392 0.231735,0 1.726377,1.46099 2.159014,2.1104 0.35688,0.5357 0.862022,1.64231 0.936196,2.05091 0.07415,0.4085 -0.0095,0.95157 -0.22189,1.44065 -0.162524,0.37425 -0.599851,0.93802 -0.770387,0.99314 -0.137864,0.0446 -1.012184,-0.37083 -1.0627,-0.50489 -0.02033,-0.0539 -0.07875,-0.28158 -0.129825,-0.50585 -0.08936,-0.39238 -0.08805,-0.41468 0.03473,-0.59027 0.155778,-0.22279 0.483982,-1.15183 0.485649,-1.37472 6.69e-4,-0.089 -0.110526,-0.37028 -0.247094,-0.625 -0.136568,-0.25472 -0.318313,-0.61123 -0.403877,-0.79224 -0.109027,-0.23066 -0.299419,-0.45821 -0.636361,-0.76057 -0.264434,-0.23729 -0.464742,-0.44778 -0.445128,-0.46775 0.01961,-0.02 0.0064,-0.0363 -0.02926,-0.0363 -0.0357,0 -0.457131,-0.26786 -0.936506,-0.59524 -0.774377,-0.52883 -1.370019,-0.838399 -1.663884,-0.864743 -0.09892,-0.0089 -1.170901,1.331933 -1.741925,2.178733 -0.162261,0.24062 -0.372019,0.52187 -0.466128,0.625 -0.190402,0.20864 -0.626917,0.96665 -0.56001,0.97245 0.332608,0.0289 1.604223,0.0224 1.883914,-0.01 0.285784,-0.0327 0.450695,-0.0144 0.736456,0.0816 0.202516,0.068 0.382035,0.14433 0.39893,0.16956 0.01689,0.0252 0.182618,0.12804 0.368274,0.22845 0.311479,0.16848 0.673346,0.49782 1.234088,1.12316 0.27837,0.31044 0.587639,0.95662 0.668178,1.39608 0.121772,0.66445 0.04361,1.71488 -0.186565,2.5071 -0.17436,0.60013 -1.685997,3.43503 -2.482818,4.65625 -0.381295,0.58437 -1.255367,1.86433 -1.942381,2.84435 -1.712839,2.44334 -2.099433,3.07743 -2.178409,3.57303 -0.03045,0.19112 -0.01041,0.25635 0.119371,0.38852 0.08578,0.0874 0.175535,0.22301 0.199446,0.30146 0.02391,0.0785 0.16831,0.26017 0.320885,0.40382 0.270013,0.25422 0.275296,0.26637 0.198137,0.45607 -0.0436,0.10719 -0.156398,0.23551 -0.250662,0.28515 -0.160428,0.0845 -0.196191,0.0768 -0.559064,-0.11947 z m 2.63993,-24.627534 c 0.106989,-0.151712 0.194526,-0.288569 0.194526,-0.304131 0,-0.03227 -0.752215,0.137656 -0.792942,0.179131 -0.03078,0.03134 0.305127,0.400844 0.364403,0.400844 0.02172,0 0.127024,-0.124131 0.234013,-0.275844 z m -1.370508,-1.346825 c 0.101267,-0.06169 0.294595,-0.147031 0.429617,-0.189631 0.645354,-0.203625 1.836529,-0.815613 2.178773,-1.119381 l 0.276182,-0.245138 -0.147194,-0.287694 c -0.140741,-0.275081 -0.414348,-0.568962 -0.743278,-0.798356 -0.130086,-0.09073 -0.139156,-0.116437 -0.06082,-0.172431 0.05063,-0.03619 0.161106,-0.08389 0.245496,-0.106006 0.08439,-0.02211 0.234346,-0.108675 0.333238,-0.192363 0.152495,-0.12905 0.220076,-0.146006 0.444961,-0.111662 0.302853,0.04625 0.318734,0.01069 0.190259,-0.425988 -0.05198,-0.176687 -0.207867,-0.389237 -0.509535,-0.69475 -0.581909,-0.589331 -0.567979,-0.58015 -1.246055,-0.821406 -0.460318,-0.163781 -0.692896,-0.211406 -1.034746,-0.211894 -0.537388,-7.5e-4 -0.68834,0.05373 -1.134229,0.409457 -0.191244,0.152575 -0.377673,0.277412 -0.414288,0.277412 -0.146067,0 -0.738185,0.691831 -0.816121,0.953556 -0.118838,0.399081 -0.09892,1.688563 0.03214,2.080894 0.09797,0.293269 0.52802,0.895306 1.126658,1.577231 0.2144,0.244232 0.25421,0.2645 0.450016,0.229125 0.118144,-0.02134 0.297663,-0.08928 0.39893,-0.150975 z m 82.072256,24.267089 c -0.22341,-0.0595 -0.20351,-0.38986 0.0848,-1.40877 0.11249,-0.39748 0.11338,-0.43183 0.0162,-0.625 -0.0566,-0.11242 -0.61915,-0.90753 -1.25018,-1.7669 -1.37949,-1.87869 -1.61184,-2.21706 -1.99559,-2.90625 -0.48385,-0.86894 -1.4891,-2.37776 -2.57437,-3.86393 -0.56035,-0.76735 -1.13284,-1.6111 -1.27221,-1.875 -0.13937,-0.2639 -0.31842,-0.57776 -0.39787,-0.69745 -0.0795,-0.1197 -0.14447,-0.2356 -0.14447,-0.25756 0,-0.022 -0.16571,-0.31669 -0.36825,-0.65497 -0.20253,-0.33828 -0.36824,-0.63535 -0.36824,-0.66016 0,-0.0855 -0.38668,-0.67843 -0.44241,-0.67843 -0.0307,0 -0.0388,-0.0281 -0.0179,-0.0625 0.0209,-0.0344 0.0118,-0.0625 -0.0201,-0.0625 -0.0319,0 -0.28419,-0.35162 -0.56063,-0.78139 -0.64329,-1.00011 -0.824578,-1.12868 -1.516323,-1.0754 -0.291341,0.0224 -0.500749,0.0717 -0.567966,0.13367 -0.05856,0.054 -0.136704,0.0981 -0.173651,0.0981 -0.03695,0 -0.153318,0.0738 -0.258599,0.16402 -0.10528,0.0902 -0.208659,0.14648 -0.229728,0.12502 -0.02107,-0.0215 -0.04507,-0.17261 -0.05332,-0.3359 -0.0083,-0.16329 -0.03378,-0.38393 -0.05673,-0.49032 -0.03253,-0.1508 0.005,-0.28851 0.170202,-0.625 0.116555,-0.23736 0.330456,-0.74095 0.475335,-1.11907 0.144879,-0.37812 0.295435,-0.72969 0.334567,-0.78125 0.08956,-0.118006 0.462287,-0.957294 0.462287,-1.040963 0,-0.03424 0.0712,-0.130362 0.158215,-0.213612 0.123497,-0.118144 0.217835,-0.149013 0.429869,-0.140656 0.298542,0.01176 0.700762,0.1278 0.700762,0.202162 0,0.02598 0.0918,0.143331 0.20394,0.260775 0.23582,0.246938 0.96217,1.267984 0.96217,1.352554 0,0.0314 0.0414,0.19901 0.092,0.37252 0.11142,0.3821 0.39055,0.81214 1.35264,2.08396 0.40377,0.53377 0.91365,1.27452 1.13306,1.64613 0.21941,0.3716 0.73035,1.18114 1.13542,1.79895 0.40507,0.61783 0.81934,1.258 0.92061,1.42262 0.10126,0.16462 0.28019,0.41357 0.3976,0.55322 l 0.21348,0.25392 0.23543,-0.66642 c 0.12949,-0.36652 0.30504,-0.86329 0.39011,-1.10391 0.16074,-0.45468 0.56113,-1.05119 0.78325,-1.16692 0.0705,-0.0367 0.25249,-0.17034 0.40439,-0.2969 0.42011,-0.35001 0.87526,-0.54521 1.77397,-0.76081 0.54635,-0.13106 0.59387,-0.1332 0.88992,-0.04 0.17201,0.0541 0.43703,0.13124 0.58893,0.17134 0.49214,0.1299 1.36846,0.59481 1.68778,0.89542 0.16878,0.15888 0.32662,0.2895 0.35077,0.29026 0.0724,0.002 0.47778,0.3845 0.47778,0.45049 0,0.0336 0.28815,0.36118 0.64032,0.7279 1.23626,1.28725 1.99421,2.31503 4.43252,6.01049 0.65478,0.99239 1.48827,2.10564 1.81037,2.41804 0.29405,0.2852 0.50615,0.35459 0.72755,0.238 0.0977,-0.0515 0.28256,-0.0937 0.41082,-0.094 0.12938,0 0.31518,-0.0557 0.41733,-0.12459 0.10126,-0.0683 0.23138,-0.12436 0.28913,-0.12459 0.15982,-6.2e-4 0.35529,0.25078 0.35529,0.45696 0,0.2646 -0.31783,0.54183 -2.01477,1.7574 -0.79907,0.5724 -1.65999,1.1933 -1.91316,1.3798 -0.25316,0.18649 -0.50628,0.33994 -0.56248,0.341 -0.0562,0.001 -0.20412,-0.1395 -0.32871,-0.31234 -0.19646,-0.27253 -0.22105,-0.34409 -0.1852,-0.53871 0.024,-0.13026 0.12973,-0.31711 0.252,-0.44531 0.23962,-0.25126 0.25936,-0.37169 0.0957,-0.5839 -0.0632,-0.082 -0.60868,-0.89651 -1.21213,-1.81006 -1.64618,-2.49209 -3.55097,-5.23693 -4.52858,-6.52578 -0.64337,-0.84818 -1.49276,-1.70113 -2.23381,-2.24316 -0.95692,-0.69994 -0.90114,-0.67393 -1.38034,-0.6438 -0.47058,0.0296 -0.66511,0.15786 -0.78082,0.5149 -0.0364,0.11222 -0.10518,0.2193 -0.15292,0.23795 -0.11098,0.0434 -0.4342,0.69395 -0.62519,1.25839 -0.0866,0.25581 -0.16274,0.65817 -0.18346,0.96888 l -0.0354,0.53139 0.37455,0.74986 c 0.74145,1.48444 0.90057,1.73619 2.27884,3.60532 0.42298,0.57362 1.02543,1.39751 1.33877,1.83087 0.31333,0.43335 0.61359,0.80507 0.66724,0.82603 0.0536,0.021 0.22536,-0.009 0.38159,-0.0656 0.15622,-0.057 0.39452,-0.10233 0.52954,-0.1007 0.22051,0.003 0.2694,0.0345 0.48042,0.31319 l 0.23494,0.31022 -0.13191,0.21733 c -0.13158,0.21682 -0.79225,0.75097 -1.78024,1.43933 -0.28692,0.19991 -0.66841,0.47599 -0.84775,0.6135 -0.18138,0.13908 -0.42649,0.2662 -0.55236,0.28647 -0.18522,0.0298 -0.24671,0.079 -0.33876,0.27077 -0.11222,0.23385 -0.19841,0.26778 -0.48589,0.19126 z m -53.069448,-4.38747 c -0.06476,-0.12323 -0.03357,-0.55227 0.04887,-0.67226 0.02175,-0.0316 0.183078,-0.15 0.358513,-0.26301 0.402203,-0.25909 0.715984,-0.61036 0.82438,-0.92289 0.135568,-0.39086 0.09776,-1.74172 -0.06802,-2.43004 -0.246642,-1.02409 -0.155231,-1.48962 0.4044,-2.05952 0.438361,-0.4464 1.347999,-0.72892 1.934529,-0.60082 0.601698,0.13141 0.848888,0.35543 1.008283,0.91379 0.08703,0.30487 0.08449,0.37439 -0.0367,1.00578 -0.280785,1.46286 -0.519952,2.18592 -0.950727,2.87425 -0.698189,1.11563 -1.906444,1.99679 -2.944126,2.14711 -0.168778,0.0245 -0.353084,0.0649 -0.409567,0.0899 -0.07061,0.0312 -0.123677,0.006 -0.169833,-0.0823 z m 65.758458,-7.36161 c -0.0675,-0.0152 -0.15528,-0.0384 -0.19504,-0.0516 -0.049,-0.0162 -0.011,-0.17073 0.11847,-0.48072 0.14984,-0.35885 0.19161,-0.55065 0.19477,-0.89432 0.006,-0.64911 -0.21697,-1.0259 -1.26296,-2.13449 -0.46084,-0.48842 -0.92792,-1.03765 -1.03797,-1.22052 -0.11005,-0.18287 -0.52452,-0.64187 -0.92104,-1.01999 -0.79655,-0.7596 -0.79845,-0.76032 -1.28965,-0.48999 -0.28961,0.15938 -0.42638,0.27139 -0.93459,0.7654 -0.27766,0.26989 -0.30038,0.28019 -0.37915,0.17195 -0.17592,-0.24171 -0.17102,-0.55637 0.0163,-1.04589 0.0976,-0.25518 0.2807,-0.76325 0.40681,-1.12903 0.41124,-1.192728 0.78436,-1.677146 1.36415,-1.771084 0.51418,-0.08331 0.68103,-0.0026 1.27473,0.616506 0.30044,0.313298 0.67967,0.746418 0.84274,0.962468 0.60565,0.80246 0.70775,0.91493 1.15802,1.2756 0.25317,0.20278 0.69506,0.60247 0.98198,0.88819 1.42888,1.42291 1.67275,1.57735 2.11648,1.34029 0.13553,-0.0724 0.39531,-0.18415 0.5773,-0.24832 0.18198,-0.0642 0.36727,-0.14744 0.41175,-0.18504 0.11001,-0.093 0.38796,-0.022 0.60544,0.15459 l 0.17954,0.14579 -0.67175,0.77294 c -1.30839,1.50549 -3.28987,3.62387 -3.3787,3.61213 -0.0302,-0.004 -0.1101,-0.0197 -0.17761,-0.0349 z m -52.351918,-2.20728 c -1.077732,-0.0611 -3.484042,-0.29615 -3.879799,-0.37901 -0.176063,-0.0369 -0.438437,-0.078 -0.583052,-0.0915 -0.357871,-0.0333 -0.674652,-0.0831 -1.183546,-0.18618 -0.236289,-0.0478 -0.7058,-0.13489 -1.043356,-0.19342 -0.337556,-0.0585 -0.790311,-0.15768 -1.006126,-0.22034 -0.215809,-0.0627 -0.410855,-0.1023 -0.433435,-0.0881 -0.02258,0.0142 -0.425984,-0.0727 -0.896464,-0.19315 -0.470479,-0.12045 -1.048744,-0.26207 -1.285033,-0.31472 -0.23629,-0.0526 -0.633375,-0.16343 -0.882412,-0.24619 -0.249037,-0.0828 -0.500981,-0.15047 -0.559874,-0.15047 -0.05889,0 -0.324647,-0.0737 -0.590562,-0.16377 -0.265915,-0.0901 -0.538718,-0.17133 -0.606229,-0.18057 -0.222851,-0.0305 -0.665604,-0.15974 -1.380912,-0.40306 -0.38819,-0.13204 -0.896798,-0.2886 -1.130239,-0.34791 -0.468171,-0.11893 -2.162043,-0.74587 -2.276459,-0.84257 -0.03972,-0.0336 -0.08452,-0.0485 -0.09955,-0.0332 -0.04173,0.0425 -1.970015,-0.9277 -2.337834,-1.17627 -0.178196,-0.12042 -0.508507,-0.30322 -0.734025,-0.40624 -0.225517,-0.10301 -0.583142,-0.30184 -0.79472,-0.44185 C 48.511317,100.11455 48.311603,100 48.279087,100 48.201617,100 47.253347,99.436406 47.13757,99.32155 47.08828,99.27265 46.950184,99.191537 46.830701,99.141306 46.540037,99.019119 45.927473,98.643725 45.663523,98.426037 45.546126,98.329219 45.417132,98.25 45.37687,98.25 45.28469,98.25 43.834244,97.321025 43.416347,96.994331 43.244451,96.85995 43.077728,96.75 43.04585,96.75 c -0.07843,0 -1.31099,-0.870669 -1.482003,-1.046875 -0.07507,-0.07734 -0.16711,-0.140625 -0.204545,-0.140625 -0.111097,0 -2.264144,-1.616631 -2.264144,-1.70005 0,-0.02747 -0.02957,-0.04995 -0.06571,-0.04995 -0.06449,0 -0.422645,-0.283663 -0.985494,-0.780525 -0.156215,-0.1379 -0.416479,-0.349163 -0.578364,-0.469475 -0.161886,-0.120313 -0.578706,-0.491038 -0.926267,-0.823831 -0.34756,-0.332794 -0.75165,-0.688969 -0.897976,-0.791488 -0.146326,-0.102525 -0.397854,-0.343519 -0.558952,-0.535544 -0.161097,-0.192025 -0.32462,-0.349137 -0.363386,-0.349137 -0.06835,0 -1.842413,-1.806188 -2.712537,-2.761663 C 30.91876,86.106431 30.091318,85.121512 29.425755,84.228969 28.792414,83.379631 28.35473,82.741444 28.35473,82.6673 c 0,-0.06097 -0.364407,-0.604838 -0.468053,-0.69855 -0.08279,-0.07486 -0.530873,-0.887894 -1.094063,-1.985144 -0.510294,-0.9942 -1.332274,-2.946025 -1.598671,-3.796106 -0.05925,-0.189063 -0.142029,-0.400463 -0.183958,-0.469775 -0.101129,-0.167181 -0.567447,-1.540688 -0.880254,-2.592725 -0.691542,-2.325806 -1.216304,-4.917288 -1.480745,-7.3125 -0.164197,-1.48725 -0.19055,-1.911781 -0.229617,-3.699088 -0.07222,-3.303845 0.377545,-6.965653 1.338028,-10.893784 0.334916,-1.369726 0.938578,-3.517412 1.071845,-3.813378 0.128423,-0.285207 0.46039,-1.269516 0.558585,-1.65625 0.048,-0.189062 0.15226,-0.471075 0.231679,-0.626694 0.07942,-0.15562 0.179575,-0.408745 0.22257,-0.5625 0.159417,-0.570099 0.822237,-2.187717 1.330994,-3.248306 0.288565,-0.601563 0.724644,-1.535696 0.969064,-2.075854 0.458622,-1.013537 1.360008,-2.759057 1.724028,-3.338552 0.11387,-0.181275 0.207037,-0.344133 0.207037,-0.361908 0,-0.08207 0.943137,-1.635816 1.020173,-1.680652 0.04793,-0.02789 0.07112,-0.07711 0.05154,-0.109375 -0.01958,-0.03226 -0.0095,-0.05866 0.0224,-0.05866 0.0319,0 0.106955,-0.105469 0.166786,-0.234375 0.215187,-0.463631 1.401712,-2.204771 1.795634,-2.634965 0.132384,-0.144574 0.278719,-0.338584 0.325191,-0.431136 0.149764,-0.298268 1.430377,-1.883063 2.408649,-2.980774 0.888795,-0.997309 3.845167,-3.970266 3.8455,-3.867074 1.23e-4,0.03002 0.172711,-0.128239 0.383587,-0.351676 0.377033,-0.399493 1.017657,-0.970321 1.085367,-0.967115 0.0462,0.0022 0.243368,-0.161772 0.365511,-0.303946 0.385156,-0.448315 3.70963,-2.964738 4.382003,-3.316906 0.125187,-0.06557 0.227613,-0.144494 0.227613,-0.175389 0,-0.03089 0.123277,-0.111705 0.27395,-0.179578 0.150673,-0.06787 0.405124,-0.225369 0.565448,-0.349992 0.59334,-0.461217 3.580934,-2.207074 3.776851,-2.207074 0.05083,0 0.186023,-0.06331 0.30044,-0.140699 0.114416,-0.07738 0.415166,-0.24422 0.668334,-0.370746 1.202155,-0.600806 2.391966,-1.173419 2.669763,-1.284863 0.168778,-0.06771 0.45877,-0.186624 0.644426,-0.264257 0.185656,-0.07763 0.448029,-0.181947 0.583052,-0.231808 0.135022,-0.04986 0.383586,-0.156402 0.552365,-0.236759 0.999164,-0.475712 4.78875,-1.628029 6.276344,-1.908475 0.15986,-0.03014 0.483988,-0.10001 0.720277,-0.155269 0.652865,-0.152681 2.716433,-0.519645 3.158791,-0.561728 0.215398,-0.02049 0.504192,-0.06164 0.641762,-0.09144 0.274047,-0.05936 1.281953,-0.181946 1.815157,-0.220765 3.009805,-0.219122 3.728954,-0.2409059 5.462275,-0.165457 2.248591,0.09788 3.858207,0.230805 4.633727,0.382668 0.168778,0.03305 0.470014,0.07527 0.669417,0.09383 0.199398,0.01856 0.572244,0.07881 0.828548,0.13389 0.256297,0.05508 0.555157,0.108282 0.664126,0.118219 0.108976,0.0099 0.288494,0.04752 0.398931,0.08353 0.110442,0.036 0.333953,0.0809 0.496692,0.09978 0.320261,0.03714 0.474463,0.07008 1.637388,0.349701 1.037709,0.249516 1.613292,0.402129 2.485642,0.659054 1.138184,0.33522 3.00303,0.970539 3.044868,1.037333 0.02065,0.03297 0.05517,0.05754 0.07672,0.0546 0.02154,-0.0029 0.04607,-0.0032 0.05451,-6.94e-4 0.0084,0.0026 0.07273,0.0157 0.142878,0.02922 0.418005,0.08054 3.545753,1.4876 4.015202,1.806293 0.221504,0.150372 0.319303,0.205774 0.833831,0.472346 0.165869,0.08594 0.315947,0.175571 0.333506,0.199186 0.01755,0.02362 0.166121,0.101517 0.330142,0.173117 0.164028,0.0716 0.379635,0.199935 0.479128,0.285189 0.09949,0.08525 0.2098,0.155008 0.245133,0.155008 0.10007,0 0.970069,0.553083 1.239709,0.788118 0.133206,0.116113 0.254481,0.198601 0.269499,0.183308 0.03328,-0.03389 0.831708,0.512616 1.086901,0.743967 0.101267,0.09181 0.266976,0.211806 0.368243,0.266666 0.439609,0.238154 2.403271,1.832199 3.099381,2.515985 0.25317,0.248687 0.56283,0.519294 0.68814,0.601349 0.40237,0.263488 2.78055,2.617406 4.1618,4.119357 1.11474,1.212151 3.0465,3.585365 3.48487,4.28125 0.1191,0.189063 0.3212,0.465816 0.44911,0.615008 0.12791,0.149192 0.31317,0.416379 0.4117,0.59375 0.0985,0.177371 0.2665,0.434992 0.37328,0.572492 1.52686,1.966131 3.86525,6.267996 5.2659,9.6875 0.57826,1.411763 1.30653,3.441432 1.30653,3.641285 0,0.04701 0.0691,0.239194 0.15343,0.427072 0.0844,0.187879 0.15344,0.391008 0.15344,0.451399 0,0.06039 0.0838,0.361901 0.18616,0.670023 0.6077,1.828778 1.41367,5.177335 1.65421,6.872721 0.039,0.275 0.0954,0.640625 0.12529,0.8125 0.052,0.298821 0.25544,1.969946 0.37666,3.09375 0.078,0.723023 0.10634,4.079095 0.0435,5.15625 -0.10504,1.8021 -0.38622,4.191581 -0.67295,5.71875 -0.0678,0.360938 -0.16045,0.870338 -0.20596,1.132 -0.11209,0.644344 -0.73456,3.184038 -0.89442,3.64925 -0.15311,0.445531 -0.43692,1.339831 -0.60497,1.90625 -0.0663,0.223438 -0.15481,0.490625 -0.19671,0.59375 -0.0419,0.103125 -0.0717,0.208594 -0.0663,0.234375 0.005,0.02578 -0.0177,0.04687 -0.0515,0.04687 -0.0338,0 -0.0615,0.03516 -0.0616,0.07813 0,0.04297 -0.0854,0.289062 -0.18948,0.546875 -0.10409,0.257812 -0.20168,0.534787 -0.21688,0.615494 -0.12078,0.641506 -2.05528,4.514787 -2.8528,5.711925 -0.13142,0.197268 -0.23894,0.375968 -0.23894,0.397118 0,0.05229 -0.8979,1.383463 -1.09779,1.627532 -0.29276,0.357456 -0.46554,0.602837 -0.62877,0.893012 -0.0888,0.157919 -0.27526,0.406469 -0.41428,0.552344 -0.13901,0.145869 -0.25275,0.291825 -0.25275,0.324344 0,0.09642 -1.21193,1.579131 -1.4756,1.805287 -0.13358,0.114569 -0.24286,0.235756 -0.24286,0.2693 0,0.180188 -3.16073,3.427 -4.08175,4.192919 -0.13523,0.112463 -0.38068,0.352131 -0.54542,0.5326 -0.16475,0.180469 -0.33518,0.328125 -0.37875,0.328125 -0.0436,0 -0.13753,0.0755 -0.20881,0.167781 -0.14089,0.182407 -0.83838,0.797494 -1.68788,1.488469 -0.29583,0.240625 -0.63593,0.521875 -0.75579,0.625 -0.11986,0.103125 -0.22803,0.173438 -0.24037,0.15625 -0.0123,-0.01719 -0.11131,0.0545 -0.21992,0.1593 -0.28448,0.274513 -0.69585,0.5907 -0.7685,0.5907 -0.0343,0 -0.20507,0.119531 -0.37948,0.265625 -0.56923,0.476825 -1.29279,0.999775 -1.443077,1.042975 -0.0854,0.02454 -0.379984,0.241988 -0.567143,0.418625 C 98.803101,98.4335 98.709058,98.5 98.68023,98.5 c -0.02883,0 -0.07313,0.0035 -0.09844,0.0078 -0.06228,0.01048 -0.555133,0.352756 -0.782057,0.543119 -0.101015,0.08474 -0.297768,0.203875 -0.437234,0.264756 -0.139459,0.06087 -0.376657,0.206363 -0.527091,0.3233 -0.150439,0.116944 -0.506052,0.33115 -0.79025,0.476015 -0.284191,0.14488 -0.558146,0.28727 -0.608779,0.31642 -0.05063,0.0292 -0.216343,0.11847 -0.368244,0.19847 -0.1519,0.08 -0.369728,0.21003 -0.484068,0.28896 -0.114333,0.0789 -0.313326,0.17242 -0.442198,0.20776 -0.128873,0.0353 -0.272077,0.10271 -0.31823,0.14971 -0.108006,0.10998 -1.040662,0.55757 -2.284501,1.09633 -0.975231,0.42241 -1.546248,0.64099 -2.547016,0.97497 -0.286923,0.0958 -0.576915,0.20928 -0.644426,0.25228 -0.150771,0.096 -2.05565,0.70463 -2.32297,0.74217 -0.106349,0.0149 -0.34618,0.0828 -0.532959,0.15087 -0.639313,0.23287 -3.126342,0.8392 -3.870819,0.94368 -0.249694,0.035 -0.509232,0.0897 -0.576743,0.12142 -0.131009,0.0616 -1.41209,0.29714 -1.871903,0.34418 -0.151901,0.0155 -0.593792,0.0712 -0.981982,0.12377 -0.972371,0.13161 -1.81369,0.2339 -2.178773,0.26491 -0.591632,0.0503 -4.79519,0.067 -5.585022,0.0222 z m 3.958615,-2.59551 c 0.894524,-0.0197 1.792117,-0.0632 1.99465,-0.0965 0.202534,-0.0333 0.699663,-0.0888 1.10473,-0.12324 0.815064,-0.0693 1.060173,-0.10367 2.175796,-0.3048 0.420307,-0.0758 0.84839,-0.14802 0.951295,-0.16055 0.331622,-0.0404 2.97926,-0.697 4.022966,-0.99772 0.556968,-0.16048 1.551224,-0.47079 2.209459,-0.68958 0.658235,-0.21878 1.28655,-0.4163 1.396256,-0.43894 0.109706,-0.0226 0.199465,-0.0614 0.199465,-0.0861 0,-0.0518 0.351224,-0.1891 0.598905,-0.23419 0.09255,-0.0168 0.264343,-0.0881 0.381763,-0.15834 0.240101,-0.14362 0.999486,-0.460779 1.403375,-0.586129 0.146653,-0.04552 0.312363,-0.121619 0.368244,-0.169119 0.05588,-0.04749 0.22588,-0.136493 0.377781,-0.197768 0.1519,-0.06127 0.417035,-0.17905 0.589183,-0.261725 0.172153,-0.08267 0.342791,-0.150319 0.379204,-0.150319 0.03641,0 0.107656,-0.04222 0.158333,-0.09382 0.05067,-0.0516 0.639092,-0.376643 1.307607,-0.722312 0.668515,-0.345669 1.257342,-0.665844 1.308509,-0.7115 0.133617,-0.119231 1.646821,-1.056813 1.912447,-1.184956 0.12303,-0.05935 0.330167,-0.199101 0.460304,-0.310544 0.130137,-0.111444 0.554218,-0.422906 0.942408,-0.692138 0.921339,-0.638993 2.148513,-1.570075 3.231443,-2.45175 0.47828,-0.389387 0.89543,-0.707981 0.92703,-0.707981 0.0316,0 0.16602,-0.119531 0.29871,-0.265625 0.29131,-0.320719 1.5774,-1.494362 1.85071,-1.688894 0.10759,-0.07657 0.19609,-0.170162 0.19668,-0.207962 6.1e-4,-0.0378 0.26343,-0.302188 0.58411,-0.587519 0.32068,-0.285331 0.58305,-0.542181 0.58305,-0.570775 0,-0.02859 0.25882,-0.326712 0.57515,-0.662481 0.31633,-0.335769 0.8894,-0.976119 1.27351,-1.422994 0.38409,-0.446875 0.79792,-0.910938 0.91961,-1.03125 0.12169,-0.120312 0.25502,-0.284256 0.29628,-0.364319 0.0413,-0.08006 0.11397,-0.192562 0.16156,-0.25 0.20335,-0.245418 1.37188,-1.824931 1.55939,-2.107837 0.11268,-0.17 0.27702,-0.383388 0.3652,-0.474194 0.0882,-0.09081 0.2565,-0.338487 0.37404,-0.550406 0.11755,-0.211913 0.32419,-0.556694 0.45921,-0.766175 0.29931,-0.464356 0.30276,-0.470381 0.77946,-1.362069 0.21134,-0.395313 0.42314,-0.759812 0.47067,-0.810006 0.0919,-0.09699 0.70344,-1.380257 1.20753,-2.533744 0.24201,-0.553769 0.40539,-0.975994 0.45951,-1.1875 0.0264,-0.103125 0.20465,-0.6375 0.39614,-1.1875 0.37234,-1.06945 0.92527,-2.915656 1.17925,-3.9375 0.13152,-0.52915 0.29308,-1.380562 0.6345,-3.34375 0.0329,-0.189063 0.0859,-0.610938 0.11776,-0.9375 0.0319,-0.326562 0.11274,-1.142188 0.17966,-1.8125 0.43254,-4.332529 0.35548,-7.071039 -0.30515,-10.84375 -0.10233,-0.584375 -0.20088,-1.175 -0.219,-1.3125 -0.0355,-0.269076 -0.12404,-0.646594 -0.50596,-2.15625 -0.13479,-0.532812 -0.30346,-1.206072 -0.37482,-1.496132 -0.0714,-0.29006 -0.17963,-0.641622 -0.2406,-0.78125 -0.061,-0.139627 -0.17237,-0.464806 -0.24757,-0.722618 -0.0752,-0.257813 -0.3147,-0.989063 -0.53224,-1.625 -0.21753,-0.635937 -0.42577,-1.254688 -0.46274,-1.375 -0.037,-0.120312 -0.17602,-0.447812 -0.30897,-0.727777 -0.13296,-0.279964 -0.2488,-0.547152 -0.25743,-0.59375 -0.009,-0.0466 -0.0608,-0.183161 -0.11603,-0.303473 -0.38368,-0.83652 -1.02542,-2.320952 -1.02542,-2.37195 0,-0.03396 -0.06,-0.168072 -0.13322,-0.298024 -0.35546,-0.630395 -0.77063,-1.420479 -1.04156,-1.982083 -0.16472,-0.341444 -0.3367,-0.664882 -0.38218,-0.71875 -0.141,-0.167012 -0.52975,-0.881161 -0.52975,-0.973186 0,-0.04801 -0.036,-0.109787 -0.08,-0.137276 -0.044,-0.02749 -0.26094,-0.345293 -0.48206,-0.706231 -0.22111,-0.360937 -0.67532,-1.072434 -1.00935,-1.581104 -0.33403,-0.50867 -0.67772,-1.053342 -0.76374,-1.210381 -0.086,-0.15704 -0.19719,-0.317418 -0.24703,-0.356396 -0.12847,-0.100478 -0.89089,-1.121177 -1.00431,-1.34453 -0.0521,-0.102561 -0.21893,-0.314812 -0.37078,-0.47167 -0.15185,-0.156858 -0.43439,-0.503327 -0.62786,-0.769933 -0.44122,-0.608028 -0.57941,-0.774704 -0.99986,-1.20599 -0.55604,-0.570361 -1.59572,-1.733404 -1.59572,-1.785049 0,-0.07043 -0.25703,-0.337447 -0.32482,-0.337447 -0.0785,0 -1.14816,-1.089553 -1.14816,-1.169501 0,-0.03493 -0.10796,-0.139691 -0.23992,-0.232815 -0.13195,-0.09312 -0.38936,-0.32898 -0.57201,-0.524125 -0.43078,-0.460253 -0.76218,-0.766136 -1.02928,-0.950036 -0.22996,-0.158324 -0.759468,-0.618752 -1.258167,-1.094019 -0.168778,-0.160848 -0.389724,-0.335488 -0.490991,-0.388091 -0.199459,-0.103606 -0.795148,-0.568007 -1.083298,-0.844538 -0.0985,-0.09453 -0.205989,-0.171875 -0.238855,-0.171875 -0.03286,0 -0.314995,-0.188265 -0.626965,-0.418366 -0.615997,-0.454353 -1.950406,-1.334094 -2.68461,-1.769903 -0.253167,-0.150275 -0.509403,-0.323737 -0.569408,-0.385472 -0.06,-0.06174 -0.184287,-0.131148 -0.276183,-0.154251 -0.0919,-0.0231 -0.263742,-0.103236 -0.381886,-0.178074 -0.118145,-0.07484 -0.711937,-0.380943 -1.319539,-0.680233 -0.607601,-0.299291 -1.298057,-0.644428 -1.534346,-0.766973 -0.23629,-0.122544 -0.487315,-0.233544 -0.55784,-0.246667 -0.148433,-0.02762 -0.890572,-0.338458 -1.160629,-0.486118 -0.101267,-0.05537 -0.21719,-0.100846 -0.257605,-0.101058 -0.09693,-5e-4 -2.019507,-0.664229 -2.267997,-0.782971 C 85.715717,14.541586 85.581499,14.5 85.523814,14.5 c -0.05769,0 -0.453977,-0.09629 -0.880648,-0.213979 -1.144328,-0.31564 -2.322897,-0.600353 -2.72848,-0.659137 -0.196347,-0.02846 -0.555384,-0.09469 -0.79786,-0.147191 -0.242476,-0.0525 -0.758477,-0.140942 -1.146667,-0.196541 -0.38819,-0.0556 -0.940555,-0.141142 -1.227477,-0.190093 -0.286923,-0.04895 -1.018807,-0.132483 -1.626408,-0.185626 -3.63534,-0.317961 -6.63168,-0.269657 -9.911881,0.159791 -0.523212,0.0685 -1.103195,0.136971 -1.288851,0.152159 -0.337084,0.02758 -0.644978,0.08517 -1.166104,0.218116 -0.1519,0.03875 -0.510937,0.109477 -0.79786,0.157165 -0.74773,0.124279 -1.402215,0.279055 -2.485642,0.587824 -0.371312,0.105821 -0.730349,0.192599 -0.797861,0.192842 -0.06751,2.5e-4 -0.193805,0.0382 -0.280653,0.08435 -0.193028,0.102579 -1.007472,0.35787 -1.235421,0.387248 -0.09132,0.01177 -0.229448,0.06135 -0.306959,0.110178 -0.07751,0.04883 -0.375686,0.166711 -0.662608,0.261959 -0.286923,0.09525 -0.808754,0.295861 -1.159624,0.445805 -0.35087,0.149945 -0.675686,0.272626 -0.721812,0.272626 -0.101227,0 -0.499107,0.175327 -1.14621,0.505079 -0.264347,0.134707 -0.5299,0.244921 -0.590119,0.244921 -0.06022,0 -0.178308,0.05513 -0.26242,0.122504 -0.165736,0.13276 -1.048549,0.560149 -1.238829,0.599744 -0.06437,0.01339 -0.216273,0.09169 -0.337556,0.173983 -0.300728,0.204055 -1.6628,0.929911 -1.6628,0.886115 0,-0.03437 -0.30723,0.148395 -0.368243,0.219056 -0.01688,0.01955 -0.403533,0.257079 -0.859235,0.527849 -0.949828,0.564372 -1.839536,1.125683 -2.341962,1.477529 -0.191021,0.133771 -0.376483,0.24322 -0.412138,0.24322 -0.03565,0 -0.155547,0.07952 -0.266427,0.176703 -0.215256,0.188671 -0.794969,0.602466 -0.846027,0.603887 -0.05004,0.0014 -0.45857,0.304507 -0.480301,0.356368 -0.03169,0.07563 -1.405964,1.113042 -1.474458,1.113042 -0.03392,0 -0.112523,0.06584 -0.174677,0.146301 -0.06215,0.08047 -0.319627,0.319931 -0.572162,0.532146 -1.26205,1.060546 -1.913526,1.662492 -3.273429,3.024569 -0.815044,0.816346 -1.491733,1.484315 -1.503752,1.484375 -0.01202,6e-5 -0.07983,0.07517 -0.150696,0.16691 -0.286244,0.370577 -1.646854,1.957435 -1.717452,2.003036 -0.106213,0.06861 -0.608136,0.695072 -0.697626,0.870729 -0.07706,0.151266 -0.801806,1.10571 -1.055834,1.390472 -0.07983,0.08949 -0.565089,0.809587 -1.078346,1.600212 -0.966278,1.488461 -1.113776,1.722266 -1.616573,2.5625 -0.352947,0.589815 -1.912909,3.785232 -2.50196,5.125 -0.226703,0.515625 -0.433401,0.951563 -0.459328,0.96875 -0.02593,0.01719 -0.10424,0.208589 -0.174029,0.425336 -0.06979,0.216747 -0.214579,0.56831 -0.321755,0.78125 -0.107176,0.21294 -0.215858,0.471539 -0.241516,0.574664 -0.02566,0.103125 -0.239525,0.69375 -0.47526,1.3125 -0.779084,2.044911 -1.503681,4.439053 -1.976709,6.53125 -0.180122,0.796676 -0.593327,3.024167 -0.649259,3.5 -0.157328,1.338451 -0.27702,2.507997 -0.335805,3.28125 -0.126948,1.669878 -0.005,5.377219 0.223057,6.78125 0.01954,0.120312 0.103672,0.640625 0.186953,1.15625 0.249983,1.547731 0.605581,3.0761 1.156056,4.96875 0.114976,0.395313 0.241867,0.852344 0.281979,1.015625 0.04011,0.163281 0.09259,0.296875 0.116616,0.296875 0.02403,0 0.0787,0.119531 0.121495,0.265625 0.0428,0.146094 0.270395,0.771875 0.505773,1.390625 0.235378,0.61875 0.467824,1.257387 0.516549,1.419188 0.04872,0.161806 0.115373,0.311049 0.148109,0.331656 0.06405,0.04031 0.447738,0.849669 0.584522,1.233 0.04589,0.128612 0.113054,0.269237 0.149246,0.3125 0.03619,0.04326 0.309226,0.514594 0.606741,1.047406 0.297516,0.532813 0.752671,1.292187 1.011456,1.6875 0.608097,0.928912 0.662067,1.007 0.799143,1.15625 0.06314,0.06875 0.150869,0.209375 0.194952,0.3125 0.04408,0.103125 0.247973,0.364187 0.453089,0.580144 0.205116,0.215956 0.372939,0.420831 0.372939,0.455275 0,0.03445 0.173906,0.238862 0.386458,0.45425 0.212553,0.215394 0.467359,0.502706 0.566236,0.638475 0.280134,0.384656 3.074281,3.209987 4.233398,4.280644 0.573846,0.53005 1.126211,1.0415 1.227478,1.136556 0.101267,0.09506 0.202809,0.172956 0.225649,0.173118 0.02284,0 0.506159,0.373132 1.074043,0.828832 0.567883,0.4557 1.294888,1.022806 1.615567,1.260231 0.320678,0.237431 0.679716,0.506713 0.79786,0.598412 0.118145,0.09169 0.932883,0.652419 1.81053,1.24605 0.877646,0.593632 1.640416,1.1197 1.695044,1.169038 0.131758,0.119 0.738218,0.4985 1.158841,0.725169 0.185656,0.100043 0.585953,0.352043 0.889549,0.559993 0.303596,0.207957 0.579778,0.382713 0.613739,0.38835 0.03396,0.0056 0.183267,0.100575 0.331793,0.210982 0.148526,0.1104 0.307267,0.200731 0.352757,0.200731 0.04549,0 0.218955,0.09968 0.385476,0.221506 0.16652,0.121825 0.353007,0.231982 0.414415,0.244794 0.147006,0.03066 1.316027,0.660106 1.420138,0.764663 0.04456,0.04474 0.155028,0.0988 0.245496,0.120131 0.09047,0.02132 0.39069,0.16255 0.667161,0.313831 0.276472,0.151281 0.525036,0.268088 0.552365,0.259569 0.05486,-0.01711 1.047295,0.3821 1.338541,0.53842 0.101267,0.0543 0.227814,0.099 0.281216,0.0992 0.0919,6.3e-4 1.35892,0.43821 1.621374,0.5603 0.06751,0.0314 0.385121,0.13279 0.7058,0.2253 0.320678,0.0925 0.660545,0.20835 0.75526,0.25741 0.09472,0.0491 0.247426,0.0989 0.339359,0.11074 0.09193,0.0118 0.62204,0.15025 1.178017,0.30754 0.555976,0.1573 1.356094,0.36971 1.778039,0.47202 1.397692,0.33891 4.294803,0.92752 4.81785,0.97886 0.547565,0.0538 1.699774,0.21339 1.744853,0.24176 0.02414,0.0152 0.276643,0.0413 0.561117,0.0581 0.284474,0.0168 1.083402,0.0744 1.775392,0.12812 1.575351,0.12228 1.970139,0.14196 2.393581,0.11929 0.185656,-0.01 1.06944,-0.0342 1.963965,-0.054 z M 60.141842,96.471119 c -0.160083,-0.106938 -0.255449,-0.242563 -0.352899,-0.501888 -0.162136,-0.431462 -0.166465,-0.746887 -0.04118,-3.000481 0.04969,-0.89375 0.09066,-1.754719 0.09105,-1.913269 l 7.12e-4,-0.288269 -0.322213,-0.03848 c -0.177217,-0.02116 -0.598395,-0.05479 -0.935952,-0.07472 -0.337556,-0.01993 -0.652494,-0.04945 -0.699861,-0.06559 -0.04737,-0.01614 -0.364977,-0.04438 -0.705799,-0.06274 -0.340823,-0.01837 -0.716341,-0.05812 -0.834486,-0.08834 -0.118145,-0.03022 -0.532419,-0.07182 -0.920608,-0.09246 -0.558776,-0.0297 -0.728414,-0.01909 -0.814363,0.05093 -0.126611,0.103143 -0.401444,0.761643 -0.441099,1.056875 -0.01504,0.111962 -0.127145,0.498875 -0.249125,0.859812 -0.12198,0.360938 -0.271811,0.851963 -0.332958,1.091163 -0.06115,0.2392 -0.142617,0.445587 -0.181045,0.458631 -0.110266,0.03743 -0.252418,-0.388781 -0.250447,-0.750913 0.0016,-0.290487 0.106709,-0.973587 0.37594,-2.442762 0.05435,-0.296569 0.05875,-0.456056 0.01456,-0.527394 -0.07282,-0.117563 -0.412785,-0.307062 -0.637793,-0.355512 -0.317141,-0.06829 -0.72264,-0.184294 -1.248781,-0.357238 C 51.356859,89.330313 51.064813,89.25 51.006508,89.25 c -0.05831,0 -0.722168,-0.183725 -1.47525,-0.408281 -0.753082,-0.22455 -1.38252,-0.39475 -1.398751,-0.378225 -0.01623,0.01653 -0.164132,0.460412 -0.328671,0.986406 -0.164538,0.525994 -0.417639,1.318656 -0.562448,1.761475 -0.258627,0.790875 -0.264749,0.801937 -0.345854,0.625 -0.205584,-0.4485 -0.15226,-1.012169 0.262414,-2.773875 0.146205,-0.621138 0.131298,-0.976775 -0.04793,-1.143606 -0.08133,-0.07571 -0.792498,-0.4696 -1.580377,-0.875325 -0.78788,-0.405725 -1.542981,-0.806625 -1.678003,-0.890888 -0.392966,-0.245225 -0.451969,-0.203156 -0.618567,0.441069 -0.08,0.309375 -0.238955,0.857812 -0.35322,1.21875 -0.204918,0.647281 -0.208808,0.653687 -0.284719,0.46875 -0.136277,-0.332006 -0.148331,-0.993881 -0.03113,-1.709356 0.06059,-0.369882 0.0917,-0.7474 0.06914,-0.838938 -0.03089,-0.125319 -0.172603,-0.245575 -0.573711,-0.486844 C 41.76645,85.069887 41.439631,84.858044 41.333167,84.77535 41.226704,84.69266 41.10916,84.625 41.071961,84.625 c -0.0841,0 -0.797717,-0.416469 -0.964134,-0.562669 -0.06751,-0.05931 -0.312833,-0.201731 -0.54516,-0.316494 l -0.422413,-0.208656 -0.145588,0.184531 c -0.41516,0.526225 -0.732456,1.39295 -0.851209,2.325163 -0.05306,0.416544 -0.167051,0.424062 -0.269307,0.01776 -0.06573,-0.261162 -0.06211,-0.422162 0.02285,-1.015625 0.05553,-0.387893 0.129198,-0.817762 0.163715,-0.955262 0.155686,-0.620181 0.194906,-0.917281 0.139983,-1.060419 -0.06486,-0.169037 -1.43219,-1.634544 -1.504778,-1.612825 -0.02621,0.0078 -0.153627,-0.10835 -0.283157,-0.258206 -0.129529,-0.14985 -0.449903,-0.476356 -0.711941,-0.725563 l -0.476434,-0.4531 -0.418376,0.398807 c -0.230107,0.219343 -0.588196,0.548437 -0.795751,0.731312 l -0.377375,0.332506 v -0.21 c 0,-0.373175 0.1829,-0.941137 0.498742,-1.548762 0.169748,-0.326563 0.347918,-0.624975 0.395936,-0.663138 0.04802,-0.03817 0.0873,-0.158675 0.0873,-0.2678 0,-0.1669 -0.09504,-0.296931 -0.598395,-0.818725 -0.329117,-0.341175 -0.698049,-0.726912 -0.819848,-0.8572 -0.121799,-0.130287 -0.297826,-0.3072 -0.391171,-0.393137 -0.09335,-0.08594 -0.332552,-0.339063 -0.531568,-0.5625 l -0.361849,-0.40625 -0.136901,0.18455 c -0.0753,0.1015 -0.192137,0.243794 -0.259648,0.3162 -0.196808,0.211081 -0.460304,0.579544 -0.460304,0.643675 0,0.03246 -0.0391,0.09207 -0.0869,0.132462 -0.06981,0.059 -0.09577,0.04514 -0.132006,-0.07048 -0.122375,-0.390437 0.02138,-0.971562 0.27446,-1.109487 0.143208,-0.07805 0.251315,-0.380706 0.251315,-0.703575 0,-0.285138 -0.117141,-0.7996 -0.182066,-0.7996 -0.05923,0 -1.489836,-3.177269 -2.330496,-5.175838 -0.609585,-1.449212 -0.794303,-2.070268 -0.858047,-2.884875 -0.05904,-0.754568 -0.03506,-0.885031 0.18469,-1.0048 0.341713,-0.186231 0.577477,0.262194 1.529574,2.909263 0.794807,2.209762 1.41459,3.781075 1.602485,4.062712 0.273765,0.41035 0.413034,0.364169 1.261399,-0.418325 0.309712,-0.285662 0.648036,-0.570193 0.75183,-0.632293 0.188235,-0.112625 0.188714,-0.112544 0.187651,0.03125 -0.0041,0.560593 -0.409542,1.658112 -0.825735,2.235481 -0.119272,0.165463 -0.232609,0.381356 -0.251859,0.479756 -0.06666,0.340756 0.228412,0.803213 1.125823,1.764463 0.211596,0.22665 0.418733,0.490625 0.460304,0.586612 0.09942,0.229569 0.24154,0.193556 0.311133,-0.07884 0.131872,-0.51615 0.43178,-1.470869 0.471062,-1.499569 0.02353,-0.01719 0.07804,-0.14375 0.121145,-0.28125 0.0431,-0.1375 0.213516,-0.541456 0.378695,-0.897688 0.22659,-0.488668 0.391125,-0.743981 0.670147,-1.039881 0.369702,-0.392075 0.868817,-0.724975 0.955142,-0.637069 0.04455,0.04536 -0.4489,1.356032 -0.534,1.418388 -0.05093,0.03731 -0.155236,0.363506 -0.489668,1.53125 -0.137826,0.48125 -0.301771,1.029687 -0.364323,1.21875 -0.280318,0.84725 -0.2968,1.345481 -0.06014,1.817881 0.123318,0.246163 2.642002,2.824756 2.792161,2.858575 0.04934,0.01112 0.08995,-0.01701 0.09025,-0.0625 8.9e-4,-0.138737 0.302765,-2.757344 0.340963,-2.957706 0.063,-0.330444 0.400413,-1.427588 0.533998,-1.736363 0.13296,-0.307325 0.265061,-0.466737 0.331068,-0.399518 0.02062,0.02099 -0.01064,0.622656 -0.06947,1.337031 -0.131841,1.600912 -0.213367,2.955987 -0.232566,3.865531 l -0.0146,0.691681 0.264102,0.34965 c 0.145256,0.192307 0.35929,0.39565 0.475631,0.451869 0.283594,0.137044 0.922921,0.569475 1.216839,0.82305 0.130956,0.112981 0.256747,0.199606 0.279536,0.192494 0.02279,-0.0071 0.357534,0.191981 0.743879,0.442425 l 0.702446,0.455356 0.04508,-0.736606 c 0.07561,-1.235394 0.366348,-2.472206 0.705041,-2.999219 0.105966,-0.164881 0.109999,-0.10765 0.139801,1.984081 l 0.03069,2.153857 0.180409,0.290237 c 0.149327,0.240231 0.52539,0.574756 0.52539,0.467356 0,-0.05059 0.738899,0.2717 0.912271,0.397919 0.08897,0.06477 0.27915,0.1487 0.422611,0.186506 0.143461,0.0378 0.260839,0.09359 0.260839,0.123975 0,0.03038 0.103568,0.08962 0.230152,0.131632 0.126584,0.04202 0.373378,0.142637 0.548432,0.2236 0.175054,0.08096 0.331758,0.147206 0.34823,0.147206 0.01647,0 0.02537,-0.696094 0.01978,-1.546875 -0.01027,-1.561944 0.02092,-1.901975 0.247984,-2.703125 0.05358,-0.189063 0.106016,-0.315625 0.116513,-0.28125 0.0105,0.03437 0.07572,0.540625 0.144931,1.125 0.253958,2.14415 0.586876,3.72605 0.851588,4.046425 0.198904,0.240731 0.225483,0.252206 1.396544,0.602981 0.570046,0.17075 1.119303,0.338988 1.22057,0.373863 0.101266,0.03487 0.446495,0.138325 0.767173,0.229887 0.320678,0.09157 0.61067,0.187969 0.644426,0.214238 0.03375,0.02626 0.213274,0.08317 0.39893,0.126456 0.185656,0.04329 0.470532,0.120094 0.633058,0.170669 0.162526,0.05058 0.311801,0.07537 0.331722,0.05508 0.01992,-0.02029 -0.0096,-0.550494 -0.06569,-1.178244 -0.181755,-2.035494 -0.124449,-2.905219 0.246955,-3.748006 0.281133,-0.637938 0.303497,-0.576775 0.419084,1.146213 0.225709,3.364518 0.244247,3.528243 0.414624,3.662012 0.208358,0.163588 0.686745,0.281031 1.361752,0.334312 0.406925,0.03212 0.864145,0.08566 1.016045,0.118982 0.319266,0.07003 1.437432,0.124144 1.610871,0.07796 0.08561,-0.0228 0.107651,-0.06712 0.08123,-0.163306 -0.01994,-0.07261 -0.135474,-0.736706 -0.256732,-1.475769 -0.192991,-1.176275 -0.216841,-1.437225 -0.191357,-2.09375 0.03181,-0.81955 0.190249,-1.484675 0.36167,-1.518294 0.07775,-0.01525 0.116884,0.09729 0.195464,0.562113 0.05404,0.31965 0.115899,0.721806 0.13747,0.893681 0.05013,0.399444 0.468618,2.129788 0.706522,2.921306 0.254648,0.847225 0.304367,0.89335 1.129356,1.047775 0.371312,0.0695 0.785586,0.155163 0.920608,0.190356 0.135023,0.03519 0.770243,0.08691 1.4116,0.114944 1.015216,0.04436 1.249492,0.03587 1.810529,-0.06567 0.354434,-0.06414 0.690014,-0.131318 0.745729,-0.149281 0.150845,-0.04863 0.180826,-0.270462 0.110535,-0.817844 -0.205959,-1.603768 -0.362456,-4.40735 -0.278024,-4.980712 0.03412,-0.231725 0.103335,-0.362631 0.312816,-0.591669 0.173805,-0.190037 0.289163,-0.272012 0.325976,-0.231662 0.03134,0.03435 0.117672,0.653081 0.19186,1.374956 0.0742,0.721875 0.200042,1.7625 0.279663,2.3125 0.07963,0.55 0.176339,1.267188 0.214919,1.59375 0.07542,0.638356 0.241524,1.085469 0.444316,1.195994 0.150716,0.08214 0.157915,0.08221 3.237232,0.03317 l 2.424269,-0.0386 0.138091,-0.161269 c 0.07595,-0.0887 0.138091,-0.22675 0.138091,-0.306781 0,-0.08003 -0.111166,-1.531819 -0.24703,-3.2262 -0.222057,-2.769175 -0.24161,-3.370263 -0.102175,-3.140513 0.09469,0.156031 0.69806,1.706038 0.90346,2.320925 0.13007,0.389394 0.26238,0.740956 0.294024,0.78125 0.07608,0.09689 0.327313,1.015863 0.532633,1.948269 0.09083,0.4125 0.211654,0.91875 0.268492,1.125 0.142793,0.518144 0.246951,0.564275 1.070938,0.474362 0.343497,-0.03748 1.273563,-0.09629 2.06682,-0.130687 1.23909,-0.05373 1.463902,-0.07866 1.595721,-0.176994 0.130573,-0.0974 0.199747,-0.299912 0.464306,-1.359319 0.170981,-0.684675 0.342147,-1.3433 0.380364,-1.463612 0.03822,-0.120312 0.09844,-0.3875 0.133826,-0.59375 0.09408,-0.548381 0.448115,-2.0368 0.477378,-2.006994 0.01379,0.01404 0.06229,0.190113 0.107779,0.391263 0.198238,0.876581 0.271248,2.522931 0.158958,3.584481 -0.03454,0.326562 -0.08116,0.769531 -0.103593,0.984375 l -0.04078,0.390625 0.576448,7.5e-4 c 0.82125,0.0011 3.719006,-0.120831 4.425014,-0.186206 0.327656,-0.03034 0.672829,-0.09279 0.76705,-0.138775 0.249485,-0.121763 0.39067,-0.489857 0.486953,-1.269544 0.04669,-0.378125 0.139417,-1.095313 0.206057,-1.59375 0.06663,-0.498438 0.136434,-1.103125 0.155104,-1.34375 0.04414,-0.568775 0.209555,-1.957788 0.255855,-2.148475 0.03136,-0.129125 0.04353,-0.134869 0.09344,-0.04406 0.251142,0.457 0.537377,1.802863 0.539415,2.536288 0.0015,0.534512 -0.116678,1.508156 -0.30215,2.489725 l -0.169294,0.895981 0.281633,-0.02656 c 0.154901,-0.01461 0.557821,-0.11345 0.895377,-0.219644 0.337556,-0.106194 1.341191,-0.406387 2.230308,-0.667094 0.889111,-0.260706 1.676231,-0.507812 1.749156,-0.549125 0.07292,-0.04131 0.160204,-0.07611 0.19396,-0.07732 0.148346,-0.0054 0.280067,-0.4954 0.396082,-1.473568 0.0671,-0.565757 0.162414,-1.309894 0.211801,-1.653644 0.04939,-0.34375 0.105306,-0.821875 0.124258,-1.0625 0.05029,-0.638469 0.101752,-0.922825 0.19051,-1.052563 0.07011,-0.102487 0.08578,-0.07858 0.143364,0.21875 0.226819,1.171226 0.263404,1.734688 0.190332,2.931225 -0.03946,0.646269 -0.07591,1.226232 -0.081,1.288813 -0.0064,0.07872 0.02857,0.110012 0.113505,0.101569 0.492083,-0.04892 0.71959,-0.0881 0.812866,-0.139963 0.118728,-0.06603 0.722874,-0.2682 0.886245,-0.296587 0.128044,-0.02224 1.274515,-0.656669 1.612102,-0.892094 0.136661,-0.0953 0.306243,-0.191675 0.376854,-0.214162 0.20076,-0.06393 0.370225,-0.294182 0.443573,-0.602644 0.03697,-0.155463 0.09729,-0.9289 0.134059,-1.71875 0.03677,-0.78985 0.08186,-1.534175 0.100205,-1.654056 0.03196,-0.208832 0.03719,-0.212757 0.124865,-0.09375 0.192954,0.261906 0.454691,0.857812 0.541541,1.232943 0.05,0.215763 0.091,0.692644 0.0915,1.063144 l 9.2e-4,0.671875 h 0.17044 c 0.10421,0 0.24991,-0.07391 0.37491,-0.190175 0.21609,-0.200987 1.11348,-0.837581 1.18382,-0.839781 0.0412,-0.0013 0.46802,-0.342875 1.17307,-0.938794 0.64115,-0.5419 0.65286,-0.733737 0.20678,-3.387681 -0.1526,-0.907906 -0.23671,-1.55875 -0.19856,-1.536388 0.69062,0.404844 1.13125,1.230013 1.4263,2.671057 0.0493,0.240731 0.0995,0.447712 0.11149,0.459962 0.043,0.0438 0.98988,-0.731369 1.29601,-1.061 0.1716,-0.184769 0.44764,-0.543775 0.61341,-0.797787 0.28716,-0.440032 0.30116,-0.481294 0.29651,-0.87375 -0.004,-0.333394 -0.042,-0.485707 -0.19946,-0.799032 -0.10702,-0.212918 -0.19458,-0.402056 -0.19458,-0.420312 0,-0.01825 -0.0829,-0.217413 -0.18412,-0.442569 -0.10127,-0.225156 -0.18413,-0.440119 -0.18413,-0.477687 0,-0.03756 -0.11047,-0.31815 -0.24549,-0.623519 -0.13502,-0.305369 -0.2455,-0.574756 -0.2455,-0.598638 0,-0.02389 0.0967,0.05198 0.21481,0.168594 0.11815,0.116613 0.21481,0.189381 0.21481,0.161706 0,-0.02768 0.10357,0.07738 0.23015,0.233444 0.22311,0.275081 0.44733,0.68325 0.65842,1.1986 0.0563,0.1375 0.17265,0.3547 0.25852,0.482663 0.20747,0.309181 0.28298,0.261668 0.72953,-0.459019 0.19509,-0.314875 0.41652,-0.6404 0.49205,-0.723394 0.0755,-0.08299 0.19546,-0.268875 0.26652,-0.413075 0.071,-0.144194 0.18042,-0.34655 0.24304,-0.449675 0.0626,-0.103125 0.3531,-0.58125 0.64553,-1.0625 0.29244,-0.48125 0.54748,-0.938469 0.56675,-1.016037 0.083,-0.333825 -0.12832,-0.826194 -1.11424,-2.596594 -0.0919,-0.165069 -0.15093,-0.316631 -0.13112,-0.336806 0.0198,-0.02017 0.1919,0.05864 0.38243,0.175131 0.39384,0.240806 0.89988,0.779169 1.27121,1.352431 0.13917,0.214844 0.26789,0.390519 0.28605,0.390394 0.0181,0 0.0841,-0.126694 0.1465,-0.28125 0.0624,-0.154563 0.13463,-0.281019 0.16048,-0.281019 0.0521,0 0.35035,-0.691975 0.55953,-1.298294 0.13374,-0.38765 0.13403,-0.396662 0.0259,-0.803625 -0.0602,-0.226368 -0.17302,-0.528075 -0.25076,-0.670456 -0.0777,-0.142381 -0.24374,-0.469812 -0.36889,-0.727625 -0.12514,-0.257812 -0.25573,-0.525 -0.29019,-0.59375 -0.34841,-0.695056 -0.53411,-1.113019 -0.50684,-1.140781 0.0436,-0.04444 0.56333,0.154606 0.8335,0.319237 0.25357,0.154525 0.73649,0.595482 0.73649,0.672513 0,0.07792 0.44744,0.742781 0.49988,0.742781 0.0243,0 0.0617,-0.05625 0.0832,-0.125 0.0214,-0.06875 0.0627,-0.125 0.0918,-0.125 0.029,0 0.0695,-0.161719 0.0899,-0.359375 0.0417,-0.403706 0.26462,-1.923112 0.501,-3.41448 0.0865,-0.545933 0.17932,-1.192808 0.2062,-1.4375 0.0861,-0.783902 0.24912,-1.627133 0.34265,-1.772496 0.10735,-0.166845 0.49857,-0.201878 0.55589,-0.04978 0.0189,0.05025 0.0871,0.108399 0.15151,0.129212 0.0644,0.02081 0.11707,0.07813 0.11707,0.127379 0,0.04925 0.0409,0.08954 0.0909,0.08954 0.13584,0 0.173,0.254099 0.1068,0.730436 -0.45069,3.243195 -0.50757,3.601552 -0.7274,4.582064 -0.0809,0.360938 -0.2762,1.061638 -0.43397,1.557113 -0.27969,0.8784 -0.28388,0.903068 -0.16791,0.989306 0.0654,0.04864 0.57463,0.3506 1.13159,0.671006 0.55697,0.320413 1.01267,0.620538 1.01267,0.666944 0,0.04641 -0.0276,0.08064 -0.0614,0.07606 -0.19881,-0.02697 -2.21519,-0.6192 -2.24254,-0.658656 -0.0182,-0.02624 -0.12304,-0.05566 -0.23298,-0.06537 -0.18414,-0.01626 -0.20923,0.0046 -0.31803,0.2636 -0.065,0.154687 -0.29454,0.704912 -0.51017,1.222725 -0.21563,0.517812 -0.47881,1.063437 -0.58485,1.212506 -0.10603,0.149063 -0.19279,0.303219 -0.19279,0.342575 0,0.09613 -1.06589,2.004063 -1.19047,2.130931 -0.0541,0.05511 -0.0984,0.140369 -0.0984,0.189475 0,0.04911 -0.0276,0.08929 -0.0614,0.08929 -0.0337,0 -0.0614,0.04361 -0.0614,0.09691 0,0.111188 -0.98295,1.824457 -1.23529,2.153088 -0.20505,0.267037 -0.79005,1.44345 -0.79005,1.588744 0,0.2015 0.18185,0.460375 0.47342,0.673925 0.42714,0.31285 1.21717,1.225943 1.42668,1.648906 0.0995,0.200819 0.17287,0.37325 0.16312,0.383187 -0.0326,0.03315 -0.68081,-0.213556 -1.02125,-0.388662 -0.45481,-0.233937 -0.78386,-0.469525 -1.27148,-0.910313 -0.2256,-0.203931 -0.42761,-0.370787 -0.44892,-0.370787 -0.0213,0 -0.18419,0.175781 -0.36197,0.390625 -0.17778,0.214844 -0.57856,0.671875 -0.89064,1.015625 -0.31207,0.34375 -0.76958,0.856275 -1.01669,1.138944 -0.24711,0.282675 -0.55689,0.602 -0.6884,0.709618 -0.46884,0.383694 -0.42725,0.528075 0.38175,1.325032 0.3906,0.384775 0.58159,0.63175 0.75339,0.974225 0.22396,0.446412 0.29043,0.775618 0.1717,0.850343 -0.0647,0.04072 -0.44671,-0.2419 -1.02102,-0.755368 -0.20703,-0.1851 -0.39984,-0.336544 -0.42845,-0.336544 -0.0286,0 -0.26582,-0.16875 -0.5271,-0.375 -0.26129,-0.20625 -0.4918,-0.375 -0.51224,-0.375 -0.0204,0 -0.19446,0.108544 -0.38671,0.241212 -0.19224,0.132663 -0.41167,0.261125 -0.48762,0.285463 -0.076,0.02434 -0.13809,0.07048 -0.13809,0.102537 0,0.03206 -0.0317,0.05829 -0.0704,0.05829 -0.0387,0 -0.1955,0.105469 -0.34839,0.234375 -0.33973,0.286431 -0.94203,0.702656 -1.01718,0.702925 -0.0303,0 -0.18218,0.103869 -0.33756,0.230575 -0.15538,0.126706 -0.28897,0.234069 -0.29686,0.238581 -0.0394,0.02253 0.3851,0.798038 0.50403,0.920781 0.19431,0.200532 0.6133,1.007169 0.767,1.476638 0.13502,0.412406 0.1517,1.010581 0.0293,1.051556 -0.0544,0.01822 -0.38671,-0.344331 -1.949691,-2.127181 -0.09499,-0.10835 -0.255119,-0.316531 -0.355846,-0.462625 -0.170852,-0.247794 -0.32387,-0.335569 -0.3716,-0.213156 -0.01125,0.02886 -0.899962,0.492537 -1.974913,1.0304 l -1.954457,0.977937 0.220645,0.306094 c 0.121354,0.168356 0.220645,0.326744 0.220645,0.351975 0,0.04441 0.228366,0.335094 0.515479,0.656125 0.374332,0.418556 0.846291,1.2885 0.990746,1.826206 0.194611,0.724381 0.338404,1.390575 0.320041,1.482756 -0.01335,0.06703 -0.137852,-0.02502 -0.400287,-0.295968 -0.209494,-0.216294 -0.374436,-0.413169 -0.366537,-0.4375 0.0079,-0.02434 -0.14097,-0.241119 -0.330824,-0.481744 -0.189847,-0.240625 -0.362265,-0.494356 -0.383151,-0.563844 -0.02088,-0.06949 -0.117254,-0.21475 -0.214164,-0.322794 -0.09691,-0.10805 -0.234417,-0.292387 -0.30558,-0.409643 -0.07117,-0.117263 -0.192254,-0.284069 -0.269082,-0.370688 -0.20791,-0.2344 -0.396493,-0.480137 -0.669128,-0.871925 -0.134495,-0.193269 -0.334476,-0.400725 -0.444402,-0.461012 -0.199318,-0.109307 -0.204062,-0.108438 -1.699732,0.312081 -0.82492,0.231937 -1.7208,0.476044 -1.990845,0.542456 -0.270045,0.06642 -0.573846,0.159125 -0.675113,0.206019 -0.101267,0.04689 -0.401851,0.130794 -0.667969,0.18645 -0.406221,0.08496 -0.664912,0.171487 -0.763257,0.255306 -0.03575,0.03047 0.235387,0.527875 0.536818,0.984819 0.558748,0.847 1.087312,2.19135 1.155259,2.938269 0.03306,0.363418 -0.13687,1.418256 -0.22847,1.418256 -0.02422,0 -0.209751,-0.109069 -0.412285,-0.242381 -0.413482,-0.27215 -0.570403,-0.466882 -0.749878,-0.930569 -0.06791,-0.175438 -0.246607,-0.552831 -0.397114,-0.838644 -0.266995,-0.507031 -1.081494,-2.413075 -1.081494,-2.530856 0,-0.03254 -0.08047,-0.137675 -0.178825,-0.233631 -0.209966,-0.204857 0.0509,-0.224788 -3.094029,0.236431 -1.074319,0.157556 -1.971911,0.28385 -1.99465,0.280656 -0.02273,-0.0032 -0.117286,-0.0025 -0.210114,0.0016 -0.136821,0.006 -0.168778,0.03676 -0.168778,0.162487 0,0.14245 0.337341,2.284244 0.488057,3.098675 0.06895,0.372631 0.07448,1.396169 0.0111,2.058738 -0.03344,0.349581 -0.05577,0.40625 -0.160125,0.40625 -0.08159,0 -0.139294,-0.06135 -0.176345,-0.1875 -0.03029,-0.103125 -0.145683,-0.384375 -0.256414,-0.625 -0.252854,-0.549457 -0.493372,-1.286982 -0.581972,-1.784525 -0.0375,-0.210632 -0.123067,-0.563894 -0.190142,-0.785032 -0.06707,-0.221131 -0.203252,-0.799706 -0.302622,-1.285718 -0.109498,-0.535544 -0.223205,-0.932107 -0.288623,-1.006644 -0.117396,-0.133756 -0.271856,-0.132588 -2.31741,0.01749 -0.438824,0.03219 -1.024459,0.05958 -1.301415,0.06086 l -0.503554,0.0023 -0.03022,0.203125 c -0.01661,0.111719 -0.0454,0.613763 -0.06395,1.11565 -0.0387,1.046594 -0.154368,1.808775 -0.363561,2.395669 -0.172828,0.484881 -0.494955,1.045819 -0.66134,1.151637 -0.105882,0.06733 -0.128971,0.05012 -0.215422,-0.160581 -0.114573,-0.279237 -0.248166,-1.7539 -0.3069,-3.387612 -0.03343,-0.929932 -0.06015,-1.169982 -0.139178,-1.250463 -0.08822,-0.08984 -0.254167,-0.09243 -1.693072,-0.02639 -0.877395,0.04026 -2.050967,0.09172 -2.607935,0.11435 -0.962109,0.03909 -1.022992,0.04916 -1.219426,0.201725 -0.113719,0.08832 -0.262637,0.290193 -0.330928,0.448606 -0.0683,0.158419 -0.144363,0.302094 -0.169042,0.319281 -0.103863,0.07234 -0.372877,0.987606 -0.491015,1.670581 -0.06999,0.404619 -0.143959,1.178638 -0.164378,1.720044 -0.02042,0.541406 -0.04813,0.984375 -0.06158,0.984375 -0.0617,0 -0.350095,-0.367681 -0.459838,-0.58625 -0.149237,-0.297237 -0.34327,-1.730987 -0.390104,-2.8825 -0.04081,-1.003369 -0.07971,-1.414387 -0.143873,-1.520119 -0.06703,-0.110437 -0.194733,-0.12465 -1.7866,-0.198893 -0.759501,-0.03543 -1.742778,-0.08213 -2.185057,-0.103794 -0.98632,-0.04831 -0.97959,-0.05296 -1.255471,0.867044 -0.106092,0.353793 -0.229308,0.757081 -0.273812,0.896187 -0.19088,0.59665 -0.237098,1.084838 -0.234923,2.48145 0.0012,0.782031 -3.68e-4,1.420219 -0.0036,1.4182 -0.0032,-0.002 -0.104496,-0.06962 -0.225146,-0.150206 z M 67.958077,70.25555 c -0.440137,-0.281563 -0.777135,-1.013925 -0.869895,-1.890475 -0.07862,-0.742931 0.05848,-1.74145 0.309392,-2.253213 0.06253,-0.127537 0.113688,-0.269649 0.113688,-0.315806 0,-0.156975 0.475709,-1.075731 0.784328,-1.514806 0.169134,-0.240625 0.666066,-0.810156 1.1043,-1.265625 0.845425,-0.878674 0.924021,-0.924166 1.327057,-0.768121 0.513883,0.198964 1.019659,1.121183 0.90114,1.643121 -0.04221,0.185869 -0.03526,0.234375 0.03355,0.234375 0.05808,0 0.0767,0.04648 0.05632,0.140625 -0.01674,0.07734 -0.129825,0.646875 -0.25129,1.265625 -0.269382,1.372244 -0.495403,2.30455 -0.616506,2.543037 -0.457131,0.900207 -1.178968,1.726713 -1.743147,1.995901 -0.151913,0.07248 -0.293975,0.160493 -0.315695,0.195581 -0.02172,0.03509 -0.173621,0.07559 -0.337556,0.08999 -0.225261,0.0198 -0.346339,-0.0047 -0.49568,-0.100213 z m 10.569796,-1.200762 c -0.135022,-0.03171 -0.355968,-0.109082 -0.490991,-0.171925 -0.135022,-0.06284 -0.444568,-0.190769 -0.687884,-0.284275 -0.243311,-0.09351 -0.533303,-0.238288 -0.644426,-0.321732 -0.111118,-0.08344 -0.283063,-0.200968 -0.382089,-0.261162 -0.09903,-0.06019 -0.285205,-0.207881 -0.413734,-0.328194 -0.128523,-0.120312 -0.314216,-0.282012 -0.412653,-0.359331 -0.175609,-0.137938 -0.744484,-0.962388 -0.95747,-1.387613 -0.05942,-0.118631 -0.143449,-0.251762 -0.186736,-0.295843 -0.04329,-0.04407 -0.170889,-0.354832 -0.283565,-0.690557 -0.1758,-0.523793 -0.204866,-0.69465 -0.204866,-1.204156 0,-0.501987 0.02071,-0.627556 0.13404,-0.8125 0.284247,-0.463868 0.864322,-0.870281 1.246872,-0.873576 0.428985,-0.0037 1.434369,0.299647 1.851508,0.558632 0.112486,0.06984 0.247098,0.127082 0.299143,0.127213 0.115573,0 1.102164,0.611337 1.102164,0.682637 0,0.02804 0.103569,0.121438 0.230152,0.207544 0.507286,0.345081 1.17056,1.169081 1.453119,1.805244 0.330621,0.744375 0.411935,1.840844 0.191769,2.585844 -0.144309,0.4883 -0.549536,0.970975 -0.815696,0.971606 -0.02567,6.2e-5 -0.143339,0.02746 -0.261484,0.06088 -0.253474,0.07172 -0.43333,0.06967 -0.767173,-0.0087 z M 51.646116,66.30735 c -0.303801,-0.02776 -0.718075,-0.08033 -0.920608,-0.116838 -0.202534,-0.03651 -0.561571,-0.09429 -0.797861,-0.1284 -0.236289,-0.03411 -0.614468,-0.120137 -0.840396,-0.191168 -0.225929,-0.07103 -0.488303,-0.139357 -0.583052,-0.151844 -0.291618,-0.03842 -1.179177,-0.342519 -1.952115,-0.668844 -0.791583,-0.334193 -1.98646,-0.950325 -2.086712,-1.076 -0.03375,-0.04231 -0.441254,-0.325581 -0.905551,-0.629481 -0.952373,-0.623362 -1.821703,-1.341349 -2.646077,-2.185411 -0.69797,-0.714641 -1.388968,-1.498408 -1.388968,-1.575445 0,-0.03201 -0.115012,-0.183517 -0.255582,-0.336684 -0.368615,-0.401649 -1.157576,-1.644867 -1.51588,-2.388674 -0.461265,-0.957543 -0.660772,-1.615555 -0.881698,-2.908005 l -0.199875,-1.169306 0.0037,-2.25 c 0.0039,-2.367916 0.07483,-3.344739 0.337651,-4.650218 0.357876,-1.777658 1.074028,-3.749714 1.710431,-4.709987 0.103125,-0.155608 0.187501,-0.315351 0.187501,-0.354986 0,-0.10595 0.374224,-0.683488 0.737371,-1.137984 0.174387,-0.218254 0.336186,-0.446838 0.359553,-0.507966 0.06285,-0.164421 0.806238,-1.005411 1.029452,-1.164613 0.106205,-0.07575 0.32911,-0.272637 0.495344,-0.437531 0.351014,-0.34818 0.88727,-0.711489 1.367582,-0.926526 0.185656,-0.08312 0.475647,-0.218504 0.644425,-0.300857 0.168778,-0.08235 0.45877,-0.181896 0.644426,-0.221208 0.185656,-0.03931 0.365175,-0.09309 0.39893,-0.119515 0.232154,-0.18172 2.147829,-0.284861 2.739368,-0.14749 0.408086,0.09477 0.966438,0.336611 1.10654,0.479284 0.146873,0.149569 0.899651,0.730847 0.946475,0.730847 0.117313,0 1.988308,2.03478 1.995647,2.170344 0.0029,0.05349 0.287414,0.449791 0.393718,0.548406 0.1393,0.129224 0.387133,0.512956 0.571398,0.884724 0.104878,0.211597 0.213605,0.39441 0.241615,0.40625 0.05872,0.02482 0.566895,0.91277 0.566895,0.990558 0,0.02849 0.02217,0.06118 0.04927,0.07263 0.0271,0.01146 0.156358,0.203646 0.287247,0.427083 0.577365,0.985605 1.302288,2.051471 1.785328,2.625 0.188185,0.223438 0.417539,0.522559 0.509676,0.664714 0.253431,0.391014 2.110098,2.335286 2.230062,2.335286 0.02658,0 0.04833,0.0412 0.04833,0.09155 0,0.05035 0.0563,0.122237 0.125121,0.159742 0.06882,0.03751 0.338094,0.244025 0.598395,0.458931 0.910378,0.751615 1.275816,1.019507 1.884873,1.381749 0.337557,0.200764 0.716718,0.430951 0.842578,0.511526 0.125859,0.08058 0.25723,0.146501 0.291931,0.146501 0.03471,0 0.318389,0.102949 0.630402,0.228774 0.312012,0.125826 0.622533,0.235584 0.690044,0.243907 0.06751,0.0083 0.371312,0.06393 0.675113,0.123571 1.166368,0.228978 2.709749,0.09372 3.546907,-0.310832 0.502897,-0.243022 0.696501,-0.270076 0.955757,-0.13355 0.302076,0.159075 0.702264,1.147284 0.874976,2.16063 0.198042,1.161933 -0.12964,2.629422 -0.96565,4.324558 -0.123877,0.251181 -0.275243,0.513326 -0.336372,0.582545 -0.06113,0.06922 -0.155883,0.234891 -0.210561,0.368159 -0.147525,0.359546 -0.982209,1.628127 -1.248222,1.897084 -0.127241,0.128647 -0.323839,0.360467 -0.43689,0.515154 -0.252216,0.34511 -1.112991,1.25 -1.189058,1.25 -0.03045,0 -0.244617,0.181818 -0.475936,0.404038 -0.231324,0.222225 -0.499135,0.445406 -0.595142,0.495962 -0.197691,0.104106 -0.979607,0.622106 -1.111002,0.736013 -0.182606,0.158306 -1.034488,0.621506 -1.638108,0.890712 -1.263968,0.563706 -2.8356,1.039306 -3.851527,1.165538 -0.274954,0.03416 -0.58277,0.08881 -0.684037,0.12145 -0.101267,0.03263 -0.51554,0.08761 -0.920608,0.122156 -0.405068,0.03456 -1.054096,0.10435 -1.442286,0.1551 -0.761323,0.09954 -1.548202,0.108912 -2.424268,0.02888 z m 35.136543,-3.810699 c -0.354434,-0.02919 -0.782517,-0.08055 -0.951295,-0.11415 -0.168778,-0.0336 -0.541624,-0.09118 -0.828547,-0.127973 -0.959753,-0.123059 -2.948364,-0.700817 -3.45039,-1.002455 -0.115279,-0.06926 -0.363825,-0.177747 -0.552322,-0.241075 -0.438259,-0.147234 -1.585158,-0.793334 -1.878581,-1.058284 -0.123975,-0.111945 -0.280227,-0.221405 -0.347223,-0.243245 -0.181482,-0.05916 -0.778245,-0.514804 -0.941334,-0.718733 -0.07839,-0.09803 -0.170926,-0.178236 -0.205627,-0.178236 -0.0347,0 -0.271677,-0.189844 -0.526624,-0.421875 -0.859713,-0.782456 -2.310727,-2.576191 -2.67317,-3.304562 -0.0871,-0.175034 -0.229876,-0.404795 -0.317285,-0.510581 -0.140245,-0.169729 -0.646052,-1.087241 -0.644806,-1.169651 0,-0.01729 -0.041,-0.132531 -0.09171,-0.256101 -0.479409,-1.168429 -0.558422,-2.509756 -0.220516,-3.74348 0.176898,-0.645884 0.285775,-0.874781 0.477145,-1.003113 0.226322,-0.151771 0.45251,-0.136344 1.362997,0.09296 1.012184,0.254921 1.915172,0.264989 3.05486,0.03406 0.427083,-0.08654 0.806379,-0.181216 0.842884,-0.210395 0.03651,-0.02918 0.245889,-0.13341 0.4653,-0.231623 0.219412,-0.09821 0.55838,-0.269564 0.75326,-0.380782 0.194881,-0.111218 0.367783,-0.202802 0.384225,-0.20352 0.08501,-0.0037 0.381678,-0.195661 0.488923,-0.316338 0.06735,-0.07579 0.196335,-0.176702 0.286634,-0.224252 0.16042,-0.08448 0.572287,-0.42032 0.940844,-0.76717 0.101266,-0.0953 0.442413,-0.41044 0.758096,-0.700304 0.982233,-0.90188 2.119669,-2.256129 3.266385,-3.889002 0.535597,-0.762666 0.631243,-0.913768 0.819243,-1.294272 0.250632,-0.507282 0.532007,-1.028371 0.860572,-1.59375 0.139841,-0.240625 0.30714,-0.564062 0.371785,-0.71875 0.174056,-0.416488 0.952314,-1.8125 1.010447,-1.8125 0.02761,0 0.09681,-0.119531 0.153778,-0.265625 0.125669,-0.322279 1.424132,-2.443167 1.788846,-2.921875 0.651736,-0.855439 1.43977,-1.520547 2.11975,-1.789089 0.146652,-0.05792 0.308514,-0.141533 0.359693,-0.185816 0.05117,-0.04428 0.216883,-0.109104 0.368244,-0.144046 0.151354,-0.03494 0.445795,-0.120911 0.654313,-0.191043 0.208517,-0.07013 0.498509,-0.14259 0.644425,-0.161019 0.145917,-0.01843 0.375774,-0.06457 0.510797,-0.102524 0.135022,-0.03796 0.535487,-0.06787 0.889921,-0.06647 0.716546,0.0028 1.286261,0.12386 1.710858,0.363458 0.147709,0.08335 0.299609,0.151642 0.337556,0.151752 0.03794,1.25e-4 0.224463,0.105578 0.414495,0.234375 0.384188,0.26039 1.771885,1.668746 1.771885,1.798265 0,0.0454 0.0772,0.162053 0.17162,0.259229 0.16451,0.169363 0.77598,1.062363 1.0411,1.520432 0.71484,1.23511 1.6326,3.538319 1.91763,4.8125 0.0423,0.189062 0.0976,0.371875 0.12281,0.40625 0.11642,0.158492 0.67477,2.948932 0.67477,3.372256 0,0.114227 0.0425,0.435717 0.0944,0.714422 0.0519,0.278706 0.11871,0.809156 0.14843,1.178779 0.0297,0.369624 0.0884,1.087115 0.13032,1.594427 0.0609,0.736717 0.0608,1.070103 -6.2e-4,1.65625 -0.1449,1.385153 -0.40006,2.432242 -0.80797,3.315687 -0.13189,0.285626 -0.23979,0.553466 -0.23979,0.595201 0,0.04173 -0.16544,0.409209 -0.36765,0.816609 -0.42898,0.864306 -1.27921,2.201161 -1.64705,2.589743 -0.14103,0.14898 -0.35223,0.417867 -0.46932,0.597525 -0.40926,0.627877 -2.237159,2.319192 -2.93503,2.715706 -0.141914,0.08063 -0.327073,0.210086 -0.411462,0.287674 -0.234105,0.215238 -0.661353,0.48894 -1.120073,0.717539 -0.227851,0.113547 -0.414274,0.225398 -0.414274,0.248558 0,0.02316 -0.283087,0.178375 -0.629082,0.344921 -0.345996,0.166547 -0.82241,0.397879 -1.0587,0.514072 -0.236289,0.116193 -0.464514,0.210838 -0.507169,0.210321 -0.04265,-5e-4 -0.125503,0.02517 -0.184121,0.05708 C 94.237351,61.592438 93.851193,61.75 93.753295,61.75 c -0.06042,0 -0.265742,0.04034 -0.456271,0.08964 -0.331444,0.08577 -2.221538,0.3502 -3.364173,0.470665 -0.298062,0.03142 -0.721443,0.08446 -0.940855,0.117857 -0.645641,0.09828 -1.518979,0.12535 -2.209459,0.06849 z m 41.657891,39.695489 c -0.24888,-0.19985 -0.58394,-0.51467 -0.74458,-0.69962 -0.2579,-0.29693 -0.92227,-1.26781 -1.21748,-1.77917 -0.0578,-0.100156 -0.16472,-0.256625 -0.23754,-0.347706 l -0.13241,-0.165606 0.14102,-0.255519 c 0.19875,-0.360106 0.4088,-0.3905 0.992,-0.143519 0.24573,0.104069 0.67989,0.237231 0.96479,0.295925 1.36242,0.280669 2.30791,-0.198481 2.99194,-1.516237 0.46218,-0.890388 0.47712,-1.565175 0.0433,-1.953107 -0.28268,-0.25275 -0.62555,-0.342412 -1.31305,-0.343375 -0.48568,-6.87e-4 -0.62405,0.02209 -0.82854,0.136307 -0.13503,0.07541 -0.61835,0.239725 -1.07405,0.365137 -0.4557,0.125413 -1.13067,0.311456 -1.49993,0.413425 -0.70116,0.193631 -1.24229,0.417875 -1.66518,0.690063 -0.38316,0.2466 -0.78313,0.360281 -1.30242,0.370175 -0.56512,0.01076 -0.75691,-0.06151 -1.41283,-0.532425 -0.40018,-0.287307 -0.51516,-0.413294 -0.75716,-0.829688 -0.84391,-1.452069 -0.85041,-3.209094 -0.0171,-4.626919 0.35539,-0.604687 0.77311,-1.055062 1.39184,-1.500643 0.26161,-0.1884 0.47565,-0.365694 0.47565,-0.393988 0,-0.0283 0.25042,-0.131425 0.5565,-0.229175 l 0.5565,-0.177725 -0.0383,-0.28125 c -0.0211,-0.154687 -0.051,-0.325856 -0.0664,-0.380381 -0.0447,-0.15755 0.38222,-0.682119 0.55516,-0.682119 0.15229,0 0.40058,0.25935 0.40058,0.418419 0,0.04899 0.13475,0.235037 0.29945,0.41345 1.08395,1.174194 1.35973,2.43675 0.56223,2.573962 -0.23738,0.04084 -0.27869,0.02337 -0.69512,-0.293937 -0.59662,-0.4546 -1.16743,-0.799394 -1.3234,-0.799394 -0.18726,0 -1.00236,0.751338 -1.28852,1.187725 -0.44826,0.6836 -0.47315,1.362931 -0.0812,2.215938 0.20268,0.441068 0.38527,0.585143 0.96149,0.758687 0.64104,0.193063 1.14886,0.153319 2.3629,-0.184912 0.59072,-0.164582 1.68164,-0.506532 2.42426,-0.759894 2.19282,-0.748125 2.52875,-0.801131 3.14173,-0.495719 0.534,0.26605 1.11524,0.890725 1.42192,1.528175 0.3496,0.726675 0.41855,1.144406 0.28313,1.715469 -0.11882,0.501062 -0.3723,1.103306 -0.65826,1.563944 -0.27194,0.438068 -0.96952,1.285081 -1.28445,1.559593 -0.33732,0.294032 -1.33172,0.916032 -1.76986,1.107054 -0.62439,0.27222 -0.64529,0.30022 -0.62504,0.83716 0.0109,0.29035 0.0634,0.57729 0.13784,0.75416 0.12347,0.29332 0.15274,0.56763 0.0732,0.68593 -0.12085,0.17973 -0.26343,0.13548 -0.70449,-0.21867 z m -12.29049,-2.827646 c -0.30547,-0.172225 -0.82786,-0.866844 -0.82828,-1.101357 -6.8e-4,-0.357137 0.49977,-0.982243 0.93371,-1.166337 0.30351,-0.128756 0.37799,-0.122962 0.64762,0.05037 0.12591,0.08094 0.24923,0.144225 0.27403,0.140625 0.0248,-0.0036 0.1551,0.129019 0.28955,0.2947 0.32586,0.401569 0.36305,0.627469 0.16768,1.018381 -0.19551,0.391181 -0.36341,0.54625 -0.76544,0.706938 -0.36252,0.144893 -0.53789,0.158718 -0.71887,0.05668 z m 24.19293,-11.056475 c -0.38449,-0.109738 -1.20935,-0.831369 -1.38482,-1.211513 -0.16592,-0.35945 -0.23392,-1.029662 -0.13032,-1.284369 0.10471,-0.257431 0.47426,-0.463956 1.06556,-0.595493 0.5736,-0.1276 1.00611,-0.09297 1.27512,0.102106 0.28116,0.203875 0.6665,1.05115 0.6665,1.465494 0,0.531962 -0.0776,0.661056 -0.66312,1.103318 -0.66165,0.499769 -0.62182,0.479563 -0.82892,0.420457 z m -14.34242,-2.0206 c -0.69672,-0.2592 -0.96389,-0.396688 -1.46315,-0.752956 -1.20772,-0.861794 -1.89861,-2.161463 -2.09486,-3.940713 -0.12634,-1.14535 -0.0713,-1.522375 0.39761,-2.723331 0.53432,-1.368538 1.27717,-2.640138 1.93171,-3.306688 0.61614,-0.62745 1.55909,-1.199419 2.09576,-1.271237 0.87177,-0.116663 2.28559,0.42515 3.85096,1.475781 1.42812,0.958512 1.94771,1.713319 2.99908,4.356725 0.20838,0.523944 0.54669,1.218381 0.80195,1.646144 0.24284,0.406943 0.44152,0.75335 0.44152,0.769793 0,0.02891 0.27385,0.415182 0.39893,0.562694 0.0338,0.03981 0.24089,0.261619 0.46031,0.492906 0.38772,0.408707 0.55721,0.514926 1.42719,0.894394 0.51569,0.224931 0.53622,0.674163 0.0427,0.934263 -0.30499,0.160737 -0.3938,0.158381 -1.34716,-0.03568 -0.6758,-0.137563 -0.8978,-0.240819 -1.09028,-0.507125 -0.0764,-0.105757 -0.28565,-0.302626 -0.46491,-0.437482 -0.17925,-0.13485 -0.64282,-0.564344 -1.03016,-0.954419 -0.70456,-0.709568 -1.23692,-1.442606 -1.76049,-2.424143 -0.5108,-0.957613 -1.52909,-2.165863 -2.17936,-2.585925 -1.02261,-0.660588 -1.60606,-0.895763 -2.37401,-0.956894 -1.5497,-0.123369 -3.32837,1.190675 -3.68242,2.720494 -0.16372,0.707406 0.10803,2.403506 0.4743,2.960375 0.20524,0.31205 0.68797,0.604893 0.99866,0.605837 0.11815,6.25e-4 0.39373,-0.05645 0.61242,-0.12625 0.28786,-0.09188 0.48269,-0.116412 0.7058,-0.08889 0.20871,0.02575 0.39487,0.0065 0.57674,-0.05979 0.69311,-0.252431 0.96141,-0.0196 1.32255,1.147744 0.19297,0.623725 0.17295,0.793119 -0.13473,1.139931 -0.51919,0.585232 -1.16886,0.742657 -1.91667,0.464438 z"
       style="fill:#000000;stroke-width:0.0619344" />
  </g>
</svg>
