<?xml version="1.0" encoding="UTF-8" standalone="no"?>
<svg
   xmlns:dc="http://purl.org/dc/elements/1.1/"
   xmlns:cc="http://creativecommons.org/ns#"
   xmlns:rdf="http://www.w3.org/1999/02/22-rdf-syntax-ns#"
   xmlns:svg="http://www.w3.org/2000/svg"
   xmlns="http://www.w3.org/2000/svg"
   xmlns:sodipodi="http://sodipodi.sourceforge.net/DTD/sodipodi-0.dtd"
   xmlns:inkscape="http://www.inkscape.org/namespaces/inkscape"
   sodipodi:docname="Tombstone.svg"
   inkscape:version="1.0 (4035a4fb49, 2020-05-01)"
   width="100mm"
   height="165mm"
   viewBox="0 0 100 165"
   version="1.1"
   id="svg1413">
  <defs
     id="defs1407" />
  <sodipodi:namedview
     inkscape:window-maximized="1"
     inkscape:window-y="-8"
     inkscape:window-x="1912"
     inkscape:window-height="1017"
     inkscape:window-width="1920"
     showgrid="false"
     inkscape:document-rotation="0"
     inkscape:current-layer="layer1"
     inkscape:document-units="mm"
     inkscape:cy="560"
     inkscape:cx="400"
     inkscape:zoom="0.35"
     inkscape:pageshadow="2"
     inkscape:pageopacity="0.0"
     borderopacity="1.0"
     bordercolor="#666666"
     pagecolor="#ffffff"
     id="base" />
  <metadata
     id="metadata1410">
    <rdf:RDF>
      <cc:Work
         rdf:about="">
        <dc:format>image/svg+xml</dc:format>
        <dc:type
           rdf:resource="http://purl.org/dc/dcmitype/StillImage" />
        <dc:title></dc:title>
      </cc:Work>
    </rdf:RDF>
  </metadata>
  <g
     id="layer1"
     inkscape:groupmode="layer"
     inkscape:label="Layer 1">
    <g
       transform="matrix(0.5818236,0,0,0.57336501,-7.39484,-5.7658038)"
       id="g1603">
      <path
         style="fill:#000000;stroke-width:0.530652"
         d="m 68.160447,229.50359 c 0,-0.20805 0.958332,-2.11291 2.129626,-4.23303 2.375442,-4.29969 2.615429,-5.72468 1.099814,-6.53048 -1.213052,-0.64493 -8.383115,-0.68772 -11.600261,-0.0692 -1.236481,0.23771 -2.359514,0.32157 -2.495627,0.18635 -0.136114,-0.13521 2.225099,-1.86474 5.24714,-3.84339 3.022041,-1.97865 5.639828,-3.83096 5.817305,-4.11622 0.70345,-1.13072 -1.471928,-1.85462 -6.332243,-2.10717 -2.775459,-0.14422 -5.046289,-0.44232 -5.046289,-0.66246 0,-0.80511 1.985042,-1.18425 7.45369,-1.42368 5.308142,-0.23239 6.060477,-0.12371 14.90738,2.15349 5.124412,1.31903 11.677872,3.1005 14.563244,3.95883 l 5.246132,1.56059 -0.284087,-1.39794 c -0.156248,-0.76887 -0.46225,-1.85578 -0.680005,-2.41535 -0.315009,-0.80948 -0.213827,-0.94798 0.495121,-0.67772 0.490072,0.18682 0.89104,0.2532 0.89104,0.14753 0,-0.68299 -2.331772,-7.55464 -2.727874,-8.03895 -0.267739,-0.32736 -1.620264,-0.90077 -3.005612,-1.27424 -7.264406,-1.95837 -13.941722,-7.36504 -16.093471,-13.03099 -1.647795,-4.33894 -1.659208,-11.7743 -0.02543,-16.56926 3.708538,-10.88415 13.102563,-17.47643 23.93677,-16.79768 10.55022,0.66095 18.22296,6.74006 21.64594,17.15007 1.24319,3.78081 1.39391,4.96962 1.20921,9.53787 -0.17457,4.31772 -0.45712,5.7179 -1.63657,8.11005 -2.60457,5.2826 -6.88145,8.92245 -13.05414,11.10975 -1.83015,0.64851 -3.31912,1.44473 -3.30883,1.76937 0.0103,0.32465 0.46423,2.1373 1.00876,4.02813 0.91439,3.17509 1.03086,3.3368 1.52369,2.11561 l 0.53362,-1.32226 0.58724,1.48892 c 0.32298,0.81889 0.58723,2.53905 0.58723,3.82256 v 2.33366 l 5.29745,-3.44809 c 8.45925,-5.5061 15.84407,-8.53584 24.45395,-10.03262 7.58109,-1.31793 7.78266,-1.02166 1.39438,2.04952 -5.25757,2.52759 -7.73949,4.20734 -7.12238,4.82038 0.11926,0.11848 2.36954,0.49781 5.00063,0.84295 6.14304,0.80583 10.37405,2.32065 10.37405,3.7142 0,0.56089 -0.17969,1.02445 -0.39931,1.03013 -2.15486,0.0557 -12.19242,1.70538 -14.37497,2.3625 -2.2027,0.6632 -2.79513,1.07438 -2.79513,1.93998 0,1.05393 2.53573,3.7405 6.27026,6.64326 2.2002,1.71015 1.89961,2.12169 -0.51567,0.70602 -4.3557,-2.55302 -18.55639,-5.84416 -25.21644,-5.84416 -3.12978,0 -3.60894,0.14578 -4.72838,1.43865 l -1.24567,1.43864 -2.66079,-1.43864 c -2.44689,-1.323 -3.14087,-1.43865 -8.632872,-1.43865 -5.210876,0 -6.575016,0.20067 -10.702309,1.57433 -5.81194,1.93437 -9.332243,3.66429 -13.661769,6.71357 -1.830147,1.28898 -3.32754,2.17336 -3.32754,1.96531 z m 36.979513,-11.87647 c -0.16847,-0.27079 -0.68088,-0.49235 -1.13869,-0.49235 -0.67679,0 -0.7094,0.1472 -0.17446,0.78753 0.68742,0.82283 1.84659,0.56226 1.31315,-0.29518 z m 4.01578,-0.7568 c 0,-0.43635 -0.23958,-0.79336 -0.5324,-0.79336 -0.29283,0 -0.53241,0.35701 -0.53241,0.79336 0,0.43634 0.23958,0.79335 0.53241,0.79335 0.29282,0 0.5324,-0.35701 0.5324,-0.79335 z m -1.36819,-4.54699 c 0.50677,-0.46726 -0.65689,-6.74648 -1.79112,-9.66502 -0.52191,-1.34299 -0.78094,-1.48044 -2.24257,-1.19003 -0.90888,0.18057 -2.67302,0.32832 -3.920317,0.32832 h -2.267814 l 1.528251,4.84246 c 1.96833,6.23692 2.58906,6.93478 5.76806,6.48485 1.33665,-0.18919 2.65313,-0.54944 2.92551,-0.80058 z m 1.47844,-12.63294 c 3.86694,-1.18652 8.59209,-4.3156 10.73861,-7.11131 1.52738,-1.98933 3.49475,-5.93379 3.51443,-7.04623 0.0199,-1.12278 -0.96887,-0.72823 -1.1492,0.45858 l -0.17013,1.11971 -1.03496,-1.14247 c -0.97544,-1.07676 -0.97817,-1.12082 -0.0475,-0.76604 0.80112,0.30539 0.93458,0.17561 0.70729,-0.68781 -0.18354,-0.69724 0.0804,-1.28792 0.76539,-1.71289 0.66443,-0.41221 0.94759,-1.02076 0.77682,-1.66949 -0.14778,-0.56146 -0.0515,-1.02084 0.21386,-1.02084 0.90458,0 0.48541,-4.16766 -0.83761,-8.32819 -3.0176,-9.48951 -9.54098,-15.21002 -18.83857,-16.51997 -8.907478,-1.255 -17.319043,2.21791 -22.11022,9.1287 -4.065007,5.86336 -6.138844,15.77924 -3.830146,18.31353 0.555277,0.60954 0.844242,1.10825 0.642143,1.10825 -0.202098,0 -0.107419,0.48268 0.2104,1.07262 0.317818,0.58994 0.83108,0.91714 1.140583,0.72712 0.359054,-0.22045 0.441386,0.0343 0.22747,0.70387 -0.351642,1.10063 0.865515,2.5771 1.70141,2.06389 0.254131,-0.15603 0.444313,0.23999 0.422627,0.88005 -0.02627,0.77543 0.25772,1.14149 0.851134,1.09708 0.533226,-0.0399 1.022831,0.45689 1.220207,1.23812 0.211246,0.83614 0.598735,1.20219 1.078847,1.01916 0.479416,-0.18275 0.648237,-0.0242 0.468821,0.44025 -0.154373,0.39965 0.216722,0.99015 0.825724,1.31393 0.852907,0.45346 1.107972,0.43248 1.114258,-0.0917 0.0057,-0.4779 0.161397,-0.44417 0.524254,0.11362 1.083408,1.66542 0.05108,2.24191 -1.411967,0.78849 -0.441928,-0.43902 -1.023772,-0.66298 -1.292988,-0.49769 -0.269216,0.16529 -0.489484,-0.0181 -0.489484,-0.40766 0,-0.3895 -0.853182,-1.50763 -1.895959,-2.48473 -1.481891,-1.38856 -2.034198,-1.63596 -2.528931,-1.13283 -0.492416,0.50078 0.03469,1.26418 2.373771,3.43789 5.054922,4.69754 9.981829,6.51979 17.834126,6.59606 3.46197,0.0336 5.85592,-0.25562 8.28553,-1.00111 z m -9.456463,-1.64289 c -0.199758,-0.32108 -1.093881,-0.47726 -1.986939,-0.34705 -0.893059,0.13021 -2.646886,-0.0691 -3.897393,-0.44301 -1.735528,-0.51888 -2.337057,-0.53159 -2.541559,-0.0537 -0.29378,0.68654 -1.556275,-0.88861 -1.281569,-1.59895 0.215368,-0.5569 1.484264,-0.68449 1.484264,-0.14925 0,0.2426 0.847812,0.71905 1.884027,1.05878 1.455649,0.47725 2.060926,0.47185 2.662033,-0.0237 0.534459,-0.44064 0.778004,-0.45825 0.778004,-0.0562 0,0.36778 0.840707,0.50964 2.262727,0.38183 1.244498,-0.11185 2.801788,-0.22705 3.460638,-0.25599 0.85166,-0.0374 1.21577,-0.3966 1.25968,-1.24264 0.0465,-0.89552 0.12202,-0.96097 0.30524,-0.26445 0.31694,1.20483 3.25853,1.27438 3.71685,0.0879 0.23897,-0.61865 0.42848,-0.66908 0.72475,-0.19286 0.25911,0.41648 0.93007,0.51296 1.89467,0.27246 1.16531,-0.29055 1.3241,-0.47884 0.72265,-0.85684 -0.63775,-0.40082 -0.60997,-0.48587 0.16087,-0.49257 0.51244,-0.004 0.93538,-0.3056 0.93986,-0.66922 0.006,-0.47876 0.13635,-0.46006 0.47289,0.0678 0.6239,0.97853 1.63956,0.28169 1.68601,-1.15678 0.0317,-0.98302 0.0936,-1.01775 0.40778,-0.22895 0.34363,0.86273 0.45882,0.86831 1.59556,0.0773 0.69911,-0.48646 1.0992,-1.17874 0.93174,-1.61224 -0.19579,-0.50687 0.0138,-0.70865 0.62974,-0.60625 0.603,0.10024 0.89757,-0.16757 0.84927,-0.77211 -0.0407,-0.50907 0.28444,-0.92558 0.72247,-0.92558 0.44494,0 0.6762,-0.31122 0.52401,-0.7052 -0.14983,-0.38787 0.0242,-0.70521 0.38671,-0.70521 0.37111,0 0.65911,0.66474 0.65911,1.52132 0,1.00013 -0.2281,1.43436 -0.66581,1.2675 -0.62778,-0.23932 -1.55482,1.06395 -1.37087,1.92723 0.0465,0.21817 -0.29328,0.39668 -0.75504,0.39668 -0.46176,0 -1.53988,0.69571 -2.39583,1.54602 -0.85595,0.85031 -1.56388,1.26682 -1.57319,0.92558 -0.009,-0.34125 -0.36378,-0.16513 -0.78768,0.39137 -0.42391,0.5565 -1.40814,1.07933 -2.18718,1.16184 -0.77904,0.0825 -1.80218,0.31587 -2.27366,0.51857 -0.47147,0.2027 -1.48425,0.31976 -2.25061,0.26015 -0.76636,-0.0596 -1.78459,0.28024 -2.26273,0.75523 -0.47814,0.47499 -0.86934,0.60861 -0.86934,0.29694 0,-0.84196 -1.93371,-0.68576 -2.85626,0.23073 -0.55479,0.55114 -0.91487,0.61711 -1.165893,0.21361 z m -4.427048,-16.29858 1.25208,-1.0072 -2.523346,0.28254 c -4.945671,0.55378 -8.617107,-3.6939 -8.636628,-9.99218 -0.0093,-3.01196 0.177252,-3.72524 1.279792,-4.89234 0.709896,-0.75147 1.498603,-1.3663 1.752682,-1.3663 0.25408,0 2.239744,1.54025 4.412589,3.42278 2.172844,1.88254 4.509828,3.56222 5.193297,3.73263 1.157514,0.2886 1.220922,0.49804 0.925277,3.05626 -0.174568,1.51054 -0.634891,3.34145 -1.02294,4.06869 -0.902647,1.69165 -2.741693,3.70232 -3.386301,3.70232 -0.27422,0 0.06485,-0.45324 0.753498,-1.0072 z m 7.402101,-1.27541 c -0.0225,-1.221 0.92662,-3.00642 1.59824,-3.00642 0.8524,0 0.57939,1.39116 -0.53343,2.71815 -0.90934,1.08435 -1.04943,1.12227 -1.06481,0.28827 z m 5.67247,-1.4385 c -1.01587,-1.44081 -1.13627,-2.09682 -0.38485,-2.09682 0.6706,0 1.74259,2.00265 1.48419,2.77273 -0.11044,0.32916 -0.60515,0.025 -1.09934,-0.67591 z m 6.3445,0.52737 c -1.98019,-0.58867 -4.39974,-2.87911 -5.70539,-5.40093 -0.56478,-1.09086 -1.32148,-1.99181 -1.68156,-2.00212 -0.36008,-0.0103 -0.10119,-0.32387 0.5753,-0.69679 1.58627,-0.87445 3.07352,-3.13716 4.13186,-6.28621 0.46323,-1.37833 1.06076,-2.64022 1.32785,-2.8042 0.26707,-0.16398 0.35929,0.0288 0.20492,0.42847 -0.1651,0.4274 0.25218,0.96781 1.01333,1.31233 1.72793,0.78211 4.05983,5.62851 4.43204,9.21113 0.26909,2.59004 0.15444,3.02467 -1.22996,4.66283 -1.06715,1.26276 -1.24625,1.70023 -0.595,1.45333 0.51244,-0.19427 0.93171,-0.12269 0.93171,0.15908 0,0.60862 -1.28027,0.59474 -3.4051,-0.0369 z m -34.365164,9.06844 c -0.330254,-0.61302 -0.805642,-1.11458 -1.056419,-1.11458 -0.250776,0 -0.63126,-0.65452 -0.845519,-1.45448 -0.21426,-0.79997 -0.487322,-1.19411 -0.606805,-0.87587 -0.119484,0.31824 0.277846,1.72602 0.882956,3.12839 0.773353,1.79228 1.267463,2.38361 1.663224,1.99045 0.395761,-0.39316 0.384639,-0.89044 -0.03744,-1.67391 z"
         id="path1450" />
      <path
         style="fill:#000000;stroke-width:0.184788"
         d="m 88.188888,104.38862 c -1.464261,-2.94299 -2.23683,-5.062548 -2.963597,-8.130684 -0.371532,-1.568459 -0.414209,-2.208296 -0.400573,-6.005621 0.01208,-3.365451 0.08041,-4.497596 0.328245,-5.438979 0.420502,-1.597245 1.015574,-2.631025 1.716488,-2.981947 0.318837,-0.159629 0.844488,-0.513037 1.168114,-0.78535 0.323625,-0.272312 0.667854,-0.495113 0.764953,-0.495113 0.472308,0 1.85077,0.781511 6.377499,3.615678 5.546983,3.472949 8.307413,4.885449 10.602923,5.425473 2.02322,0.475967 4.62303,0.787635 6.83717,0.819645 1.479,0.02138 1.8719,-0.03753 2.49464,-0.374085 2.21166,-1.195265 3.99759,-4.363774 3.24854,-5.763396 -0.47735,-0.891934 -2.60761,-1.530761 -3.79633,-1.138447 -0.37295,0.123085 -0.71641,0.185481 -0.76323,0.138659 -0.0468,-0.04682 0.29369,-0.50647 0.75669,-1.021438 1.05173,-1.169777 2.12122,-1.617813 3.79231,-1.588686 2.96495,0.05168 4.25128,1.95453 4.24322,6.276931 -0.003,1.79669 -0.37232,3.428336 -1.10221,4.874231 -0.9883,1.957826 -1.70443,2.325277 -3.56296,1.828196 -0.45532,-0.121779 -1.15248,-0.158042 -1.63817,-0.08521 l -0.84551,0.126792 0.54152,1.7945 c 0.5132,1.700637 0.5311,1.87101 0.34218,3.257222 -0.10964,0.804497 -0.2328,1.496179 -0.2737,1.537079 -0.097,0.097 -1.81107,-0.413153 -2.34118,-0.696855 -0.22633,-0.121133 -0.94527,-0.716785 -1.59762,-1.323671 -1.2582,-1.170497 -2.46851,-1.825422 -3.42359,-1.852577 -0.4497,-0.01279 -0.71262,0.135415 -1.16151,0.654705 -0.79329,0.917698 -1.04408,1.865361 -1.19229,4.505298 -0.15493,2.75967 -0.48582,3.41789 -2.12019,4.21751 -1.48511,0.7266 -2.81015,0.61229 -4.290882,-0.37015 -1.209067,-0.8022 -5.497234,-4.26457 -6.065752,-4.89763 -0.880297,-0.980239 -2.406203,-1.374573 -3.191251,-0.824706 -0.771658,0.540496 -0.868132,0.973536 -0.965325,4.333056 l -0.09356,3.23379 z m 14.457982,-7.036956 c -0.74881,-1.966749 -0.9814,-2.144693 -0.44692,-0.341916 0.32222,1.086827 0.97308,2.474057 1.10084,2.346298 0.0435,-0.04351 -0.25076,-0.94548 -0.65392,-2.004382 z M 90.463111,92.562169 C 90.360005,91.393383 90.14362,89.939812 89.982259,89.332011 89.672178,88.164029 88.780186,86.0352 88.653823,86.161562 c -0.04107,0.04107 0.104823,0.604088 0.324196,1.251162 0.75919,2.239332 1.104669,4.403255 1.235159,7.736482 l 0.126598,3.233797 0.155402,-1.847884 c 0.09389,-1.11646 0.0812,-2.689022 -0.03207,-3.97295 z m 17.722069,2.141015 c 0,-0.04205 -0.81075,-0.510804 -1.80168,-1.041688 -0.99093,-0.530883 -2.21652,-1.265664 -2.72354,-1.632846 l -0.92184,-0.667605 0.43499,0.612828 c 0.56397,0.794522 2.10194,1.808507 3.57036,2.353943 1.19559,0.444093 1.44171,0.508174 1.44171,0.375368 z M 115.02,93.162731 c -0.003,-0.159221 -2.62305,-1.178157 -2.73693,-1.064273 -0.0414,0.04137 0.32486,0.328934 0.81385,0.639038 0.81224,0.515113 1.9288,0.762009 1.92308,0.425235 z M 92.332458,88.797273 c -0.783743,-1.054358 -2.173379,-2.959277 -3.088081,-4.233154 -0.914703,-1.273876 -1.688685,-2.291259 -1.719962,-2.260852 -0.125224,0.121742 2.261534,3.931723 3.471454,5.541481 1.103904,1.468707 2.413543,2.869538 2.682736,2.869538 0.04336,0 -0.562404,-0.862657 -1.346147,-1.917013 z M 90.33555,83.117989 c -0.381155,-0.42179 -2.090459,-1.352191 -2.22924,-1.213409 -0.04674,0.04674 0.375543,0.34847 0.93841,0.67051 0.562867,0.32204 1.071636,0.663586 1.1306,0.758989 0.05896,0.0954 0.198339,0.173461 0.309726,0.173461 0.111388,0 0.04411,-0.175298 -0.149496,-0.389551 z m -19.373388,1.320137 c 0.09798,-0.09798 0.915252,-0.391749 1.816163,-0.652822 3.278056,-0.949943 6.249907,-2.663436 8.398666,-4.842451 0.746251,-0.75676 1.411489,-1.320871 1.478307,-1.25358 0.215512,0.217041 -2.443318,2.584781 -4.208145,3.747436 -0.942645,0.621005 -2.287972,1.354332 -2.989616,1.629613 -0.701644,0.27528 -1.244658,0.531568 -1.206697,0.569529 0.03796,0.03796 1.098702,-0.268337 2.357203,-0.68066 2.575317,-0.843755 6.244314,-2.56225 8.812691,-4.127718 0.946006,-0.576604 1.85655,-1.048372 2.023433,-1.048372 0.229285,0 0.251317,-0.05211 0.09017,-0.213255 C 87.417046,77.448555 86.436772,77.283574 85.355948,77.19922 83.070614,77.020858 81.299454,76.537182 79.3582,75.561327 74.830619,73.285342 71.202284,68.67504 70.032189,63.711342 c -0.152637,-0.647505 -0.27875,-1.433039 -0.280253,-1.745632 -0.0018,-0.371072 -0.16918,-0.72385 -0.482259,-1.016336 -1.007349,-0.941085 -1.308794,-2.16478 -0.745172,-3.024975 0.278475,-0.425007 0.427393,-0.472018 1.495237,-0.472018 0.659356,0 1.241445,0.08978 1.310919,0.20219 0.06873,0.111204 0.322572,0.164414 0.564097,0.118243 0.477961,-0.09137 0.969967,0.2987 0.63662,0.504719 -0.124608,0.07701 -0.06267,0.373171 0.175815,0.840638 0.806723,1.581308 0.15931,3.077952 -1.258747,2.909882 -0.375598,-0.04452 -0.829353,-0.145226 -1.008345,-0.2238 -0.278435,-0.122227 -0.242023,0.09364 0.252102,1.494598 0.842919,2.38986 1.555861,3.691946 2.584949,4.721033 1.840042,1.840042 4.096699,2.340086 7.858588,1.741354 1.028464,-0.163688 2.589691,-0.297614 3.469395,-0.297614 1.455594,0 1.71124,0.05687 2.842168,0.632205 0.944969,0.480735 1.388022,0.845991 1.849216,1.524504 1.185734,1.744464 1.049792,1.658579 1.76355,1.11417 2.995383,-2.284689 7.978709,-3.021508 9.583261,-1.416952 1.02103,1.021026 0.58123,2.386965 -1.662688,5.164038 -1.763982,2.183104 -1.659037,3.678971 0.259153,3.693884 0.627774,0.0049 1.010895,-0.174339 2.258825,-1.056657 0.82656,-0.584393 1.96158,-1.425454 2.52227,-1.869023 0.89854,-0.71085 1.15665,-0.817506 2.17648,-0.899367 2.22527,-0.178624 3.09754,0.625804 3.09563,2.854849 l -9.3e-4,1.068468 -0.41486,-0.490761 c -0.52783,-0.62442 -1.07101,-0.895151 -1.79597,-0.895151 -0.63422,0 -1.24858,0.286477 -3.97774,1.854826 -3.205147,1.841887 -4.859729,2.384043 -6.18592,2.026938 -2.091644,-0.563222 -2.3714,-2.513939 -0.845268,-5.893982 0.360797,-0.799086 0.655995,-1.5833 0.655995,-1.7427 0,-0.159399 -0.200688,-0.52313 -0.445972,-0.80829 -0.426076,-0.495343 -0.518816,-0.518472 -2.078869,-0.518472 -2.628149,0 -2.872672,0.09641 -3.885974,1.532149 -2.529528,3.584071 -3.98801,5.037794 -5.692823,5.674236 -7.585771,2.83193 -8.421953,3.091354 -10.990061,3.409656 -1.986188,0.246175 -2.908184,0.251673 -2.672445,0.01593 z m 16.352124,-9.273992 c 1.236767,-0.695102 1.429174,-2.14822 0.35632,-2.691047 -1.053837,-0.533206 -3.210221,-0.03042 -3.686518,0.859548 -0.319222,0.59647 -0.215569,1.297262 0.262604,1.775434 0.605507,0.605508 2.04324,0.631785 3.067594,0.05607 z m -2.512074,-3.564017 c 0.914701,-0.275285 1.762733,-0.915448 1.762733,-1.330655 0,-1.000012 -3.204973,-0.715869 -4.302268,0.381427 -0.969812,0.969812 0.564972,1.543484 2.539535,0.949228 z M 72.243847,61.517725 c 0.06281,-0.101634 0.02875,-0.184788 -0.07569,-0.184788 -0.104442,0 -0.144359,-0.118665 -0.0887,-0.2637 0.07231,-0.188442 -0.0012,-0.236928 -0.257535,-0.169891 -0.253546,0.0663 -0.388263,-0.01914 -0.459467,-0.291428 -0.06793,-0.259767 -0.196588,-0.348457 -0.395024,-0.27231 -0.19245,0.07385 -0.294283,0.01218 -0.294283,-0.178226 0,-0.182884 -0.103074,-0.2516 -0.277183,-0.184788 -0.194948,0.07481 -0.277182,-0.01501 -0.277182,-0.302753 0,-0.28774 -0.08223,-0.377561 -0.277183,-0.302752 -0.168843,0.06479 -0.277182,2.92e-4 -0.277182,-0.165018 0,-0.149261 -0.127342,-0.271383 -0.282983,-0.271383 -0.15564,0 -0.330663,-0.124255 -0.388939,-0.276121 -0.142186,-0.370531 -0.436809,-0.165266 -0.436809,0.304326 0,0.220563 0.152765,0.41592 0.369577,0.472618 0.203267,0.05315 0.369577,0.21168 0.369577,0.352277 0,0.140596 0.124732,0.25563 0.277182,0.25563 0.152451,0 0.277183,0.12964 0.277183,0.288088 0,0.158449 0.07444,0.242081 0.165425,0.18585 0.09098,-0.05623 0.216417,0.03064 0.278741,0.193055 0.06461,0.168362 0.231792,0.24983 0.388939,0.189527 0.167202,-0.06416 0.275625,9.87e-4 0.275625,0.165616 0,0.167952 0.180226,0.271383 0.472877,0.271383 0.268195,0 0.423443,0.07998 0.358671,0.184788 -0.06281,0.101634 0.01053,0.184788 0.162977,0.184788 0.15245,0 0.328575,-0.08315 0.391388,-0.184788 z m -0.03885,-1.663095 c 0.0693,-0.264989 0.0057,-0.369577 -0.224832,-0.369577 -0.453243,0 -0.599892,0.200723 -0.358846,0.491166 0.288201,0.34726 0.471031,0.309174 0.583678,-0.121589 z m -1.716638,-1.293519 c 0,-0.246384 -0.123192,-0.369577 -0.369576,-0.369577 -0.418862,0 -0.473612,0.191627 -0.147831,0.517408 0.325781,0.325781 0.517407,0.27103 0.517407,-0.147831 z m 14.228705,23.206711 c 0,-0.310594 2.967601,-2.325626 3.425021,-2.325626 0.482005,0 0.2881,0.495683 -0.457368,1.169169 -0.838525,0.757556 -1.51562,1.134534 -2.367091,1.317901 -0.477913,0.102918 -0.600562,0.06995 -0.600562,-0.161444 z m 4.107492,-11.888424 c 1.100023,-2.552341 4.690557,-5.40041 7.558329,-5.995388 1.390813,-0.288553 2.305249,0.06338 3.959775,1.52396 1.46511,1.293376 2.3291,1.628788 3.38258,1.313157 1.03538,-0.310205 1.50683,-0.748664 2.75784,-2.564806 0.6146,-0.892243 1.58155,-2.076706 2.14879,-2.632141 0.89734,-0.878676 1.06479,-0.974708 1.28889,-0.739154 0.22225,0.233613 -0.0304,0.752065 -1.84261,3.781707 -2.43357,4.068335 -3.22445,4.941492 -4.76574,5.261462 -1.38947,0.288451 -2.31537,0.03267 -5.083037,-1.404181 -2.862,-1.485828 -3.635711,-1.628353 -5.054342,-0.93106 -0.53572,0.263321 -1.659803,1.02233 -2.49796,1.686689 -1.688486,1.338362 -2.213163,1.53655 -1.852515,0.699755 z"
         id="path1448" />
      <ellipse
         style="fill:#000000;fill-opacity:0;stroke:#000000;stroke-width:0.264583"
         id="path1443"
         cx="96.333542"
         cy="77.636292"
         rx="40.569447"
         ry="32.883926" />
      <path
         id="rect1445"
         style="fill:none;fill-rule:evenodd;stroke:#000000;stroke-width:0.264583;stroke-opacity:1"
         d="m 97.139865,20.410716 c 30.448095,37.041665 57.709845,32.237486 87.312485,46.113095 m 0,0 -19.65476,221.494069 -120.1964,4.53571 -31.75,-272.142874 c 35.655749,-16.6309526 58.611934,-10.271161 84.288675,0"
         sodipodi:nodetypes="ccccccc" />
      <g
         id="g1582"
         transform="matrix(1.5042468,0,0,3.0381987,-24.203231,-492.99158)"
         style="fill:none;stroke:#000000;stroke-linecap:round;stroke-linejoin:round"
         inkscape:label="Hershey Text">
        <g
           id="g1580"
           transform="translate(72.5714,250.976)">
          <path
             id="path1574"
             transform="scale(0.0176389,-0.0176389)"
             style="stroke-width:0.155in"
             d="M 220,662 V 0 m 32,630 V 0 h -32 m 0,662 h 252 l 95,-32 31,-32 32,-62 V 441 L 598,378 567,346 472,315 H 252 m 0,315 h 220 l 95,-32 31,-62 V 441 L 567,378 472,346 H 252 M 410,315 598,0 h 32 M 441,315 630,0" />
          <path
             id="path1576"
             transform="matrix(0.0176389,0,0,-0.0176389,11.1125,0)"
             style="stroke-width:0.155in"
             d="M 220,662 V 0 h 32 m -32,662 h 32 V 0" />
          <path
             id="path1578"
             transform="matrix(0.0176389,0,0,-0.0176389,16.122,0)"
             style="stroke-width:0.155in"
             d="M 220,662 V 0 m 32,630 V 0 h -32 m 0,662 h 284 l 63,-32 31,-32 32,-62 V 441 L 598,378 567,346 504,315 H 252 m 0,315 h 252 l 63,-32 31,-62 V 441 L 567,378 504,346 H 252" />
        </g>
      </g>
    </g>
  </g>
</svg>
